<svg version="1.0" xmlns="http://www.w3.org/2000/svg" width="808" height="760" viewBox="0 0 606 570"><path d="M283.5.7c-57.9 2.4-115.2 24-163.2 61.5-19.3 15-50.3 48-50.3 53.4 0 1.1.9 2.9 2 3.9 3 2.7 5.9 1.2 11.9-6.5 25.5-32 62.1-60.4 99.8-77.5 51.6-23.3 108-30.2 163.9-19.9C422 29.2 489.4 75.2 530 140.2c8 12.8 18.7 34.2 23.4 46.9 3.1 8.4 8.1 24.6 11.5 37.6 1.3 4.8 4.3 6.3 8.1 4.3 2-1.1 2.2-1.8 1.7-6.4-.8-7.3-6.9-27.6-12.8-42.4C530.8 102 466.1 41 386.5 14.7c-13.8-4.6-32.7-9.1-47-11.2C328 1.8 302.8-.1 295 .2c-2.5.1-7.6.3-11.5.5z"/><path d="M291.5 36.7c-1.6.2-4.7.9-6.7 1.4-3.5.9-3.8 1.3-3.8 4.5 0 1.9-1.3 6.1-2.9 9.3-17.6 34.9-44.2 102.7-53.6 136.9-2.8 10-2.9 10.2-4.8 8.5-3.1-2.9-11.1-2.4-18.1 1.1-17.2 8.4-31.3 34.1-30.5 55.2.3 6.9.2 7.5-2.6 10.5-1.7 1.7-5 4.5-7.4 6-13.6 8.7-14.9-3.5-2.9-26.1 7.9-14.8 8.7-16.5 9.6-20.6 1.2-5.6-.3-10.1-4.1-12.4-1.8-1.1-4.3-2-5.7-2-3.9 0-11.9 4.2-19 9.9-6.1 4.9-6.5 5.1-7 3-.3-1.2-1.8-3.2-3.4-4.3-2.4-1.9-4.1-2.1-14.2-2-6.3 0-11.4-.1-11.4-.4 0-.2 1.8-7.7 3.9-16.5 4.9-19.9 6.4-30.4 5.9-40.1-.4-9-2.2-12-9.3-15.5-4.3-2.2-6.2-2.5-16.4-2.5-13.1 0-23.2 1.9-34.3 6.5-7.2 2.9-20.8 10.8-20.8 12 0 .3 1.7 4.4 3.9 9 7.9 17.2 16.1 46.6 16.1 57.7 0 3.6-.2 3.8-8.4 8C21.5 245.1 5 262.4.9 278.3c-1.7 6.9.1 14.1 4.7 19.6 4.6 5.4 8.1 7.1 14.4 7.1 6.7 0 13.1-3.3 19.6-10.1 11.4-12.2 18.1-30 20.9-56.1l.6-5.7 8.2-2.9c4.5-1.6 9.5-3.2 11.1-3.6 2.8-.7 2.8-.7 2.2 3.1-.4 2.1-3.2 13.8-6.1 26-5.1 20.5-8.1 36.3-8.7 45.6-.3 3.6-.6 3.9-6 6.1-17.1 6.9-37.8 29.3-48.7 52.7-6.2 13.1-8.5 23.4-8.4 36.4.1 24.8 8.3 41.1 24.6 48.9 7.1 3.4 15.7 5.6 15.7 3.9 0-.4-1.5-5.1-3.4-10.3-5.3-14.9-7-24.6-7-40 0-15.3 1.3-24.3 5.6-38 5.4-17.3 16-34 25.9-41l2.9-2.1 3.4 3.5c2.3 2.5 4.2 3.6 6.2 3.6 2.9 0 2.9 0 2.9-6.2v-6.3l4-1.4c2.7-1 8.5-1.5 17.5-1.5 14.3-.1 17.2.6 22.8 5.8 5.3 4.7 6.7 9.3 6.6 20.6-.1 11.7-2.7 21.6-8.9 34-10.1 20.3-13.3 43.6-7.2 52.8 3.2 4.9 13.2 11.1 23.2 14.3 6.1 2 7 2.1 9.4.8 2.3-1.3 2.8-2.8 5.7-16.9 6-30 13-52 22.7-71.9 4.8-9.7 6.9-12.3 8.5-10.6.4.4.7 14 .7 30.3 0 26.4.2 30.3 1.9 35.1 2.6 7.4 8.6 13.4 15.5 15.5 10.6 3.1 12.1 1.9 14.1-10.4 2.9-18.4 9.2-40.6 16.1-56.3 4.8-11.1 14.4-25.6 24.5-36.7 9.6-10.7 13.4-15.8 13.4-18 0-3.6-13.4-6.8-21.1-5.1-5.9 1.3-7.6 3.6-16.4 21.6-12.9 26.5-20.9 48.8-23.8 66-1.6 9.6-3.6 11-6.1 4.3-3.5-9.7-4-15.9-4.1-49.2v-32.9l-3-1.3c-6.2-2.7-16.8-1.2-17.9 2.5-.3.9-1.2 6.1-2 11.6-2.1 14.1-5.6 24.4-15.1 44.5-4.5 9.6-10.4 23.1-13 30-5.6 14.9-6.2 16-8 16-2.1 0-3.5-6.4-3.5-16.7 0-7.6.7-12 4.1-25 3.5-13.2 4.2-17.4 4.2-25.3 0-19.2-8.3-30.5-26.6-36.2-7.5-2.3-22-3.3-30.6-2l-6.3.9.6-5.1c1.8-13.7 14.9-69.2 16.9-71.2.9-1 7.4 2.4 9.1 4.7 2.9 4.2 1.9 10.4-6 37-4.2 14.1-4.4 18.7-.9 21.9 2.5 2.3 8.6 3.8 13.5 3.2 2.4-.3 2.5-.5 2.2-7.1-.4-8.3 1.6-19.6 6.3-35.7 3.1-10.6 3.9-12.3 7.2-15.1 5.5-4.6 13-8 15.1-6.7 2.7 1.7 2.6 8.5-.2 18.2-4.5 15.2-5.2 25.9-2.3 31.7 1.4 2.8 2.7 3.5 6.7 3.5 4.5 0 10-2.6 17.7-8.4l6.3-4.6 3.2 2c4.1 2.5 10.7 2.6 15.5.3 4.7-2.2 12.1-9.6 16.8-16.7l3.9-5.8 1.7 6.2c1.8 6.7 5.1 11 8.3 11 6.5-.1 19.5-10.5 28.1-22.5 4.2-5.8 12.1-20.9 14.3-27.4.9-2.6 1.6-3.1 4.5-3.1 3.1 0 9.3-1.6 13.9-3.5 1.5-.6 1.2.5-1.3 5.9-7.7 16.4-8 30.9-.7 36 5.1 3.6 20.9.7 32.5-6 2.3-1.3 4.4-2.4 4.7-2.4.3 0 1.8 2.3 3.2 5.2 3.4 6.7 12.5 15.8 18.9 18.8 2.8 1.3 5.2 2.5 5.4 2.6.2.2-1.8 3.4-4.3 7.3-11.4 17.2-21.5 46.6-25.1 73.6-.9 6.6-2 12.3-2.3 12.6-7.2 6.8-21.6 18.8-25 21-4.8 3-8.6 3.7-9.8 1.7-1.6-2.5-.2-9.3 4.7-23 10.3-28.9 11.8-34.9 10.5-40.3-1.6-6.1-13.5-8.5-22.5-4.5-3.5 1.6-4.2 2.3-3.5 3.7 2.7 6.1 1.4 16.8-4.3 34.8-8.8 28.1-10 44-3.7 48.2 5.9 3.8 15.4-.3 31.8-13.7 17.2-14.3 20.7-17 21.6-17 .4 0 1.1 1.9 1.5 4.2 1.9 11.1 7.4 14.3 17.2 9.9 6.6-3.1 13-9.7 21.6-22.6 9.3-13.9 21.5-30.5 22.5-30.5.4 0 2 2 3.5 4.5l2.9 4.5-6.1 6.6c-7.2 7.8-11.6 16.1-10.5 19.6 1.1 3.6 3.4 4.7 9.5 4.8 11 0 18.8-4.4 22.7-12.8 2.2-5 2.4-6.3 1.9-14.3l-.6-8.9 9.2-8.1c5-4.4 10.4-9 11.9-10.1l2.8-1.9v8.9c0 14.1 4.3 25.2 11 28.7 4 2.1 10.3 1.9 14.8-.4 7.6-3.9 19.3-18.1 25.9-31.5l2.7-5.6h5.6c3-.1 7.4-.5 9.8-.9 3.1-.6 4.2-.5 4.2.4 0 .7-1.6 5.6-3.6 10.8-2.8 7.4-3.5 10.4-3 13.1 1.2 6.1 9.6 11.6 17.9 11.6 2.4 0 2.7-.4 2.7-3.4 0-5.5 2.7-17.1 7-30 4.1-12 12.3-32 14.3-34.4 1.8-2.3 12.5-7.2 15.5-7.2 1.5 0 3.3.5 4 1.2 2.2 2.2 1.3 9.5-2.3 19.1-5.5 14.7-7.8 24.9-7.3 33 .3 6.2.7 7.2 3.3 9.4 2.5 2.2 3.6 2.5 8 2 10.4-1.1 27.9-10.7 40.3-22.2 10.6-9.8 11.5-14.5 2.8-14.5-5.4 0-8.8 2.4-17 12.2-8 9.4-12.4 12.8-18.4 14.3-5.7 1.5-8 .9-9.4-2.1-2.5-5.4 4-21.7 14.7-37.3 7.6-11.2 10.5-17.5 10.5-23.4 0-6-1-7.9-5.6-10.7-6.2-3.9-14.8-1.6-28.3 7.4-2.9 2-5.5 3.6-5.7 3.6-.2 0-.4-.9-.4-2.1 0-7.9-12.1-10.2-26.3-4.9l-5.5 2.1 1.6 3.2c2.8 5.4 2.1 14.7-1.8 26.6-3.1 9.3-3.9 10.8-7.4 13.3-4 2.9-12.2 5.8-16.3 5.8-2.7 0-2.7.3-.7-5.1 1.1-2.8 1.7-7.8 1.8-13.9.1-8.1-.3-10.2-2.2-14.2-3.1-6.3-7.8-9.2-13.7-8.6-8.3 1-13.8 7.8-15.1 19.1l-.6 5.4-5.7-.1c-6.8-.1-13.8 3.5-17.1 8.8-1.1 1.9-6.6 6.7-12.3 10.7-5.6 4-12 8.8-14.3 10.6-2.3 1.8-4.5 3.3-5 3.3-.8 0-6.4-9-6.4-10.3 0-.2 3.4-3.2 7.4-6.5 6-4.9 7.6-6.8 8.2-9.6.8-4.5-1.8-9.1-6.6-11.8-7-3.9-22 .4-27.7 7.9-4 5.2-4.4 13.8-1.1 22.1l2.5 6.1-5.5 5.8c-3 3.2-9.3 10.3-14 15.8-12.5 14.6-18.4 20.5-20.5 20.5-3 0-5-6.4-4.2-13.3 1.8-16.3 16.3-52.6 27.9-70.1 9.6-14.4 11.9-16.5 21.5-19.2 23.3-6.8 36.2-17.4 29-24-2.6-2.3-14.7-3.2-21.7-1.5-7.7 2-20.3 8.6-27.4 14.5-3.6 3.1-7 5.6-7.5 5.6s-3.1-1.4-5.7-3.1c-5.7-3.8-12-12.4-14.3-19.5l-1.6-5.3 3.4-2.7c9.1-7.3 21.2-21.2 26.6-30.5 3.3-5.7 6.3-14.7 6.3-18.7 0-8.2-7-13.8-16.1-13-13.8 1.4-27.1 15.3-33.5 35.3-2.2 6.8-2.5 9.5-2.2 17.4l.3 9.4-4.5 2.3c-2.5 1.3-6.8 2.9-9.7 3.5-4.5 1-5.5 1-7.8-.5-3.9-2.6-4.9-6.1-3.6-12.9 1.6-9.3 7.6-20.3 14.6-27.2 7.4-7.2 9.9-10.9 9.1-13.1-.8-2.2-4.7-1.4-14.8 3.2-11.2 5-20.2 5.7-27.9 2-6.2-2.9-10.1-3.3-11.8-1.2-2 2.4-2.4 8.3-1.1 14.4 1.2 5.6 1.1 6.1-1.9 13.4-7.9 19-23.1 37.6-28.8 35.3-3.8-1.4 1-26.2 10.8-56.4C256.2 141.5 282 90.8 308 58.4c8.1-10.2 8.8-12.9 4-17.4-4.2-4-11.6-5.5-20.5-4.3zM84 168.9c4.5 3.2 5.2 5.7 4.5 17.1-.4 5.8-1.4 15.6-2.3 21.9l-1.7 11.4-9.8 2.3c-5.4 1.3-10.6 2.8-11.7 3.4-1.7.9-1.9.4-2.5-5.8-1-11.3-2.5-20.3-5.2-30.7-3.6-14.2-3.8-13.4 3.7-17.2 10.5-5.4 19.5-6.2 25-2.4zm265.3 23c6.3 2.4 3.7 9.3-8 20.8-4.5 4.5-9.2 8.7-10.3 9.3-1.9 1-2 .8-2-5.3 0-11.5 4.2-20.6 11.2-24 3.8-1.9 5.7-2.1 9.1-.8zM216.5 211c1.7 1.9 1.7 2.5.1 12.7-2.5 15.9-7.7 25.9-16.4 31.4-10.3 6.5-13.4 1.6-9.6-15.4 3-13.4 9.4-24.3 16.9-28.9 3.9-2.3 6.8-2.3 9 .2zM52.4 242.7c-3 24.8-18.3 44.1-30.8 38.9-13-5.4-3-23.8 20.6-38 5.1-3.1 9.6-5.6 10-5.6.4 0 .5 2.1.2 4.7zM409 249c0 2.8-12.4 9-27 13.5-2.2.7-2.3.6-1.1-.9 2-2.4 13.9-10 18.6-11.9 4.5-1.8 9.5-2.2 9.5-.7zm64.5 37.6c2.4 1 4.5 5.8 4.5 10.7 0 5.8-2 15.7-3.2 15.7-.6 0-2.5-.7-4.4-1.6-3.9-1.9-7.1-5.9-8.5-10.6-2.5-8.8 4.2-17 11.6-14.2zM403 303.5c0 1.8-1.6 3.7-6.2 7.4-5.6 4.5-6.4 4.8-7.5 3.4-2.2-2.9-1.5-6.3 2.1-9.9 2.8-2.8 4.2-3.4 7.5-3.4 3.7 0 4.1.2 4.1 2.5zm65.5 12.7c2.7.7 4.5 1.8 4.5 2.6 0 2.6-6.1 12.1-10.6 16.7-5.3 5.2-11.4 7.6-14 5.4-2.9-2.4-1.4-11.9 3.6-23.1l4.3-9.7 3.9 3.4c2.1 2 5.8 4.1 8.3 4.7zM391 354.6c0 3.1-1.5 6.1-4.8 9.6-2.8 3-5.2 3.7-5.2 1.4 0-1.8 7.9-13.6 9.1-13.6.5 0 .9 1.2.9 2.6z"/><path d="M297.1 268.1c-2.7 1.1-12.8 8.3-17.8 12.6l-3.2 2.8 1.9 5.5c1.1 3 2 6.6 2 8 0 1.4 1.1 4.5 2.3 7 1.8 3.7 2.9 4.7 6 5.4 11 2.8 22.7-12.4 21.4-28-.7-8.7-3.3-13.8-7.2-14.1-1.6-.1-4.1.2-5.4.8zm254.1 123.6c-.7.3-4.4 6.8-8.3 14.5-8.8 17.6-15.9 29-27.3 44.3-10.5 13.9-33.8 37.9-47.6 48.7-38.7 30.6-82 49.3-131.5 57-17 2.6-54.4 3.1-71.5 1-78.6-9.9-146.4-50.8-193.2-116.5-3.6-5-5.4-6.7-7.1-6.7-3.3 0-6.1 3.3-5.3 6.2 1.2 4.6 20.4 28.7 34.1 42.7 16 16.4 29.6 27.7 47.5 39.6 38.7 25.6 81.3 40.7 128.3 45.5 15.4 1.6 55.5.8 69.2-1.4 64-10.2 119-38.4 162.6-83.3 14.2-14.7 22.6-25.1 33.7-41.8 8.3-12.4 24.2-42.1 24.2-45.1 0-1.8-3.6-5.4-5.2-5.3-.7 0-1.9.3-2.6.6z"/><path d="M196.4 434.1c-1.7 1.9-1.9 3.8-1.9 16.8 0 15.4.5 19 3.1 21.5 2.5 2.6 7.9 2 10.3-1 2.8-3.6 2.8-8.4.1-8.4-1.5 0-2 .7-2 2.9 0 5.8-5 6.4-6.9.9-1.4-4-1.4-27.3-.1-29.9.6-1 1.9-1.9 3-1.9 2.5 0 4 2.9 4 7.9 0 3 .4 4.1 1.5 4.1 2.4 0 2-9.1-.6-12.4-2.6-3.3-7.7-3.6-10.5-.5zm42-.7c-1.7 1.3-1.9 3-2.2 18.1-.4 18.9.2 20.9 6.3 22.1 4.1.7 9-1 10-3.4 1.2-3.1 1.8-16.8 1-25.6-.8-10.6-2.3-12.6-8.8-12.6-2.4 0-5.2.6-6.3 1.4zm9.2 3c1.7 1.3 1.9 2.9 2.2 14.6.4 15 0 17.5-2.9 19-1.6.9-2.6.8-4.5-.5-2.4-1.5-2.4-1.8-2.4-15.8 0-11.3.3-14.7 1.6-16.5 1.8-2.6 3.3-2.8 6-.8zm32.4 16.1c0 19.8.1 20.5 2 20.5s2-.7 2-10v-10h3.5c2.4 0 3.5-.5 3.5-1.5s-1.1-1.5-3.5-1.5H284v-13.9l4.2-.3c3.1-.2 4.4-.8 4.6-2.1.3-1.5-.5-1.7-6.2-1.7H280v20.5zm38 0c0 19.8.1 20.5 2 20.5s2-.7 2-10v-10h3.5c4.6 0 4.9-2.7.3-3.2l-3.3-.3-.3-6.8-.3-6.7h3.9c3.6 0 6.2-1.4 6.2-3.2 0-.4-3.1-.8-7-.8h-7v20.5zm39-6.2c0 7.9-.3 17.2-.6 20.6l-.7 6.1h7.2c5.5 0 7.1-.3 7.1-1.4 0-1.1-1.4-1.6-4.7-1.8l-4.8-.3-.3-7.4c-.3-8.1.2-9.1 5.1-9.1 1.7 0 2.7-.5 2.7-1.5 0-1.1-1.1-1.5-4-1.5h-4v-13.9l4.8-.3c3.4-.2 4.7-.7 4.7-1.8s-1.5-1.6-6.2-1.8l-6.3-.3v14.4zm39-14.1c0 .2-.2 9.4-.4 20.5l-.4 20.3h6.9c5.3 0 6.9-.3 6.9-1.4 0-1.1-1.4-1.6-4.7-1.8l-4.8-.3-.3-7.4c-.3-8.1.2-9.1 5.1-9.1 1.7 0 2.7-.5 2.7-1.5 0-1.1-1.1-1.5-4-1.5h-4v-14h4.5c3.8 0 4.5-.3 4.5-2 0-1.8-.7-2-6-2-3.3 0-6 .1-6 .2z"/></svg>