<svg version="1.0" xmlns="http://www.w3.org/2000/svg" width="1064" height="1062.667" viewBox="0 0 798 797"><path d="M364.5 2.1c-34.6 3.6-58.2 8.6-90.5 19.1-10.2 3.4-18.9 6.4-19.5 6.8-.5.4-3.9 1.8-7.5 3-9 3.1-30.3 13.4-43.5 20.9C137.2 89.8 84.3 143.8 47.8 211c-2 3.6-5 9.9-6.8 14-1.8 4.1-4.8 10.6-6.6 14.4-1.9 3.8-3.4 7.3-3.4 7.8 0 .4-.9 2.7-2 5.1-2.8 6.1-12.7 36.1-15.5 47.2C.9 349-2.2 398 4.1 449.5c1 8.2 6.6 37.9 8.8 46.5 6.9 27.5 16.1 51.8 30.8 81C82.8 655.2 145 716.9 224 755.9c36.6 18.1 72.6 29.6 112.5 36.1 3.9.6 8.4 1.3 10 1.6 10.1 1.7 36.7 3.4 52.5 3.4 16 0 42.9-1.8 52.5-3.4 1.7-.3 7.3-1.3 12.5-2.1 39.8-6.5 72.8-17.2 110-35.6 69.9-34.5 126.6-86.7 167.2-153.9 7.9-13.1 22.5-42.4 26.8-54 .7-1.9 1.6-4 2-4.5 1.3-1.8 12.8-37.8 14.9-46.5 6.1-24.9 8.2-37.4 11.1-65.2 2.1-20.2.8-67.6-2.4-87.3-.3-1.7-1-6.2-1.6-10-3.1-19.2-11.9-54.2-16.1-64-.5-1.1-2.7-7-4.9-13-4.8-13.1-7.3-18.6-16.1-36.5-32-64.4-84-121.4-146.4-160.3-21.2-13.2-52.8-28.7-73-35.7-3.3-1.1-6.9-2.4-8-2.9-9.6-4.1-44.8-13-64-16.1-3.8-.6-8.3-1.3-10-1.6-19.3-3.1-68.7-4.4-89-2.3zm89 13.9c.7 2.1 3 2.7 4 1 .9-1.5 4.5-1.2 4.5.3 0 2.7-2.7 5-5.8 5-4 0-6.2-1.9-6.2-5.4 0-3.4 2.5-4 3.5-.9zm-63.1 22.2c.3 8.4.9 18.1 1.3 21.5l.6 6.3H386V48h-5c-6.6 0-7.6-1.7-8.4-14.3L372 24h2.4c2.2 0 2.5.5 3 5.2.4 2.9.7 7.3.9 9.8.2 4.3.3 4.5 3.6 4.8l3.4.3-.6-10c-.3-5.5-.2-10.2.1-10.5.3-.3 1.5-.6 2.7-.6 2.1 0 2.2.5 2.9 15.2zM419.1 25c.4.8 1.9 9.4 3.4 19s2.9 18.7 3.2 20.1c.3 1.8 0 2.8-1.1 3.2-3.2 1.3-4.4-.3-5.1-6.9l-.7-6.4H415c-4.2 0-3.9-.4-5.6 9.2-.5 3.1-1 3.8-3 3.8-3.2 0-3.5-1-1.9-6.4.8-2.7 3-11.7 4.9-20.2 1.9-8.4 3.7-15.8 4.1-16.4.9-1.5 4.6-.8 5.6 1zm29.1 1.5c.2.3-.6 6.7-1.8 14.2-1.2 7.6-2.1 13.9-2 14 0 .1 3.4-5.7 7.4-12.8 6.4-11.3 7.6-12.9 9.9-12.9 2.2 0 2.5.3 2 2.7-.3 1.6-1.6 10-2.7 18.8-3 22-2.6 20.5-5.5 20.5-3 0-3 .1-.6-15.5 1-6.6 1.8-12.1 1.7-12.2-.1-.1-3.3 5.6-7.1 12.7-5.5 10.2-7.4 13-9.1 13-1.1 0-2.3-.2-2.5-.5-.3-.2.7-9.1 2.2-19.7 1.6-10.6 2.8-20.1 2.8-21.1.1-1.1.9-1.7 2.4-1.7 1.3 0 2.6.2 2.9.5zM339.8 39.6c4.9 3.4 6.6 10.9 3.7 16.4-1.9 3.8-6.3 6-11.6 6-3.3 0-4.7-.6-7.5-3.4-3-3-3.4-4-3.4-8.6s.4-5.6 3.4-8.6c2.9-2.9 4.1-3.4 8.3-3.4 2.8 0 5.8.7 7.1 1.6zM291 59c3.1 9.1 6.3 17.8 6.9 19.4.9 2.3.9 3.1-.1 3.8-3.5 2.2-4.3.8-11-18.9-3.6-10.9-6.4-20.1-6.1-20.6.3-.4 1.4-.7 2.5-.5 1.7.2 3.1 3.4 7.8 16.8zm217.6-11.4c4.2 2 6.4 5.9 6.4 11.4 0 3.2-.7 4.8-3.2 7.5-7.8 8.4-20.8 3.4-20.8-8 0-9.7 8.7-15.1 17.6-10.9zm-240.5 8.1l2.5 7.8 5.1-.3c5.8-.4 6.6.4 10.3 10.5 2.9 8.1 2.3 10.9-3.3 13.3-8.2 3.6-7.3 4.6-15.3-17-7.3-19.7-7.6-22-3.5-22 1.2 0 2.4 2.2 4.2 7.7zM557 57.5c6.5 3.3 7.1 5.6 3.6 13.9-4.3 10.1-6.5 11.5-14.1 9.1-1.8-.5-2.5.4-5.4 6.9-2.8 6.3-3.7 7.6-5.7 7.6-1.2 0-2.5-.4-2.9-1-.3-.5 1.6-5.3 4.3-10.7 2.7-5.4 6.6-14 8.7-19.1 2.2-5 4.5-9.2 5.2-9.2.8 0 3.6 1.1 6.3 2.5zM246 59c0 1.1-1.1 2.2-3.1 2.9l-3.1 1.1 9 17.4c6.6 12.8 8.7 17.7 7.9 18.5-2.8 2.8-4.4.7-12.6-15.9-4.6-9.4-8.8-17-9.3-17s-2.2.7-3.9 1.5c-3.2 1.7-4.9 1.3-4.9-1.1 0-1.4 17.9-10.5 19.3-9.7.4.2.7 1.2.7 2.3zm338.4 12.6c.9.3 1.6 1.6 1.6 2.8 0 3.1-12.4 39.9-13.6 40.3-.5.2-1.8-.3-2.7-1-1.7-1.2-1.7-1.6.4-7.1l2.3-5.9-2.3-1.8c-3.4-2.7-4.2-2.4-8.1 3.1-3.5 5.1-5.5 5.8-7.3 2.9-.8-1.3.6-3.4 6.9-10.6 4.3-4.9 10.4-12.2 13.4-16.1 5.5-7.1 6.4-7.7 9.4-6.6zm-369.2 4.3c.4.3 2.3 3.3 4.2 6.5 4.5 7.5 4.8 11.8.9 14.3-1.6.9-3 1.8-3.2 2-.2.1 1.7 3.6 4.2 7.8 4.2 6.7 4.5 7.6 3.1 9-.9.8-2.1 1.5-2.7 1.5-.7 0-3.4-3.9-6.1-8.8-2.7-4.8-7.6-12.9-10.9-18.1-5.9-9-6-9.4-4.1-10.8 5.5-4.3 12-5.8 14.6-3.4zm398 14.1c2.4 2.4 2.9 3.6 2.4 5.6-1.1 4.1-5.7 10.4-8.1 11-1.7.4-2.1 1.1-1.7 3.3.5 3.4-1.4 7.1-6.3 12.8-2.9 3.5-4.3 4.3-7 4.3-6.9 0-11.8-7.4-8.1-12.3 1.5-1.9 2.4-2.1 4.5-.8 1 .7 1.1 1.3.1 3-.9 1.7-.9 2.6.1 3.7 2 2.5 4.8 1.5 7.9-2.7 3.9-5.5 4.5-7.7 2.6-9.8-.9-1-1.6-2.5-1.6-3.4 0-1.7.9-2.1 4.7-1.8 4.3.4 9.6-10.3 5.7-11.6-.6-.2-2.4.7-4 2s-3.5 2.2-4.1 2c-2.2-.8-1.4-4 1.3-6.2 3.9-3 8-2.7 11.6.9zM442 91.9C518.1 103.1 582.2 138 633.4 196c12.3 13.9 17.3 20.4 25.8 33.5 10.1 15.5 17.7 29.6 23.8 44 2.4 5.5 4.8 11.3 5.5 13 2.9 6.7 8.8 25.7 11.5 36.7 10.5 42.8 9.8 73.3-2.2 97.3-4.5 8.9-11 17.6-17.5 23.4-7.5 6.7-12.9 9.3-18.5 8.9l-4.3-.3v-7c0-6.2.5-8 4.2-15.7 2.3-4.8 7.3-13.5 11.2-19.3 7.5-11.3 10.8-19.5 9.7-24-.9-3.6-5.8-8.2-9.6-9-4.3-.9-11.7 1.8-20.5 7.6-4.2 2.7-7.9 4.9-8.3 4.9-.5 0-1.4-1.5-2-3.4-2-5.3-6.9-7.2-15.2-5.8-9.4 1.6-14.4 3.8-13.4 6 .4.9.9 5.1 1.2 9.2.3 6.6-.1 8.9-3.3 18.8-3.3 10.3-3.9 11.5-7.5 13.8-4.3 2.9-11.9 5.4-16.3 5.4-2.5 0-2.9-.3-2.4-2.3 3.1-13.2 3.7-17.6 3.2-21.1-1-6-5-14.2-7.8-16.1-9.7-6.3-21.3 2.4-22.5 17l-.4 5.4-5.7-.1c-3.3 0-6.9.6-8.7 1.5-3.5 1.8-9.1 7.3-9.9 9.6-.3.9-2.6 2.9-5.2 4.6-2.7 1.6-9.5 6.5-15.1 10.7-5.7 4.3-10.7 7.8-11 7.8-1 0-6.2-9.7-6.2-11.5 0-.8 3.1-3.9 6.9-7 9.9-8 11.1-12.5 4.9-18.3-8.2-7.6-25.4-2.7-31.4 8.9-2.4 4.7-2.1 10.4 1.1 18.4l2.7 6.7-7.9 8.2c-4.4 4.4-12.2 13-17.4 19.1-11.2 13.2-12.6 14.4-16.1 14.5-5.3 0-6-10.8-1.7-26.9 6.7-25 24.5-60.7 35.7-71.4 1.8-1.7 5.5-3.5 10.2-4.8 13.7-3.8 27-10.9 30.6-16.4 4.8-7.4-7.3-11.8-22-8-8.3 2.2-20.2 8.6-26.8 14.5-3.5 3.1-6.5 5-8.1 5-2.8 0-9.1-4.3-13.1-9.1-3.5-4.1-8.6-14.6-8.6-17.5 0-1.4 2.4-4.4 7-8.4 13.9-12.3 27.1-32 28.5-42.5 1.2-8.1-5.4-14.9-14.1-14.7-13.1.2-27.3 15-34.4 36.2-1.9 5.6-2.1 7.8-1.6 16.1l.6 9.7-3.5 1.6c-18.8 9-27.4 4.4-23.1-12.2 2.7-10.7 8-19.8 16.2-27.8 11.4-11.1 9.3-13.5-5.8-6.7-7.2 3.3-9.5 3.8-17.4 4.1-8.3.3-9.6.1-14.3-2.3-6.3-3.1-8.6-2.6-10.2 2.2-.9 2.8-.9 5.1.1 10.4 1.5 7.9.8 10.7-6.2 23.9-8.1 15.3-18.6 26.6-24 25.8-2.2-.3-2.3-.7-2.2-7.8.2-13.4 10.3-49 23.1-81.4 16.3-41.3 34.9-75 56.7-102.9 4.2-5.4 7.6-10.7 7.6-11.8 0-3-5.2-7.4-10.5-8.9-4.7-1.3-11.8-.9-18.7 1-3.4 1-3.8 1.4-3.8 4.5 0 2.2-3 9.9-8.6 21.7-19.8 42.1-38.6 91.3-48.8 128-1.4 4.8-1.9 5.5-3.6 5.1-1.1-.3-2.3-.9-2.6-1.4-1.2-2.1-9.5-.9-15.7 2.2-17.3 8.8-31.9 35.4-30.3 55.5l.6 7.2-4.4 4c-7.2 6.6-13.5 8.9-16.4 6-3.4-3.4.4-18.4 7.8-30.9 8.6-14.5 10.4-20.6 7.9-26.3-1.2-2.6-6.3-5.6-9.6-5.6-3.1 0-11.4 4.6-18.2 10-3.4 2.8-6.4 5-6.4 4.8-3.9-8-6.4-9-19.9-8.3-8.2.5-9.8.4-9.8-.9 0-.8 1.4-6.8 3.1-13.3 3.8-15.1 6.9-32.8 6.9-40.4 0-7.3-1.7-11.6-5.9-15.2-4.9-4.1-10-5-24.6-4.5-11.3.4-14.3.9-22.5 3.7-8.9 3-18.9 7.9-25.2 12.3l-2.7 1.8 4 8.5c7.5 16.4 14.2 39.5 16.3 56.7l.5 4.7-8.8 4.6c-14.9 7.9-29 19.7-36.3 30.4-10.7 15.5-8.4 32.1 5.4 39.2 2.1 1 5.2 1.9 7 1.9 8.2 0 19.7-8.9 26.7-20.5C158 392.8 164 371.8 164 359c0-2.6.6-5.2 1.3-5.8 1.5-1.3 18.3-7.2 20.4-7.2 2 0 1.3 5-3.7 24.5-5.1 20.1-7.8 33-9.3 44.8l-1.2 9.8-5.8 2.4c-17.6 7.1-36.4 24.9-47.1 44.5-4.1 7.6-9.6 23.5-9.6 27.8 0 14.1-10.7-20.1-15.9-50.8-6.1-35.7-5.2-76.4 2.5-114 16.1-78.5 64.9-150.2 132.4-194.6 45.3-29.7 91.9-45.7 148-50.8 11.8-1 53 .4 66 2.3zm-255.2 1.2c.2 1-1.1 2.5-3.2 3.9l-3.6 2.1 3.8 5.4c3.4 5 3.8 5.2 5.7 3.9 3.5-2.5 4.6-2.7 6.3-1 1.5 1.5 1.4 1.8-1.7 4.3l-3.2 2.8 4 5.4c2.2 2.9 4.2 5.6 4.5 5.8.3.3 2.1-.7 4.1-2.3 3.3-2.5 3.7-2.6 5.2-1.1 1.3 1.3 1.4 1.9.4 3.1-2.2 2.7-11.2 7.9-12 7-.4-.5-3.4-4.7-6.6-9.4-3.3-4.7-8.6-12-11.8-16.3-3.3-4.4-5.5-8.3-5.1-8.7.5-.5 2.7-2.3 4.9-3.9 4.2-3.3 7.8-3.7 8.3-1zm453.1 16.7c5.2 4.6 5.3 4.8 3.4 6.4-1.8 1.7-2.1 1.6-5.7-1.4-2.1-1.7-4.1-2.7-4.4-2.1-4 5.8-22.7 28.3-23.7 28.3-.7 0-1.8-.7-2.5-1.5-1-1.2-.4-2.5 3.5-7.3 2.7-3.1 8.6-10.5 13.3-16.5 4.7-5.9 9-10.7 9.6-10.7.6 0 3.5 2.2 6.5 4.8zm-476.7 5.7c5.1 3.4 6.5 6.2 4.3 8.4-1.5 1.5-1.8 1.4-4.3-1.5-3.8-4.4-6.6-5.8-8.2-3.9-1.6 2 1.2 6.3 11 16.8 8.6 9.2 10.6 10.5 12.7 8.4 1.4-1.3 1.3-1.8-.3-4.6-1.4-2.4-1.6-3.3-.6-4.3 1.6-1.6 4.2-.1 6 3.6 2.7 5.4-1.4 11.6-7.7 11.6-3.1 0-4.5-1-12.2-9-9.8-10.1-14.9-17.2-14.9-20.7 0-3.3 4.3-7.3 7.7-7.3 1.6 0 4.5 1.1 6.5 2.5zm501.7 17c5.5 6.3 4.8 8-9.2 22.1-10.8 10.9-12.6 12.4-15.6 12.4-4.9 0-10.1-5.5-10.1-10.6 0-3.6.8-4.7 11.9-15.6 11.2-11.1 12.1-11.8 15.9-11.8 3.3 0 4.5.6 7.1 3.5zm-528.9 2c1.1 1.3.8 2.1-1.8 4.8l-3.2 3.3 4.5 4.4 4.5 4.4 2.3-2.2c4.8-4.5 8.2-2 4.2 3.2l-2.6 3.4 5.7 4.8 5.7 4.9 2.6-3.3c3.1-3.6 4.3-3.9 6.1-1.7 1.1 1.4.6 2.3-3.6 6.6-2.7 2.7-5.4 4.8-6 4.7-.7-.2-7.8-6.7-15.8-14.5L123.9 143l4.3-5c4.6-5.3 5.8-5.9 7.8-3.5zm551.3 22.2c3.4 4.6 3.4 8.3 0 12.4-2.8 3.3-8.7 6.4-10.3 5.4-.6-.3-.7.1-.4 1 1 2.6-1.6 7.2-6.1 10.9-6.3 5.2-8.7 6.1-11.8 4.5-2.5-1.4-8.7-8.4-8.7-10 0-.4 5.3-5.3 11.8-10.7 6.4-5.5 13.5-11.6 15.7-13.5 2.2-2 4.7-3.6 5.5-3.6.8 0 2.7 1.6 4.3 3.6zm-561.7 14.7c9.9 8.1 14.3 11.1 15.1 10.4 1.5-1.2 4.6-.3 6.7 2.1 1.6 1.7 1.6 2 0 3.5-1.2 1.2-2 1.4-2.7.7-1.7-1.7-2.2-1.4-6.7 4.4-3.5 4.5-4 5.8-3 7 1.4 1.7.7 4.5-1.3 4.5-2.6 0-6-4.6-5.2-7.1.6-1.9-1.1-4-12.4-15.1-7.2-7.1-13.1-13.5-13.1-14.2 0-2.2 5-7.6 7-7.6.9 0 8 5.1 15.6 11.4zM709 185.9c3.4 3.4 4.6 7.4 3.4 11-1.5 4-26.4 21.1-31 21.1-5.5 0-10.7-8.6-8.5-14.2.7-1.8 4.9-5.3 13.1-10.8 16.9-11.3 18.4-11.8 23-7.1zm-607.4 24.5c2.9 2.9 3.4 4.1 3.4 8.3 0 5.5-1.7 8.6-6 10.8-8.8 4.6-18-1.3-18-11.6 0-3.3.6-4.7 3.4-7.5 3-3 4-3.4 8.6-3.4s5.6.4 8.6 3.4zm627.1 7.1c2.2 4.4 2.5 6 1.7 8.2-1.1 3.1-10.1 8.9-15.3 9.9-2.9.6-3.8.3-5.7-1.9-1.2-1.4-2.4-3.1-2.6-3.8-.2-.7-3 .3-7.8 3.1-5.4 3-7.9 3.9-9 3.2-3.7-2.3-2.2-4.1 7.7-9.1 5.4-2.7 13.6-7.2 18.3-10 4.7-2.8 8.8-5.1 9.3-5.1.4 0 1.9 2.5 3.4 5.5zm12.1 24.7c1.7 1.7 1.5 3.8-.5 4.5-1 .3-5.1 2.1-9.1 3.9l-7.3 3.3 1.6 3 1.5 3 8.7-3.9c9-4 11.3-4 11.3 0 0 1.3-2.9 2.9-10.7 6-6 2.4-14.3 6-18.5 8.2-8.9 4.4-10.4 4.6-11.3 1.7-.9-2.7-.3-3.2 7.5-6.4 3.6-1.5 6.9-3.1 7.4-3.5.5-.5.2-2.4-.8-4.5-2.7-5.6-1.5-7.2 8.8-12 10.5-5 9.9-4.8 11.4-3.3zM58 251.4c0 .7-.6 2.9-1.4 4.7l-1.4 3.4 5.1 2.2c6.8 2.9 7.4 2.9 8.2-.7.5-2.4 1.2-3 3.2-3 2.2 0 2.5.3 2 2.7-.3 1.6-.8 3.5-1.2 4.4-.4 1.2.7 2.1 4.7 3.6 2.9 1.2 6 2.4 6.9 2.8 1.2.5 2-.4 3.3-3.4 1.5-4 4.6-5.5 6.1-3.1.9 1.5-5.3 14.3-6.7 13.7-.7-.3-8.1-3.5-16.4-7.1-8.4-3.6-16.4-6.8-17.8-7.2-3.8-.9-4-1.9-1.6-8.5 1.9-4.9 2.6-5.9 4.6-5.9 1.4 0 2.4.6 2.4 1.4zM755 279c0 1.3-2.9 2.5-13.1 5.6-12.6 3.7-13 3.9-9.3 4.6 2.1.4 6.6.7 9.9.8 10.9.1 16.3 1.1 16.8 3.1.6 2.4-.8 3.4-6.3 4.9-2.5.6-10.7 3.2-18.2 5.7-7.6 2.5-14.5 4.2-15.4 3.9-.9-.3-1.4-1.5-1.2-2.8.2-1.7 1.9-2.7 8.8-4.9 4.7-1.5 9.7-3 11.3-3.3 6.1-1.4 2-2.5-10.3-2.8-13.1-.3-14.9-.8-15-4.3 0-1.6 39.2-14.2 40.8-13.2.6.5 1.2 1.7 1.2 2.7zm-696.2 5.1c7.3 2.4 9.7 5.2 8.7 9.9-.5 2.1-.3 3.1.7 3.5.7.2 3.9 1.1 7.1 2 4.4 1.3 5.7 2.1 5.7 3.6 0 3.1-2.7 3.4-9.6 1.2l-6.3-2.1-1 2.8c-1.9 5.5-5.3 5.9-17.7 1.9-8.3-2.7-9.7-4.4-8.8-10.5.9-6 3.9-13 6.2-14.4 2.1-1.2 6.6-.6 15 2.1zm131.5 5.9c2.5 2.8 2.7 3.7 2.7 11.4 0 8.3-.9 17-3.1 31.3l-1.2 7.1-5.1 1c-2.8.6-8.1 1.9-11.8 3l-6.7 2-.5-2.6c-.3-1.5-.8-5.7-1.1-9.4-.8-8.1-2.7-18.6-5.5-29.3-1.1-4.4-2-8.5-2-9.1 0-1.6 11.1-7.3 16.2-8.4 2.4-.5 6.8-.7 9.8-.4 4.5.3 6 .9 8.3 3.4zm265.3 23.5c2.1 3.2.8 7.2-4.4 13.7-4.3 5.5-16.1 15.8-18.1 15.8-1.1 0-1.3-1.8-.9-8.9.7-15 6.6-23.1 16.9-23.1 4.1 0 5.1.4 6.5 2.5zm309.6.9c.4.6.8 1.8.8 2.8 0 1.5-2.1 2.3-12.8 4.4-4.6.8-3.1 1.8 5.8 3.9 8.7 2 10 2.8 9.3 5.5-.7 2.5-2.5 2.5-10.5 0-3.4-1.1-7.1-2-8.1-2s-5.3 2.6-9.5 5.9c-8.9 6.7-11.4 7.8-13.2 5.6-2-2.4-.6-4.2 7.1-9.1 8.2-5.3 7.8-7.1-1.1-4.8-7.3 1.9-8.7 1.8-9.5-.7-.9-2.8.2-3.4 9.5-5.4 10.2-2.2 27.2-6.4 27.6-6.8.8-.8 3.9-.3 4.6.7zM54 324.5c7.2 1.3 14.3 3.1 15.6 4 3.1 2 4 5.7 2.5 10.6-1.3 4.4-4.3 6.9-8.3 6.9-5.5 0-31-5.9-32.9-7.6-2.7-2.4-2.6-10.2.2-13.8 2.6-3.3 5.5-3.4 22.9-.1zm266.1 5.4l2.3 1.8-1.7 12.2c-1.7 12.5-3.3 16.9-9.1 24.9-3.9 5.5-10.4 9.4-14.7 9-4.3-.4-5.2-3.8-3.9-13.4 2.2-16.5 9.5-30.2 18.5-34.8 3.9-2.1 5.8-2 8.6.3zm69.9-1.4c0 .3-1.6 4.7-3.6 9.8-4.9 12.4-5.7 22.5-2.2 27.7 1.3 1.9 3.9 4 6.1 4.9 3.3 1.2 4.5 1.2 10.5-.3 3.7-.9 10.4-3.4 14.9-5.6 4.4-2.2 8.3-4 8.6-4 .3 0 2 2.7 3.8 6 3.9 7.3 12.9 16 19.3 18.6 2.5 1.1 4.6 2.4 4.6 3 0 .6-2.4 4.8-5.4 9.3-11.3 17.1-21.1 47-24.7 74.8l-1.2 9.2-11.6 10.2c-12.5 10.9-17.8 14.2-21.9 13.7-2.4-.3-2.7-.7-3-4.9-.3-4.7 1.4-10.7 10.7-36.9 4.6-13.1 5.7-19.3 4.2-23.3-2.1-5.3-13.1-7.5-20-3.9l-3.4 1.7-.2 11c-.2 9.8-.6 12.4-4.3 24-5.9 18.7-8.2 29-8.2 37.3 0 6.8.2 7.6 2.9 10.3 1.7 1.6 4 2.9 5.4 2.9 4.5 0 16.2-6.9 27.2-16.2 19.3-16.1 22.5-18.1 22.5-14.1 0 6.6 5.2 14.3 9.5 14.3 3.9 0 14.3-6 18.3-10.5 2.2-2.5 8.2-10.9 13.5-18.7 11.5-17 18.3-25.8 20-25.8 1.1 0 6.7 7.8 6.7 9.4 0 .5-2.5 3.6-5.6 6.9-5.9 6.6-11.4 15.1-11.4 17.9 0 .9 1.2 2.6 2.8 3.8 2.3 1.9 3.6 2.1 8.7 1.7 15.4-1.2 23.5-11.3 22.1-27.6l-.7-7.6 5.3-5.1c8.4-8 16.4-14.4 18.1-14.4 1.3 0 1.6 1.4 1.6 8.3-.1 22 10.4 34.3 23.9 28 7.6-3.5 21.1-19.8 26.6-32 2-4.5 1.7-4.4 16.9-5.9 4.6-.4 6.7-.3 6.7.5 0 .6-1.6 5.2-3.5 10.3-1.9 5.1-3.5 10.4-3.5 11.6 0 6 6.8 11.7 15.4 12.8l4.6.7v-5.4c0-9.7 10.8-43.8 19-60 2.4-4.6 13.1-10.2 18.7-9.7 7 .6 6.8 5.7-1 28.3-6.4 18.2-7 28.7-2.2 33.9 4.2 4.5 11.5 3.2 24.4-4.6 3.4-2.1 6.6-3.8 7-3.8.4 0 5.8-4.1 12.1-9.1 7.7-6.1 11.6-8.6 11.8-7.6.2.8-.6 7.3-1.8 14.3-17.5 107.9-90.6 198.5-192.5 238.7-24.3 9.6-48.2 15.7-76 19.3-17.8 2.4-57 2.4-75 0-81-10.5-150.9-49.1-202.6-111.6-8.3-10-16.4-33.9-19.5-57.5-1.8-13.1-1.5-35 .6-46 4.2-22.5 13.5-39.7 27.2-50.3l5.7-4.4 3.4 3.6c1.9 2 3.9 3.6 4.5 3.6.6 0 1.7.3 2.6.6 1.2.5 1.6-.6 1.8-6.3l.3-6.8 5-1.3c8-2 21.3-2.6 27.7-1.3 7 1.5 13 5.7 16 11.3 2 3.7 2.3 5.7 2.3 15.3-.1 10-.4 11.9-3.6 21-2 5.5-5.3 13.6-7.3 18.1-4.6 10.2-7.5 21.6-8.3 32-.9 12.8 2 17.4 15.7 25.1 11.9 6.7 21.2 7.6 22.5 2.1.2-1.3 1.8-9.1 3.5-17.3 5.5-27.5 13.3-51.6 22.6-69.5 5.3-10.3 7.8-12.2 8.9-6.9.4 1.7.4 14.3 0 27.9-.9 30.2.1 36.6 7.4 44.3 4.7 5.1 14.3 8.7 19 7.2 2.4-.7 3-2.6 6.6-21.5 3.2-16.3 10.7-39.4 16.5-51 6.1-12.1 11.5-19.8 23.5-33.5 10.2-11.6 12.7-15.7 10.9-17.5-1.9-1.9-13.7-4.2-18.2-3.5-6.5 1-9.2 4.4-18.2 23-12.8 26.2-20.7 48.2-23.2 64-1.4 9.3-1.5 9.5-3.3 9.5-5.9 0-9.3-33-7.2-69.6.8-13 .7-14.2-1.1-16.4-3.7-4.5-18.2-3.8-19.6.9-.3.9-1.2 6.1-2 11.6-2.1 13.9-5.5 24.2-15.1 44.5-4.5 9.6-10.1 22.4-12.4 28.5-5.8 15.3-6.9 17.5-8.5 17.5-2.5 0-4.1-6.9-4-17.5.1-8.2.9-12.8 4.3-25.9 6-23.3 5.5-34.6-2.1-46-3.9-5.9-12.2-11.6-21-14.2-5-1.5-9.4-1.9-21-1.8H187v-2.5c0-7.2 14.8-70 17-72.4 1.2-1.3 5.8.3 8.6 3.1 2.4 2.5 2.6 3.2 2.1 9.2-.3 3.6-2.8 14.4-5.6 24.1-2.8 9.7-5.1 19.1-5.1 20.8 0 5.7 5.6 9.1 15 9.1h3.8l-.8-3.7c-.5-2.1-.5-7.2.1-11.8 1-8.2 6.9-32.1 9.3-37.9 1.7-4.1 11.3-10.6 16.7-11.3 3.5-.5 4-.3 4.8 2.1 1.2 2.9.7 5.7-3.3 21-2.7 10.3-3.4 21.4-1.6 26 2.5 6.6 9.5 5.7 21.5-2.9 4.2-3 8.4-5.5 9.2-5.5.9 0 3.6.9 6 2.1 2.9 1.4 5.2 1.9 7.2 1.4 5-1.1 11.7-6 17-12.7 10.1-12.3 9.3-11.6 10.2-9.3.4 1.1 1 3.2 1.3 4.6.3 1.4 1.6 4.1 2.9 6 2 2.8 2.9 3.4 5.9 3.3 10.5-.3 29.8-22.3 38.4-43.7l3.3-8.2 5.8-.7c3.2-.3 7.2-1.1 8.8-1.6 3.6-1.2 4.5-1.4 4.5-.7zm381.8 24.1c.4 2.6-1.4 3-15 3.9-12.6.9-13.5 1.4-5.3 3.5 21.3 5.5 21 5.4 21.3 8.1l.3 2.6-13.3 1.2c-7.3.7-15.5 1.7-18.1 2.2-7.1 1.3-10.4 1.1-11.1-.7-1.1-3 1.3-4.1 10.1-4.8 4.9-.3 10.4-1 12.3-1.5l3.5-.8-4.5-1c-21-5.1-22.5-5.7-22.8-8.5-.3-2.5-.1-2.7 5.5-3.2 12.8-1.3 24.9-2.6 27.3-3 1.4-.2 4.1-.3 6-.2 2.7.1 3.6.6 3.8 2.2zm-735.6 9.3l7.7 5 11.2-4.1c10.7-4 11.2-4.1 12.5-2.3.8 1 1.4 2.3 1.4 2.7 0 1 .4.8-11.3 4.3-8 2.4-8.7 2.8-7 4.1 1.1.8 4.5 1.3 9.1 1.4h7.3l-.3 2.7c-.3 2.8-.3 2.8-6.8 2.4-3.6-.2-13-.6-21-1l-14.5-.6v-5l9.5.3 9.5.3L35 367c-4.6-2.7-8.9-5.1-9.4-5.3-1.2-.4.3-4.7 1.7-4.7.7 0 4.7 2.2 8.9 4.9zm120.8-1.2c0 1.6-.7 5.9-1.5 9.8-4.3 20.3-19 35.6-29.9 31.1-9-3.7-7.1-15.5 4.2-26.5 5.7-5.5 23.3-17.1 25.9-17.1.8 0 1.3 1.1 1.3 2.7zm355 8.6c0 1.8-1.2 3-4.7 5-6.5 3.5-14.8 6.7-20 7.6-4 .8-4.2.7-2.9-1.1 3.8-5.4 18.7-13.5 25.4-13.7 1.7-.1 2.2.5 2.2 2.2zm67.1 38.3c2.1 2.3 2.4 3.4 2.3 9.7-.2 9.4-1.9 15.7-4.3 15.7s-7.9-3.8-10.4-7.1c-2.5-3.4-3.3-10.9-1.7-14.9 2.6-6.3 9.7-8.1 14.1-3.4zm-72.3 15.5c.2 2.1-.7 3.5-4.4 6.7-6.8 5.8-9.3 7-10.4 5.2-1.3-2-1.2-7.7 0-10 1.6-3 6.1-5 10.5-4.7 3.5.2 4 .5 4.3 2.8zm56.8 7c2.2 2.4 8.6 5.9 10.9 5.9 2.9 0 2.7 2.9-.6 9.1-5.7 10.7-14.5 17.7-21.1 16.7-2.2-.3-2.3-.7-2.3-8.3.1-7.1.5-9 4-16.7 4.2-9.3 5.7-10.4 9.1-6.7zm-68.6 44c0 3.6-1.3 6.4-4.8 10.1-3.2 3.5-6.2 3.7-6.2.5 0-2.9 7.6-13.7 9.6-13.7.9 0 1.4 1.1 1.4 3.1zm90.9 211.6c1.9 3.2 6.7 10.9 10.8 17.1 4 6.2 7.3 11.9 7.3 12.7 0 1.2-3.8 3.2-4.4 2.3-.1-.1-2.1-3.6-4.5-7.6-2.3-3.9-4.7-7.2-5.4-7.2-.7 0-2.5 1-4 2.3l-2.8 2.2 4.6 7.4c4.7 7.5 5.1 10.5 1.4 9.9-1.5-.2-3.9-3.4-8.1-10.8-3.3-5.8-8.1-13.6-10.5-17.4-4.6-7.1-4.9-10-1.1-9.4 1.4.2 3.6 2.6 6.4 7.3 2.4 3.8 4.5 7.4 4.7 7.8.1.5 1.9-.1 3.9-1.3l3.7-2.2-5-8c-4-6.4-4.8-8.2-3.8-9.4 2-2.4 3.3-1.6 6.8 4.3zm-361-1.1c1.2 1.5 2.1 3.8 2.1 5.2 0 4-3.9 11.2-6 11.2-3 0-3.3-1.8-1.1-5.6 4.8-8.1.6-11.8-4.9-4.3-4.4 6.2-11.8 19.1-12.5 22-.4 1.8-.1 3 1.1 3.9 1.4 1.3 1.9 1.1 3.8-1.3 2.5-3.1 5.1-3.5 6.1-1 .4 1.3-.4 2.8-3 5.2-3.1 2.7-4.2 3.2-6.8 2.7-8.5-1.7-9-8.1-1.6-21.1 5.8-10.2 11.4-18.1 13.2-18.8 3.5-1.5 7.6-.6 9.6 1.9zm36.1 21.1c0 2.7-1.8 3-6.1.7-1.7-.8-3.2-1.4-3.4-1.2-.5.5-5.5 10.7-5.5 11.1 0 .3 1.4 1 3 1.7 2.1.9 3 1.9 3 3.6 0 2.8-.6 2.9-5.2.9l-3.5-1.4-3 6.8-3.1 6.8 4.5 2.2c3.9 1.9 4.2 2.3 3.3 4.1-.6 1.1-1.3 2-1.6 2-1.5 0-12.4-6.2-12.4-7.1 0-.5 4.1-9.2 9-19.4l9-18.3 6 2.5c4.9 2.1 6 3.1 6 5zm288-4.7c.9 1.7.5 2.2-3 4-2.2 1.1-4 2.2-4 2.4 0 .2 1.2 2.9 2.6 6l2.5 5.6 3.1-1.6c5.6-2.9 8.3 1 2.8 4.3-3.5 2-3.6 2.4-.9 8.2 3.2 7.1 3.5 7.3 8.1 5 4.2-2.1 5.7-1.6 5.8 1.9 0 1.4-10.7 6.4-12.7 6-.8-.2-3.8-5.7-6.7-12.3-2.9-6.6-6.7-14.8-8.4-18.2-1.8-3.4-3.2-6.6-3.2-7.1 0-.8 10.5-6.1 12.2-6.2.4 0 1.2.9 1.8 2zm-259.7 14.2c4.8 1.7 8.7 3.3 8.7 3.7-.1 2.5-1.9 3.3-5 2.3-3-1.1-3.2-1-4.5 2.1-.7 1.8-3.5 10.1-6.2 18.4-3.6 11.5-5.2 15.3-6.4 15.3-3.6 0-4-2.4-1.4-9.1 4.3-10.9 9.6-28.1 9.1-29.4-.2-.7-1.8-1.6-3.5-2-3.6-.8-4.4-1.7-3.5-4 .4-1 1.3-1.4 2.3-1 .9.4 5.5 2 10.4 3.7zm227.5.4c.2 1.6-.5 2.3-3.8 3.3-2.2.6-4 1.5-4 1.8 0 .3.8 3 1.7 6 1.7 5.5 2.4 6 6.7 4.3 2.1-.8 2.7-.6 3.6 1 1.4 2.7 1.4 2.7-2.5 4-1.9.6-3.5 1.7-3.5 2.3 0 .7 1 4 2.1 7.3l2.2 6.2 4.3-1.6c4.7-1.7 7.2-.8 6.1 2.2-.7 1.6-12.8 5.8-13.9 4.8-.4-.4-3.4-8.8-6.6-18.7-3.3-9.9-6.3-18.7-6.7-19.6-.5-1.3.6-2.1 5.2-3.7 6.9-2.5 8.7-2.4 9.1.4zm-196.4 9.3c.3.5-.2 4.4-1.3 8.8l-1.8 7.8 3.5 1.3c2 .7 4 1.8 4.4 2.5 1.2 1.9.9 7.6-.6 13.5-2.1 7.9-3 8.5-9.9 7.9-3.3-.3-6.4-1-6.9-1.5-.6-.6.5-7.6 3.2-19.8 2.3-10.4 4.3-19.5 4.5-20.2.5-1.4 4.1-1.6 4.9-.3zm162.2 2.7c2 2.9 4.4 12.5 4.4 17.3 0 3.4-2.3 7.1-4.4 7.1-3.4.1-3.7 1.6-2 8.4 1.4 5.8 1.5 6.9.3 7.7-3.1 2-4.4.4-5.9-6.9-1.4-7.2-1.5-7.3-4.1-6.7-1.6.4-3.7.2-4.8-.4-3-1.6-5.5-9.4-5.5-17.4-.1-7.7-.7-6.9 7.4-10.7.8-.4 4.1-.8 7.2-.9 5.1 0 6 .2 7.4 2.5zm-45.2 6.4c1.4 1.4 2.2 4.6 3.2 13.2 2 16.7 1.8 23.4-.5 25.7-4.2 4.2-12.5 3.5-15.6-1.3-2.1-3.1-4.4-31.2-2.9-35.3 1.8-5.1 11.4-6.5 15.8-2.3zm-51.4 8.5l.5 9 4.5-8.7c3.1-6.1 5.1-8.8 6.3-8.8 3.3 0 2.9 2.8-1.4 10.1-2.3 4-4.2 7.9-4.2 8.6 0 .7 1.9 5.8 4.2 11.3 4.5 10.3 4.7 13.4 1 12.8-1.7-.2-2.8-2.1-5.2-8.8-1.6-4.7-3.2-8.7-3.4-9-1.2-1.3-2.3 3.3-2.3 9.7 0 7.3 0 7.3-2.7 7.3h-2.8l.2-21.2c.1-11.7.2-21.4.2-21.6.1-.2 1.1-.2 2.4 0 2 .3 2.2.9 2.7 9.3z"/><path d="M414.1 40c-.7 3-1.5 6.3-1.8 7.2-.3 1.4.2 1.8 2.6 1.8 1.7 0 3.1-.3 3-.8 0-.4-.6-3.6-1.3-7.2l-1.2-6.5-1.3 5.5zM273.6 68.9c-.8 1.2 3.9 13.4 5.3 13.9 2.3.8 4-1.8 3.1-4.6-1.9-6.7-3.9-10.2-5.9-10.2-1.1 0-2.2.4-2.5.9zm276.6-1.1c-2.8 6.1-2.9 6.8-1.4 7.9 2.6 2.1 3.1 1.6 6.2-4.9 3-6.4 3.1-7.2.1-8.8-1.6-.8-2.3-.1-4.9 5.8zm23 19.8c-4.1 5.2-4.2 5.3-2.1 6.5 1.2.6 2.5.7 2.9.2.9-1 4.3-11.3 3.9-11.7-.2-.2-2.3 2.1-4.7 5zm-364.7-7.2c-1.8 1.3-1.7 1.6 2 7.9 3.4 5.8 4 6.4 5.7 5.4 1-.7 1.8-1.9 1.8-2.7 0-1.3-6.5-12-7.3-12-.2 0-1.2.6-2.2 1.4zM378 109.7c-57.7 5.5-104.4 22.5-148.5 54.1-17.9 12.9-40.7 34.3-54.1 50.7-8.8 10.9-8.9 11.1-7 14 3.1 4.8 5.6 3.4 15.4-8.3 63.3-75.8 161.3-112.8 258.7-97.6 22 3.5 50.4 11.3 65.5 18.1 16.6 7.5 23.4 11 34.8 17.8 28.6 17 54.3 39.4 74.5 64.8 17.1 21.4 26.9 37.8 40 66.7 3.5 7.9 10.2 28 12.7 38.5 2.5 10.6 4.1 13.5 7.5 13.5 3.5 0 4.8-3 3.6-8.8-3.7-18.2-11.6-39.9-22.7-62.2-8.9-17.9-15.6-29.1-26.7-44.3-54.2-74.4-142.2-118.5-234.7-117.5-8.5 0-17.1.3-19 .5zm268.3 34.5c-10.8 10.6-11.8 12-10.4 14.7 2.3 4.3 4.1 3.4 15.2-7.6 10.7-10.5 12.1-12.7 9.7-15.1-2.5-2.5-5.3-1-14.5 8zm32.3 18.5c-4.9 4.2-5.3 5.6-1.3 6.1 4.5.6 10.2-7.2 6.8-9.3-.5-.3-3 1.2-5.5 3.2zm-15.3 13.9c-5.4 4.7-6.1 5.8-5.3 7.5 1.7 3 4.6 2.3 9.5-2.4 4.7-4.6 5.3-6.2 3.3-9-1.2-1.5-1.9-1.1-7.5 3.9zM109 166.7c0 .4 5.4 6.2 12 12.9 11.8 11.8 12.1 12.1 13.6 10 1.7-2.4 1.7-2.4-15.2-16.2-8.8-7.2-10.4-8.2-10.4-6.7zm592 23.6c-6.7 3.6-22.8 14.8-23.4 16.2-.9 2.5 1.2 5.5 3.8 5.5 2.5 0 25-15.1 25.9-17.4.5-1.4-1.8-5.6-3.1-5.6-.4 0-1.8.6-3.2 1.3zm15.8 32.9c-5.9 3.2-6.9 4.7-4.4 6.7 1.1 1 2.5.7 6.3-1.3 5.8-2.9 7.6-4.7 6.7-7-.9-2.2-2-2-8.6 1.6zM45.1 287.4c-1 1.2-.8 1.7 1.1 2.9 4.2 2.5 14.7 5.2 16 3.9 2-2 0-4.1-5.4-5.6-9.6-2.7-10.4-2.8-11.7-1.2zm-2.9 10.8c.2 1.8 1.8 2.7 8.1 4.7 6.7 2.2 7.9 2.3 8.7 1.1 1.6-2.5.6-3.4-6.1-5.7-8.7-2.9-11.1-2.9-10.7-.1zm-6.6 30.4c-4.1 4.1-.7 6.5 13.3 9.3 11.8 2.4 16.2 2.6 17.9.9 1.6-1.6 1.5-4.3-.2-5.7-1-.8-26.3-6.1-29.2-6.1-.2 0-1 .7-1.8 1.6zm361.8 61.5c-2.7 1.7-7.7 5.4-11.1 8.1l-6.1 5 1.2 3.7c.7 2 1.6 5.7 2 8.3.8 5.6 4.1 8.8 9 8.8 11.9 0 23.4-21.1 18.2-33.5-1.3-3-2-3.5-4.9-3.5-2 0-5.3 1.2-8.3 3.1zm253.1 131.3c-38.2 77.6-109.6 133.4-193 150.9-74 15.6-150.7 1.1-212.7-40.2-29.4-19.7-51.1-40.4-72.2-69.1-8.3-11.3-9.6-12.5-12.6-11.5-3.9 1.2-4.4 4.2-1.6 8.9 9.3 15.9 40.6 49.9 60.2 65.4 77.5 61 178.8 79 271.7 48.1 44.6-14.8 83.8-39.5 116.7-73.5 14.3-14.8 22.7-25.2 33.8-41.9 9.6-14.4 24.2-41.9 24.2-45.7 0-3.2-1.8-4.8-5.2-4.8-2.5 0-3.2 1-9.3 13.4z"/><path d="M296.4 551.1c-1.6 1.7-2 4-2.3 13.5-.6 20.4 1.2 26.7 7.8 26.7 3.9 0 6.8-2.7 7.7-7.2.6-2.9.5-3.3-1.2-2.9-1.1.2-2 1.3-2.2 2.8-.4 2.7-1.9 5-3.3 5-.5 0-1.8-.9-2.8-1.9-3.7-3.7-4-31-.4-34.6 3.3-3.3 6.3-.2 6.3 6.6 0 3.7.4 4.9 1.5 4.9 3.2 0 1-12.1-2.5-14-3-1.6-6.6-1.1-8.6 1.1zm42.7-.2c-1.6 1.6-2 4.1-2.6 16.4-.7 15.5-.4 17.9 2.8 21.4 3.1 3.4 9.8 3.2 12.6-.3 1.9-2.4 2.1-4 2.1-18.4 0-14.4-.2-16-2.1-18.4-1.7-2.1-2.9-2.6-6.5-2.6-3 0-5 .6-6.3 1.9zm10.6 4.1c1.5 3 1.8 26.6.3 30.4-.8 2.1-1.6 2.6-4.4 2.6-5.2 0-5.8-1.9-5.4-18.4.3-15.6 1.1-17.9 5.7-17.4 1.5.2 3.1 1.3 3.8 2.8zm31.9 14.7c0 18.7.2 20.8 1.7 21.1 1.5.3 1.7-.8 1.7-10.2V570h3.5c2.4 0 3.5-.5 3.5-1.5s-1.1-1.5-3.5-1.5H385v-14.9l4.7-.3c2.6-.2 4.8-.9 5.1-1.6.3-.9-1.4-1.2-6.5-1.2h-6.8l.1 20.7zm39 0c.1 18.6.2 20.8 1.7 21.1 1.5.3 1.7-.9 1.7-10.2V570h3.5c2.4 0 3.5-.5 3.5-1.5s-1.1-1.5-3.5-1.5H424v-14.9l4.7-.3c2.6-.2 4.8-.9 5.1-1.6.3-.9-1.4-1.2-6.5-1.2h-6.8l.1 20.7zm39.2-.5c-.2 11.2-.3 20.4-.2 20.5 0 .2 2.9.4 6.4.5 5.6.3 6.5.1 6.8-1.6.4-1.7 0-1.8-4.7-1.2l-5.1.7V571l4-.6c2.4-.4 4-1.2 4-2 0-1-1.3-1.4-4-1.4h-4v-15h5c4 0 4.8-.3 4.4-1.5-.5-1.1-2.2-1.5-6.4-1.5h-5.8l-.4 20.2zm39.4.2l-.2 20.5 5.5.6c6 .8 8.9.2 8.2-1.8-.3-.8-2.1-1.1-5.1-1l-4.6.3v-17l4-.6c5-.8 4.8-2.8-.3-3.2l-3.7-.3V552h4.5c3.3 0 4.5-.4 4.5-1.5 0-1.2-1.4-1.5-6.3-1.5h-6.3l-.2 20.4zM314.6 754.1c-.9 3.9-1.6 7.3-1.4 7.4.2.2 1.2.5 2.3.7 2.5.4 4.6-3.9 4.8-10 .2-4.1-.1-4.7-2-5-1.9-.3-2.3.5-3.7 6.9zm160.7-24c-.8.8-.6 3.3.7 9 1.9 8.8 2.2 9.4 4.6 8.5 1.4-.5 1.6-1.5 1.1-5.4-.7-5.9-2.9-12.4-4.2-12.9-.6-.2-1.6.2-2.2.8zm-9.6 1.6c-2.2 2.1 1.2 18.3 3.8 18.3 2.4 0 2.7-1.9 1.5-8.8-1.7-9-3.2-11.7-5.3-9.5zm-38.6 7.1c-1.5 2.9.7 28.2 2.7 30.4 1.9 2.2 4.5 2.3 6.2.3 1.1-1.3 1.1-4.2 0-15.3-.7-7.5-1.7-14.5-2.2-15.5-1.2-2.3-5.5-2.2-6.7.1z"/></svg>