<svg version="1.0" xmlns="http://www.w3.org/2000/svg" width="1133.333" height="1133.333" viewBox="0 0 850 850"><path d="M397.9 27c-78.6 5.8-151.8 33.2-213.2 79.7-28.1 21.3-56.7 49.9-77.9 77.9C9.7 312.8-.4 488.9 81.3 627c30.7 51.8 72.9 96.5 122.7 129.7 128.1 85.4 294.5 89.3 426.5 9.8 28.9-17.4 50.5-34.4 76.1-59.9 28.8-28.8 48.6-55 67.7-89.4 48.1-86.4 61.8-190.1 38.1-287.2-27.6-113.1-104.6-209.5-209.1-261.8C561.7 47.3 516.1 34 468 28.5c-16.5-1.9-54.3-2.7-70.1-1.5zM480 43.2c1.7 2.2 1.9 2.2 3.7.5 1.1-.9 2.3-1.7 2.6-1.7 1.2 0 .8 3.5-.5 4.8-2.9 2.9-9.8.1-9.8-4 0-2.5 1.8-2.3 4 .4zm-63.8 23.3c.3 9.4.8 18.8 1 21 .3 3.7.1 4-2.2 4-2.5 0-2.5-.1-2.8-9.3l-.3-9.2-3.8.6c-7.4 1.2-8.8-1.2-9.2-15.6-.2-7-.1-7.5 1.9-7.8 2.1-.3 2.2.1 2.2 6 0 3.5.3 8 .6 10 .6 3.6.9 3.8 4.4 3.8h3.7l-.5-8.9c-.5-10 0-12.4 2.5-11.9 1.6.3 1.9 2.2 2.5 17.3zM444.5 51c.7 1.1 6.5 37.2 6.5 40.2 0 3.1-4.4 2-4.8-1.2-1.2-11.3-1-11-5.2-11s-4.6.5-5.6 7.9c-.6 5-2 6.6-4.3 5.2-.9-.6-.4-4.2 2.3-15.2 1.9-7.9 4-17.2 4.7-20.7 1-5.5 1.4-6.2 3.5-6.2 1.2 0 2.6.4 2.9 1zm29 1.9c.3.5-.4 6.8-1.6 14-1.1 7.2-1.9 13.6-1.7 14.1.2.5 3.7-5.1 7.8-12.5 6.8-12.2 9.2-15 11.2-13 .2.3-.6 6.9-1.8 14.7-1.2 7.9-2.5 16.9-2.9 20.1-.6 5.7-2.5 8.2-4.5 6.1-.4-.5 0-6.5 1.1-13.4s1.8-13.1 1.7-13.8c-.2-.6-3.6 4.9-7.6 12.3-4.1 7.4-7.7 13.5-8 13.5-3.3-.1-3.3-1.7-.7-21.1 1.5-10.7 2.9-20 3.1-20.7.4-1.4 3-1.6 3.9-.3zM366.6 67.1c1.3 1.3 2.9 3.9 3.5 5.9 1.4 4.8-.8 10.2-5.3 13-10.1 6.3-22.2-5.8-16.1-16.1 3.6-6 12.9-7.5 17.9-2.8zm-50.8 16.4c2.8 7.7 5.8 16.2 6.8 18.8 1.6 4.2 1.7 4.9.4 5.7-.8.5-1.9.8-2.4.7-.5-.2-3.8-9-7.3-19.6-5.1-15.3-6.2-19.5-5.1-20.2.7-.4 1.6-.5 2-.1.4.4 2.9 7 5.6 14.7zm220.5-8.4c8.6 6.6 3.7 20.9-7.1 20.9-11.8 0-16.6-14.7-7-21.4 3.3-2.3 10.9-2.1 14.1.5zM294 83c1.8 5 3.2 7.4 4.1 7.2 6.3-1.6 7.6-1.4 9.6 1.4 3 4.4 5.5 11.9 5.1 15.6-.3 2.8-1 3.6-4.8 5.5-2.5 1.2-5.2 2.2-6 2.2-1 .1-3.4-5.3-7.9-17.7-8-22.4-8-22.5-5.1-22 1.8.2 2.8 1.8 5 7.8zm288.5.8c4.1 2.2 5.1 3.2 5.3 5.8.3 3.5-3 11.9-6 15.1-2.2 2.4-7.2 3.1-8.3 1.3-1.5-2.4-3.4-.5-6.8 7-2.3 5.2-4.1 8-5.2 8-3 0-2.6-2.8 1.8-11.6 2.5-4.9 5.7-11.8 7.2-15.4 1.5-3.6 3.4-8 4.2-9.8.7-1.7 1.7-3.2 2.1-3.2.4 0 3 1.3 5.7 2.8zm-310.7 1.1c.2.6-1 1.7-2.7 2.4-1.7.6-3.1 1.6-3.1 2.1s3.8 8.3 8.5 17.4c6.5 12.7 8.2 16.8 7.4 17.9-.6.7-1.5 1.3-1.9 1.3-.4 0-4.4-7.3-8.9-16.3-4.4-8.9-8.5-16.8-9-17.5-.7-1.1-1.6-1-5 .7-3.8 2-4.2 2-4.8.4-.4-.9-.2-1.8.3-2 .5-.2 4.5-2.1 8.9-4.2 8.3-4.1 9.6-4.3 10.3-2.2zm338.6 13.4c1.7 1.2 1.4 2.5-4.6 21.1-3.4 10.9-6.9 20.1-7.6 20.3-3.1 1.3-3.5-1.5-1.2-7.7 1.2-3.3 2.1-6.2 1.9-6.4-.2-.2-1.9-1.1-3.7-2-3.8-1.9-3.3-2.2-8.4 5.1-2.4 3.5-3.7 4-5.5 2.2-.8-.8 1.9-4.7 10.2-14.4 6.2-7.3 12.3-14.7 13.6-16.4 2.6-3.5 2.8-3.6 5.3-1.8zm-369.2 4.4c3.2 3.6 7.9 13.3 7.6 15.5-.2 1.2-1.7 3.2-3.5 4.4l-3.2 2.1 4.4 7.4c2.5 4.1 4.5 7.7 4.5 8.1 0 .4-.9 1.2-1.9 1.7-1.7 1-2.5 0-7.4-8.7-3.1-5.3-7.8-13.2-10.6-17.5-2.8-4.3-5.1-8.2-5.1-8.7 0-1.5 8.3-6 11.1-6 1.4 0 3.3.8 4.1 1.7zm396.7 12.9c1.8 1.4 3.1 3.5 3.1 4.8 0 3.4-5.6 11.4-8.4 12.2-2.1.5-2.3.9-1.4 2.4 1.6 2.5-2.2 9.8-7.4 14.5-3.2 3-4.5 3.5-6.6 3-2.9-.7-5.9-3-7.3-5.7-1.3-2.3.9-6.8 3.3-6.8 1.6 0 1.8.5 1.3 3.3-.8 4 1.2 6.2 4.5 5.2 2.5-.8 8-9 8-11.9 0-1.1-.7-2.7-1.6-3.7-1.8-2-1-4.2 1.4-3.6 4.3.9 11.4-6.7 9.9-10.7-.9-2.2-4.6-2-7.3.5-2.3 2.2-4.4 1.9-4.4-.7 0-1.6 5.7-5.4 8.2-5.4.9 0 3 1.2 4.7 2.6zm-193.4.4c62.2 4.2 117 24.6 167.4 62.2 18.6 13.9 46.1 41.4 59.8 59.8 30.9 41.6 49.2 83.4 58.5 134.2 3.3 17.6 3.2 41.5 0 54.3-5.9 22.6-20.3 42.9-36.1 50.6-5.4 2.6-7.7 2.4-9.7-.7-1.5-2.2-1.5-3.2-.5-7.9 1.6-7.2 8-20.1 14.5-29.4 11.9-17 13.9-25.9 7.4-32.9-5.3-5.6-13.5-4.6-26.7 3.4-5 3-9.2 5.4-9.4 5.4-.3 0-.7-1.3-1-3-.9-4.1-4.5-6.1-11.1-6.1-5.2 0-15 2.2-18.8 4.2-1.5.8-1.5 1.1 0 4.1 2.5 5.1 2 13.9-1.7 25.8-3.6 11.8-5.2 13.7-13.9 17-5.3 2-11.2 2.7-11.2 1.2 0-.4.7-3.2 1.5-6.2 5.4-20-3.5-37.6-17.2-33.8-7.3 2-13.3 11.6-13.3 21.2 0 3.1 0 3.1-4.9 2.8-6.2-.5-12.8 2.3-16.2 6.8-3.7 4.9-6.4 7.3-18.8 16.3-6.2 4.5-12.1 8.8-13.1 9.5-1.6 1.1-2.1.7-4.8-4l-3-5.3 4.1-3.5c9.5-7.9 11.7-10.6 11.7-14.4 0-4.9-1.2-6.9-5.5-9.6-4.8-3-14.1-2.5-21 1-10.9 5.7-14.2 15.5-9.2 28l2.6 6.3-8.8 9.6c-4.9 5.3-12.6 14.1-17.2 19.5-4.6 5.5-9.6 10.8-11.2 12-2.5 1.9-2.8 1.9-4.4.3-4.5-4.4-2-20.9 6.2-42.2 8.9-23.1 16.4-37.3 26.5-50 4.9-6.1 6.4-7.4 9.7-8 10.1-1.9 26.7-9.2 32-14.3 4.6-4.2 5.3-8 2-10.8-8.7-7.5-32.6-1.2-50 13.2-7.5 6.1-7.4 6.1-14.8.3-4.5-3.6-8.4-9.2-11.4-16.4l-2.3-5.7 11.3-11.1c20.1-19.9 28.6-37.8 23.1-48.4-3.5-6.8-15.9-8.3-24.9-3-10.5 6.2-21.7 23.4-24.7 38.1-1.1 5.2-.8 13.9.6 18.7.3 1.2-1.4 2.4-6.4 4.7-19.4 9-25.8-1.3-14.7-23.5 3.7-7.6 6.1-10.8 12.2-16.7 5.1-5.1 7.4-8 7.1-9.2-.6-2.8-6-2.3-14.4 1.4-13.2 5.8-21.7 6.4-29.9 2.2-5.1-2.6-10.1-2.6-11.5-.1-1.3 2.6-1.3 13.4.1 16.4 2.1 4.6-10.1 28.3-20.3 39.3-4.5 4.8-9.2 7.9-10.8 6.9-3-1.8.2-21.2 7.5-45.6 16.9-56.5 46.2-115 75.4-150.4 2.2-2.7 4.1-5.9 4.1-7.1 0-2.5-3.2-6.9-6.1-8.5-3.5-1.8-11.6-2.6-18.1-1.7-9.1 1.2-9.5 1.4-10.2 5.7-.3 2.1-3.6 10.1-7.2 17.7-19.3 40.7-42.3 100.4-49.9 129.9-1 3.8-2 7.2-2.1 7.4-.2.1-1.3-.4-2.6-1.3-3.7-2.6-9.8-2-17.6 1.9-17.5 8.8-30.6 32.2-30.5 54.4l.1 8.3-4.2 4.1c-4.6 4.5-11.6 8-14 7.1-4.2-1.6-2.4-13.4 4.1-25.9 11.4-21.9 11.5-22.1 11.5-27 .1-4.2-.3-5.2-3.1-7.7-5.8-5.2-14.3-3-26.7 7.1l-6.2 5-.6-3c-.9-4.7-5.8-6.2-18.3-5.7-5.7.3-10.3.2-10.3-.1 0-.3 1.1-4.7 2.5-9.6 7-25.7 9.6-48.6 6.3-55-4.1-7.8-9.8-9.9-25.8-9.9-13.9.1-21.9 1.6-33.2 6.4-7.6 3.1-20.8 10.8-20.8 12 0 .4 1.5 4 3.4 8.1 7.5 16.3 14.8 41 16.2 54.8l.6 6.9-6.3 3.3c-18.3 9.2-36 25-41.9 37.4-6.1 12.8-4.2 24.2 5.2 31.8 2.9 2.3 5.1 3.1 9.1 3.5 7.8.6 14.2-2.4 21.7-10.5 10.6-11.3 17.6-29 20.2-51.2.9-7.5 1.5-10.1 2.7-10.5.9-.2 4.5-1.6 8.1-2.9 3.6-1.3 7.8-2.7 9.3-3.1 3.5-.8 3.8-3.3-3.9 28.1-5.8 23.9-8.4 38-8.4 45.5 0 3.3-.4 4.8-1.3 4.8-3 0-17.8 8.1-24.7 13.7-19.4 15.4-33.8 38.7-37.5 60.8-.9 5.1-1.4 4.1-6-11.4-8.8-29.7-12.7-57.3-12.7-89.1 0-49.8 9.7-92.2 31.3-136.1 16.8-34.2 35.8-60.1 64.5-87.8 56-54.1 130.5-84.5 210.9-85.9 3.9-.1 13.8.3 22 .8zm-232.7 2.2c1 1 .5 1.9-2.5 4.4l-3.7 3.1 3.8 5.2c2.1 2.8 4.1 5.1 4.6 5.1.4 0 1.9-.9 3.3-2 2.2-1.8 2.6-1.8 3.7-.4 1.1 1.2.8 1.9-1.9 4.2l-3.1 2.7 4.8 6.2 4.8 6.2 3-2.4c3.3-2.8 6.4-3.2 6.4-1 0 1.5-8.6 8.4-10.6 8.5-.6 0-4.4-4.8-8.5-10.7-4.1-5.9-9.3-13.1-11.6-16.2-2.4-3-4.3-5.8-4.3-6.2 0-.7 9-7.8 10.1-7.9.3 0 1.1.6 1.7 1.2zm456.5 20.6c1.9 2.1 1.6 4.2-.6 4.2-.6 0-2.5-1.4-4.3-3.1l-3.2-3.1-11.7 14.6c-11.1 13.8-13.5 16-15 13.6-.8-1.3-.9-1.2 13.8-19.4l11.9-14.6 3.6 2.9c2.1 1.6 4.5 3.8 5.5 4.9zM186 140c1.5 0 8 6.1 8 7.5 0 3-2.4 2.6-6-1-4.1-4-7.3-4.4-7.8-.9-.6 4 18.5 25.4 22.6 25.4 3.1 0 3.8-2.6 1.8-6.1-1.8-3-1.4-4.9.9-4.9 1.8 0 4.5 5.1 4.5 8.5 0 2.9-4 7.5-6.5 7.5-.9 0-2.9-.7-4.4-1.5-4.1-2.1-19.8-19.2-22.2-24.2-2-4.1-2-4.5-.4-6.9 1.8-2.7 5.2-4.5 7.3-3.8.8.2 1.8.4 2.2.4zm503.7 18.2c2.5 2.4 3.3 4 3.3 6.7 0 3.1-1.3 4.7-11.9 15.4-10.1 10.2-12.3 12-15 12-5.2 0-10.8-6.8-9.5-11.7.3-1.4 5.9-7.7 12.4-14 13.4-13.2 15.1-13.8 20.7-8.4zM162 161.3c0 .8-1.1 2.4-2.5 3.7-1.4 1.3-2.5 2.9-2.5 3.6 0 .7 2.1 3.1 4.7 5.3l4.8 4 2.6-2.5c4.4-4.2 6.8-1.1 2.7 3.3l-2.2 2.4 5.6 5.6 5.6 5.6 3.3-3.7c2.9-3.4 3.4-3.6 4.8-2.2 1.4 1.5 1.1 2.1-3.3 6.5l-4.9 5-14.6-14c-8-7.8-14.7-14.4-14.9-14.8-.1-.4 1.4-2.6 3.4-4.9 3.4-4.1 7.4-5.6 7.4-2.9zm550.5 21.4c4.1 5.3 3.8 8.7-1.3 13.4-2.5 2.4-5.1 3.9-6.7 3.9-2 0-2.5.5-2.5 2.6 0 3.8-1.5 6-7.1 10.4-6.6 5.2-9.1 5.2-14.1-.2-2.1-2.3-3.8-4.8-3.8-5.7.1-.9 2.4-3.4 5.2-5.6 2.8-2.2 9.8-8.2 15.7-13.2 5.8-5.1 10.9-9.3 11.2-9.3.4 0 1.9 1.6 3.4 3.7zm-561.4 15c12.2 10 14.4 11.5 16 10.5 1.5-1 2.3-.7 4.6 1.2 2.1 1.9 2.5 2.7 1.7 3.6-.8.8-1.8.9-3.1.2-1.6-.9-2.6-.2-6.7 5-4.4 5.5-4.7 6.1-3.2 7.7 1.4 1.5 1.4 2 .3 2.9-1 .8-2 .5-4.2-1.2-2.5-2-2.7-2.6-1.6-3.9 1.7-2.2-1.1-5.8-15.1-19.1-9.3-8.8-10.8-10.7-10-12.3 1.4-2.5 5.1-6.3 6.2-6.3.5 0 7.3 5.2 15.1 11.7zm584.3 15.4c3.7 4.4 4.3 7.5 1.9 10.7-1.1 1.4-7.4 6.3-14.1 10.9-14.2 9.6-17.3 10.4-21.6 5.2-3.4-4-3.5-9.7-.3-12.6 2.6-2.4 22.5-15.7 24.7-16.6 3.8-1.4 6.9-.6 9.4 2.4zm-610.3 21.6c8.8 5.2 6.9 18.4-3.1 21.4-4.8 1.4-10.2-.8-13-5.3-6.4-10.1 5.8-22.2 16.1-16.1zm628.5 7.5c4.5 8.7 3.6 11.2-5.6 15.8-8.1 4.1-11.4 4-13.7-.5l-1.8-3.5-8 4.6c-7.3 4.1-8 4.4-9.2 2.8-.7-.9-1-2.1-.7-2.6.3-.5 4.9-3.1 10.2-5.8 5.3-2.7 13.1-6.9 17.2-9.4s8.1-4.5 8.7-4.5c.7-.1 2 1.3 2.9 3.1zm13.4 27.7c0 1.3-1.3 2.4-4 3.5-2.1.8-6 2.5-8.5 3.7-4.2 2-4.6 2.5-4 4.8 1.1 4.6 2.1 4.6 10.9.8 9.7-4.2 10.2-4.3 11-2 .9 2.3.4 2.6-10.9 7.1-5.5 2.2-13.8 5.9-18.4 8.1-8.4 4.1-10.7 4.2-9.9.6.2-1.2 3.1-3 7.8-5 7.9-3.3 8.1-3.6 5.9-9.1-.7-1.7-.9-3.9-.6-4.8.7-1.7 15.9-9.4 19-9.5 1-.1 1.7.6 1.7 1.8zM83.5 277c.3.5-.1 2.3-1 3.9-2.2 4.3-2 4.8 2.9 7 8.2 3.6 8.3 3.6 9.6-.4.8-2.5 1.7-3.5 2.8-3.3 1.8.4 1.9 1.5.7 6-.7 2.6-.4 2.9 4.1 4.9 8.8 3.7 9.8 3.6 11.4-1 1.3-4 3.6-5.4 4.6-2.7.6 1.5-4.1 12.6-5.3 12.6-.6 0-21.9-8.8-35-14.5l-3.2-1.4 1.6-3.8c.8-2.1 1.9-4.8 2.4-6.1.9-2.3 3.3-3 4.4-1.2zm696.9 26.6c.8 2.2.1 3.1-3.1 3.8-7.2 1.7-23.3 7-23.3 7.6 0 .4 6.6 1 14.8 1.4 8.1.4 15.1 1.1 15.6 1.6 2.1 2-.9 3.8-11.5 6.9-6.3 1.9-14.9 4.6-19.1 6.2-7.6 2.8-7.8 2.8-8.8.9-1.3-2.4-1.9-2.1 15.7-7.7l11.8-3.8-16-1c-14.9-.9-16-1.1-16.3-3-.2-1.8 2-2.7 18.5-8.1 10.4-3.4 19.3-6.2 19.9-6.3.7-.1 1.5.6 1.8 1.5zM83.2 310c8.2 2.5 10.3 4.7 9.5 9.8l-.7 3.8 7 1.8c5.5 1.4 7 2.2 7 3.6 0 2.9-1.3 3.1-7.5 1-7.5-2.6-7.7-2.5-9.5 1.3-1.9 4.1-5.7 4.6-14.9 1.8-8.9-2.7-10.4-4.5-9.8-11.1.3-2.9 1-5.7 1.6-6.3.6-.6 1.1-1.8 1.1-2.6 0-2.6 3.2-5.1 6.5-5.1 1.8 0 6.2.9 9.7 2zm130.5 5c4 2.4 5.6 7.8 4.8 16.3-1.3 13.7-3.8 32.2-4.4 32.9-.3.4-4.7 1.8-9.6 3.2-5 1.3-10 2.7-11.1 3.1-2 .6-2.2.2-2.8-7.7-1.1-12.4-5.2-32.3-8.3-40.4-.5-1.3 6.5-5.3 13.7-8 5.5-2 13.9-1.7 17.7.6zm267 24.1c3.7 3.1-.9 11.3-12.5 21.9-4.2 3.9-7.9 7-8.4 7-.4 0-.9-1-.9-2.3-.8-13.3 3.6-23.7 11.6-27.3 3.2-1.5 7.9-1.1 10.2.7zm310.3 3.2c0 2.1-.8 2.4-9 4.1-4.9 1-8.8 2.1-8.6 2.5.3.4 5 1.8 10.5 3.1 8.1 1.9 10.1 2.7 10.1 4.1 0 2.8-1 2.8-9.5.3-4.4-1.3-8.6-2.4-9.4-2.4-.7 0-5.3 2.9-10.1 6.5-8.9 6.6-11.4 7.6-12.3 5.1-.7-1.7.6-2.8 9.6-8.5 3.7-2.4 6.7-4.5 6.7-4.7 0-.3-1-.8-2.2-1.3-1.5-.5-4.5-.2-8.7 1-6.9 2-8.1 1.8-8.1-1.1 0-1.4 1.5-2.1 7.8-3.5 4.2-.9 12.7-2.9 18.7-4.5 13.9-3.6 14.5-3.6 14.5-.7zm-713 8.2c17 3 19.4 4.3 19.8 10.4.2 2.7-.3 5.2-1.3 6.7-2.9 4.5-5.3 4.6-21.7 1.4-18.2-3.5-20.3-4.9-19.5-12 .5-4.4 4.1-9 7-9 .7 0 7.8 1.1 15.7 2.5zm334.9 10c-3.3 7.4-5.9 17.2-5.9 22.7s2.8 11.6 6.1 13.3c6.1 3.2 17.5 1.2 30.1-5.1 7.7-3.9 7.8-3.9 7.8-2.1 0 2.4 9.7 15.1 14 18.4 2.3 1.8 6.1 4 8.5 4.9l4.2 1.8-4.9 7.4c-6.4 9.5-10.6 18.6-16.2 35.2-4.8 14.5-8.3 30.2-9.3 41.7-.3 3.9-.9 7.5-1.2 8-1.5 2.2-21.1 18.9-25 21.5-2.5 1.5-5.7 2.8-7.3 2.8-5.6 0-4.9-4.9 4.3-30.2 10-27.7 10.8-34.2 4.6-38.2-5-3.3-16.1-2.9-21.1.7-1.7 1.3-1.8 1.9-.7 6.1 1.5 5.9.2 14.2-4.4 29.1-8 26.1-10.1 39.7-7.2 46.8 4.4 10.3 15.9 6.2 40.2-14.2 6.1-5.1 12.2-10.2 13.7-11.2l2.7-1.9 1.1 5.5c1.6 7.6 4.6 11 9.7 10.9 5.4-.2 13-4.3 18.4-10.1 2.5-2.6 7.8-9.8 11.8-15.8 8.6-12.9 20.2-28.5 21.2-28.5.3 0 1.9 1.8 3.3 4.1 3.1 4.6 3.5 3.4-4.8 12.8-6.2 7.2-8.8 12.3-8.4 16.9.4 4.8 3.4 6.4 10.8 5.9 16.6-1.1 26-13.1 23.2-29.5-.6-3.1-.8-6-.6-6.4.3-.4 5.5-5.1 11.7-10.4l11.2-9.6.6 10.8c.4 8.1 1.1 12.2 2.8 15.9 4.8 11 12.5 14.9 21.7 11 7.8-3.2 20.2-17.9 27-31.8l2.8-5.7h5.1c2.7-.1 7-.5 9.5-1 2.5-.4 4.7-.6 4.9-.4.2.2-1.2 4.8-3.2 10.2-2.1 5.5-3.7 10.9-3.7 12.1 0 3.3 2.6 7.7 6 10.1 3 2.1 12.1 4.2 13.8 3.1.5-.3 1.3-3.3 1.7-6.5 1.5-12.2 10.8-40.4 18.3-55.3 3.5-6.8 9.3-11.1 16.3-12 8.5-1.2 8.8 3 1.7 23.9-5 14.5-5.3 15.8-5.3 25.6 0 10.2 0 10.4 2.9 12.9 2.6 2.2 3.6 2.5 7.8 2 8.8-1.1 22.2-8.9 39.9-23.3 3.6-3 6.8-5.4 7.1-5.4.6 0 0 4.4-2.9 21-15.1 85.7-69.6 164.2-145.3 209.4-35.6 21.3-72.3 34.3-116 41.1-14 2.2-55.6 3.1-71.5 1.6-70.8-6.8-135.3-36.4-186.1-85.3-15.8-15.2-28.1-29.9-31.6-37.7-5.1-11.3-9.7-26.3-11.9-38.7-2.4-14.1-2.9-38.6-1-50.9 3.7-23.3 14.9-44.2 29.1-54l4.1-2.9 2.2 2.6c2.6 3 5.7 4.8 8.6 4.8 1.9 0 2.1-.6 2.1-6.4v-6.4l3.4-1.2c5.7-1.8 20.2-3 26.1-2 23.6 3.8 27.7 26 11.4 61.3-6.4 13.7-9 23.6-9.6 36.3-.5 9.3-.4 10.5 1.8 14.3 5.3 9.4 30.2 20.7 35 15.8.9-.9 2.8-7.7 4.4-15.9 5.4-28 13.9-54.6 23.3-73.4 4.5-8.9 6.5-11.3 7.8-9.2.5.7.7 9.8.4 20.3-.7 28.7-.5 36.4 1.4 42.7 3.2 11 10.8 17.7 21.2 18.6 4.6.4 5.4.2 6.7-1.9.8-1.3 2.2-6.8 3.1-12.2 4.8-28.5 15.5-57.9 27.1-74.2 2.3-3.3 8.6-11 13.9-17 10.2-11.6 13.1-15.8 12.2-18-.7-1.9-9.9-4.5-15.6-4.5-10 0-11.9 1.8-20.8 19.6-12 23.9-21.7 50.4-24.8 67.1-2.4 13.3-4.9 12.6-8.2-2.5-1.4-6.3-1.7-13.5-1.7-40.6v-32.9l-2.3-1.5c-1.4-.9-4.8-1.6-8.8-1.6-8.7-.1-10.8 2-11.7 12.1-1.2 12.8-5.2 25.4-13.6 43.2-6.9 14.7-10.1 22.2-19 45.1-3.8 9.6-7.1 4.4-7.1-11.2 0-6.9.8-12 3.9-24 4.8-18.7 5.6-25.5 4.1-33.8-1.5-8.4-4.8-14.6-10.5-19.9-9.2-8.5-20.5-11.6-40-10.9-6.9.2-12.5.1-12.5-.3 0-6.6 15.5-72.7 17.5-74.7 1.1-1.1 7.6 3.1 9.1 5.9 2.1 4.2 1.3 9.2-5.2 31.6-5.6 19.2-5.9 22.3-2.1 26 2.3 2.3 3.7 2.8 9.5 3.1l6.8.4-.4-6.4c-.6-9 4.4-33.1 9.6-46.9 1.2-3 6.1-6.9 12.6-10.1 8.9-4.3 10.5.6 5.7 17.4-4.9 17.6-5.3 28.1-1 32.7 4 4.3 12.9 1.7 24.5-7.1l5.2-3.9 3.4 2.1c4.2 2.5 10.7 2.6 15.6.1 4.2-2.2 13.5-11.5 17.8-18l2.9-4.4.7 4.1c.9 5.6 3.6 11 6.1 12.3 9.7 5.3 34.1-19.9 43.5-44.8l2.7-7.3h4c3-.1 12.4-2.6 14.2-3.9.1 0-1.2 2.8-2.8 6.4zm-66.5-3.3c1.2 2 1.2 3.7-.4 13.5-2.1 12.3-4.9 18.9-10.7 25.4-5.6 6.2-12 9-14.7 6.4-3.2-3.2-1-18.9 4.2-30 6.3-13.4 17.6-21.5 21.6-15.3zm451 20.5c.4.9.3 2-.1 2.4-.4.4-7.2 1.3-15.1 2-7.8.7-13.9 1.5-13.5 1.9.4.4 7.1 2.3 14.8 4.4 7.7 2 14.4 4.1 14.9 4.6s.6 1.5.3 2.3c-.4 1-3.3 1.6-10.9 2.1-5.7.4-14.6 1.3-19.8 2-5.2.7-9.8 1.2-10.2.9-.5-.2-.8-1.2-.8-2.2 0-1.6 1.5-2 11.8-3 12.4-1.3 17.3-2.1 15.7-2.7-.5-.2-7.1-1.9-14.5-3.8-13.2-3.3-17.4-5.5-14.2-7.5.7-.4 7.4-1.3 15-2 7.5-.8 15.7-1.7 18.2-2.1 7-1.2 7.7-1.1 8.4.7zM63.2 389.2c3.1 2.1 6.1 3.8 6.7 3.8.5 0 5.7-1.7 11.5-3.9 10.3-3.8 12.6-3.9 12.6-.5 0 .7-4.6 2.7-10.2 4.4-9.8 3.1-10.1 3.3-7.8 4.6 1.4.7 5.2 1.4 8.5 1.4 6.8 0 9.1 1 8.1 3.5-.5 1.5-2 1.6-14.3.9-26.8-1.4-29.6-1.9-27.5-5 .5-.8 3.6-.9 10.2-.4 5.2.4 9.6.6 9.8.5.2-.2-4.2-2.9-9.7-6-9-5.1-10-5.9-9-7.6 1.2-2.2 1.9-1.9 11.1 4.3zm118.7 1c-.9 8.7-2.5 14.3-6.2 21.1-7.4 14.1-19.2 20.4-26.4 14.3-6.8-5.9-1.2-18.9 12.7-29.1 5-3.6 19.1-12.4 20.1-12.5.3 0 .2 2.8-.2 6.2zm356.1 4.6c0 1.6-3.6 4.1-10 7-7.7 3.5-16.9 6.6-17.6 6-.7-.8 11-8.6 16.8-11.3 5.2-2.4 10.8-3.3 10.8-1.7zm64.5 37.8c4.2 1.6 5.5 9.3 3.4 19.7-1.3 6.5-2.6 7.1-8 3.4-7-4.6-9.1-14.9-4.3-20.6 2.5-3 5.4-3.8 8.9-2.5zm-70.1 15.2c.9 1.5-2.1 5.3-7.3 9.2-2.9 2.2-5.7 3.7-6.2 3.4-.5-.3-.9-2.3-.9-4.4 0-5.1 4.3-9 10-9 2.1 0 4.1.3 4.4.8zm55.4 8.2c1.3 2.1 10.1 7 12.7 7 2.2 0 1.9 1.5-1.7 8.2-5.9 11.1-17.9 19.1-21.5 14.3-1.7-2.4-1.7-6 .2-12.1 1.6-5.5 7.7-19.3 8.5-19.4.3 0 1.1.9 1.8 2zm-68.3 47.7c-1.8 4.3-5.2 8.3-7.2 8.3-2.3 0-1.4-3.1 2.9-9.1 3.2-4.7 4.4-5.7 5-4.5.5.9.3 3-.7 5.3zm92.4 209c1.9 3.2 6.7 10.9 10.8 17.1 4 6.2 7.1 11.8 6.8 12.3-1.5 2.3-4.2.5-7.2-4.9-5.7-10.2-5.4-10.1-10.2-6.9L608 733l3.6 5.8c2 3.1 4.3 6.6 5 7.6 1 1.4 1.1 2.3.2 3.3-1.9 2.4-3.3 1.4-6.7-5-1.9-3.4-6.6-11.3-10.4-17.5-6.4-10.6-7.6-14.2-4.5-14.2.7 0 3.5 3.6 6.1 8 2.7 4.4 5.2 8 5.7 8 1.3 0 7-3.4 7-4.2 0-.4-2.1-4.1-4.6-8.2-4.3-7-4.9-9.6-2.1-9.6.7 0 2.8 2.6 4.6 5.7zm-363.5-3.6c1.4.7 2.9 2.4 3.4 3.8 1.7 5-3.2 16.1-5.9 13.4-.9-.9-.6-2.2 1.1-5.9 1.7-3.3 2-5.1 1.3-6.2-2.6-4.2-5.8-1.3-14.4 13.3-4.4 7.3-5.9 10.8-5.7 13 .4 4 3.8 4.6 6.2 1.1 1-1.6 2.2-2.3 3.1-2 2.2.9 1.8 3.2-1 5.9-3 3.1-7.3 3.2-10.9.4-4.6-3.6-3.3-8.2 6.8-24.6 5.5-9 9.5-13.3 12.2-13.3.7 0 2.4.5 3.8 1.1zm33 18.4c5.2 2.3 7 4.5 4.6 6-.5.3-2.7-.3-4.8-1.4l-3.8-2-3.1 6.3-3.1 6.3 3.4 1.6c4.3 2.1 4.7 5.2.7 4.4-1.6-.3-3.6-.9-4.6-1.2-1.4-.6-2.3.5-4.7 5.9-1.7 3.6-3 6.8-3 7.1 0 .2 1.8 1.4 4 2.5 4.1 2.1 5 3.7 2.6 4.6-1 .4-10.5-3.5-12.4-5.1-.3-.2 17.8-37.5 18.2-37.5.2 0 2.9 1.1 6 2.5zm293.3.2c.3.7-1.4 2.1-3.6 3.2l-4 2.1 2.6 5.7c1.4 3.2 2.8 6 3 6.2.2.3 1.9-.3 3.8-1.2 3.3-1.6 3.5-1.5 4.4.2.8 1.5.4 2.1-2.5 3.5s-3.4 2-2.8 3.9c1.2 4 5.4 11.7 6.4 11.7.5 0 2.5-.8 4.5-1.7 3.1-1.5 3.7-1.5 4.5-.3.5.8.7 1.7.4 2.1-.7 1.2-11.5 5.9-12.4 5.4-.4-.3-2.7-4.9-5-10.2-2.4-5.4-6-13.3-8.1-17.5-2.2-4.3-3.9-8.4-3.9-9.2 0-1.4 8.5-5.6 10.9-5.3.8.1 1.6.7 1.8 1.4zm-259.4 13.9c5.8 2 7.7 3.1 7.4 4.3-.2.9-1 1.4-1.8 1.2-6.1-1.6-5.3-2.7-11.6 16.8-5.2 16.3-6 18.1-8 18.1-1.3 0-2.3-.5-2.3-1.1 0-.5 2.7-8.9 6-18.6 3.3-9.6 5.8-17.9 5.4-18.4-.3-.5-1.9-1.2-3.7-1.7-1.9-.5-3.3-1.6-3.5-2.6-.5-2.3.8-2 12.1 2zm227.1 1.5c-.3.5-1.1.9-1.9.9-.8 0-2.5.4-3.9.9l-2.5 1 2.2 6.6c1.9 5.8 2.4 6.5 4.2 6 3.7-1.2 5.9-1 6.3.5.2 1-1 2-3.3 2.9-4 1.4-4 1-.3 10.8 1.1 2.9 2.1 5.3 2.2 5.3.2 0 2.2-.7 4.5-1.5 3.7-1.3 4.2-1.3 4.8.1.3.8.2 1.9-.3 2.3-1.7 1.6-11.6 4.3-12.4 3.5-1-1.2-13.4-38.4-12.9-38.8.2-.2 2.9-1.3 5.9-2.4 5-1.9 5.6-1.9 6.7-.5.7.9 1 2 .7 2.4zm-196.7 7.7c.9.6.7 2.6-.8 8.5-1.1 4.3-1.7 8.2-1.5 8.6.3.5 1.9 1.1 3.6 1.4 4.7 1 5.6 4.1 3.6 13-2.1 9.5-3.8 11.1-10.3 10.2-7.8-1-7.7-.6-4.4-14.6 1.6-6.8 3.7-15.9 4.6-20.2 1.6-7.4 2.5-8.6 5.2-6.9zm162.1 2.7c2.3 2.9 4.5 11.1 4.6 17.3.1 4.8-1.9 7.2-6.1 7.2-1.3 0-2.3.1-2.3.2 0 .2.9 3.6 1.9 7.6 1.6 6.2 1.7 7.4.5 7.9-2.7 1-4.2-.6-4.8-5.4-1.3-9-1.3-8.9-5.6-8.5-3.2.3-4.1 0-5.6-2.2-1.9-3-4.4-12.5-4.4-17 0-3.5 2.5-6.6 5.5-6.6 1.1 0 2.5-.4 3.1-.9.8-.8 3.3-1.3 9.6-1.9.9-.1 2.5.9 3.6 2.3zm-45.9 5.5c1 .5 2.2 1.7 2.6 2.7.7 2 3.4 25.9 3.5 31.1 0 4.8-3.7 8.2-9 8.2-8.4 0-9.4-2-11-21.1-1.2-14.9-.8-18.2 2.3-20.4 2.4-1.7 8.9-2 11.6-.5zm-50.7 11.5c-.4 11.4-.4 11.4 6.4-1.8 2.4-4.8 4.8-8.7 5.3-8.7s1.3.6 1.9 1.2c.7 1-.2 3.4-3.4 8.8-2.4 4.1-4.4 8-4.4 8.5 0 .6 2 5.8 4.4 11.5 4.1 9.7 4.4 10.6 2.8 11.8-2.3 1.7-3.3.2-6.8-9.9-1.5-4.3-3.1-7.9-3.5-7.9-1.9 0-3 4.6-2.7 10.8.3 6.3.2 6.7-1.9 7l-2.3.3v-42.2l2.3.3c2.1.3 2.2.6 1.9 10.3z"/><path d="M440.7 61c-3.5 13.1-3.4 15 .3 15 3.5 0 3.6-.8 1.6-11-1-5.2-1.4-6-1.9-4zM300.3 94l-2.1.9 2.5 6.8c2.9 8.2 3.5 8.8 6.3 7.3 2.6-1.4 2.3-4.2-.9-11.6-2.1-4.6-2.3-4.8-5.8-3.4zm275.1.2c-3.3 7-3.4 7.3-1.5 8.2 1.1.5 2.7.6 3.5.3 1.7-.7 6.6-9.7 6.6-12.1 0-1.4-2.8-3.6-4.5-3.6-.3 0-2.1 3.3-4.1 7.2zm24.3 17.8c-2.6 3.3-4.7 6.3-4.7 6.8 0 .9 5 3.6 5.5 3 .6-.6 4.6-15 4.3-15.3-.2-.2-2.5 2.3-5.1 5.5zm-366.1-5.7c-1.6 1.2-1.4 1.7 2.1 7.9 2.1 3.7 4.2 6.8 4.7 6.8s1.7-.7 2.7-1.6c2.1-1.9 1.5-4-2.7-10.4-2.8-4.3-4-4.7-6.8-2.7zM398 135.6c-25.9 3.1-43.2 6.8-64.5 13.9-44 14.7-79.5 36.5-112.6 69.5-17.6 17.4-27.9 29.9-27.9 33.5 0 3 4.1 5.9 6.9 5 1.1-.3 4.2-3.4 6.9-6.8 6.8-8.7 19.9-22.7 29.5-31.5 40.1-36.9 87.6-60.1 143.5-69.9 14.7-2.6 17.5-2.8 44.7-2.8 31 0 38.4.7 62.3 6.1C555 167.9 616.7 210 655.9 268c18.4 27.2 30.1 52.7 39.1 85.4 2.1 7.6 4.4 14.3 5.2 14.7 2.5 1.6 5.7.9 7.4-1.6 1.5-2.3 1.4-3.1-1.1-13.2C696.9 315.1 679 279 653 245c-9.4-12.2-35.8-38.6-48-48-42.2-32.3-86.1-51.3-138-59.6-10.1-1.6-59.8-2.9-69-1.8zm277.3 31.2C666 175 661 180.5 661 182.6c0 2.8 2 5.4 4.2 5.4 2 0 20.9-17.4 23-21.3 1.1-2.2-1.4-6.7-3.7-6.7-.8 0-5 3.1-9.2 6.8zm28.2 22.4c-4.4 3.9-4.6 4.3-2.9 5.5 2.8 2 4.3 1.6 8.1-2.2 2.9-2.9 3.3-3.7 2.3-5.5-.6-1.1-1.4-2-1.9-2-.4 0-3 1.9-5.6 4.2zm-15.3 13.6l-6.4 5.7 2.4 2.2c2.2 2.1 2.5 2.1 5.3.7 4.9-2.5 8.5-6.5 8.5-9.4 0-2.4-1.6-5-2.9-5-.4 0-3.5 2.6-6.9 5.8zm-553.8-10.7c-.5.9 23.2 25.9 24.6 25.8.3 0 1.3-1 2.2-2.3l1.7-2.4-13.4-11.1c-7.4-6.1-13.7-11.1-13.9-11.1-.3 0-.8.5-1.2 1.1zm581.4 30.7c-6.5 4.2-12 8.5-12.4 9.4-1.5 4.6 2.6 7.9 6.8 5.7 5.6-2.9 22.8-15.6 23.3-17.1.9-2.6-1.3-5.8-3.8-5.8-1.2 0-7.5 3.5-13.9 7.8zm27 25.8c-3.8 1.9-6.8 3.7-6.8 4 0 1.7 2.3 4.4 3.8 4.4 2.6 0 12.2-5.9 12.2-7.4 0-2-1.1-4.6-1.9-4.6-.3.1-3.6 1.7-7.3 3.6zM70.4 313.5c-.3.8-.3 1.9.1 2.4.8 1.4 16.4 6.3 17.6 5.6.5-.4.9-1.7.9-3 0-2.1-.9-2.7-6.6-4.5-7.8-2.4-11.3-2.5-12-.5zm-2.4 9c-1.9 2.3.9 4.9 7.8 7 7 2 9.6 1.7 10-1.2.3-1.9-.6-2.5-6.5-4.3-3.7-1.1-7.5-2.3-8.4-2.6-.9-.2-2.2.2-2.9 1.1zm-7.9 32.7c-1.9 5.1.4 6.3 18.3 9.8 12.8 2.6 15.6 2 15.6-3 0-3.8-.9-4.2-16.1-6.9-14.7-2.7-16.7-2.7-17.8.1zm366.4 58.7c-4.4 2.1-11.3 6.9-16.9 11.9l-3.8 3.3 1.6 4.6c.9 2.6 1.6 6.1 1.6 7.9 0 6.5 6.4 10.3 13.4 7.9 8.7-3 14.7-12.6 15.4-24.5.4-6.6.1-7.8-1.8-10.3-2.5-3.2-4.1-3.3-9.5-.8zm256.3 120.8c-.9 1-5 8.5-9.1 16.8-12.8 25.4-27.9 46.5-48.2 67.4-43.4 44.7-97.5 72.5-160 82.3-18.9 3-59.6 3.2-78 .5-77.9-11.6-144.7-51.9-189.8-114.7-3.4-4.7-6.6-8.8-7.2-9.2-3.2-2.3-8.5.5-8.5 4.5 0 4.4 24.3 34.8 39.7 49.8 47.8 46.5 107.4 74.4 173.5 81.5 18.1 1.9 53.1 1.4 69.4-1 84.8-12.6 156.2-57.7 202.9-128.2 8.2-12.3 24.5-42.9 24.5-45.9 0-2.1-3.6-5.5-5.8-5.5-1.1 0-2.6.8-3.4 1.7z"/><path d="M324.2 575c-1.2.5-2.7 2.1-3.2 3.5-1.4 3.6-1.3 30.4.1 34.4 3 8.5 14.9 5.7 14.9-3.4 0-2.9-.3-3.6-1.7-3.3-1.1.2-2 1.5-2.3 3.2-.7 4-3.4 5.6-5.7 3.3-1.5-1.5-1.9-4-2.1-16.1-.4-15.3.3-18.6 3.9-18.6 2.3 0 3.9 3.5 3.9 8.6 0 2.8.3 3.5 1.8 3.2 1.3-.3 1.6-1.2 1.4-4.3-.4-5.7-2-9.1-4.8-10.4-2.9-1.3-3.1-1.3-6.2-.1zm42.6.1c-3.9 1.5-4.8 5.8-4.8 22.6 0 13.4.1 14.3 2.3 16.9 3.2 3.7 10.5 4 13.9.6 2.2-2.2 2.3-2.9 2.3-19.2 0-15.6-.2-17.1-2-18.9-2.5-2.4-8.1-3.4-11.7-2zm8.6 5.5c.3.9.6 8.2.6 16.4 0 15.9-.5 17.5-5.2 16.8-4.1-.6-4.9-4-4.2-18.3.3-7.2.8-13.8 1-14.8.7-2.3 6.9-2.4 7.8-.1zm31.6 15.5v21l2.3-.3c2.1-.3 2.2-.7 2.1-10.1l-.1-9.7h3.2c1.9 0 3.5-.6 3.8-1.4.8-1.9-.1-2.6-3.5-2.6H412v-13.9l4.2-.3c3.1-.2 4.4-.8 4.6-2.1.3-1.5-.5-1.7-6.7-1.7H407v21.1zm39 0v21l2.3-.3c2.1-.3 2.2-.7 2.2-10.1V597h3.1c1.8 0 3.4-.6 3.7-1.4.8-1.9-.1-2.6-3.5-2.6H451v-13.9l4.2-.3c3.1-.2 4.4-.8 4.6-2.1.3-1.5-.5-1.7-6.7-1.7H446v21.1zm39-.1v21h7c6.3 0 7-.2 7-2 0-1.7-.7-2-4.4-2-5.1 0-5.6-.9-5.6-10.2v-5.7l4.3-.3c2.9-.2 4.2-.8 4.2-1.8 0-1.1-1.3-1.6-4.4-1.8l-4.3-.3.6-3.7c.3-2 .6-5.2.6-7 0-3.1.1-3.2 4.5-3.2 3.8 0 4.5-.3 4.5-2 0-1.8-.7-2-7-2h-6.9l-.1 21zm40 0v21h7c6.3 0 7-.2 7-2 0-1.7-.7-2-5-2h-5v-16h4c3.3 0 4-.3 4-2s-.7-2-4-2h-4v-14h4.3c4.8 0 5.8-.5 5-2.6-.4-1-2.3-1.4-6.9-1.4H525v21zM341.2 775.7c-3.2 12.8-3.2 12.3-.7 12.9 3.9 1 4.5.2 6.9-10.6.6-3-.2-4.5-3.1-5.4-1.9-.6-2.3-.2-3.1 3.1zm159.2-19.2c-.3.8.2 5 1.2 9.5 1.5 7.3 1.9 8 4.1 8 1.3 0 2.6-.6 2.9-1.4.6-1.7-2.3-14.5-3.7-16.3-1.5-1.7-3.8-1.7-4.5.2zm-9.9 2.5c-.7 2.1 1.1 12.3 2.6 15.2 1 1.9 4.4 2.4 5.3.9.5-.8-1.3-10.7-3-16.4-.7-2.3-4.1-2.2-4.9.3zm-36.9 4.6c-1.8 1.8-1.9 3.8-.6 19.2.5 6.3 1.5 12 2.1 12.8.7.9 2.5 1.4 4.3 1.2l3.1-.3-.1-10c-.1-5.5-.4-12.6-.8-15.8-1-7.9-4.3-10.8-8-7.1z"/></svg>