<svg version="1.0" xmlns="http://www.w3.org/2000/svg" width="560" height="560" viewBox="0 0 420 420"><path d="M190.5 2c-83.3 8.6-153.3 64.5-179 143-14.2 43.6-14.2 87.3.1 131 14.4 44 44.6 83.4 83.6 109.1 11.2 7.3 29.6 16.7 42.1 21.3 38.8 14.5 84.3 16.9 124.4 6.6 80.1-20.7 139.6-85.1 154.6-167.5 1.8-10.2 2.2-15.6 2.1-35.5 0-25.5-.8-32.4-6.4-53.6C390.9 76.7 323 16 241 3.6c-13.1-2-38.6-2.8-50.5-1.6zm46 47.5c60.9 10 110.7 53.2 128.9 111.6 5.2 16.8 6.9 27.5 6.3 39.9-.5 12.3-2.8 19.2-8.8 27.2-6.4 8.5-15.7 13.5-17.3 9.2-1.2-3.2 2.3-11.8 9.1-22 1.9-2.9 3.7-7 4-9.2.4-3.3.2-4.2-1.8-5.6-3.4-2.3-5.7-2-12.4 1.8-5.9 3.4-5.9 3.4-7 1.3-1.3-2.6-6.3-3.4-11.6-1.8-3.6 1.1-3.6 1.1-2.6 4.9.8 3.1.6 5.2-1.2 11.1-2.1 6.8-2.5 7.4-6.4 9.1-7.6 3.5-8.4 2.9-6.7-4.5 1.8-7.9-1.9-15.5-7.5-15.5-2.7 0-7.5 5.2-7.5 8 0 3.8-1.2 5-4.7 5-2.8 0-4.3.8-7 3.6-1.8 2-6.2 5.6-9.6 8.1-3.4 2.5-6.7 5-7.4 5.5-.8.7-1.7 0-2.8-2.3l-1.7-3.2 4.1-3.8c4.5-4.2 5.1-6.7 2.1-9.4-3.6-3.3-11.9-1.5-15.7 3.4-1.7 2.2-1.6 7.6.1 10.9 1.4 2.6 1.2 2.9-8.6 13.9-10.3 11.7-13.2 13.5-14.1 8.7-1.7-8.8 11.9-41.6 20-48.6 1-.8 4.7-2.5 8.3-3.8 11.1-3.9 15.6-7.8 12.6-10.8-3.6-3.7-17.2 0-24.8 6.7-2 1.7-3.9 3.1-4.3 3.1-3.2 0-11.5-10.2-11.5-14.1 0-.6 3.1-4.5 7-8.5 7.1-7.5 10.2-12.4 11.5-18.1.5-2.7.2-3.7-1.9-5.8-4.5-4.5-10.6-2.8-17 4.6-5.1 6-7.9 14-7.3 20.6l.5 5.1-3.9 1.6c-4.7 1.9-8.1 2-9.7.4-3.3-3.3 1-15.3 8-22.5 4.6-4.7 4.4-6.4-.5-4.4-8.5 3.5-12.6 4.1-17.4 2.5-6.6-2.3-7.7-1.5-7 5.2.5 4.9.2 6.2-3 12.4-4 7.8-10.1 15-12.6 15-6.1 0 5.1-38.2 19.9-67.9 7-14.2 15.7-28.2 21.5-34.9 3.4-3.8 3.6-5.3 1.2-7.4-2.4-2.1-6.1-2.8-10.6-2-3.3.6-4.1 1.3-5.2 4.2-.7 1.9-4.5 10.5-8.3 19-7.7 17-15.6 37.7-19.8 51.7l-2.7 9-4.1-.4C157 166.2 145 181.9 145 197c0 5.1-2.1 8-7.2 9.9-6.2 2.3-5.7-4.4 1.3-17.8 4.3-8.1 4.8-11.1 2.2-13.6-2.2-2.3-6.7-1.3-11.5 2.5-2 1.7-3.9 3-4.2 3-.3 0-1.6-1-2.7-2.1-1.8-1.8-3-2.1-8.1-1.7-6.9.5-6.6 2.2-2.9-14.2 2.8-12.9 2.8-18.1-.3-21.7-2.4-2.7-2.7-2.8-12.3-2.8-9.7 0-10.2.1-18.6 4.3l-8.6 4.2 2.5 5.6c3.1 7 6.9 20.3 7.9 27.1.6 4.6.4 5.2-1.3 5.7-3.4 1.1-13.5 8.1-17.5 12.2-5.1 5.1-7.7 10.4-7.7 15.5 0 3.3.6 4.7 3.4 7.5 3.7 3.7 6.2 4.2 10.4 2 7.3-3.8 13.6-14.7 15.4-26.4 1.5-9.9 1.9-10.5 7.9-12.4 2.9-1 5.5-1.6 5.7-1.4.2.2-1.3 7.1-3.2 15.3-2 8.2-3.9 17.7-4.2 21.1-.6 5.7-.9 6.1-3.5 6.7-1.6.4-5.6 2.6-8.8 5-9.5 7-17.1 17.8-20.2 28.5-.7 2.5-1.6 4.9-2 5.4-.9 1.1-4.2-9.5-7.1-22.8-3-13.9-3.2-45.2-.4-60.1 8.2-43.9 33.5-82.5 70.1-106.7 23.4-15.6 48.5-24.3 78-27.2 7.3-.7 29.9.4 39 1.9zM100.1 153.1c2 2 2.1 2.8 1.5 10.8-1 12.3-1.8 15.5-4.1 15.9-1.1.2-3.9.9-6.2 1.7l-4.2 1.4-.6-3.7c-.7-4.9-3.4-19.2-4.1-21.8-.5-1.7.3-2.4 4.3-4.2 6.3-2.8 10.7-2.8 13.4-.1zm139.7 14.1c.3 2.3-.8 3.9-5.2 8.3-3 3-5.9 5.5-6.5 5.5-1.4 0-1.4-4.4-.1-9.2 2-7.2 11.1-10.7 11.8-4.6zm-70.9 7.1c1.3 1.6-.2 12.6-2.4 16.6-2 3.9-6.7 8-9.5 8.3-2.2.3-2.5-.1-2.8-3.5-.5-6.1 2.4-14.2 6.7-18.7 4-4.2 6.1-4.9 8-2.7zm36.1-.6c0 .5-.9 3.2-2 6.1-2.6 6.7-2.6 11.6 0 14.2 2.7 2.7 5.9 2.5 13.8-.7 6.3-2.5 6.7-2.5 7.7-.8 2.2 3.9 7.7 9.3 10.5 10.5 1.7.7 3 1.4 3 1.7 0 .2-1.7 3.3-3.9 6.8-4.8 8.1-9.9 23.2-11.3 34l-1.1 8.4-5.6 4.9c-7.4 6.4-10.8 8.5-12.6 7.8-2.4-.9-1.8-4.7 2.5-16.7 2.2-6.2 4-12.9 4-14.9 0-3.2-.4-3.9-2.9-5-2.3-.9-3.8-.9-6.4-.1-3.3 1.1-3.4 1.3-3 5.4.4 3-.4 7.6-2.7 15.3-8.2 28.3-3.5 32.4 17.4 15 4.3-3.6 8.2-6.6 8.7-6.6s.9 1.1.9 2.5.9 3.4 2.1 4.6c4.1 4.1 10.1-.2 19.7-14.4 8.6-12.7 9.7-13.7 11.7-11.1 1.7 2.3 1.9 4 .4 4.9-2.2 1.4-6.9 8.9-6.9 11 0 3.8 4.9 4.6 10.6 1.9 4.7-2.2 6.7-6.5 6.2-12.5l-.5-4.8 5.9-5.1c3.3-2.7 6.4-5 6.8-5 .4 0 1 2.9 1.2 6.5.4 6.4 2.3 10.5 5.9 12.8 4.1 2.6 12.3-3.4 17.9-13.1 3.6-6.3 5.2-7.2 12.2-7.2 2.5 0 2.9.3 2.3 1.7-3.2 8-3.7 10.5-2.5 12.8 1.1 2 5.5 4.5 8 4.5.4 0 1.3-2.8 1.9-6.1 1.4-6.9 6.3-21.4 9.2-27.1 1.4-2.7 3-4.1 6.3-5.3 2.4-.9 4.9-1.4 5.5-1 1.7 1 1.3 5.9-.8 11.2-2.7 7-4.5 15.7-3.7 18.7 1.6 6.5 8.7 4.9 21.6-4.8 10-7.6 10-7.5 7 7.5-13.9 68.4-69.4 120.8-137.8 129.9-10.9 1.5-33.6 1.4-44.2 0-35.6-4.9-68.3-21.2-93.8-46.8-11.4-11.5-13.3-14.3-17.3-26.2-2.7-8.1-3.3-11.3-3.7-22.2-.8-20.8 2.9-33 12.8-42.2l5.1-4.8 2 2.1c2.7 2.9 3.9 2.6 3.9-.9 0-3.9 2.7-5 12.1-5 8.2 0 12.2 1.7 14.5 6.2 2.5 4.8 1.4 14.5-2.6 23.8-4.3 9.9-6 16.4-6 22.8 0 4.3.5 5.7 2.5 7.8 2.5 2.5 11.9 7.4 14.3 7.4 1.7 0 2.8-3 4.8-13 3.2-16.5 11.6-38.6 15.2-39.8.9-.3 1.2 3.3 1.2 15.5 0 13.4.3 16.4 1.9 20 3 6.6 12.5 10.2 13.5 5 5.1-26.8 10.6-39.7 23-53.5 3.1-3.4 5.6-6.9 5.6-7.6 0-3-10.8-3.6-13.3-.8-4.4 4.8-17.7 37.3-17.7 43.3 0 1.3-.5 3.1-1 3.9-.9 1.3-1.2 1.3-2.5-.4-1.9-2.5-2.7-9.7-2.8-28.2l-.2-15.9-4.7-.3c-2.7-.2-4.8-.2-4.8 0s-.9 4.5-1.9 9.5c-1.3 6.1-3.8 13.3-7.4 21-3 6.5-6.5 14.6-7.7 18-1.2 3.5-2.8 6.3-3.5 6.3-3.1 0-3.3-10.7-.4-21.6 2.9-10.6 2.9-17.8.3-22.9-3.8-7.4-10.8-10.5-23.7-10.5H98l.6-4.3c.9-5.7 8-34.6 8.7-35.3 1-1 4.7.7 5.8 2.7.8 1.6.4 4.4-1.7 12.2-3.8 14.4-4 16.8-1.8 18.4 1 .7 3 1.3 4.4 1.3 2.5 0 2.7-.3 2.8-5.6.1-3 1.1-9.2 2.3-13.7 2.4-8.8 5.5-13.1 10.3-14.3 4.8-1.2 5.3.7 2.8 10-2.4 9.3-2.7 12.8-1.2 15.7 1.6 2.8 5.2 2.3 10.9-1.5 4.7-3.2 5.3-3.4 7.7-2.1 3.9 2 7.6.2 13.4-6.3l5-5.6.6 3.2c.3 1.7 1.4 3.8 2.4 4.7 1.6 1.5 2.1 1.5 4.8.1 4.7-2.4 13-12.3 16.4-19.5 2.9-6.3 3.4-6.9 7.2-7.8 5.7-1.4 5.6-1.4 5.6-.6zm-122.5 20c-1.8 11.9-10.3 21.1-16.6 17.9-1.9-1-2.4-2-2.3-4.8.1-4.6 2.9-8.2 10.7-13.6 8-5.6 9.1-5.5 8.2.5zm186 2.3c-1.6 1.8-11.1 6-13.6 6-2 0 .3-2.1 5.4-5 2.9-1.6 6.3-3 7.6-3 2.3 0 2.4.1.6 2zm36.3 19.2c1.3 1.3 1.6 5.8.6 10.6-.5 2.3-1 2.9-2.5 2.5-2.9-.8-5.9-5.2-5.9-8.7 0-3.7 1.5-5.6 4.5-5.6 1.2 0 2.6.5 3.3 1.2zm-38.1 7.5c.4 1.2-5.3 7.3-6.8 7.3-1.1 0-2-3.2-1.4-5 1-3.2 7.3-5 8.2-2.3zm35.9 7.3c2 0 1.7 1.1-1.6 6.4-3 4.6-8.9 8.4-11 7.1-1.8-1.1-1-6.7 1.6-12.5l2.6-5.8 3.5 2.4c2 1.3 4.2 2.4 4.9 2.4zm-43.2 23.1c-2.2 3.7-4.4 4.9-4.4 2.4 0-2.7 4.1-7.8 5.3-6.6.6.6.3 2-.9 4.2z"/><path d="M194.4 59c-33 3.8-64.4 18.1-87.7 39.9C92.8 112 85.6 122 90.1 122c.5 0 7.1-6.2 14.7-13.8 23.3-23.6 46.4-36.2 77.4-42.4 16-3.1 39.6-3.1 55.6 0 19.8 4 37.8 11.4 54.9 22.8 9.6 6.4 26.2 21.8 33 30.7 11.8 15.3 20.9 33.1 25.9 50.7 2.8 9.9 4 11.8 6.2 9.7 2.4-2.5-5.8-26.7-14.5-42.5-21.1-38.8-60.8-67.7-104.8-76.2-12.1-2.3-33.4-3.3-44.1-2zm16.1 146.2c-1.1.6-3.7 2.5-5.8 4.1-3.6 2.8-3.8 3.2-3.2 7.1.9 5.2 2.1 6.6 5.5 6.6 5.4 0 11.3-10.6 9-16.4-1-2.8-2.4-3.2-5.5-1.4zM341 277.7c-8.2 15.3-14.5 23.9-27 36.4-17.4 17.5-34.8 28.3-57.9 35.9-15.9 5.3-28.5 7.3-46.1 7.3-30.6 0-57-8.1-83.1-25.4-10.5-7-29.9-25.8-36.3-35.2-3.9-5.7-7.6-7.6-7.6-4 0 2.7 9.5 14.8 19.5 24.9 67.2 67.9 180.4 57 233.6-22.3 7.5-11.3 14.4-24.7 13.4-26.3-1.5-2.5-3.7-.3-8.5 8.7z"/></svg>