<svg version="1.0" xmlns="http://www.w3.org/2000/svg" width="596" height="596" viewBox="0 0 447 447"><path d="M199 15.1C113.4 25 41.6 87.6 20 171.4c-8.4 32.6-8.5 69-.3 102.6 12.5 51.4 47 99 92.2 127 77.1 47.8 176 41.2 245-16.5 40.4-33.8 66.2-80 73.7-132.1 2.3-15.7 2.2-43.9 0-58.8C415.8 97.9 341 25.7 245.5 15c-10.6-1.2-35.8-1.1-46.5.1zm50.2 47.8c69.7 12 122.8 64.9 134.3 134.1 3 17.8.9 30.8-7 42.5-4.1 6.2-12.5 12.8-15.4 12.3-4.1-.8-1.6-9.8 6-21.4 4.9-7.5 6.3-11.9 4.7-14.8-2.4-4.6-7-4.8-14.5-.6-6.1 3.4-6.3 3.5-6.3 1.5 0-2.3-3.9-3.8-8.3-3.1-6.7 1.1-7.5 1.9-6.9 7.1.6 6.1-2.4 16.2-5.5 18.2-1.2.8-3.9 1.9-5.9 2.3-2.9.7-3.4.6-3-.7 1.3-3.2 1.8-9.4 1.2-12.8-.9-4.8-3.8-7.5-8-7.5s-7.3 3.5-8.2 9c-.5 2.9-1 3.7-2.4 3.3-2.3-.6-8.9 2.2-9.6 4.2-.5 1.3-11.4 10-16.1 12.8-.7.5-1.7-.3-2.6-1.9-1.4-2.6-1.2-2.9 2.9-6.9 2.4-2.3 4.4-4.7 4.4-5.4 0-.6-1.2-2.4-2.6-3.8-2.2-2.2-3.2-2.5-6.6-2-4.9.7-8.8 3.3-10.7 7.2-1.2 2.5-1.2 3.5.2 7.9l1.6 5-5.7 6.1c-3.1 3.3-7.6 8.2-10 10.8-2.3 2.7-4.8 4.7-5.5 4.5-5.8-2 6.2-36.6 16.6-48 3.2-3.6 5.5-5 10-6.4 7-2.1 13.7-6.7 13.7-9.4 0-6.8-16.7-4.1-26.8 4.4-1.6 1.5-3.5 2.6-4 2.6-2.1 0-7.6-5.6-9.3-9.5l-1.8-4.1 7-7.2c13.5-13.9 15.9-27.2 4.8-27.2-7.3 0-13 4.7-17.5 14.5-1.8 3.7-2.4 6.8-2.4 11.7v6.6l-4.6 1.6c-4.9 1.7-7.6 1.1-8.8-2-1.4-3.7 3.3-14.1 8.8-19.3 2-1.9 3.6-4.3 3.6-5.3 0-2.3.1-2.3-7 .7-6.9 2.9-11.2 3.1-16.5.9-5-2.1-5.9-1-6 7.3 0 5.8-.5 7.7-3.4 12.6-4.6 8.1-10.7 14.5-12.3 12.9-1-1-.8-3.2.6-10 6-29.3 23.9-68.7 40.7-89.9 4.3-5.4 4.9-6.5 3.9-8.3-1.3-2.5-4.9-4-9.5-4-4.8 0-8.5 1.6-8.5 3.7 0 1-2.9 8.1-6.4 15.8-8.2 18.1-14.3 33.8-19.5 50-2.3 7.1-4.4 13.6-4.6 14.3-.4 1-.9 1-2.4 0-3-1.8-10.1 1.4-15.4 7-5.3 5.8-8.7 14.1-8.7 21.6 0 4.9-.3 5.7-3.6 8.6-8 7-9.7.5-3.1-12.1 5.5-10.5 6.1-12.9 4.1-15.7-2.4-3.4-7.3-2.9-12.9 1.4-4.7 3.5-4.7 3.5-6.2 1.5-1.2-1.8-2.5-2.1-7.9-2.1-5.8 0-6.5-.2-6-1.8 1.8-6.2 3.7-14.8 4.6-21 1.1-8.2-.1-13.1-4-15.2-2.8-1.5-15.4-1.5-21 0-4.8 1.3-15.5 6.4-16.4 7.8-.3.5.9 4.4 2.6 8.8C92 178.4 95 189.4 95 194c0 3.2-.4 3.7-5.7 6.5-11.2 5.8-21.3 17.7-21.3 25 0 5.9 5.1 11.5 10.3 11.5 9.3 0 18.5-13 20.9-29.7l1.2-8 4.8-1.8c2.7-.9 5.2-1.5 5.5-1.1.4.3-.8 6.8-2.6 14.4-1.9 7.5-3.6 16.4-3.8 19.7l-.5 6-5.9 2.8c-10.9 5.1-21.7 18.1-26 31.2-1.4 4.1-2.5 6.1-2.9 5.3-1.3-2.4-5.8-21.1-7.1-29.3-1.9-11.6-1.6-37.9.5-49.5 12-67.4 62.7-120 128.3-133 13.5-2.7 13.8-2.7 31.5-2.9 11.5-.1 18.6.4 27 1.8zM112.9 166.5c1.5 1.5 1.8 9.9.6 18-1.1 6.8-1.4 7.2-5.9 8.4-2.4.6-5 1.3-5.8 1.6-1.3.5-1.7-.7-2.3-6-.4-3.7-1.5-9.6-2.5-13.1l-1.8-6.5 3.2-1.6c6.7-3.5 11.5-3.7 14.5-.8zm138.9 11.7c.7.7 1.2 1.8 1.2 2.6 0 1.5-9.8 12.2-11.1 12.2-1.6 0-1-8.1.8-11 2.5-4.3 6.8-6.1 9.1-3.8zM216 191.1c-2.4 5.4-2.7 14.1-.4 16.3 2.3 2.4 9.1 2 15.2-.9 3-1.4 5.5-2.5 5.7-2.5.1 0 .8 1.4 1.5 3 1.4 3.3 8.5 10 10.7 10 2 0 1.6 1.2-2.2 7.6-3.9 6.4-9.9 24-10.9 31.9-1.3 10-1.5 10.3-8.9 16.5-7 6-10.3 7.3-11.3 4.6-.3-.7 1.5-7.3 4-14.6s4.6-14.3 4.6-15.6c0-2.9-3.5-5.4-7.5-5.4-4.8 0-5.9 1.3-6.1 7.2 0 2.9-1.5 10.2-3.2 16.2-3 10.3-4 18.4-2.6 22 .8 2.1 5.6 2.1 9.7 0 1.8-.9 6.7-4.6 11-8.2 4.3-3.5 7.9-6.3 8.1-6.1.2.2 1.1 2.1 2 4.3 1.5 3.7 1.8 3.8 5.1 3.3 5.4-.9 8.7-3.8 15.5-13.9 3.5-5.1 7.3-10.5 8.6-12l2.2-2.7 1.5 2.2c1.4 2.1 1.2 2.6-2.4 7-4.6 5.8-5.5 8.3-3.8 10.4 2 2.3 10.3 1.2 13.4-1.7 3-2.8 4.6-7.9 3.8-12.4-.5-3 0-3.7 5-7.9 3-2.6 5.6-4.7 5.9-4.7.3 0 .8 2.7 1.2 5.9 1 8.4 3.9 12.5 9.4 12.9 3.8.3 4.6-.1 8.6-4.2 2.5-2.4 5.9-6.9 7.6-9.9 2.9-5.2 3.3-5.5 7.8-6 2.6-.3 4.9-.3 5.1-.1.2.2-.4 2.3-1.3 4.7-.9 2.3-1.6 5.5-1.6 6.9 0 3.3 4.2 6.8 8.1 6.8 2.5 0 2.9-.4 2.9-2.6 0-4 2.8-13.9 6.7-23.7 2.8-6.9 4.3-9.3 6.7-10.8 3.7-2.2 7.4-2.5 8.2-.5.3.8-.8 5.7-2.5 11-4.6 14.3-4 21.6 1.7 21.6 3.9 0 11.6-4.1 19.1-10 3.4-2.8 6.4-5 6.6-4.8.5.5-2.3 15.6-4.5 24-3.8 14.7-12.2 33.3-21.3 46.8-24.8 37.3-61.9 61.7-107.2 70.7-12.7 2.5-44.3 2.5-57 0-35-6.9-63.3-22-87.6-46.8-11.7-11.8-14.5-16.4-18.1-29.7-2.9-10.8-3.1-32-.4-41 2.3-7.6 8.1-17 12.5-20.1l3.1-2.2 2.6 2c3.7 2.9 4.2 2.7 4.6-1.6.3-4.3 1.9-5 10.8-5.2 7-.1 11.9 2.3 14.3 6.9 2.6 4.9 1.6 12-3.3 24.2-5.3 13.1-7 22.5-4.8 27.1 1.9 4 12.3 10 16.5 9.5 2.5-.3 2.8-.8 4.9-11.1 3.8-18.3 13-42.7 15.4-41.2.7.4 1 6.1.8 16.3-.2 13.4 0 16.2 1.6 19.4 2 4.1 4.7 6.2 9.2 7.2 4 .9 4.8-.2 6.3-8.4 3.4-18.5 10.3-34.2 19.7-44.9 7.9-9.1 9.1-11 7.3-12.2-2.6-1.6-9.6-2.1-11.9-.9-4.2 2.3-17.8 33.8-19.6 45.7-.4 2.4-1 4.3-1.4 4.3-2.4 0-3.4-7.5-3.5-25.7-.1-10.6-.4-19.6-.7-19.9-1.4-1.4-8.4-1.6-9.5-.3-.6.8-1.8 5.2-2.8 9.9-1 5.2-3.6 12.6-6.5 19-2.7 5.8-6.2 13.8-7.7 17.8-1.5 4.1-3.2 7.5-3.7 7.5-1.6.3-2.7-5.6-2.1-11.1.4-2.9 1.5-8.2 2.6-12 4.2-14.6 1.5-23.5-8.5-28.7-5.1-2.5-6.8-2.9-14.3-2.9h-8.5l.7-5.4c.8-6.4 7.3-32.4 8.3-33.4.4-.4 1.8-.1 3 .8 3 2 2.8 5-.8 17.5-1.6 5.7-3 10.9-3 11.6 0 2.2 3.1 4.3 6.4 4.3h3.3l.5-6.3c.3-3.4 1.6-9.9 2.8-14.5 2.1-7.8 2.5-8.4 6.6-10.8 2.4-1.4 4.8-2.3 5.4-1.9 1.4.9 1.2 5.2-.5 10.9-2 6.5-1.9 14 .1 16 .8.9 1.7 1.6 1.9 1.6 1.3 0 6.6-2.5 9.6-4.6 3.1-2.1 4-2.3 6.2-1.3 4 1.8 7.8.2 13.4-5.7l5.1-5.4.7 2.9c1.5 7.1 6.6 6.5 14.6-1.8 3.7-3.7 7-8.6 9.4-13.5 3.2-6.7 4-7.6 6.3-7.6 1.5 0 3.4-.4 4.2-1 2.2-1.4 2.2-.7 0 4.1zm-34.8 2.4c-.4 9.4-6 18.5-11.3 18.5-2.7 0-3.2-3.3-1.5-10.1 2.3-8.9 7-15.1 11.1-14.6 1.8.2 2 .8 1.7 6.2zm-86.3 13.4c-1.8 11.9-11.7 21.9-16.7 16.9-2-2-1.4-6.9 1.3-10.4 2.1-2.8 13.9-11.4 15.6-11.4.3 0 .3 2.2-.2 4.9zm187.1 1.2c0 1-10 5.9-12.2 5.9-1.8 0 1-2.5 5.7-4.9 4.4-2.3 6.5-2.7 6.5-1zm35 19.9c1.7 1.1 1.9 10.5.2 12.2-2.1 2.1-7.2-3.5-7.2-7.9 0-1.9 2.8-5.3 4.4-5.3.6 0 1.8.5 2.6 1zm-38 8.4c0 1.3-4.9 5.6-6.4 5.6-1.4 0-.4-5 1.2-5.9 2.5-1.5 5.2-1.3 5.2.3zm35.4 6.6c2.4 0 1.9 2.2-1.4 6.8-3 4.2-5.7 6.2-8.4 6.2-2.3 0-2.1-6.1.5-12l2.1-5 2.8 2c1.6 1.1 3.5 2 4.4 2zM273 263.4c0 1.9-3.7 6.3-4.5 5.4-.7-.6 3.1-6.8 4.1-6.8.2 0 .4.6.4 1.4z"/><path d="M199.6 72.5c-35.9 5.9-68.5 23.9-91.9 50.9-6.8 8-7.9 10.9-4.1 11.4 1.5.2 3.7-1.7 8.4-7.3 19.6-23.4 49.8-41.1 82-48.1 6.7-1.5 12.8-1.9 29-1.9s22.3.4 29 1.9c55.1 12 96.8 50.9 112.4 104.8 2.4 8.5 4.5 11.3 6.8 9 2.7-2.7-6.1-28.6-15.3-44.7-22.1-38.7-58.2-65.1-102.4-74.7-12.2-2.6-41.3-3.3-53.9-1.3zM219.8 220c-6.7 4.4-6.9 4.8-5.5 10.5 1.5 5.8 3.4 7.3 7.4 5.9 5.1-1.8 9.4-10.9 7.9-16.9-.9-3.4-4.1-3.3-9.8.5zm138.9 60.7c-.3.5-2.6 4.8-5.1 9.7-7.4 14.1-14.2 23.3-27.1 36.2-30 30.2-66.7 44.7-109 43.1-22.5-.9-41.4-5.6-60.6-15.2-18.1-9.1-39.5-27.2-51.5-43.5-3.3-4.4-6.4-8-7-8-.6 0-1.7.7-2.4 1.5-1.1 1.3-.7 2.4 2.4 6.9 17.2 25 44.6 45.6 74.4 56 17.3 6 30 8 50.2 8 20.6 0 30.7-1.5 48.3-7.4 37-12.4 67.5-38 86.2-72.4 5.2-9.7 6.3-13.4 4.4-14.7-1.7-1.1-2.6-1.1-3.2-.2z"/></svg>