<svg version="1.0" xmlns="http://www.w3.org/2000/svg" width="1432" height="526.667" viewBox="0 0 1074 395"><path d="M994 86v85h79V1h-79v85zm18-70v6h15V12h9v10h17V10h9v20h-58V10h8v6zm0 24v6h15V36h9v10h17V34h9v20h-58V34h8v6zm0 23.5V69h14.9l.3-3.8c.3-3.6.4-3.7 4.6-4l4.2-.3V69h25v9h-57V58h8v5.5zm0 24V93h14.9l.3-3.8c.3-3.6.4-3.7 4.6-4l4.2-.3V93h25v9h-57V82h8v5.5zm45.1 20.8c9.1 6.1 6.7 21.7-3.9 24.7-2 .5-11.6 1-21.2 1-14.7 0-18.1-.3-21-1.8-9.5-4.7-10.7-17.5-2.4-24.1 2.5-2 3.9-2.1 23.9-2.1 20.4 0 21.3.1 24.6 2.3zm-30.1 33.2v4.5h-5.9c-7.2 0-9.1.6-9.1 3.1 0 3.3 3.3 3.9 21.2 3.9 13.6 0 17.8-.3 19.4-1.4 2.7-2.1.8-4.9-3.7-5.6-3.2-.5-3.4-.8-3.7-4.8l-.3-4.2h3.8c5.1 0 10.2 2.9 12.5 7.1 2.3 4.3 2.3 6.6-.2 10.6-3.7 6.1-5.7 6.8-23.3 7.2-22.3.5-26.2-.2-30.9-4.9-4.5-4.4-5-8.6-1.8-13.8 2.7-4.4 7-6.1 15.3-6.2h6.7v4.5z"/><path d="M1013.8 115.1c-2.1 1.2-2.4 6.9-.6 8.7 1.5 1.5 36 1.7 38.9.2 2.3-1.3 2.6-6.2.3-8.4-1.3-1.3-4.5-1.6-19.2-1.6-10.2 0-18.4.5-19.4 1.1zM514.5 4.7c-19.6 4.1-34.8 18.4-38.6 36.4-1.6 7.5-.6 21.1 2.1 28.2 5 13.1 15.2 22 40.1 34.7 21.5 11 25.9 14.9 25.9 22.8 0 11.2-10.5 15.8-26.5 11.7-7.6-2-14.5-5.8-20.3-11.2-5.4-5.1-3.6-6.2-17.1 10.1l-9 10.9 1.7 2.9c5 8.6 18.8 17.6 32.7 21.4 9.1 2.5 28.7 3 37.7 1 19.3-4.3 33.8-16.4 38.9-32.5 4.3-13.6 2-31-5.6-41.6-5.9-8.4-13.7-13.9-33-23.5-9.9-4.9-19.6-10.3-21.6-11.9-6.7-5.6-8.9-14.3-4.8-19.5 3.4-4.3 7.4-5.8 15.5-5.8 8.2.1 14 2.1 20.5 7.3 2.2 1.7 4.2 2.9 4.5 2.7C558.8 47.5 577 21.6 577 21c0-.7-8.3-7-13-9.7-12.2-7.1-33.8-10-49.5-6.6zm160.9-.1c-23 3.8-44 16.8-56.5 35-4.5 6.6-9.6 17.9-12.1 26.9-3.1 11.4-3.1 35.4.1 47 8.1 30.4 29.5 51 61.1 59.1 11.3 2.9 39.4 2.7 50.4-.4 16.8-4.7 32.9-14.7 43.1-27 6.5-7.7 14.5-23.5 17.1-33.7 2.8-10.6 2.5-36.1-.5-47-7.6-27.8-26.7-47.8-54-56.4-16.3-5.1-32.3-6.3-48.7-3.5zm33.1 36.6c24.6 8 37.7 35.2 30.5 63.2-4.6 18.2-16.2 30.1-33.1 34.1-21.4 5-41.6-2.8-53.4-20.8-15.1-23.1-8.7-57.5 13.4-71.6 12-7.8 28.2-9.6 42.6-4.9zm-701-34c.2.7 11 37.3 24 81.3s24 81 24.5 82.2c.9 2.3 1.3 2.3 18.5 2.3s17.6 0 18.5-2.3c.6-1.2 8.2-24.9 17.1-52.7 8.8-27.8 16.4-50.8 16.8-51.2.3-.4 4.8 12.2 10 28 5.1 15.8 12.9 39.8 17.3 53.5l8 24.7 18.1-.2 18-.3 22.8-80.9c12.5-44.4 23-81.9 23.3-83.2L245 6l-18.1.2-18.2.3-14 51.7C187 86.7 180.4 110 180.1 110c-.3 0-2.7-6.9-5.3-15.3-2.5-8.3-9.7-31.7-15.9-52L147.7 6h-38.2L94 58.4c-8.5 28.9-15.8 51.9-16.1 51.3-.4-.7-6.6-23.5-13.8-50.7C56.8 31.8 50.7 8.7 50.4 7.7 49.9 6.2 48 6 28.5 6c-16.7 0-21.3.3-21 1.2zM270 89.5V173h37V6h-37v83.5zm83 0V173h106v-36h-68V6h-38v83.5zm460 0V173h35l.2-50.2.3-50.1 35.4 44.9c19.5 24.7 37.4 47.3 39.8 50.1l4.5 5.3H958V6h-36l-.2 50-.3 50-6.1-7.7c-3.3-4.3-21-26.8-39.3-50.1L842.8 6H813v83.5zM29 201.2c-5.4 2.8-8.7 7.4-9.6 13.6-1.9 12.6 5.9 22.3 17.9 22.4 6.5.1 12.9-2.4 12.1-4.6-.7-1.9-.8-1.9-6.2-.1-10.5 3.7-19.2-3-19.2-14.7 0-11.9 9.2-17.5 21.6-13.3 1.5.5 2.3.2 2.8-1 .4-1.2-.3-2-2.9-3.1-5-2.1-11.4-1.8-16.5.8zM72 218v19h10.5c9.8 0 10.5-.1 10.5-2 0-1.8-.7-2-8.5-2H76v-13h7.5c6.8 0 7.5-.2 7.5-2s-.7-2-7.5-2H76v-13h8.6c7.6 0 8.5-.2 8.2-1.8-.3-1.5-1.7-1.7-10.6-2l-10.2-.3V218zm40-17c0 1.6.8 1.9 6.3 2.2l6.2.3.3 16.7c.2 15.9.4 16.8 2.2 16.8 1.8 0 2-.9 2.2-16.8l.3-16.7 6.3-.3c5.4-.3 6.2-.6 6.2-2.2 0-1.9-.8-2-15-2s-15 .1-15 2zm51 17v19h6.5c10.4 0 16-3.3 17.2-10.2.7-4.5-1.9-10.1-5.5-11.8-1.5-.7-5.2-1.4-8.2-1.6l-5.5-.3-.3-7c-.3-6.3-.5-7.1-2.2-7.1-1.9 0-2 .8-2 19zm17.1 1.6c1.2 1.1 1.9 3.1 1.9 5.5 0 5.2-3.5 7.9-10.1 7.9H167v-7.3c0-4.1.3-7.7.8-8.1 1.2-1.3 10.3.2 12.3 2zM236 218c0 18.3.1 19 2 19s2-.7 2-19-.1-19-2-19-2 .7-2 19zm14.1-10.1c-4.4 4.9-8.1 9.2-8.1 9.6 0 .3 3.7 4.9 8.2 10.1 5.9 6.7 8.9 9.4 10.5 9.4 1.3 0 2.3-.3 2.3-.6s-3.6-4.6-8.1-9.5c-4.4-5-7.9-9.4-7.7-9.9.2-.5 3.6-4.5 7.6-8.9 3.9-4.4 7.2-8.2 7.2-8.5 0-.3-.8-.6-1.9-.6-1 0-5.3 3.8-10 8.9zm42.2-7.8c-1.8.5-4.8 2.5-6.6 4.4-9.5 9.7-6.3 26.9 5.8 31.5 4.2 1.6 12.8 1.4 16.2-.3 3.7-2 7.9-6.5 9.2-10 2.6-6.9.4-17.4-4.6-21.9-4.7-4.3-12.8-5.8-20-3.7zm13.4 4.6c9.3 4.4 10.8 18.1 2.9 25.1-4.7 4.1-9.4 4.8-15.1 2.3-6-2.6-8.5-6.9-8.5-14.3 0-5 .4-6.2 3.2-9.4 1.8-2 4.1-4 5.2-4.4 3.4-1.4 8.6-1.1 12.3.7zM356 201c0 1.4-.7 2-2.1 2-4.5 0-10.1 2.5-12.9 5.7-2.5 2.8-3 4.3-3 8.4 0 8.8 4.3 13.5 13.5 14.8 3.2.5 4.1 1.1 4.3 2.8.5 3.3 4.2 3.1 4.2-.2 0-2.2.5-2.5 3.3-2.5 7.3 0 14.7-6.9 14.7-13.7 0-8.1-5.1-13.6-13.7-14.9-3.3-.5-4.3-1.1-4.3-2.5 0-1.2-.7-1.9-2-1.9s-2 .7-2 2zm-.2 16.7l-.3 10.8-2.9-.3c-7.6-.8-11.7-6.2-10-13 1.1-4.3 6.1-8.2 10.6-8.2h2.9l-.3 10.7zm11.7-9.3c4.1 1.7 5.8 4.7 5.8 10 0 3.2-.6 4.5-3.2 6.8-1.7 1.5-4 2.8-5 2.8-1.1 0-2.6.3-3.5.6-1.4.5-1.6-.8-1.6-10.5 0-12.4.2-12.7 7.5-9.7zm33.2-8.7c-.4.3-.7 8.9-.7 19V237h11c10.3 0 11-.1 11-2 0-1.8-.7-2-8.5-2H405v-13h7.5c6.8 0 7.5-.2 7.5-2s-.7-2-7.5-2H405v-13h8c7.3 0 8-.2 8-2 0-1.9-.7-2-9.8-2-5.4 0-10.2.3-10.5.7zm45 0c-.4.3-.7 8.9-.7 19V237h11c10.3 0 11-.1 11-2 0-1.8-.7-2-8.5-2H450v-13h7.5c6.8 0 7.5-.2 7.5-2s-.7-2-7.5-2H450v-13h8c7.3 0 8-.2 8-2 0-1.9-.7-2-9.8-2-5.4 0-10.2.3-10.5.7zM491 218c0 18.3.1 19 2 19 1.8 0 2-.7 2-8.5V220h21v8.5c0 7.8.2 8.5 2 8.5 1.9 0 2-.7 2-19s-.1-19-2-19c-1.8 0-2 .7-2 8.5v8.5h-21v-8.5c0-7.8-.2-8.5-2-8.5-1.9 0-2 .7-2 19z"/></svg>