<svg version="1.0" xmlns="http://www.w3.org/2000/svg" width="1424" height="317.333" viewBox="0 0 1068 238"><path d="M988 85.5V171h79V0h-79v85.5zm18-69.5v6.1l7.8-.3 7.7-.3.3-4.8.3-4.7h7.9v10h17V10h9v20h-58V10h8v6zm0 24v6.1l7.8-.3 7.7-.3.3-4.8.3-4.7h7.9v10h17V34h9v20h-58V34h8v6zm0 24v6.1l7.8-.3 7.7-.3.3-3.8c.3-3.6.4-3.7 4.3-3.7s3.9 0 3.9 4v4h25v8h-57V58h8v6zm0 24v6.1l7.8-.3 7.7-.3.3-3.8c.3-3.6.4-3.7 4.3-3.7s3.9 0 3.9 4v4h25v8h-57V82h8v6zm44.1 19.6c6.3 3.2 8.4 13.6 4.2 20.1-3.2 4.8-5.6 5.3-28.4 5.3h-21.1l-3.3-3.3c-6.3-6.3-5.6-16.7 1.4-21.4 3.3-2.2 4.2-2.3 23.8-2.3 16.6 0 21 .3 23.4 1.6zm-29.3 33.6l-.3 4.3-7 .5c-5.7.4-7 .8-7.3 2.3-.8 4.3 1 4.7 20.8 4.7s21.6-.4 20.8-4.7c-.2-1.3-1.4-1.9-4.1-2.1-3.7-.3-3.7-.4-3.7-4.8 0-4 .2-4.4 2.5-4.4 6 0 12.6 4.9 13.9 10.2.9 3.9-1.7 9.4-5.6 11.8-3.1 1.9-4.6 2-25 1.8l-21.7-.3-3-2.9c-1.6-1.6-3.3-4.2-3.6-5.7-1.3-5.9 3-12.7 9-14.2 1.1-.2 4.8-.5 8.3-.6l6.3-.1-.3 4.2z"/><path d="M1007 115.5c-.7.8-1.2 2.6-1.2 4 0 5.3.9 5.5 21.1 5.5 13.2 0 19.1-.4 19.9-1.2 2-2 1.5-7.6-.7-8.8-1.2-.6-9.5-1-19.9-1-14.8 0-18.2.3-19.2 1.5zM506.4 5c-9.4 2.4-15.8 5.8-22.1 11.4-11.4 10.2-15.8 21.5-15.1 38 .4 8.8.9 11.2 3.6 16.9C476.3 79 483.9 87.5 492 93c3 2.1 11.8 6.9 19.5 10.8 15.9 8 21.7 11.9 24.5 16.5 2.3 3.6 2.6 9 .7 12.7-1.6 3.3-9.1 7-14.2 7-9.8 0-22.7-5.3-30.5-12.6-2.6-2.4-5-4.4-5.3-4.4-.4 0-5.4 5.7-11.2 12.6L465 148.1l1.6 3.1c4.6 8.9 21.2 19 36.9 22.4 9.3 2 24.4 2.3 33 .5 9.7-2 22.1-8.5 28.5-15 13.8-13.7 17.6-35.2 9.4-53C568.8 93.8 561 87.5 536 75c-9-4.5-17.9-9.4-19.8-10.8-4.7-3.6-7.6-9.6-6.9-14.5 1-7.2 6.5-10.7 16.9-10.7 8.5 0 12.7 1.3 19 6 2.9 2.2 5.5 4 5.9 4 .3 0 5-6.1 10.4-13.6 7.8-10.9 9.6-14 8.8-15.3-1.7-2.7-12.8-9.8-19-12.1-13.8-5.2-32-6.4-44.9-3zm161.3-.5c-29 5.5-53.6 25.4-63.6 51.5-9 23.2-7.8 52.6 3 74.5 12.3 25.1 37.4 41.2 69.1 44.5 38.8 4 74-13.9 89.7-45.5 6.3-12.5 8.2-20.8 8.8-37 .7-18.7-1.5-29.4-8.8-44.3-4.6-9.4-6.2-11.7-14.8-20.3-8.5-8.5-10.9-10.2-20.1-14.7-5.8-2.8-14.3-6.1-19-7.2-11.3-2.8-33.3-3.6-44.3-1.5zm31.8 35.9c22.7 6 37 27.7 35.1 53.4-1.9 25.1-16.4 41.7-39.8 45.4-30.5 4.7-56.2-18.5-56.2-50.7.1-23.7 13.3-42.2 34.4-48.1 6-1.7 20.3-1.7 26.5 0zM1.4 7.7c.3 1 11 36.9 23.6 79.8 12.7 42.9 23.6 79.7 24.2 81.7l1.1 3.8h36.4l16.9-53c9.3-29.1 17.1-53 17.4-53 .6 0 4.1 10.7 23.5 70.3l11.6 35.7 18.2-.2 18.2-.3L215.2 92c12.5-44.3 23-81.7 23.3-83.3l.7-2.7-18.4.2-18.3.3-14.1 51.9c-7.7 28.6-14.3 51.5-14.6 51-.3-.5-7-21.8-14.7-47.4-7.8-25.6-14.9-48.6-15.7-51.3L141.8 6h-38.4L88 58c-8.5 28.6-15.7 51.6-16 51.2-.4-.4-6.6-23.2-14-50.7C50.7 31 44.5 7.9 44.3 7.2c-.4-.9-5.7-1.2-22-1.2-20 0-21.4.1-20.9 1.7zm261.8 81.5l.3 83.3 18.8.3 18.7.2V6h-38l.2 83.2zm83.8.3V173h106v-36h-68V6h-38v83.5zm459.2-.3l.3 83.3 17.7.3 17.8.2.2-50 .3-50.1L882 123l39.5 50H952V6h-36l-.2 49.8-.3 49.8-39-49.7-39-49.8h-15.8L806 6l.2 83.2zM23.5 200.4c-13.4 5.8-13.9 28.8-.8 35.1 7.3 3.6 22.3 1.3 20.6-3.1-.4-1.1-1.2-1.3-2.7-.8-1.1.3-4.4.9-7.2 1.1-9.5.8-15.4-4.6-15.4-14.2 0-9.9 6.2-16.1 15-15.1 2.5.3 5.6.7 6.9.8 3.8.5 3.7-2.1-.3-3.7-4.3-1.8-12.1-1.9-16.1-.1zm42.2-.7c-.4.3-.7 8.9-.7 19V237h11c10.3 0 11-.1 11-2 0-1.8-.7-2-8.5-2H70v-13h7.5c6.8 0 7.5-.2 7.5-2s-.7-2-7.5-2H70v-11.9l8.3-.3c7.6-.3 8.2-.5 8.5-2.6.3-2.2.2-2.2-10.1-2.2-5.7 0-10.7.3-11 .7zm39.7.7c-1.1 2.7.7 3.6 7.2 3.6h6.4v16.5c0 15.8.1 16.5 2 16.5s2-.7 2-16.5v-16.4l6.8-.3c5.9-.3 6.7-.5 6.7-2.3 0-1.9-.8-2-15.3-2.3-12.7-.2-15.3 0-15.8 1.2zM157 218v19h7.1c8.7 0 13.2-1.9 15.3-6.5 2.8-5.9 1.5-12-3.2-15.1-1.4-.9-5.4-1.9-8.9-2.2l-6.3-.5v-6.8c0-6.2-.2-6.9-2-6.9-1.9 0-2 .7-2 19zm13.2 0c5.8 1.6 7.7 7.4 4 12-1.4 1.8-3.2 2.4-7.5 2.8l-5.7.4v-7.5c0-6.4.3-7.6 1.8-8 2.8-.8 3.5-.7 7.4.3zm59.8 0c0 18.3.1 19 2 19s2-.7 2-19-.1-19-2-19-2 .7-2 19zm14-10.1c-4.5 4.9-8.1 9.3-8 9.8.1.4 3.8 5 8.2 10.1 6.8 7.8 8.4 9.2 11 9.2 3 0 3 0-4.3-8.3-4-4.5-8-9-8.8-10-1.3-1.6-1-2.3 4-7.5 3-3.1 6.8-7.2 8.4-9l2.9-3.2h-2.6c-2.1 0-4.5 2.1-10.8 8.9zm40.3-7c-11.4 5.2-13.9 22.8-4.3 31.4 12.6 11.5 32 3.3 32-13.6 0-3.1-.5-6.8-1.1-8.4-3.6-9.5-16.3-14-26.6-9.4zm15.7 4.2c4.4 2.7 5.7 4.4 7 9.1 1.4 4.9-.1 10.8-3.9 15-2.3 2.6-3.7 3.2-8.4 3.6-6.7.5-11.6-1.9-14.1-7.2-6.4-13.5 7.2-27.9 19.4-20.5zm49-4.1c0 1.5-.7 2-2.5 2-9.5 0-16.9 9.3-14.5 18.2 1.9 6.8 4.9 9.2 14.2 11.2 1.8.4 2.8 1.4 3 2.9.2 1.4 1.1 2.3 2.6 2.5 1.8.3 2.2-.1 2.2-2.2s.6-2.6 3.8-3.2c5.6-1 10.9-4.3 12.7-8 2.1-4.4 1.9-10.3-.5-14.2-2.2-3.6-8.8-7.1-13.2-7.2-2.1 0-2.8-.5-2.8-2s-.7-2-2.5-2-2.5.5-2.5 2zm0 16.5V228h-2.9c-4 0-8.9-4.3-9.7-8.4-.8-4.5 1.8-9.3 5.9-11.1 6.5-2.9 6.7-2.7 6.7 9zm11.3-9.6c4.4 1.7 6.7 5.1 6.7 9.7 0 5.8-3.1 9.3-8.8 10.1l-4.2.6v-10.7c0-11.6.2-12 6.3-9.7zM394 218v19h11c10.3 0 11-.1 11-2 0-1.8-.7-2-8.5-2H399v-13h7.5c6.8 0 7.5-.2 7.5-2s-.7-2-7.5-2H399v-11.9l8.3-.3c7.4-.3 8.2-.5 8.2-2.3 0-1.9-.8-2-10.7-2.3l-10.8-.3V218zm45 0v19h11c10.3 0 11-.1 11-2 0-1.8-.7-2-8.5-2H444v-13h7.5c6.8 0 7.5-.2 7.5-2s-.7-2-7.5-2H444v-11.9l8.3-.3c7.4-.3 8.2-.5 8.2-2.3 0-1.9-.8-2-10.7-2.3l-10.8-.3V218zm45.7-18.3c-.4.3-.7 8.9-.7 19V237h2.5c2.5 0 2.5-.1 2.5-8.5V220h21v8.5c0 8.4 0 8.5 2.5 8.5h2.5l-.2-18.7c-.3-18.6-.3-18.8-2.5-19.1-2.2-.3-2.3-.1-2.3 8.2v8.6h-21v-8.5c0-7.6-.2-8.5-1.8-8.5-1 0-2.2.3-2.5.7z"/></svg>