<svg width="35" height="35" fill="none" xmlns="http://www.w3.org/2000/svg"><g clip-path="url(#clip0_4_262)" fill="#000"><path d="M34.946 26.985c-.546 4.56-6.043 8-12.786 8-6.062 0-11.211-2.798-12.524-6.803l-.001-.002a6.162 6.162 0 01-.315-1.917c.003-.196.017-.392.041-.587l.007-.062a7.215 7.215 0 012.408-4.453 12.313 12.313 0 01-4.743 1.041 7.65 7.65 0 01-3.88-.974h-.001a5.996 5.996 0 01-1.246-.942 5.923 5.923 0 01-.748-.934c-2.462-3.705-.887-9.93 3.664-14.48C9.036.658 14.83-1.056 18.6.797c.607.293 1.16.684 1.64 1.157.174.179.337.369.488.569 2.804 3.61 1.308 10.132-3.407 14.847a18.87 18.87 0 01-1.468 1.317 17.545 17.545 0 016.308-1.146c6.02 0 11.3 2.892 12.552 6.876.19.597.287 1.22.288 1.846a5.99 5.99 0 01-.054.722zM22.16 33.818c5.677 0 10.523-2.696 11.488-6.257l-.07.007c-.208.024-.406.05-.592.08-.027.003-.052.008-.079.013-.173.029-.338.06-.498.093l-.08.016c-.17.037-.335.075-.497.114l-.104.026-.465.119c-1.505.427-3.064.63-4.628.601a15.81 15.81 0 01-4.622-.602 14.613 14.613 0 00-4.327-.565 14.634 14.634 0 00-4.33.564l-.444.114-.105.027c-.16.04-.323.078-.493.115l-.065.014c-.157.033-.322.066-.493.096l-.09.016c-.187.032-.383.06-.59.087l-.054.008c1.509 3.118 6.03 5.314 11.138 5.314zM5.647 5.698C1.824 9.52.223 14.752 1.754 18.032l.046-.055c.155-.182.298-.358.426-.525l.032-.043c.122-.16.233-.316.337-.467l.051-.074c.106-.156.205-.31.3-.46l.055-.088c.092-.147.182-.294.273-.443a15.846 15.846 0 012.9-3.65 15.763 15.763 0 013.737-2.784 14.62 14.62 0 003.498-2.606 14.644 14.644 0 002.712-3.416l.226-.37.06-.095c.082-.133.167-.267.258-.405l.032-.047c.082-.124.17-.252.263-.383l.064-.09c.105-.144.216-.292.336-.445.009-.01.015-.02.023-.03-3.335-1.123-8.125.53-11.736 4.14zm13.766-2.919a4.782 4.782 0 00-.934-.72l-.028.034a13.02 13.02 0 00-.355.452l-.054.072c-.11.148-.21.291-.304.431l-.056.083a16.75 16.75 0 00-.312.486l-.252.411a15.817 15.817 0 01-2.897 3.648 15.78 15.78 0 01-3.736 2.784 14.604 14.604 0 00-3.498 2.605 14.684 14.684 0 00-2.716 3.42l-.182.297c-.02.034-.043.069-.064.102l-.13.21-.08.124a13.89 13.89 0 01-.902 1.247l-.136.166c-.06.073-.126.15-.192.225l-.153.176-.038.044a4.109 4.109 0 00.95.893l.02-.023c.038-.042.071-.082.107-.124.067-.078.135-.156.197-.231l.11-.138a13.942 13.942 0 00.398-.52 7.925 7.925 0 00.218-.311l.083-.122.12-.184.071-.112.124-.198.058-.094.173-.282a15.874 15.874 0 012.903-3.652 15.763 15.763 0 013.736-2.783 14.612 14.612 0 003.497-2.606 14.68 14.68 0 002.715-3.418c.09-.148.182-.297.277-.449l.06-.096a17.656 17.656 0 01.374-.57c.113-.164.234-.333.367-.509l.068-.088c.144-.188.299-.38.474-.585l.004-.006a2.794 2.794 0 00-.085-.089zm-2.918 13.766c4.045-4.046 5.573-9.448 3.712-12.704l-.042.051c-.125.155-.242.304-.35.448l-.058.08c-.096.132-.187.26-.271.387l-.047.068a15.9 15.9 0 00-.267.415c-.02.03-.038.06-.056.09l-.244.398a15.855 15.855 0 01-2.9 3.65 15.772 15.772 0 01-3.736 2.782 14.62 14.62 0 00-3.498 2.605 14.714 14.714 0 00-2.718 3.421c-.09.148-.181.297-.275.448l-.066.105c-.098.156-.2.314-.311.477l-.069.1c-.114.165-.235.335-.37.513l-.018.024c-.137.18-.293.37-.459.567-.021.024-.037.047-.059.072 3.313 1.371 8.357-.253 12.102-3.997zm5.665 2.163c-5.728 0-10.583 2.725-11.503 6.324l.068-.008c.212-.023.414-.05.602-.08.025-.003.049-.008.073-.012.173-.028.338-.06.497-.092l.095-.02c.168-.035.33-.073.488-.111l.125-.032c.151-.037.301-.076.453-.115a15.896 15.896 0 014.628-.601c1.562-.029 3.12.174 4.622.602a14.62 14.62 0 004.327.565 14.658 14.658 0 004.33-.564c.145-.038.29-.076.439-.113l.122-.03c.158-.04.32-.078.488-.114l.082-.017c.156-.034.318-.065.488-.095l.093-.017c.187-.032.386-.06.595-.086l.06-.009c-1.477-3.153-6.014-5.375-11.172-5.375zm11.558 6.507l-.022.003c-.226.023-.434.05-.633.08l-.086.014a12.569 12.569 0 00-.65.122 16.9 16.9 0 00-.49.112l-.11.027-.468.12a15.811 15.811 0 01-4.624.602 15.807 15.807 0 01-4.622-.602 14.613 14.613 0 00-4.327-.565 14.714 14.714 0 00-4.335.564l-.312.08-.121.03a6.942 6.942 0 01-.218.054l-.13.031-.221.05-.142.03c-.074.017-.15.032-.229.047l-.152.029c-.08.015-.163.029-.247.043l-.158.025c-.09.014-.185.026-.281.04l-.156.02c-.111.013-.229.025-.348.037l-.127.012-.021.003v.04c0 .374.045.747.132 1.112l.024-.003c.221-.023.426-.05.621-.08.03-.006.062-.01.092-.014a12.707 12.707 0 00.647-.122c.166-.036.326-.073.483-.112l.114-.028.461-.118a15.813 15.813 0 014.624-.602c1.562-.03 3.12.174 4.622.602a14.62 14.62 0 004.327.565 14.727 14.727 0 004.335-.564l.319-.082.097-.024.234-.059.134-.031.213-.049.152-.032a15.969 15.969 0 01.607-.114l.18-.029.245-.034.193-.026.284-.03.188-.019.015-.001.002-.106c0-.353-.04-.704-.115-1.048z"/><path d="M28.312 30.118c.24-.124.468-.254.684-.39a.583.583 0 01.621.987c-.242.153-.499.3-.768.44a.584.584 0 01-.537-1.037zm-13.762-.95c1.824 1.471 4.598 2.315 7.61 2.315a14.486 14.486 0 004.488-.675.583.583 0 01.362 1.11 15.648 15.648 0 01-4.85.733c-3.274 0-6.315-.939-8.343-2.575a.584.584 0 01.733-.908zm3.76-19.955c.065-.23.12-.457.164-.681a.584.584 0 011.145.229c-.05.252-.112.507-.184.766a.584.584 0 01-1.124-.314zM6.867 19.292a.583.583 0 01.546-.619c2.4-.147 5.248-1.596 7.43-3.78a14.198 14.198 0 002.709-3.723.584.584 0 011.046.518 15.37 15.37 0 01-2.929 4.031c-2.412 2.412-5.472 3.953-8.184 4.12a.584.584 0 01-.618-.547z"/></g><defs><clipPath id="clip0_4_262"><path fill="#fff" transform="matrix(-1 0 0 1 35 0)" d="M0 0h35v35H0z"/></clipPath></defs></svg>