<svg width="10" height="10" fill="none" xmlns="http://www.w3.org/2000/svg"><path d="M1.839 8.874c-.462-.764-.148-1.96.808-2.856C3.733 5.001 5.234 4.759 6 5.477l.003.003c-.153.418-.642 1.307-2.106 1.787C2.556 7.708 2.04 8.41 1.84 8.874zm3.71-2.225c-.35.329-.848.65-1.553.882-1.43.47-1.83 1.24-1.942 1.612l.015.015c.766.718 2.268.475 3.353-.541.966-.905 1.277-2.117.794-2.88a2.92 2.92 0 01-.667.912zM2.59 3.343c1.545.127 2.381-.495 2.705-.817l-.002-.003c-.382-.95-1.857-1.308-3.293-.8C.734 2.168-.079 3.138.006 4.012c.387-.347 1.166-.786 2.582-.67zm.795 1.818c1.279-.452 2.095-1.437 1.99-2.317a3.18 3.18 0 01-1.009.573c-.463.164-1.058.266-1.802.205-1.51-.124-2.214.422-2.48.72l.008.018c.382.95 1.857 1.309 3.293.8zm4.474-1.98c.927-1.165.801-2.158.679-2.585L8.533.595c-1.064-.194-2.164.793-2.458 2.204-.258 1.243.196 2.4 1.034 2.791-.111-.49-.1-1.342.749-2.41zM8.868.699a2.73 2.73 0 01-.01 1.105c-.094.455-.314.983-.76 1.544-.907 1.138-.78 1.985-.65 2.353l.022.005c1.064.194 2.164-.793 2.457-2.204.262-1.256-.204-2.424-1.06-2.803z" fill="#E5E5E5"/></svg>