<?xml version="1.0" standalone="no"?>
<!DOCTYPE svg PUBLIC "-//W3C//DTD SVG 20010904//EN"
 "http://www.w3.org/TR/2001/REC-SVG-20010904/DTD/svg10.dtd">
<svg version="1.0" xmlns="http://www.w3.org/2000/svg"
 width="606.000000pt" height="570.000000pt" viewBox="0 0 606.000000 570.000000"
 preserveAspectRatio="xMidYMid meet">

<g transform="translate(0.000000,570.000000) scale(0.100000,-0.100000)"
fill="#000000" stroke="none">
<path d="M2835 5693 c-579 -24 -1152 -240 -1632 -615 -193 -150 -503 -480
-503 -534 0 -11 9 -29 20 -39 30 -27 59 -12 119 65 255 320 621 604 998 775
516 233 1080 302 1639 199 744 -136 1418 -596 1824 -1246 80 -128 187 -342
234 -469 31 -84 81 -246 115 -376 13 -48 43 -63 81 -43 20 11 22 18 17 64 -8
73 -69 276 -128 424 -311 782 -958 1392 -1754 1655 -138 46 -327 91 -470 112
-115 17 -367 36 -445 33 -25 -1 -76 -3 -115 -5z"/>
<path d="M2915 5333 c-16 -2 -47 -9 -67 -14 -35 -9 -38 -13 -38 -45 0 -19 -13
-61 -29 -93 -176 -349 -442 -1027 -536 -1369 -28 -100 -29 -102 -48 -85 -31
29 -111 24 -181 -11 -172 -84 -313 -341 -305 -552 3 -69 2 -75 -26 -105 -17
-17 -50 -45 -74 -60 -136 -87 -149 35 -29 261 79 148 87 165 96 206 12 56 -3
101 -41 124 -18 11 -43 20 -57 20 -39 0 -119 -42 -190 -99 -61 -49 -65 -51
-70 -30 -3 12 -18 32 -34 43 -24 19 -41 21 -142 20 -63 0 -114 1 -114 4 0 2
18 77 39 165 49 199 64 304 59 401 -4 90 -22 120 -93 155 -43 22 -62 25 -164
25 -131 0 -232 -19 -343 -65 -72 -29 -208 -108 -208 -120 0 -3 17 -44 39 -90
79 -172 161 -466 161 -577 0 -36 -2 -38 -84 -80 -221 -113 -386 -286 -427
-445 -17 -69 1 -141 47 -196 46 -54 81 -71 144 -71 67 0 131 33 196 101 114
122 181 300 209 561 l6 57 82 29 c45 16 95 32 111 36 28 7 28 7 22 -31 -4 -21
-32 -138 -61 -260 -51 -205 -81 -363 -87 -456 -3 -36 -6 -39 -60 -61 -171 -69
-378 -293 -487 -527 -62 -131 -85 -234 -84 -364 1 -248 83 -411 246 -489 71
-34 157 -56 157 -39 0 4 -15 51 -34 103 -53 149 -70 246 -70 400 0 153 13 243
56 380 54 173 160 340 259 410 l29 21 34 -35 c23 -25 42 -36 62 -36 29 0 29 0
29 62 l0 63 40 14 c27 10 85 15 175 15 143 1 172 -6 228 -58 53 -47 67 -93 66
-206 -1 -117 -27 -216 -89 -340 -101 -203 -133 -436 -72 -528 32 -49 132 -111
232 -143 61 -20 70 -21 94 -8 23 13 28 28 57 169 60 300 130 520 227 719 48
97 69 123 85 106 4 -4 7 -140 7 -303 0 -264 2 -303 19 -351 26 -74 86 -134
155 -155 106 -31 121 -19 141 104 29 184 92 406 161 563 48 111 144 256 245
367 96 107 134 158 134 180 0 36 -134 68 -211 51 -59 -13 -76 -36 -164 -216
-129 -265 -209 -488 -238 -660 -16 -96 -36 -110 -61 -43 -35 97 -40 159 -41
492 l0 329 -30 13 c-62 27 -168 12 -179 -25 -3 -9 -12 -61 -20 -116 -21 -141
-56 -244 -151 -445 -45 -96 -104 -231 -130 -300 -56 -149 -62 -160 -80 -160
-21 0 -35 64 -35 167 0 76 7 120 41 250 35 132 42 174 42 253 0 192 -83 305
-266 362 -75 23 -220 33 -306 20 l-63 -9 6 51 c18 137 149 692 169 712 9 10
74 -24 91 -47 29 -42 19 -104 -60 -370 -42 -141 -44 -187 -9 -219 25 -23 86
-38 135 -32 24 3 25 5 22 71 -4 83 16 196 63 357 31 106 39 123 72 151 55 46
130 80 151 67 27 -17 26 -85 -2 -182 -45 -152 -52 -259 -23 -317 14 -28 27
-35 67 -35 45 0 100 26 177 84 l63 46 32 -20 c41 -25 107 -26 155 -3 47 22
121 96 168 167 l39 58 17 -62 c18 -67 51 -110 83 -110 65 1 195 105 281 225
42 58 121 209 143 274 9 26 16 31 45 31 31 0 93 16 139 35 15 6 12 -5 -13 -59
-77 -164 -80 -309 -7 -360 51 -36 209 -7 325 60 23 13 44 24 47 24 3 0 18 -23
32 -52 34 -67 125 -158 189 -188 28 -13 52 -25 54 -26 2 -2 -18 -34 -43 -73
-114 -172 -215 -466 -251 -736 -9 -66 -20 -123 -23 -126 -72 -68 -216 -188
-250 -210 -48 -30 -86 -37 -98 -17 -16 25 -2 93 47 230 103 289 118 349 105
403 -16 61 -135 85 -225 45 -35 -16 -42 -23 -35 -37 27 -61 14 -168 -43 -348
-88 -281 -100 -440 -37 -482 59 -38 154 3 318 137 172 143 207 170 216 170 4
0 11 -19 15 -42 19 -111 74 -143 172 -99 66 31 130 97 216 226 93 139 215 305
225 305 4 0 20 -20 35 -45 l29 -45 -61 -66 c-72 -78 -116 -161 -105 -196 11
-36 34 -47 95 -48 110 0 188 44 227 128 22 50 24 63 19 143 l-6 89 92 81 c50
44 104 90 119 101 l28 19 0 -89 c0 -141 43 -252 110 -287 40 -21 103 -19 148
4 76 39 193 181 259 315 l27 56 56 0 c30 1 74 5 98 9 31 6 42 5 42 -4 0 -7
-16 -56 -36 -108 -28 -74 -35 -104 -30 -131 12 -61 96 -116 179 -116 24 0 27
4 27 34 0 55 27 171 70 300 41 120 123 320 143 344 18 23 125 72 155 72 15 0
33 -5 40 -12 22 -22 13 -95 -23 -191 -55 -147 -78 -249 -73 -330 3 -62 7 -72
33 -94 25 -22 36 -25 80 -20 104 11 279 107 403 222 106 98 115 145 28 145
-54 0 -88 -24 -170 -122 -80 -94 -124 -128 -184 -143 -57 -15 -80 -9 -94 21
-25 54 40 217 147 373 76 112 105 175 105 234 0 60 -10 79 -56 107 -62 39
-148 16 -283 -74 -29 -20 -55 -36 -57 -36 -2 0 -4 9 -4 21 0 79 -121 102 -263
49 l-55 -21 16 -32 c28 -54 21 -147 -18 -266 -31 -93 -39 -108 -74 -133 -40
-29 -122 -58 -163 -58 -27 0 -27 -3 -7 51 11 28 17 78 18 139 1 81 -3 102 -22
142 -31 63 -78 92 -137 86 -83 -10 -138 -78 -151 -191 l-6 -54 -57 1 c-68 1
-138 -35 -171 -88 -11 -19 -66 -67 -123 -107 -56 -40 -120 -88 -143 -106 -23
-18 -45 -33 -50 -33 -8 0 -64 90 -64 103 0 2 34 32 74 65 60 49 76 68 82 96 8
45 -18 91 -66 118 -70 39 -220 -4 -277 -79 -40 -52 -44 -138 -11 -221 l25 -61
-55 -58 c-30 -32 -93 -103 -140 -158 -125 -146 -184 -205 -205 -205 -30 0 -50
64 -42 133 18 163 163 526 279 701 96 144 119 165 215 192 233 68 362 174 290
240 -26 23 -147 32 -217 15 -77 -20 -203 -86 -274 -145 -36 -31 -70 -56 -75
-56 -5 0 -31 14 -57 31 -57 38 -120 124 -143 195 l-16 53 34 27 c91 73 212
212 266 305 33 57 63 147 63 187 0 82 -70 138 -161 130 -138 -14 -271 -153
-335 -353 -22 -68 -25 -95 -22 -174 l3 -94 -45 -23 c-25 -13 -68 -29 -97 -35
-45 -10 -55 -10 -78 5 -39 26 -49 61 -36 129 16 93 76 203 146 272 74 72 99
109 91 131 -8 22 -47 14 -148 -32 -112 -50 -202 -57 -279 -20 -62 29 -101 33
-118 12 -20 -24 -24 -83 -11 -144 12 -56 11 -61 -19 -134 -79 -190 -231 -376
-288 -353 -38 14 10 262 108 564 171 526 429 1033 689 1357 81 102 88 129 40
174 -42 40 -116 55 -205 43z m-2075 -1322 c45 -32 52 -57 45 -171 -4 -58 -14
-156 -23 -219 l-17 -114 -98 -23 c-54 -13 -106 -28 -117 -34 -17 -9 -19 -4
-25 58 -10 113 -25 203 -52 307 -36 142 -38 134 37 172 105 54 195 62 250 24z
m2653 -230 c63 -24 37 -93 -80 -208 -45 -45 -92 -87 -103 -93 -19 -10 -20 -8
-20 53 0 115 42 206 112 240 38 19 57 21 91 8z m-1328 -191 c17 -19 17 -25 1
-127 -25 -159 -77 -259 -164 -314 -103 -65 -134 -16 -96 154 30 134 94 243
169 289 39 23 68 23 90 -2z m-1641 -317 c-30 -248 -183 -441 -308 -389 -130
54 -30 238 206 380 51 31 96 56 100 56 4 0 5 -21 2 -47z m3566 -63 c0 -28
-124 -90 -270 -135 -22 -7 -23 -6 -11 9 20 24 139 100 186 119 45 18 95 22 95
7z m645 -376 c24 -10 45 -58 45 -107 0 -58 -20 -157 -32 -157 -6 0 -25 7 -44
16 -39 19 -71 59 -85 106 -25 88 42 170 116 142z m-705 -169 c0 -18 -16 -37
-62 -74 -56 -45 -64 -48 -75 -34 -22 29 -15 63 21 99 28 28 42 34 75 34 37 0
41 -2 41 -25z m655 -127 c27 -7 45 -18 45 -26 0 -26 -61 -121 -106 -167 -53
-52 -114 -76 -140 -54 -29 24 -14 119 36 231 l43 97 39 -34 c21 -20 58 -41 83
-47z m-775 -384 c0 -31 -15 -61 -48 -96 -28 -30 -52 -37 -52 -14 0 18 79 136
91 136 5 0 9 -12 9 -26z"/>
<path d="M2971 3019 c-27 -11 -128 -83 -178 -126 l-32 -28 19 -55 c11 -30 20
-66 20 -80 0 -14 11 -45 23 -70 18 -37 29 -47 60 -54 110 -28 227 124 214 280
-7 87 -33 138 -72 141 -16 1 -41 -2 -54 -8z"/>
<path d="M5512 1783 c-7 -3 -44 -68 -83 -145 -88 -176 -159 -290 -273 -443
-105 -139 -338 -379 -476 -487 -387 -306 -820 -493 -1315 -570 -170 -26 -544
-31 -715 -10 -786 99 -1464 508 -1932 1165 -36 50 -54 67 -71 67 -33 0 -61
-33 -53 -62 12 -46 204 -287 341 -427 160 -164 296 -277 475 -396 387 -256
813 -407 1283 -455 154 -16 555 -8 692 14 640 102 1190 384 1626 833 142 147
226 251 337 418 83 124 242 421 242 451 0 18 -36 54 -52 53 -7 0 -19 -3 -26
-6z"/>
<path d="M1964 1359 c-17 -19 -19 -38 -19 -168 0 -154 5 -190 31 -215 25 -26
79 -20 103 10 28 36 28 84 1 84 -15 0 -20 -7 -20 -29 0 -58 -50 -64 -69 -9
-14 40 -14 273 -1 299 6 10 19 19 30 19 25 0 40 -29 40 -79 0 -30 4 -41 15
-41 24 0 20 91 -6 124 -26 33 -77 36 -105 5z"/>
<path d="M2384 1366 c-17 -13 -19 -30 -22 -181 -4 -189 2 -209 63 -221 41 -7
90 10 100 34 12 31 18 168 10 256 -8 106 -23 126 -88 126 -24 0 -52 -6 -63
-14z m92 -30 c17 -13 19 -29 22 -146 4 -150 0 -175 -29 -190 -16 -9 -26 -8
-45 5 -24 15 -24 18 -24 158 0 113 3 147 16 165 18 26 33 28 60 8z"/>
<path d="M2800 1175 c0 -198 1 -205 20 -205 19 0 20 7 20 100 l0 100 35 0 c24
0 35 5 35 15 0 10 -11 15 -35 15 l-35 0 0 69 0 70 42 3 c31 2 44 8 46 21 3 15
-5 17 -62 17 l-66 0 0 -205z"/>
<path d="M3180 1175 c0 -198 1 -205 20 -205 19 0 20 7 20 100 l0 100 35 0 c46
0 49 27 3 32 l-33 3 -3 68 -3 67 39 0 c36 0 62 14 62 32 0 4 -31 8 -70 8 l-70
0 0 -205z"/>
<path d="M3570 1237 c0 -79 -3 -172 -6 -206 l-7 -61 72 0 c55 0 71 3 71 14 0
11 -14 16 -47 18 l-48 3 -3 74 c-3 81 2 91 51 91 17 0 27 5 27 15 0 11 -11 15
-40 15 l-40 0 0 69 0 70 48 3 c34 2 47 7 47 18 0 11 -15 16 -62 18 l-63 3 0
-144z"/>
<path d="M3960 1378 c0 -2 -2 -94 -4 -205 l-4 -203 69 0 c53 0 69 3 69 14 0
11 -14 16 -47 18 l-48 3 -3 74 c-3 81 2 91 51 91 17 0 27 5 27 15 0 11 -11 15
-40 15 l-40 0 0 70 0 70 45 0 c38 0 45 3 45 20 0 18 -7 20 -60 20 -33 0 -60
-1 -60 -2z"/>
</g>
</svg>
