<?xml version="1.0" standalone="no"?>
<!DOCTYPE svg PUBLIC "-//W3C//DTD SVG 20010904//EN"
 "http://www.w3.org/TR/2001/REC-SVG-20010904/DTD/svg10.dtd">
<svg version="1.0" xmlns="http://www.w3.org/2000/svg"
 width="1000.000000pt" height="439.000000pt" viewBox="0 0 1000.000000 439.000000"
 preserveAspectRatio="xMidYMid meet">

<g transform="translate(0.000000,439.000000) scale(0.100000,-0.100000)"
fill="#000000" stroke="none">
<path d="M4956 4367 c-49 -12 -50 -13 -61 -62 -6 -27 -30 -86 -52 -130 -166
-328 -441 -1039 -518 -1340 -10 -38 -19 -71 -21 -73 -1 -2 -14 4 -28 13 -61
41 -193 -6 -289 -101 -74 -74 -119 -148 -158 -265 -26 -77 -32 -111 -33 -188
l-1 -94 -53 -47 c-59 -55 -114 -79 -137 -60 -41 34 -4 174 86 331 97 168 105
245 29 284 -63 32 -139 7 -248 -84 l-59 -49 -14 31 c-22 50 -49 58 -177 54
-91 -3 -112 -1 -108 10 17 42 78 315 92 403 38 252 -14 330 -226 338 -171 7
-341 -38 -501 -135 l-76 -45 39 -91 c83 -191 144 -402 163 -558 l7 -55 -68
-34 c-270 -138 -454 -345 -454 -513 1 -87 53 -172 127 -203 149 -63 338 108
422 381 26 83 51 222 51 280 l0 42 68 25 c86 33 132 48 148 48 14 0 3 -53 -64
-325 -35 -143 -53 -237 -79 -413 l-8 -53 -57 -23 c-170 -69 -358 -272 -474
-511 -66 -138 -84 -202 -91 -335 -13 -252 76 -449 241 -530 52 -25 155 -54
164 -46 1 2 -9 34 -24 72 -57 151 -75 242 -81 395 -6 163 8 279 53 422 31 97
92 223 140 289 37 49 130 138 145 138 5 0 22 -14 37 -30 15 -17 42 -33 60 -36
l32 -6 0 65 c0 64 1 65 31 76 51 17 200 33 254 26 71 -10 148 -47 177 -86 39
-54 52 -97 51 -178 -1 -101 -25 -191 -89 -336 -80 -181 -122 -360 -109 -458
11 -78 53 -123 173 -185 109 -55 176 -68 202 -37 6 8 27 90 46 182 55 277 140
537 233 720 77 151 82 136 79 -217 -3 -256 -1 -291 16 -342 23 -70 76 -134
130 -159 48 -22 129 -25 145 -6 6 8 18 54 26 103 55 316 162 612 282 777 28
37 90 113 139 168 103 116 129 156 112 176 -18 23 -117 46 -175 41 -77 -7
-101 -34 -193 -223 -128 -262 -206 -475 -237 -650 -18 -105 -34 -120 -59 -59
-42 100 -59 343 -44 601 7 105 9 200 6 211 -9 28 -57 45 -123 45 -49 0 -60 -4
-80 -27 -13 -15 -23 -40 -23 -55 0 -55 -30 -200 -59 -282 -16 -46 -59 -147
-96 -224 -37 -77 -96 -214 -131 -304 -35 -90 -66 -166 -69 -169 -14 -14 -34
13 -44 58 -22 103 -12 194 42 385 27 94 32 127 32 225 0 111 -1 118 -33 183
-74 149 -228 215 -479 204 l-122 -5 4 27 c24 140 65 330 107 491 28 107 53
205 55 218 3 12 12 22 20 22 30 0 75 -33 89 -65 17 -43 9 -90 -57 -319 -27
-94 -49 -179 -49 -189 0 -34 29 -75 61 -86 18 -6 56 -11 85 -11 l53 0 -11 32
c-19 55 13 245 78 448 26 83 45 105 131 149 48 24 74 26 91 9 19 -19 14 -65
-18 -177 -99 -341 -10 -442 229 -260 l54 41 37 -21 c21 -12 55 -21 76 -21 75
0 178 81 251 196 16 24 31 44 34 44 4 0 9 -17 12 -39 6 -51 35 -109 60 -122
30 -16 85 4 154 55 103 78 200 214 273 383 32 75 41 88 59 85 18 -3 98 16 144
34 10 4 4 -21 -19 -79 -64 -159 -69 -259 -15 -319 52 -58 160 -48 320 30 49
24 76 32 78 25 10 -29 84 -131 119 -165 22 -20 65 -50 96 -65 l58 -29 -36 -49
c-121 -169 -246 -539 -270 -802 l-7 -72 -105 -93 c-156 -139 -216 -174 -248
-147 -26 22 -12 86 66 304 56 154 74 216 77 271 5 63 3 74 -15 92 -45 45 -170
49 -226 7 -16 -13 -17 -18 -6 -62 16 -63 5 -131 -55 -326 -72 -238 -90 -363
-60 -432 37 -89 143 -65 311 72 39 32 111 90 159 130 49 40 92 70 95 68 4 -3
10 -25 12 -50 11 -93 60 -127 145 -100 79 24 150 96 263 265 100 149 190 269
202 270 4 0 21 -20 37 -44 l30 -43 -30 -29 c-17 -16 -53 -58 -80 -94 -69 -92
-77 -154 -23 -178 36 -17 93 -15 155 5 114 37 172 141 151 273 l-10 65 51 48
c68 63 182 157 191 157 4 0 4 -22 0 -48 -14 -109 35 -269 96 -314 39 -28 93
-33 145 -13 80 30 202 172 279 323 25 49 29 52 64 52 20 0 64 4 96 10 33 5 61
8 63 6 2 -2 -12 -46 -31 -97 -44 -115 -46 -156 -9 -200 34 -40 79 -59 138 -59
l45 0 0 49 c0 92 82 356 170 548 36 76 42 83 91 109 81 40 109 46 136 29 34
-23 30 -56 -27 -224 -82 -242 -86 -353 -17 -405 25 -18 32 -19 85 -8 124 25
321 147 430 265 48 53 53 82 17 99 -51 23 -94 -3 -204 -121 -107 -116 -160
-151 -223 -151 -49 0 -61 19 -56 84 6 68 75 216 155 329 118 167 133 271 47
328 -62 40 -154 18 -284 -71 -55 -37 -60 -39 -60 -20 0 12 -13 35 -29 51 -26
25 -37 29 -88 29 -55 0 -145 -20 -185 -41 -16 -8 -16 -12 -1 -46 22 -53 13
-148 -25 -268 -30 -95 -34 -101 -75 -127 -41 -26 -164 -65 -173 -55 -3 3 2 32
10 65 19 70 21 180 5 237 -6 22 -28 56 -49 77 -33 33 -44 38 -85 38 -91 0
-144 -60 -166 -188 l-11 -60 -39 5 c-54 8 -120 -20 -163 -68 -20 -21 -36 -43
-36 -47 0 -4 -12 -15 -27 -24 -16 -9 -84 -57 -152 -108 -68 -50 -127 -88 -131
-83 -4 4 -19 29 -33 54 l-27 47 56 42 c81 63 104 94 104 142 0 74 -75 118
-177 104 -62 -8 -141 -53 -169 -96 -43 -64 -41 -128 7 -248 l13 -32 -75 -78
c-42 -42 -118 -126 -169 -187 -99 -116 -137 -154 -157 -155 -24 0 -43 44 -43
100 0 199 213 690 377 867 32 36 50 45 117 63 96 25 230 88 273 128 46 43 53
79 20 108 -79 68 -318 13 -466 -107 -110 -90 -95 -84 -145 -55 -59 35 -103 87
-143 173 l-35 72 109 108 c160 158 242 287 251 398 6 75 -12 115 -62 139 -148
70 -339 -78 -428 -334 -19 -55 -26 -189 -13 -242 6 -22 0 -27 -63 -56 -77 -36
-150 -43 -176 -16 -43 42 -32 136 30 261 36 73 58 103 100 139 58 50 99 107
89 124 -11 19 -57 10 -134 -25 -136 -61 -216 -68 -303 -27 -71 33 -85 35 -107
13 -16 -16 -21 -34 -21 -80 0 -32 5 -72 11 -88 26 -76 -170 -406 -274 -459
-70 -36 -72 29 -11 277 140 572 481 1297 773 1644 72 86 78 98 59 139 -10 20
-31 40 -55 51 -46 23 -149 29 -217 12z m-2052 -1301 c54 -22 66 -49 66 -143 0
-72 -21 -271 -36 -344 -4 -24 -15 -29 -107 -53 -56 -16 -109 -30 -118 -33 -13
-4 -17 10 -22 87 -8 100 -36 254 -66 349 l-19 61 44 26 c55 32 147 63 192 63
18 1 48 -5 66 -13z m2688 -253 c22 -20 23 -45 2 -85 -19 -38 -91 -115 -157
-171 -60 -50 -70 -41 -62 53 8 84 45 163 93 195 43 29 97 33 124 8z m-1338
-185 c12 -20 12 -37 -4 -130 -27 -167 -99 -287 -195 -324 -62 -23 -75 -11 -75
70 0 181 125 406 226 406 24 0 38 -7 48 -22z m-1648 -332 c-16 -154 -105 -315
-200 -360 -115 -55 -195 32 -139 151 21 45 87 118 141 156 64 44 185 117 196
117 5 0 6 -28 2 -64z m3560 -38 c13 -20 -53 -64 -152 -102 -94 -36 -130 -44
-119 -27 12 21 148 103 197 121 63 23 65 23 74 8z m673 -399 c33 -36 35 -107
6 -221 -9 -34 -9 -34 -60 -5 -80 46 -110 155 -59 216 32 38 82 43 113 10z
m-730 -133 c9 -11 10 -20 1 -35 -15 -29 -117 -104 -130 -96 -19 12 -11 80 13
103 41 39 96 52 116 28z m663 -147 c24 -7 44 -14 46 -15 2 -1 -9 -26 -24 -56
-41 -82 -88 -134 -151 -164 l-56 -28 -18 23 c-11 13 -19 32 -19 43 0 39 24
115 61 197 l39 83 39 -35 c22 -20 59 -41 83 -48z m-772 -383 c0 -41 -79 -140
-97 -122 -11 11 8 55 44 104 39 52 53 57 53 18z"/>
<path d="M5055 2061 c-44 -20 -147 -95 -183 -133 -21 -24 -22 -26 -7 -68 8
-23 15 -58 15 -77 0 -74 92 -109 167 -63 74 45 129 166 121 266 -5 56 -28 94
-57 94 -9 0 -34 -9 -56 -19z"/>
<path d="M0 2005 l0 -55 880 0 880 0 0 55 0 55 -880 0 -880 0 0 -55z"/>
<path d="M8240 2005 l0 -55 875 0 875 0 0 55 0 55 -875 0 -875 0 0 -55z"/>
<path d="M4072 420 c-12 -5 -27 -21 -32 -35 -13 -35 -13 -294 0 -332 10 -29
45 -53 75 -53 44 0 93 100 53 108 -13 3 -18 -3 -18 -20 0 -45 -50 -66 -69 -30
-14 26 -24 183 -16 251 8 70 26 96 55 81 13 -7 21 -26 25 -65 8 -57 27 -71 33
-25 5 30 -14 94 -31 108 -20 16 -51 21 -75 12z"/>
<path d="M4487 418 c-37 -13 -42 -38 -42 -216 0 -150 1 -154 24 -173 32 -26
104 -26 131 1 18 18 20 33 20 174 0 85 -4 166 -9 179 -6 14 -23 29 -42 36 -37
13 -45 13 -82 -1z m77 -44 c13 -13 16 -42 16 -163 0 -101 -4 -151 -12 -159
-18 -18 -53 -14 -72 7 -16 17 -18 37 -14 159 3 145 11 172 49 172 9 0 25 -7
33 -16z"/>
<path d="M4884 215 c0 -201 0 -206 20 -203 19 3 20 9 17 100 l-3 98 36 0 c29
0 36 4 36 20 0 15 -7 20 -29 20 -27 0 -28 2 -34 62 -3 34 -3 66 -1 70 3 4 25
8 50 8 32 0 44 4 44 15 0 12 -14 15 -67 15 l-68 0 -1 -205z"/>
<path d="M5264 398 c3 -13 6 -105 6 -205 0 -176 1 -183 20 -183 19 0 20 7 20
99 l0 100 33 3 c20 2 32 8 32 18 0 10 -12 16 -32 18 l-33 3 0 70 0 69 45 0
c33 0 45 4 45 15 0 12 -15 15 -71 15 -69 0 -71 -1 -65 -22z"/>
<path d="M5650 215 l0 -206 68 3 c52 2 67 6 67 18 0 11 -13 16 -47 18 l-48 3
0 80 0 79 40 0 c29 0 40 4 40 15 0 11 -11 15 -40 15 l-40 0 0 75 0 75 45 0
c33 0 45 4 45 15 0 12 -14 15 -65 15 l-65 0 0 -205z"/>
<path d="M6040 215 l0 -205 65 0 c58 0 65 2 65 20 0 17 -7 20 -45 20 l-45 0 0
80 0 80 40 0 c29 0 40 4 40 15 0 11 -11 15 -40 15 l-40 0 0 75 0 75 45 0 c33
0 45 4 45 15 0 12 -14 15 -65 15 l-65 0 0 -205z"/>
</g>
</svg>
