<?xml version="1.0" standalone="no"?>
<!DOCTYPE svg PUBLIC "-//W3C//DTD SVG 20010904//EN"
 "http://www.w3.org/TR/2001/REC-SVG-20010904/DTD/svg10.dtd">
<svg version="1.0" xmlns="http://www.w3.org/2000/svg"
 width="447.000000pt" height="447.000000pt" viewBox="0 0 447.000000 447.000000"
 preserveAspectRatio="xMidYMid meet">

<g transform="translate(0.000000,447.000000) scale(0.100000,-0.100000)"
fill="#000000" stroke="none">
<path d="M1990 4319 c-856 -99 -1574 -725 -1790 -1563 -84 -326 -85 -690 -3
-1026 125 -514 470 -990 922 -1270 771 -478 1760 -412 2450 165 404 338 662
800 737 1321 23 157 22 439 0 588 -148 957 -896 1679 -1851 1786 -106 12 -358
11 -465 -1z m502 -478 c697 -120 1228 -649 1343 -1341 30 -178 9 -308 -70
-425 -41 -62 -125 -128 -154 -123 -41 8 -16 98 60 214 49 75 63 119 47 148
-24 46 -70 48 -145 6 -61 -34 -63 -35 -63 -15 0 23 -39 38 -83 31 -67 -11 -75
-19 -69 -71 6 -61 -24 -162 -55 -182 -12 -8 -39 -19 -59 -23 -29 -7 -34 -6
-30 7 13 32 18 94 12 128 -9 48 -38 75 -80 75 -42 0 -73 -35 -82 -90 -5 -29
-10 -37 -24 -33 -23 6 -89 -22 -96 -42 -5 -13 -114 -100 -161 -128 -7 -5 -17
3 -26 19 -14 26 -12 29 29 69 24 23 44 47 44 54 0 6 -12 24 -26 38 -22 22 -32
25 -66 20 -49 -7 -88 -33 -107 -72 -12 -25 -12 -35 2 -79 l16 -50 -57 -61
c-31 -33 -76 -82 -100 -108 -23 -27 -48 -47 -55 -45 -58 20 62 366 166 480 32
36 55 50 100 64 70 21 137 67 137 94 0 68 -167 41 -268 -44 -16 -15 -35 -26
-40 -26 -21 0 -76 56 -93 95 l-18 41 70 72 c135 139 159 272 48 272 -73 0
-130 -47 -175 -145 -18 -37 -24 -68 -24 -117 l0 -66 -46 -16 c-49 -17 -76 -11
-88 20 -14 37 33 141 88 193 20 19 36 43 36 53 0 23 1 23 -70 -7 -69 -29 -112
-31 -165 -9 -50 21 -59 10 -60 -73 0 -58 -5 -77 -34 -126 -46 -81 -107 -145
-123 -129 -10 10 -8 32 6 100 60 293 239 687 407 899 43 54 49 65 39 83 -13
25 -49 40 -95 40 -48 0 -85 -16 -85 -37 0 -10 -29 -81 -64 -158 -82 -181 -143
-338 -195 -500 -23 -71 -44 -136 -46 -143 -4 -10 -9 -10 -24 0 -30 18 -101
-14 -154 -70 -53 -58 -87 -141 -87 -216 0 -49 -3 -57 -36 -86 -80 -70 -97 -5
-31 121 55 105 61 129 41 157 -24 34 -73 29 -129 -14 -47 -35 -47 -35 -62 -15
-12 18 -25 21 -79 21 -58 0 -65 2 -60 18 18 62 37 148 46 210 11 82 -1 131
-40 152 -28 15 -154 15 -210 0 -48 -13 -155 -64 -164 -78 -3 -5 9 -44 26 -88
38 -98 68 -208 68 -254 0 -32 -4 -37 -57 -65 -112 -58 -213 -177 -213 -250 0
-59 51 -115 103 -115 93 0 185 130 209 297 l12 80 48 18 c27 9 52 15 55 11 4
-3 -8 -68 -26 -144 -19 -75 -36 -164 -38 -197 l-5 -60 -59 -28 c-109 -51 -217
-181 -260 -312 -14 -41 -25 -61 -29 -53 -13 24 -58 211 -71 293 -19 116 -16
379 5 495 120 674 627 1200 1283 1330 135 27 138 27 315 29 115 1 186 -4 270
-18z m-1363 -1036 c15 -15 18 -99 6 -180 -11 -68 -14 -72 -59 -84 -24 -6 -50
-13 -58 -16 -13 -5 -17 7 -23 60 -4 37 -15 96 -25 131 l-18 65 32 16 c67 35
115 37 145 8z m1389 -117 c7 -7 12 -18 12 -26 0 -15 -98 -122 -111 -122 -16 0
-10 81 8 110 25 43 68 61 91 38z m-358 -129 c-24 -54 -27 -141 -4 -163 23 -24
91 -20 152 9 30 14 55 25 57 25 1 0 8 -14 15 -30 14 -33 85 -100 107 -100 20
0 16 -12 -22 -76 -39 -64 -99 -240 -109 -319 -13 -100 -15 -103 -89 -165 -70
-60 -103 -73 -113 -46 -3 7 15 73 40 146 25 73 46 143 46 156 0 29 -35 54 -75
54 -48 0 -59 -13 -61 -72 0 -29 -15 -102 -32 -162 -30 -103 -40 -184 -26 -220
8 -21 56 -21 97 0 18 9 67 46 110 82 43 35 79 63 81 61 2 -2 11 -21 20 -43 15
-37 18 -38 51 -33 54 9 87 38 155 139 35 51 73 105 86 120 l22 27 15 -22 c14
-21 12 -26 -24 -70 -46 -58 -55 -83 -38 -104 20 -23 103 -12 134 17 30 28 46
79 38 124 -5 30 0 37 50 79 30 26 56 47 59 47 3 0 8 -27 12 -59 10 -84 39
-125 94 -129 38 -3 46 1 86 42 25 24 59 69 76 99 29 52 33 55 78 60 26 3 49 3
51 1 2 -2 -4 -23 -13 -47 -9 -23 -16 -55 -16 -69 0 -33 42 -68 81 -68 25 0 29
4 29 26 0 40 28 139 67 237 28 69 43 93 67 108 37 22 74 25 82 5 3 -8 -8 -57
-25 -110 -46 -143 -40 -216 17 -216 39 0 116 41 191 100 34 28 64 50 66 48 5
-5 -23 -156 -45 -240 -38 -147 -122 -333 -213 -468 -248 -373 -619 -617 -1072
-707 -127 -25 -443 -25 -570 0 -350 69 -633 220 -876 468 -117 118 -145 164
-181 297 -29 108 -31 320 -4 410 23 76 81 170 125 201 l31 22 26 -20 c37 -29
42 -27 46 16 3 43 19 50 108 52 70 1 119 -23 143 -69 26 -49 16 -120 -33 -242
-53 -131 -70 -225 -48 -271 19 -40 123 -100 165 -95 25 3 28 8 49 111 38 183
130 427 154 412 7 -4 10 -61 8 -163 -2 -134 0 -162 16 -194 20 -41 47 -62 92
-72 40 -9 48 2 63 84 34 185 103 342 197 449 79 91 91 110 73 122 -26 16 -96
21 -119 9 -42 -23 -178 -338 -196 -457 -4 -24 -10 -43 -14 -43 -24 0 -34 75
-35 257 -1 106 -4 196 -7 199 -14 14 -84 16 -95 3 -6 -8 -18 -52 -28 -99 -10
-52 -36 -126 -65 -190 -27 -58 -62 -138 -77 -178 -15 -41 -32 -75 -37 -75 -16
-3 -27 56 -21 111 4 29 15 82 26 120 42 146 15 235 -85 287 -51 25 -68 29
-143 29 l-85 0 7 54 c8 64 73 324 83 334 4 4 18 1 30 -8 30 -20 28 -50 -8
-175 -16 -57 -30 -109 -30 -116 0 -22 31 -43 64 -43 l33 0 5 63 c3 34 16 99
28 145 21 78 25 84 66 108 24 14 48 23 54 19 14 -9 12 -52 -5 -109 -20 -65
-19 -140 1 -160 8 -9 17 -16 19 -16 13 0 66 25 96 46 31 21 40 23 62 13 40
-18 78 -2 134 57 l51 54 7 -29 c15 -71 66 -65 146 18 37 37 70 86 94 135 32
67 40 76 63 76 15 0 34 4 42 10 22 14 22 7 0 -41z m-348 -24 c-4 -94 -60 -185
-113 -185 -27 0 -32 33 -15 101 23 89 70 151 111 146 18 -2 20 -8 17 -62z
m-863 -134 c-18 -119 -117 -219 -167 -169 -20 20 -14 69 13 104 21 28 139 114
156 114 3 0 3 -22 -2 -49z m1871 -12 c0 -10 -100 -59 -122 -59 -18 0 10 25 57
49 44 23 65 27 65 10z m350 -199 c17 -11 19 -105 2 -122 -21 -21 -72 35 -72
79 0 19 28 53 44 53 6 0 18 -5 26 -10z m-380 -84 c0 -13 -49 -56 -64 -56 -14
0 -4 50 12 59 25 15 52 13 52 -3z m354 -66 c24 0 19 -22 -14 -68 -30 -42 -57
-62 -84 -62 -23 0 -21 61 5 120 l21 50 28 -20 c16 -11 35 -20 44 -20z m-414
-204 c0 -19 -37 -63 -45 -54 -7 6 31 68 41 68 2 0 4 -6 4 -14z"/>
<path d="M1996 3745 c-359 -59 -685 -239 -919 -509 -68 -80 -79 -109 -41 -114
15 -2 37 17 84 73 196 234 498 411 820 481 67 15 128 19 290 19 162 0 223 -4
290 -19 551 -120 968 -509 1124 -1048 24 -85 45 -113 68 -90 27 27 -61 286
-153 447 -221 387 -582 651 -1024 747 -122 26 -413 33 -539 13z"/>
<path d="M2198 2270 c-67 -44 -69 -48 -55 -105 15 -58 34 -73 74 -59 51 18 94
109 79 169 -9 34 -41 33 -98 -5z"/>
<path d="M3587 1663 c-3 -5 -26 -48 -51 -97 -74 -141 -142 -233 -271 -362
-300 -302 -667 -447 -1090 -431 -225 9 -414 56 -606 152 -181 91 -395 272
-515 435 -33 44 -64 80 -70 80 -6 0 -17 -7 -24 -15 -11 -13 -7 -24 24 -69 172
-250 446 -456 744 -560 173 -60 300 -80 502 -80 206 0 307 15 483 74 370 124
675 380 862 724 52 97 63 134 44 147 -17 11 -26 11 -32 2z"/>
</g>
</svg>
