<?xml version="1.0" standalone="no"?>
<!DOCTYPE svg PUBLIC "-//W3C//DTD SVG 20010904//EN"
 "http://www.w3.org/TR/2001/REC-SVG-20010904/DTD/svg10.dtd">
<svg version="1.0" xmlns="http://www.w3.org/2000/svg"
 width="420.000000pt" height="420.000000pt" viewBox="0 0 420.000000 420.000000"
 preserveAspectRatio="xMidYMid meet">

<g transform="translate(0.000000,420.000000) scale(0.100000,-0.100000)"
fill="#000000" stroke="none">
<path d="M1905 4180 c-833 -86 -1533 -645 -1790 -1430 -142 -436 -142 -873 1
-1310 144 -440 446 -834 836 -1091 112 -73 296 -167 421 -213 388 -145 843
-169 1244 -66 801 207 1396 851 1546 1675 18 102 22 156 21 355 0 255 -8 324
-64 536 -211 797 -890 1404 -1710 1528 -131 20 -386 28 -505 16z m460 -475
c609 -100 1107 -532 1289 -1116 52 -168 69 -275 63 -399 -5 -123 -28 -192 -88
-272 -64 -85 -157 -135 -173 -92 -12 32 23 118 91 220 19 29 37 70 40 92 4 33
2 42 -18 56 -34 23 -57 20 -124 -18 -59 -34 -59 -34 -70 -13 -13 26 -63 34
-116 18 -36 -11 -36 -11 -26 -49 8 -31 6 -52 -12 -111 -21 -68 -25 -74 -64
-91 -76 -35 -84 -29 -67 45 18 79 -19 155 -75 155 -27 0 -75 -52 -75 -80 0
-38 -12 -50 -47 -50 -28 0 -43 -8 -70 -36 -18 -20 -62 -56 -96 -81 -34 -25
-67 -50 -74 -55 -8 -7 -17 0 -28 23 l-17 32 41 38 c45 42 51 67 21 94 -36 33
-119 15 -157 -34 -17 -22 -16 -76 1 -109 14 -26 12 -29 -86 -139 -103 -117
-132 -135 -141 -87 -17 88 119 416 200 486 10 8 47 25 83 38 111 39 156 78
126 108 -36 37 -172 0 -248 -67 -20 -17 -39 -31 -43 -31 -32 0 -115 102 -115
141 0 6 31 45 70 85 71 75 102 124 115 181 5 27 2 37 -19 58 -45 45 -106 28
-170 -46 -51 -60 -79 -140 -73 -206 l5 -51 -39 -16 c-47 -19 -81 -20 -97 -4
-33 33 10 153 80 225 46 47 44 64 -5 44 -85 -35 -126 -41 -174 -25 -66 23 -77
15 -70 -52 5 -49 2 -62 -30 -124 -40 -78 -101 -150 -126 -150 -61 0 51 382
199 679 70 142 157 282 215 349 34 38 36 53 12 74 -24 21 -61 28 -106 20 -33
-6 -41 -13 -52 -42 -7 -19 -45 -105 -83 -190 -77 -170 -156 -377 -198 -517
l-27 -90 -41 4 c-106 11 -226 -146 -226 -297 0 -51 -21 -80 -72 -99 -62 -23
-57 44 13 178 43 81 48 111 22 136 -22 23 -67 13 -115 -25 -20 -17 -39 -30
-42 -30 -3 0 -16 10 -27 21 -18 18 -30 21 -81 17 -69 -5 -66 -22 -29 142 28
129 28 181 -3 217 -24 27 -27 28 -123 28 -97 0 -102 -1 -186 -43 l-86 -42 25
-56 c31 -70 69 -203 79 -271 6 -46 4 -52 -13 -57 -34 -11 -135 -81 -175 -122
-51 -51 -77 -104 -77 -155 0 -33 6 -47 34 -75 37 -37 62 -42 104 -20 73 38
136 147 154 264 15 99 19 105 79 124 29 10 55 16 57 14 2 -2 -13 -71 -32 -153
-20 -82 -39 -177 -42 -211 -6 -57 -9 -61 -35 -67 -16 -4 -56 -26 -88 -50 -95
-70 -171 -178 -202 -285 -7 -25 -16 -49 -20 -54 -9 -11 -42 95 -71 228 -30
139 -32 452 -4 601 82 439 335 825 701 1067 234 156 485 243 780 272 73 7 299
-4 390 -19z m-1364 -1036 c20 -20 21 -28 15 -108 -10 -123 -18 -155 -41 -159
-11 -2 -39 -9 -62 -17 l-42 -14 -6 37 c-7 49 -34 192 -41 218 -5 17 3 24 43
42 63 28 107 28 134 1z m1397 -141 c3 -23 -8 -39 -52 -83 -30 -30 -59 -55 -65
-55 -14 0 -14 44 -1 92 20 72 111 107 118 46z m-709 -71 c13 -16 -2 -126 -24
-166 -20 -39 -67 -80 -95 -83 -22 -3 -25 1 -28 35 -5 61 24 142 67 187 40 42
61 49 80 27z m361 6 c0 -5 -9 -32 -20 -61 -26 -67 -26 -116 0 -142 27 -27 59
-25 138 7 63 25 67 25 77 8 22 -39 77 -93 105 -105 17 -7 30 -14 30 -17 0 -2
-17 -33 -39 -68 -48 -81 -99 -232 -113 -340 l-11 -84 -56 -49 c-74 -64 -108
-85 -126 -78 -24 9 -18 47 25 167 22 62 40 129 40 149 0 32 -4 39 -29 50 -23
9 -38 9 -64 1 -33 -11 -34 -13 -30 -54 4 -30 -4 -76 -27 -153 -82 -283 -35
-324 174 -150 43 36 82 66 87 66 5 0 9 -11 9 -25 0 -14 9 -34 21 -46 41 -41
101 2 197 144 86 127 97 137 117 111 17 -23 19 -40 4 -49 -22 -14 -69 -89 -69
-110 0 -38 49 -46 106 -19 47 22 67 65 62 125 l-5 48 59 51 c33 27 64 50 68
50 4 0 10 -29 12 -65 4 -64 23 -105 59 -128 41 -26 123 34 179 131 36 63 52
72 122 72 25 0 29 -3 23 -17 -32 -80 -37 -105 -25 -128 11 -20 55 -45 80 -45
4 0 13 28 19 61 14 69 63 214 92 271 14 27 30 41 63 53 24 9 49 14 55 10 17
-10 13 -59 -8 -112 -27 -70 -45 -157 -37 -187 16 -65 87 -49 216 48 100 76
100 75 70 -75 -139 -684 -694 -1208 -1378 -1299 -109 -15 -336 -14 -442 0
-356 49 -683 212 -938 468 -114 115 -133 143 -173 262 -27 81 -33 113 -37 222
-8 208 29 330 128 422 l51 48 20 -21 c27 -29 39 -26 39 9 0 39 27 50 121 50
82 0 122 -17 145 -62 25 -48 14 -145 -26 -238 -43 -99 -60 -164 -60 -228 0
-43 5 -57 25 -78 25 -25 119 -74 143 -74 17 0 28 30 48 130 32 165 116 386
152 398 9 3 12 -33 12 -155 0 -134 3 -164 19 -200 30 -66 125 -102 135 -50 51
268 106 397 230 535 31 34 56 69 56 76 0 30 -108 36 -133 8 -44 -48 -177 -373
-177 -433 0 -13 -5 -31 -10 -39 -9 -13 -12 -13 -25 4 -19 25 -27 97 -28 282
l-2 159 -47 3 c-27 2 -48 2 -48 0 0 -2 -9 -45 -19 -95 -13 -61 -38 -133 -74
-210 -30 -65 -65 -146 -77 -180 -12 -35 -28 -63 -35 -63 -31 0 -33 107 -4 216
29 106 29 178 3 229 -38 74 -108 105 -237 105 l-77 0 6 43 c9 57 80 346 87
353 10 10 47 -7 58 -27 8 -16 4 -44 -17 -122 -38 -144 -40 -168 -18 -184 10
-7 30 -13 44 -13 25 0 27 3 28 56 1 30 11 92 23 137 24 88 55 131 103 143 48
12 53 -7 28 -100 -24 -93 -27 -128 -12 -157 16 -28 52 -23 109 15 47 32 53 34
77 21 39 -20 76 -2 134 63 l50 56 6 -32 c3 -17 14 -38 24 -47 16 -15 21 -15
48 -1 47 24 130 123 164 195 29 63 34 69 72 78 57 14 56 14 56 6z m-1225 -200
c-18 -119 -103 -211 -166 -179 -19 10 -24 20 -23 48 1 46 29 82 107 136 80 56
91 55 82 -5z m1860 -23 c-16 -18 -111 -60 -136 -60 -20 0 3 21 54 50 29 16 63
30 76 30 23 0 24 -1 6 -20z m363 -192 c13 -13 16 -58 6 -106 -5 -23 -10 -29
-25 -25 -29 8 -59 52 -59 87 0 37 15 56 45 56 12 0 26 -5 33 -12z m-381 -75
c4 -12 -53 -73 -68 -73 -11 0 -20 32 -14 50 10 32 73 50 82 23z m359 -73 c20
0 17 -11 -16 -64 -30 -46 -89 -84 -110 -71 -18 11 -10 67 16 125 l26 58 35
-24 c20 -13 42 -24 49 -24z m-432 -231 c-22 -37 -44 -49 -44 -24 0 27 41 78
53 66 6 -6 3 -20 -9 -42z"/>
<path d="M1944 3610 c-330 -38 -644 -181 -877 -399 -139 -131 -211 -231 -166
-231 5 0 71 62 147 138 233 236 464 362 774 424 160 31 396 31 556 0 198 -40
378 -114 549 -228 96 -64 262 -218 330 -307 118 -153 209 -331 259 -507 28
-99 40 -118 62 -97 24 25 -58 267 -145 425 -211 388 -608 677 -1048 762 -121
23 -334 33 -441 20z"/>
<path d="M2105 2148 c-11 -6 -37 -25 -58 -41 -36 -28 -38 -32 -32 -71 9 -52
21 -66 55 -66 54 0 113 106 90 164 -10 28 -24 32 -55 14z"/>
<path d="M3410 1423 c-82 -153 -145 -239 -270 -364 -174 -175 -348 -283 -579
-359 -159 -53 -285 -73 -461 -73 -306 0 -570 81 -831 254 -105 70 -299 258
-363 352 -39 57 -76 76 -76 40 0 -27 95 -148 195 -249 672 -679 1804 -570
2336 223 75 113 144 247 134 263 -15 25 -37 3 -85 -87z"/>
</g>
</svg>
