<svg version="1.0" xmlns="http://www.w3.org/2000/svg" width="1333.333" height="585.333" viewBox="0 0 1000 439"><g fill="#20160012"><path d="M495.6 2.3c-4.9 1.2-5 1.3-6.1 6.2-.6 2.7-3 8.6-5.2 13-16.6 32.8-44.1 103.9-51.8 134-1 3.8-1.9 7.1-2.1 7.3-.1.2-1.4-.4-2.8-1.3-6.1-4.1-19.3.6-28.9 10.1-7.4 7.4-11.9 14.8-15.8 26.5-2.6 7.7-3.2 11.1-3.3 18.8l-.1 9.4-5.3 4.7c-5.9 5.5-11.4 7.9-13.7 6-4.1-3.4-.4-17.4 8.6-33.1 9.7-16.8 10.5-24.5 2.9-28.4-6.3-3.2-13.9-.7-24.8 8.4l-5.9 4.9-1.4-3.1c-2.2-5-4.9-5.8-17.7-5.4-9.1.3-11.2.1-10.8-1 1.7-4.2 7.8-31.5 9.2-40.3 3.8-25.2-1.4-33-22.6-33.8-17.1-.7-34.1 3.8-50.1 13.5l-7.6 4.5 3.9 9.1c8.3 19.1 14.4 40.2 16.3 55.8l.7 5.5-6.8 3.4c-27 13.8-45.4 34.5-45.4 51.3.1 8.7 5.3 17.2 12.7 20.3 14.9 6.3 33.8-10.8 42.2-38.1 2.6-8.3 5.1-22.2 5.1-28v-4.2l6.8-2.5c8.6-3.3 13.2-4.8 14.8-4.8 1.4 0 .3 5.3-6.4 32.5-3.5 14.3-5.3 23.7-7.9 41.3l-.8 5.3-5.7 2.3c-17 6.9-35.8 27.2-47.4 51.1-6.6 13.8-8.4 20.2-9.1 33.5-1.3 25.2 7.6 44.9 24.1 53 5.2 2.5 15.5 5.4 16.4 4.6.1-.2-.9-3.4-2.4-7.2-5.7-15.1-7.5-24.2-8.1-39.5-.6-16.3.8-27.9 5.3-42.2 3.1-9.7 9.2-22.3 14-28.9 3.7-4.9 13-13.8 14.5-13.8.5 0 2.2 1.4 3.7 3 1.5 1.7 4.2 3.3 6 3.6l3.2.6v-6.5c0-6.4.1-6.5 3.1-7.6 5.1-1.7 20-3.3 25.4-2.6 7.1 1 14.8 4.7 17.7 8.6 3.9 5.4 5.2 9.7 5.1 17.8-.1 10.1-2.5 19.1-8.9 33.6-8 18.1-12.2 36-10.9 45.8 1.1 7.8 5.3 12.3 17.3 18.5 10.9 5.5 17.6 6.8 20.2 3.7.6-.8 2.7-9 4.6-18.2 5.5-27.7 14-53.7 23.3-72 7.7-15.1 8.2-13.6 7.9 21.7-.3 25.6-.1 29.1 1.6 34.2 2.3 7 7.6 13.4 13 15.9 4.8 2.2 12.9 2.5 14.5.6.6-.8 1.8-5.4 2.6-10.3 5.5-31.6 16.2-61.2 28.2-77.7 2.8-3.7 9-11.3 13.9-16.8 10.3-11.6 12.9-15.6 11.2-17.6-1.8-2.3-11.7-4.6-17.5-4.1-7.7.7-10.1 3.4-19.3 22.3-12.8 26.2-20.6 47.5-23.7 65-1.8 10.5-3.4 12-5.9 5.9-4.2-10-5.9-34.3-4.4-60.1.7-10.5.9-20 .6-21.1-.9-2.8-5.7-4.5-12.3-4.5-4.9 0-6 .4-8 2.7-1.3 1.5-2.3 4-2.3 5.5 0 5.5-3 20-5.9 28.2-1.6 4.6-5.9 14.7-9.6 22.4-3.7 7.7-9.6 21.4-13.1 30.4s-6.6 16.6-6.9 16.9c-1.4 1.4-3.4-1.3-4.4-5.8-2.2-10.3-1.2-19.4 4.2-38.5 2.7-9.4 3.2-12.7 3.2-22.5 0-11.1-.1-11.8-3.3-18.3-7.4-14.9-22.8-21.5-47.9-20.4l-12.2.5.4-2.7c2.4-14 6.5-33 10.7-49.1 2.8-10.7 5.3-20.5 5.5-21.8.3-1.2 1.2-2.2 2-2.2 3 0 7.5 3.3 8.9 6.5 1.7 4.3.9 9-5.7 31.9-2.7 9.4-4.9 17.9-4.9 18.9 0 3.4 2.9 7.5 6.1 8.6 1.8.6 5.6 1.1 8.5 1.1h5.3l-1.1-3.2c-1.9-5.5 1.3-24.5 7.8-44.8 2.6-8.3 4.5-10.5 13.1-14.9 4.8-2.4 7.4-2.6 9.1-.9 1.9 1.9 1.4 6.5-1.8 17.7-9.9 34.1-1 44.2 22.9 26l5.4-4.1 3.7 2.1c2.1 1.2 5.5 2.1 7.6 2.1 7.5 0 17.8-8.1 25.1-19.6 1.6-2.4 3.1-4.4 3.4-4.4.4 0 .9 1.7 1.2 3.9.6 5.1 3.5 10.9 6 12.2 3 1.6 8.5-.4 15.4-5.5 10.3-7.8 20-21.4 27.3-38.3 3.2-7.5 4.1-8.8 5.9-8.5 1.8.3 9.8-1.6 14.4-3.4 1-.4.4 2.1-1.9 7.9-6.4 15.9-6.9 25.9-1.5 31.9 5.2 5.8 16 4.8 32-3 4.9-2.4 7.6-3.2 7.8-2.5 1 2.9 8.4 13.1 11.9 16.5 2.2 2 6.5 5 9.6 6.5l5.8 2.9-3.6 4.9c-12.1 16.9-24.6 53.9-27 80.2l-.7 7.2-10.5 9.3c-15.6 13.9-21.6 17.4-24.8 14.7-2.6-2.2-1.2-8.6 6.6-30.4 5.6-15.4 7.4-21.6 7.7-27.1.5-6.3.3-7.4-1.5-9.2-4.5-4.5-17-4.9-22.6-.7-1.6 1.3-1.7 1.8-.6 6.2 1.6 6.3.5 13.1-5.5 32.6-7.2 23.8-9 36.3-6 43.2 3.7 8.9 14.3 6.5 31.1-7.2 3.9-3.2 11.1-9 15.9-13 4.9-4 9.2-7 9.5-6.8.4.3 1 2.5 1.2 5 1.1 9.3 6 12.7 14.5 10 7.9-2.4 15-9.6 26.3-26.5 10-14.9 19-26.9 20.2-27 .4 0 2.1 2 3.7 4.4l3 4.3-3 2.9c-1.7 1.6-5.3 5.8-8 9.4-6.9 9.2-7.7 15.4-2.3 17.8 3.6 1.7 9.3 1.5 15.5-.5 11.4-3.7 17.2-14.1 15.1-27.3l-1-6.5 5.1-4.8c6.8-6.3 18.2-15.7 19.1-15.7.4 0 .4 2.2 0 4.8-1.4 10.9 3.5 26.9 9.6 31.4 3.9 2.8 9.3 3.3 14.5 1.3 8-3 20.2-17.2 27.9-32.3 2.5-4.9 2.9-5.2 6.4-5.2 2 0 6.4-.4 9.6-1 3.3-.5 6.1-.8 6.3-.6.2.2-1.2 4.6-3.1 9.7-4.4 11.5-4.6 15.6-.9 20 3.4 4 7.9 5.9 13.8 5.9h4.5v-4.9c0-9.2 8.2-35.6 17-54.8 3.6-7.6 4.2-8.3 9.1-10.9 8.1-4 10.9-4.6 13.6-2.9 3.4 2.3 3 5.6-2.7 22.4-8.2 24.2-8.6 35.3-1.7 40.5 2.5 1.8 3.2 1.9 8.5.8 12.4-2.5 32.1-14.7 43-26.5 4.8-5.3 5.3-8.2 1.7-9.9-5.1-2.3-9.4.3-20.4 12.1-10.7 11.6-16 15.1-22.3 15.1-4.9 0-6.1-1.9-5.6-8.4.6-6.8 7.5-21.6 15.5-32.9 11.8-16.7 13.3-27.1 4.7-32.8-6.2-4-15.4-1.8-28.4 7.1-5.5 3.7-6 3.9-6 2 0-1.2-1.3-3.5-2.9-5.1-2.6-2.5-3.7-2.9-8.8-2.9-5.5 0-14.5 2-18.5 4.1-1.6.8-1.6 1.2-.1 4.6 2.2 5.3 1.3 14.8-2.5 26.8-3 9.5-3.4 10.1-7.5 12.7-4.1 2.6-16.4 6.5-17.3 5.5-.3-.3.2-3.2 1-6.5 1.9-7 2.1-18 .5-23.7-.6-2.2-2.8-5.6-4.9-7.7-3.3-3.3-4.4-3.8-8.5-3.8-9.1 0-14.4 6-16.6 18.8l-1.1 6-3.9-.5c-5.4-.8-12 2-16.3 6.8-2 2.1-3.6 4.3-3.6 4.7 0 .4-1.2 1.5-2.7 2.4-1.6.9-8.4 5.7-15.2 10.8-6.8 5-12.7 8.8-13.1 8.3-.4-.4-1.9-2.9-3.3-5.4l-2.7-4.7 5.6-4.2c8.1-6.3 10.4-9.4 10.4-14.2 0-7.4-7.5-11.8-17.7-10.4-6.2.8-14.1 5.3-16.9 9.6-4.3 6.4-4.1 12.8.7 24.8l1.3 3.2-7.5 7.8c-4.2 4.2-11.8 12.6-16.9 18.7-9.9 11.6-13.7 15.4-15.7 15.5-2.4 0-4.3-4.4-4.3-10 0-19.9 21.3-69 37.7-86.7 3.2-3.6 5-4.5 11.7-6.3 9.6-2.5 23-8.8 27.3-12.8 4.6-4.3 5.3-7.9 2-10.8-7.9-6.8-31.8-1.3-46.6 10.7-11 9-9.5 8.4-14.5 5.5-5.9-3.5-10.3-8.7-14.3-17.3l-3.5-7.2 10.9-10.8c16-15.8 24.2-28.7 25.1-39.8.6-7.5-1.2-11.5-6.2-13.9-14.8-7-33.9 7.8-42.8 33.4-1.9 5.5-2.6 18.9-1.3 24.2.6 2.2 0 2.7-6.3 5.6-7.7 3.6-15 4.3-17.6 1.6-4.3-4.2-3.2-13.6 3-26.1 3.6-7.3 5.8-10.3 10-13.9 5.8-5 9.9-10.7 8.9-12.4-1.1-1.9-5.7-1-13.4 2.5-13.6 6.1-21.6 6.8-30.3 2.7-7.1-3.3-8.5-3.5-10.7-1.3-1.6 1.6-2.1 3.4-2.1 8 0 3.2.5 7.2 1.1 8.8 2.6 7.6-17 40.6-27.4 45.9-7 3.6-7.2-2.9-1.1-27.7 14-57.2 48.1-129.7 77.3-164.4 7.2-8.6 7.8-9.8 5.9-13.9-1-2-3.1-4-5.5-5.1-4.6-2.3-14.9-2.9-21.7-1.2zM290.4 132.4c5.4 2.2 6.6 4.9 6.6 14.3 0 7.2-2.1 27.1-3.6 34.4-.4 2.4-1.5 2.9-10.7 5.3-5.6 1.6-10.9 3-11.8 3.3-1.3.4-1.7-1-2.2-8.7-.8-10-3.6-25.4-6.6-34.9l-1.9-6.1 4.4-2.6c5.5-3.2 14.7-6.3 19.2-6.3 1.8-.1 4.8.5 6.6 1.3zm268.8 25.3c2.2 2 2.3 4.5.2 8.5-1.9 3.8-9.1 11.5-15.7 17.1-6 5-7 4.1-6.2-5.3.8-8.4 4.5-16.3 9.3-19.5 4.3-2.9 9.7-3.3 12.4-.8zm-133.8 18.5c1.2 2 1.2 3.7-.4 13-2.7 16.7-9.9 28.7-19.5 32.4-6.2 2.3-7.5 1.1-7.5-7 0-18.1 12.5-40.6 22.6-40.6 2.4 0 3.8.7 4.8 2.2zm-164.8 33.2c-1.6 15.4-10.5 31.5-20 36-11.5 5.5-19.5-3.2-13.9-15.1 2.1-4.5 8.7-11.8 14.1-15.6 6.4-4.4 18.5-11.7 19.6-11.7.5 0 .6 2.8.2 6.4zm356 3.8c1.3 2-5.3 6.4-15.2 10.2-9.4 3.6-13 4.4-11.9 2.7 1.2-2.1 14.8-10.3 19.7-12.1 6.3-2.3 6.5-2.3 7.4-.8zm67.3 39.9c3.3 3.6 3.5 10.7.6 22.1-.9 3.4-.9 3.4-6 .5-8-4.6-11-15.5-5.9-21.6 3.2-3.8 8.2-4.3 11.3-1zm-73 13.3c.9 1.1 1 2 .1 3.5-1.5 2.9-11.7 10.4-13 9.6-1.9-1.2-1.1-8 1.3-10.3 4.1-3.9 9.6-5.2 11.6-2.8zm66.3 14.7c2.4.7 4.4 1.4 4.6 1.5.2.1-.9 2.6-2.4 5.6-4.1 8.2-8.8 13.4-15.1 16.4l-5.6 2.8-1.8-2.3c-1.1-1.3-1.9-3.2-1.9-4.3 0-3.9 2.4-11.5 6.1-19.7l3.9-8.3 3.9 3.5c2.2 2 5.9 4.1 8.3 4.8zM600 319.4c0 4.1-7.9 14-9.7 12.2-1.1-1.1.8-5.5 4.4-10.4 3.9-5.2 5.3-5.7 5.3-1.8z"/><path d="M505.5 232.9c-4.4 2-14.7 9.5-18.3 13.3-2.1 2.4-2.2 2.6-.7 6.8.8 2.3 1.5 5.8 1.5 7.7 0 7.4 9.2 10.9 16.7 6.3 7.4-4.5 12.9-16.6 12.1-26.6-.5-5.6-2.8-9.4-5.7-9.4-.9 0-3.4.9-5.6 1.9zM0 238.5v5.5h176v-11H0v5.5zm824 0v5.5h175v-11H824v5.5zM407.2 397c-1.2.5-2.7 2.1-3.2 3.5-1.3 3.5-1.3 29.4 0 33.2 1 2.9 4.5 5.3 7.5 5.3 4.4 0 9.3-10 5.3-10.8-1.3-.3-1.8.3-1.8 2 0 4.5-5 6.6-6.9 3-1.4-2.6-2.4-18.3-1.6-25.1.8-7 2.6-9.6 5.5-8.1 1.3.7 2.1 2.6 2.5 6.5.8 5.7 2.7 7.1 3.3 2.5.5-3-1.4-9.4-3.1-10.8-2-1.6-5.1-2.1-7.5-1.2zm41.5.2c-3.7 1.3-4.2 3.8-4.2 21.6 0 15 .1 15.4 2.4 17.3 3.2 2.6 10.4 2.6 13.1-.1 1.8-1.8 2-3.3 2-17.4 0-8.5-.4-16.6-.9-17.9-.6-1.4-2.3-2.9-4.2-3.6-3.7-1.3-4.5-1.3-8.2.1zm7.7 4.4c1.3 1.3 1.6 4.2 1.6 16.3 0 10.1-.4 15.1-1.2 15.9-1.8 1.8-5.3 1.4-7.2-.7-1.6-1.7-1.8-3.7-1.4-15.9.3-14.5 1.1-17.2 4.9-17.2.9 0 2.5.7 3.3 1.6zm32 15.9c0 20.1 0 20.6 2 20.3 1.9-.3 2-.9 1.7-10l-.3-9.8h3.6c2.9 0 3.6-.4 3.6-2 0-1.5-.7-2-2.9-2-2.7 0-2.8-.2-3.4-6.2-.3-3.4-.3-6.6-.1-7 .3-.4 2.5-.8 5-.8 3.2 0 4.4-.4 4.4-1.5 0-1.2-1.4-1.5-6.7-1.5h-6.8l-.1 20.5zm38-18.3c.3 1.3.6 10.5.6 20.5 0 17.6.1 18.3 2 18.3s2-.7 2-9.9v-10l3.3-.3c2-.2 3.2-.8 3.2-1.8s-1.2-1.6-3.2-1.8l-3.3-.3V400h4.5c3.3 0 4.5-.4 4.5-1.5 0-1.2-1.5-1.5-7.1-1.5-6.9 0-7.1.1-6.5 2.2zm38.6 18.3v20.6l6.8-.3c5.2-.2 6.7-.6 6.7-1.8 0-1.1-1.3-1.6-4.7-1.8l-4.8-.3V418h4c2.9 0 4-.4 4-1.5s-1.1-1.5-4-1.5h-4v-15h4.5c3.3 0 4.5-.4 4.5-1.5 0-1.2-1.4-1.5-6.5-1.5H565v20.5zm39 0V438h6.5c5.8 0 6.5-.2 6.5-2 0-1.7-.7-2-4.5-2H608v-16h4c2.9 0 4-.4 4-1.5s-1.1-1.5-4-1.5h-4v-15h4.5c3.3 0 4.5-.4 4.5-1.5 0-1.2-1.4-1.5-6.5-1.5H604v20.5z"/></g></svg>