<svg width="200" height="66" viewBox="0 0 200 66" fill="none" xmlns="http://www.w3.org/2000/svg">
<g clip-path="url(#clip0_59_27)">
<g clip-path="url(#clip1_59_27)">
<path d="M200 56.8692C200 61.7515 196.042 65.711 191.161 65.711H8.84101C3.9591 65.7114 0 61.7519 0 56.8692V9.12971C0 4.24779 3.9591 0.288696 8.84101 0.288696H191.161C196.042 0.288696 200 4.24779 200 9.12971L200 56.8692Z" fill="black"/>
<mask id="mask0_59_27" style="mask-type:luminance" maskUnits="userSpaceOnUse" x="15" y="13" width="38" height="44">
<path d="M43.3424 29.0859L34.3243 23.8794C34.3243 23.8794 17.8951 14.3929 16.9293 13.8353C15.9635 13.2777 15.0012 13.6155 15.0012 14.7808V55.7016C15.0012 56.5752 15.6889 56.9517 16.5281 56.4677C17.3668 55.9828 34.3243 46.192 34.3243 46.192L43.342 40.9859C43.342 40.9859 50.9936 36.5685 52.0106 35.9816C53.0277 35.3939 52.9299 34.5884 52.0716 34.1262C51.2137 33.6636 43.3424 29.0859 43.3424 29.0859Z" fill="white"/>
</mask>
<g mask="url(#mask0_59_27)">
<path d="M15.0016 12.8839V57.1879L37.3422 35.0361L15.0016 12.8839Z" fill="url(#paint0_linear_59_27)"/>
</g>
<mask id="mask1_59_27" style="mask-type:luminance" maskUnits="userSpaceOnUse" x="15" y="13" width="38" height="44">
<path d="M43.3424 29.0859L34.3243 23.8794C34.3243 23.8794 17.8951 14.3929 16.9293 13.8353C15.9635 13.2777 15.0012 13.6155 15.0012 14.7808V55.7016C15.0012 56.5752 15.6889 56.9517 16.5281 56.4677C17.3668 55.9828 34.3243 46.192 34.3243 46.192L43.342 40.9859C43.342 40.9859 50.9936 36.5685 52.0106 35.9816C53.0277 35.3939 52.9299 34.5884 52.0716 34.1262C51.2137 33.6636 43.3424 29.0859 43.3424 29.0859Z" fill="white"/>
</mask>
<g mask="url(#mask1_59_27)">
<path d="M43.3424 29.0859L34.3243 23.8795L15.0016 12.7228V12.8839L37.3422 35.0361L43.3424 29.0859Z" fill="url(#paint1_linear_59_27)"/>
</g>
<mask id="mask2_59_27" style="mask-type:luminance" maskUnits="userSpaceOnUse" x="15" y="13" width="38" height="44">
<path d="M43.3424 29.0859L34.3243 23.8794C34.3243 23.8794 17.8951 14.3929 16.9293 13.8353C15.9635 13.2777 15.0012 13.6155 15.0012 14.7808V55.7016C15.0012 56.5752 15.6889 56.9517 16.5281 56.4677C17.3668 55.9828 34.3243 46.192 34.3243 46.192L43.342 40.9859C43.342 40.9859 50.9936 36.5685 52.0106 35.9816C53.0277 35.3939 52.9299 34.5884 52.0716 34.1262C51.2137 33.6636 43.3424 29.0859 43.3424 29.0859Z" fill="white"/>
</mask>
<g mask="url(#mask2_59_27)">
<path d="M15.0016 57.1879V57.349L34.3243 46.1919L43.3421 40.9855L37.3422 35.0361L15.0016 57.1879Z" fill="url(#paint2_linear_59_27)"/>
</g>
<mask id="mask3_59_27" style="mask-type:luminance" maskUnits="userSpaceOnUse" x="15" y="13" width="38" height="44">
<path d="M43.3424 29.0859L34.3243 23.8794C34.3243 23.8794 17.8951 14.3929 16.9293 13.8353C15.9635 13.2777 15.0012 13.6155 15.0012 14.7808V55.7016C15.0012 56.5752 15.6889 56.9517 16.5281 56.4677C17.3668 55.9828 34.3243 46.192 34.3243 46.192L43.342 40.9859C43.342 40.9859 50.9936 36.5685 52.0106 35.9816C53.0277 35.3939 52.9299 34.5884 52.0716 34.1262C51.2137 33.6636 43.3424 29.0859 43.3424 29.0859Z" fill="white"/>
</mask>
<g mask="url(#mask3_59_27)">
<path d="M43.3424 29.0859L37.3422 35.0361L43.342 40.9855L53.6482 35.0357L43.3424 29.0859Z" fill="url(#paint3_linear_59_27)"/>
</g>
<path d="M155.649 43.6965C154.81 43.6965 154.045 43.5416 153.351 43.2323C152.658 42.9226 152.076 42.4464 151.605 41.8043H151.464C151.558 42.5566 151.605 43.2699 151.605 43.9436V49.2454H149.655V30.5769H151.241L151.511 32.3404H151.605C152.107 31.6346 152.691 31.1259 153.357 30.8123C154.023 30.4987 154.788 30.3419 155.649 30.3419C157.358 30.3419 158.677 30.9261 159.605 32.0937C160.534 33.2612 160.998 34.8996 160.998 37.0072C160.998 39.1234 160.526 40.7669 159.582 41.9396C158.638 43.1111 157.327 43.6965 155.649 43.6965ZM155.367 31.9994C154.051 31.9994 153.098 32.3642 152.511 33.0927C151.923 33.8216 151.621 34.9818 151.605 36.5728V37.0073C151.605 38.8181 151.907 40.1131 152.511 40.8932C153.114 41.6734 154.083 42.0624 155.414 42.0624C156.528 42.0624 157.4 41.6123 158.031 40.711C158.661 39.8101 158.977 38.5678 158.977 36.9838C158.977 35.3779 158.661 34.1446 158.031 33.2867C157.4 32.428 156.512 31.9994 155.367 31.9994ZM165.517 43.4611H163.566V25.169H165.517V43.4611ZM176.736 43.4611L176.348 41.6272H176.254C175.611 42.435 174.971 42.9821 174.332 43.2671C173.694 43.5537 172.896 43.6965 171.94 43.6965C170.663 43.6965 169.662 43.3672 168.936 42.7091C168.211 42.0511 167.849 41.1149 167.849 39.8996C167.849 37.2982 169.93 35.9343 174.091 35.8084L176.279 35.7376V34.9383C176.279 33.9272 176.061 33.1803 175.626 32.699C175.191 32.2164 174.494 31.9756 173.539 31.9756C172.465 31.9756 171.25 32.3048 169.895 32.9629L169.295 31.47C169.93 31.1251 170.625 30.8549 171.382 30.659C172.138 30.4631 172.896 30.365 173.657 30.365C175.193 30.365 176.331 30.7056 177.072 31.3875C177.812 32.0694 178.183 33.1627 178.183 34.6678V43.4607H176.737L176.736 43.4611ZM172.328 42.0862C173.542 42.0862 174.496 41.753 175.19 41.0872C175.883 40.4212 176.231 39.4883 176.231 38.2886V37.1249L174.279 37.2067C172.727 37.2626 171.609 37.5027 170.922 37.9308C170.237 38.3578 169.894 39.0222 169.894 39.9235C169.894 40.6285 170.107 41.1658 170.535 41.5333C170.962 41.9021 171.559 42.0862 172.328 42.0862ZM179.315 30.5769H181.407L184.229 37.9245C184.848 39.602 185.232 40.8127 185.382 41.5575H185.475C185.578 41.1571 185.791 40.474 186.116 39.5051C186.441 38.5369 187.506 35.5616 189.307 30.5769H191.401L185.863 45.2484C185.315 46.6983 184.674 47.7271 183.941 48.3355C183.208 48.9424 182.309 49.2454 181.244 49.2454C180.648 49.2454 180.06 49.179 179.48 49.046V47.4827C179.91 47.5765 180.393 47.6238 180.926 47.6238C182.266 47.6238 183.222 46.8715 183.794 45.3665L184.511 43.533L179.315 30.5769ZM119.5 31.7742C120.119 32.2868 121.413 33.3637 121.413 35.413C121.413 37.4061 120.281 38.3512 119.149 39.2392C118.798 39.5891 118.394 39.9676 118.394 40.5612C118.394 41.1528 118.798 41.4766 119.096 41.7194L120.066 42.4725C121.252 43.47 122.329 44.387 122.329 46.2471C122.329 48.7801 119.876 51.3393 115.242 51.3393C111.333 51.3393 109.448 49.4804 109.448 47.485C109.448 46.5153 109.931 45.1416 111.523 44.1973C113.193 43.1732 115.458 43.0399 116.67 42.957C116.292 42.4726 115.861 41.9603 115.861 41.1263C115.861 40.6688 115.997 40.399 116.131 40.074C115.833 40.1014 115.537 40.1284 115.268 40.1284C112.412 40.1284 110.795 37.9993 110.795 35.8983C110.795 34.6584 111.362 33.2831 112.519 32.2872C114.056 31.0207 115.888 30.8045 117.345 30.8045H122.895L121.17 31.7746H119.5L119.5 31.7742ZM117.586 43.7402C117.37 43.7121 117.235 43.7121 116.967 43.7121C116.724 43.7121 115.267 43.7672 114.137 44.1453C113.544 44.3592 111.819 45.006 111.819 46.9204C111.819 48.8329 113.679 50.2093 116.563 50.2093C119.148 50.2093 120.524 48.9671 120.524 47.2978C120.524 45.9206 119.635 45.196 117.586 43.7402ZM118.368 38.619C118.987 37.9985 119.04 37.1371 119.04 36.6514C119.04 34.7115 117.882 31.6932 115.646 31.6932C114.944 31.6932 114.19 32.0432 113.759 32.5828C113.301 33.1486 113.165 33.8755 113.165 34.577C113.165 36.3824 114.216 39.3741 116.535 39.3741C117.209 39.3741 117.935 39.0507 118.368 38.619ZM102.534 43.3089C98.2564 43.3089 95.9694 39.9724 95.9694 36.9584C95.9694 33.4333 98.8477 30.4212 102.939 30.4212C106.892 30.4212 109.368 33.5142 109.368 36.7706C109.368 39.9442 106.921 43.3089 102.534 43.3089ZM105.897 41.1298C106.543 40.268 106.705 39.1923 106.705 38.142C106.705 35.7736 105.575 31.2542 102.238 31.2542C101.351 31.2542 100.463 31.6045 99.8174 32.1707C98.7679 33.1111 98.5787 34.2955 98.5787 35.4537C98.5787 38.1154 99.8971 42.4999 103.154 42.4999C104.203 42.4999 105.279 41.9896 105.897 41.1298ZM87.9506 43.3089C83.6724 43.3089 81.385 39.9724 81.385 36.9584C81.385 33.4333 84.2644 30.4212 88.3546 30.4212C92.309 30.4212 94.7841 33.5142 94.7841 36.7706C94.7845 39.9442 92.3367 43.3089 87.9506 43.3089ZM91.3142 41.1298C91.9598 40.268 92.1217 39.1923 92.1217 38.142C92.1217 35.7736 90.9908 31.2542 87.6542 31.2542C86.767 31.2542 85.8786 31.6045 85.2334 32.1707C84.1839 33.1111 83.9958 34.2955 83.9958 35.4537C83.9958 38.1154 85.3135 42.4999 88.5704 42.4999C89.6199 42.4999 90.6956 41.9896 91.3142 41.1298ZM79.3298 42.887L75.461 43.7797C73.8914 44.0237 72.4853 44.2384 70.9983 44.2384C63.5313 44.2384 60.6921 38.7469 60.6921 34.4457C60.6921 29.1986 64.722 24.3307 71.6208 24.3307C73.082 24.3307 74.4874 24.5465 75.7586 24.8985C77.7872 25.4666 78.7339 26.1693 79.3294 26.5756L77.0834 28.7125L76.1371 28.9279L76.8132 27.8456C75.8939 26.9537 74.2152 25.3039 71.0245 25.3039C66.7502 25.3039 63.5306 28.5514 63.5306 33.2847C63.5306 38.3688 67.2101 43.1568 73.1059 43.1568C74.8389 43.1568 75.7297 42.8057 76.5418 42.4804V38.1263L72.4579 38.3426L74.6211 37.1781H80.3562L79.6535 37.8542C79.4628 38.0173 79.4366 38.072 79.3826 38.2863C79.3544 38.5303 79.329 39.3155 79.329 39.5857V42.8871H79.3298V42.887Z" fill="#F9F9F9"/>
<path d="M128.05 42.1081C127.156 42.0268 126.97 41.8653 126.97 40.8091V25.4991C126.975 25.4408 126.979 25.381 126.984 25.3246C127.093 24.3784 127.363 24.2161 128.203 23.7285H124.333L122.304 24.7026H124.372V24.7147L124.37 24.7049V41.4051C124.37 41.9451 124.264 42.0272 123.641 42.8378H128.429L129.43 42.2442C128.971 42.1883 128.51 42.1621 128.05 42.1081ZM139.057 42.3568C138.762 42.5183 138.467 42.7072 138.172 42.8405C137.284 43.2433 136.371 43.3512 135.564 43.3512C134.706 43.3512 133.362 43.2957 131.991 42.3028C130.085 40.9585 129.252 38.6484 129.252 36.6342C129.252 32.471 132.637 30.4295 135.403 30.4295C136.371 30.4295 137.366 30.6707 138.172 31.1822C139.514 32.0671 139.863 33.2222 140.05 33.8403L133.739 36.3934L131.67 36.5544C132.34 39.9661 134.65 41.9525 137.203 41.9525C138.573 41.9525 139.568 41.47 140.481 41.014L139.057 42.3568ZM136.532 34.3502C137.042 34.1629 137.311 34.0011 137.311 33.6253C137.311 32.5515 136.102 31.3151 134.65 31.3151C133.575 31.3151 131.561 32.1484 131.561 35.049C131.561 35.5057 131.615 35.989 131.643 36.4743L136.532 34.3502ZM141.65 30.6132V32.3857H141.434V30.6132H140.848V30.4294H142.236V30.6132H141.65ZM144.066 32.3857V30.5968H144.056L143.511 32.3857H143.342L142.791 30.5968H142.784V32.3857H142.589V30.4295H142.924L143.422 32.0108H143.429L143.92 30.4295H144.26V32.3857H144.066Z" fill="#F9F9F9"/>
<path d="M64.2476 18.0923C63.606 18.0923 63.0698 17.9517 62.6392 17.6704C62.2114 17.3892 61.8892 17.0039 61.6724 16.5146C61.4585 16.0254 61.3516 15.4702 61.3516 14.8491V14.7568C61.3516 14.1299 61.4644 13.5732 61.6899 13.0869C61.9155 12.5977 62.2393 12.2124 62.6611 11.9312C63.083 11.6499 63.5869 11.5093 64.1729 11.5093C64.5859 11.5093 64.9639 11.5737 65.3066 11.7026C65.6494 11.8315 65.9336 11.9956 66.1592 12.1948V13.5747H65.4692L65.377 12.564C65.2832 12.4907 65.1748 12.4292 65.0518 12.3794C64.9316 12.3296 64.7969 12.2915 64.6475 12.2651C64.501 12.2388 64.3413 12.2256 64.1685 12.2256C63.7495 12.2256 63.395 12.334 63.105 12.5508C62.8149 12.7646 62.5952 13.0605 62.4458 13.4385C62.2964 13.8164 62.2217 14.2529 62.2217 14.748V14.8491C62.2217 15.3853 62.3008 15.8438 62.459 16.2246C62.6201 16.6025 62.853 16.8911 63.1577 17.0903C63.4653 17.2896 63.8389 17.3892 64.2783 17.3892C64.4834 17.3892 64.6841 17.3643 64.8804 17.3145C65.0767 17.2646 65.2393 17.2002 65.3682 17.1211L65.4648 16.229H66.1416V17.6177C65.9014 17.7671 65.6143 17.8843 65.2803 17.9692C64.9463 18.0513 64.6021 18.0923 64.2476 18.0923ZM67.2358 18V17.4463L67.9521 17.3232V13.9263L67.2358 13.8032V13.2451H69.5342V13.8032L68.8179 13.9263V15.2534H69.2749L70.2681 13.9219C70.4468 13.6729 70.6211 13.4839 70.791 13.355C70.9639 13.2261 71.1572 13.1616 71.3711 13.1616C71.5059 13.1616 71.6172 13.1792 71.7051 13.2144C71.793 13.2466 71.8926 13.2979 72.0039 13.3682L71.8809 13.957C71.7549 13.9365 71.6816 13.9248 71.6611 13.9219C71.6436 13.9189 71.6055 13.9175 71.5469 13.9175C71.4385 13.9175 71.3315 13.957 71.2261 14.0361C71.1235 14.1152 71.0327 14.209 70.9536 14.3174L70.0352 15.5083L71.5337 17.3364L72.1445 17.4463V18H70.9888L69.3804 15.9829H68.8179V17.3232L69.5342 17.4463V18H67.2358ZM74.2275 18.0923C73.7324 18.0923 73.356 17.9722 73.0981 17.7319C72.8403 17.4888 72.7114 17.1475 72.7114 16.708C72.7114 16.4062 72.7935 16.144 72.9575 15.9214C73.1245 15.6958 73.3647 15.5215 73.6782 15.3984C73.9917 15.2725 74.3667 15.2095 74.8032 15.2095H75.6514V14.7437C75.6514 14.4565 75.5635 14.2339 75.3877 14.0757C75.2148 13.9175 74.9702 13.8384 74.6538 13.8384C74.4546 13.8384 74.2817 13.8633 74.1353 13.9131C73.9888 13.96 73.8555 14.0259 73.7354 14.1108L73.6431 14.7744H72.9751V13.6846C73.189 13.5117 73.438 13.3813 73.7222 13.2935C74.0063 13.2026 74.3213 13.1572 74.667 13.1572C75.2441 13.1572 75.6968 13.2949 76.0249 13.5703C76.353 13.8457 76.5171 14.2397 76.5171 14.7524V17.042C76.5171 17.1035 76.5171 17.1636 76.5171 17.2222C76.52 17.2808 76.5244 17.3394 76.5303 17.3979L76.9917 17.4463V18H75.748C75.7217 17.8711 75.7012 17.7554 75.6865 17.6528C75.6719 17.5503 75.6616 17.4478 75.6558 17.3452C75.4888 17.5591 75.2793 17.7378 75.0273 17.8813C74.7783 18.022 74.5117 18.0923 74.2275 18.0923ZM74.355 17.3672C74.6421 17.3672 74.9043 17.2983 75.1416 17.1606C75.3789 17.0229 75.5488 16.8574 75.6514 16.6641V15.8027H74.7725C74.374 15.8027 74.0752 15.8979 73.876 16.0884C73.6768 16.2788 73.5771 16.4912 73.5771 16.7256C73.5771 16.9336 73.6416 17.0933 73.7705 17.2046C73.8994 17.313 74.0942 17.3672 74.355 17.3672ZM80.5381 18V17.4463L81.2544 17.3232V16.3037C81.0845 16.3477 80.9116 16.3799 80.7358 16.4004C80.5601 16.4209 80.374 16.4312 80.1777 16.4312C79.7939 16.4312 79.4644 16.3638 79.189 16.229C78.9165 16.0942 78.707 15.895 78.5605 15.6313C78.4141 15.3647 78.3408 15.0337 78.3408 14.6382V13.9175L77.6245 13.7944V13.2407H79.2065H79.9229V13.7944L79.2065 13.9175V14.6382C79.2065 14.8931 79.2417 15.1025 79.312 15.2666C79.3853 15.4277 79.4937 15.5479 79.6372 15.627C79.7837 15.7061 79.9639 15.7456 80.1777 15.7456C80.3711 15.7456 80.5557 15.7354 80.7314 15.7148C80.9072 15.6914 81.0815 15.6577 81.2544 15.6138V13.9263L80.5381 13.8032V13.2451H82.8364V13.8032L82.1201 13.9263V17.3232L82.8364 17.4463V18H80.5381ZM85.1611 18.0923C84.666 18.0923 84.2896 17.9722 84.0317 17.7319C83.7739 17.4888 83.645 17.1475 83.645 16.708C83.645 16.4062 83.7271 16.144 83.8911 15.9214C84.0581 15.6958 84.2983 15.5215 84.6118 15.3984C84.9253 15.2725 85.3003 15.2095 85.7368 15.2095H86.585V14.7437C86.585 14.4565 86.4971 14.2339 86.3213 14.0757C86.1484 13.9175 85.9038 13.8384 85.5874 13.8384C85.3882 13.8384 85.2153 13.8633 85.0688 13.9131C84.9224 13.96 84.7891 14.0259 84.6689 14.1108L84.5767 14.7744H83.9087V13.6846C84.1226 13.5117 84.3716 13.3813 84.6558 13.2935C84.9399 13.2026 85.2549 13.1572 85.6006 13.1572C86.1777 13.1572 86.6304 13.2949 86.9585 13.5703C87.2866 13.8457 87.4507 14.2397 87.4507 14.7524V17.042C87.4507 17.1035 87.4507 17.1636 87.4507 17.2222C87.4536 17.2808 87.458 17.3394 87.4639 17.3979L87.9253 17.4463V18H86.6816C86.6553 17.8711 86.6348 17.7554 86.6201 17.6528C86.6055 17.5503 86.5952 17.4478 86.5894 17.3452C86.4224 17.5591 86.2129 17.7378 85.9609 17.8813C85.7119 18.022 85.4453 18.0923 85.1611 18.0923ZM85.2886 17.3672C85.5757 17.3672 85.8379 17.2983 86.0752 17.1606C86.3125 17.0229 86.4824 16.8574 86.585 16.6641V15.8027H85.7061C85.3076 15.8027 85.0088 15.8979 84.8096 16.0884C84.6104 16.2788 84.5107 16.4912 84.5107 16.7256C84.5107 16.9336 84.5752 17.0933 84.7041 17.2046C84.833 17.313 85.0278 17.3672 85.2886 17.3672ZM89.6348 18V17.4463L90.3511 17.3232V13.9175H89.3491L89.2832 14.6602H88.5449V13.2451H93.0449V14.6602H92.3022L92.2363 13.9175H91.2168V17.3232L91.9331 17.4463V18H89.6348ZM96.6001 14.8799C97.1626 14.8799 97.6006 15.0234 97.9141 15.3105C98.2275 15.5947 98.3843 15.9653 98.3843 16.4224C98.3843 16.8823 98.2261 17.2603 97.9097 17.5562C97.5962 17.8521 97.1597 18 96.6001 18H93.8403V17.4463L94.5566 17.3232V13.9263L93.8403 13.8032V13.2451H96.1387V13.8032L95.4224 13.9263V14.8799H96.6001ZM96.6001 17.3232C96.9136 17.3232 97.1436 17.2412 97.29 17.0771C97.4395 16.9102 97.5142 16.7021 97.5142 16.4531C97.5142 16.2129 97.4395 16.0034 97.29 15.8247C97.1406 15.646 96.9106 15.5566 96.6001 15.5566H95.4224V17.3232H96.6001ZM102.533 17.4858L101.236 15.7764V15.6929L102.533 13.9834H103.183L102.062 15.7368L103.183 17.4858H102.533ZM104 17.4858L102.704 15.7764V15.6929L104 13.9834H104.651L103.53 15.7368L104.651 17.4858H104ZM107.446 18L105.952 12.2256L105.411 12.1597V11.6016H107.485V12.1597L106.822 12.2607L107.657 15.7808L107.85 16.6025L107.876 16.6069L108.131 15.7852L109.419 11.6016H110.179L111.48 15.7852L111.73 16.6553H111.757L111.985 15.7852L112.812 12.2607L112.095 12.1597V11.6016H114.134V12.1597L113.629 12.2256L112.196 18H111.375L109.986 13.5703L109.81 12.9243H109.784L109.612 13.5703L108.219 18H107.446ZM114.75 18V17.4463L115.466 17.3232V13.9263L114.75 13.8032V13.2451H116.332V17.3232L117.048 17.4463V18H114.75ZM115.422 12.0718V11.1445H116.332V12.0718H115.422ZM117.602 18V17.4463L118.318 17.3232V11.8257L117.602 11.7026V11.1445H119.184V17.3232L119.9 17.4463V18H117.602ZM122.444 18.0923C122.125 18.0923 121.826 18.0601 121.548 17.9956C121.27 17.9312 120.974 17.8315 120.66 17.6968L120.651 16.5674H121.306L121.469 17.2485C121.633 17.3159 121.791 17.3657 121.943 17.3979C122.099 17.4272 122.266 17.4419 122.444 17.4419C122.796 17.4419 123.048 17.3745 123.2 17.2397C123.353 17.105 123.429 16.938 123.429 16.7388C123.429 16.5513 123.351 16.3931 123.196 16.2642C123.043 16.1323 122.765 16.021 122.361 15.9302C121.787 15.7983 121.363 15.6226 121.091 15.4028C120.821 15.1802 120.687 14.8843 120.687 14.5151C120.687 14.2573 120.761 14.0273 120.911 13.8252C121.06 13.6201 121.268 13.4575 121.535 13.3374C121.801 13.2173 122.112 13.1572 122.466 13.1572C122.827 13.1572 123.134 13.1982 123.389 13.2803C123.647 13.3623 123.871 13.4722 124.062 13.6099L124.105 14.6953H123.455L123.314 14.0625C123.212 13.9863 123.09 13.9277 122.95 13.8867C122.809 13.8457 122.648 13.8252 122.466 13.8252C122.197 13.8252 121.977 13.8882 121.807 14.0142C121.64 14.1401 121.557 14.2983 121.557 14.4888C121.557 14.6001 121.58 14.6968 121.627 14.7788C121.677 14.8608 121.771 14.9355 121.908 15.0029C122.046 15.0674 122.248 15.1318 122.515 15.1963C123.177 15.3516 123.638 15.5493 123.899 15.7896C124.163 16.0298 124.294 16.3257 124.294 16.6772C124.294 17.0786 124.145 17.4155 123.846 17.688C123.55 17.9575 123.083 18.0923 122.444 18.0923ZM127.16 18.0923C126.72 18.0923 126.341 17.9897 126.021 17.7847C125.705 17.5767 125.46 17.291 125.288 16.9277C125.115 16.5615 125.028 16.144 125.028 15.6753V15.5786C125.028 15.1099 125.115 14.6938 125.288 14.3306C125.46 13.9644 125.705 13.6772 126.021 13.4692C126.341 13.2612 126.717 13.1572 127.151 13.1572C127.59 13.1572 127.968 13.2612 128.285 13.4692C128.604 13.6772 128.85 13.9629 129.023 14.3262C129.196 14.6895 129.282 15.1069 129.282 15.5786V15.6753C129.282 16.147 129.196 16.5659 129.023 16.9321C128.85 17.2954 128.605 17.5796 128.289 17.7847C127.973 17.9897 127.596 18.0923 127.16 18.0923ZM127.16 17.4155C127.435 17.4155 127.665 17.3408 127.85 17.1914C128.037 17.0391 128.178 16.8325 128.271 16.5718C128.368 16.3081 128.417 16.0093 128.417 15.6753V15.5786C128.417 15.2446 128.368 14.9473 128.271 14.6865C128.178 14.4229 128.037 14.2163 127.85 14.0669C127.662 13.9146 127.429 13.8384 127.151 13.8384C126.875 13.8384 126.644 13.9146 126.457 14.0669C126.269 14.2163 126.128 14.4229 126.035 14.6865C125.941 14.9473 125.894 15.2446 125.894 15.5786V15.6753C125.894 16.0093 125.941 16.3081 126.035 16.5718C126.128 16.8325 126.269 17.0391 126.457 17.1914C126.647 17.3408 126.881 17.4155 127.16 17.4155ZM129.95 18V17.4463L130.667 17.3232V13.9263L129.95 13.8032V13.2451H131.44L131.501 13.9526C131.66 13.7007 131.857 13.5059 132.095 13.3682C132.335 13.2275 132.607 13.1572 132.912 13.1572C133.425 13.1572 133.822 13.3081 134.103 13.6099C134.384 13.9087 134.525 14.3716 134.525 14.9985V17.3232L135.241 17.4463V18H132.943V17.4463L133.659 17.3232V15.0161C133.659 14.5972 133.576 14.2998 133.409 14.124C133.245 13.9482 132.993 13.8604 132.653 13.8604C132.404 13.8604 132.183 13.9204 131.989 14.0405C131.799 14.1606 131.646 14.3247 131.532 14.5327V17.3232L132.249 17.4463V18H129.95ZM141.02 18.0923C140.378 18.0923 139.842 17.9517 139.412 17.6704C138.984 17.3892 138.662 17.0039 138.445 16.5146C138.231 16.0254 138.124 15.4702 138.124 14.8491V14.7568C138.124 14.1299 138.237 13.5732 138.462 13.0869C138.688 12.5977 139.012 12.2124 139.434 11.9312C139.855 11.6499 140.359 11.5093 140.945 11.5093C141.358 11.5093 141.736 11.5737 142.079 11.7026C142.422 11.8315 142.706 11.9956 142.932 12.1948V13.5747H142.242L142.149 12.564C142.056 12.4907 141.947 12.4292 141.824 12.3794C141.704 12.3296 141.569 12.2915 141.42 12.2651C141.273 12.2388 141.114 12.2256 140.941 12.2256C140.522 12.2256 140.167 12.334 139.877 12.5508C139.587 12.7646 139.368 13.0605 139.218 13.4385C139.069 13.8164 138.994 14.2529 138.994 14.748V14.8491C138.994 15.3853 139.073 15.8438 139.231 16.2246C139.393 16.6025 139.625 16.8911 139.93 17.0903C140.238 17.2896 140.611 17.3892 141.051 17.3892C141.256 17.3892 141.457 17.3643 141.653 17.3145C141.849 17.2646 142.012 17.2002 142.141 17.1211L142.237 16.229H142.914V17.6177C142.674 17.7671 142.387 17.8843 142.053 17.9692C141.719 18.0513 141.375 18.0923 141.02 18.0923ZM145.916 18.0923C145.476 18.0923 145.097 17.9897 144.777 17.7847C144.461 17.5767 144.216 17.291 144.043 16.9277C143.871 16.5615 143.784 16.144 143.784 15.6753V15.5786C143.784 15.1099 143.871 14.6938 144.043 14.3306C144.216 13.9644 144.461 13.6772 144.777 13.4692C145.097 13.2612 145.473 13.1572 145.907 13.1572C146.346 13.1572 146.724 13.2612 147.041 13.4692C147.36 13.6772 147.606 13.9629 147.779 14.3262C147.952 14.6895 148.038 15.1069 148.038 15.5786V15.6753C148.038 16.147 147.952 16.5659 147.779 16.9321C147.606 17.2954 147.361 17.5796 147.045 17.7847C146.729 17.9897 146.352 18.0923 145.916 18.0923ZM145.916 17.4155C146.191 17.4155 146.421 17.3408 146.605 17.1914C146.793 17.0391 146.934 16.8325 147.027 16.5718C147.124 16.3081 147.172 16.0093 147.172 15.6753V15.5786C147.172 15.2446 147.124 14.9473 147.027 14.6865C146.934 14.4229 146.793 14.2163 146.605 14.0669C146.418 13.9146 146.185 13.8384 145.907 13.8384C145.631 13.8384 145.4 13.9146 145.212 14.0669C145.025 14.2163 144.884 14.4229 144.791 14.6865C144.697 14.9473 144.65 15.2446 144.65 15.5786V15.6753C144.65 16.0093 144.697 16.3081 144.791 16.5718C144.884 16.8325 145.025 17.0391 145.212 17.1914C145.403 17.3408 145.637 17.4155 145.916 17.4155ZM148.688 18V17.4463L149.405 17.3232V13.8867H148.662V13.2451H149.405V12.6431C149.405 12.1362 149.537 11.7451 149.8 11.4697C150.067 11.1914 150.438 11.0522 150.912 11.0522C151.012 11.0522 151.119 11.061 151.233 11.0786C151.35 11.0933 151.47 11.1152 151.593 11.1445L151.488 11.8037C151.435 11.792 151.363 11.7817 151.272 11.7729C151.185 11.7642 151.101 11.7598 151.022 11.7598C150.767 11.7598 150.578 11.8359 150.455 11.9883C150.332 12.1377 150.271 12.356 150.271 12.6431V13.2451H151.308V13.8867H150.271V17.3232L151.088 17.4463V18H148.688ZM151.879 18V17.4463L152.595 17.3232V13.8867H151.853V13.2451H152.595V12.6431C152.595 12.1362 152.727 11.7451 152.991 11.4697C153.257 11.1914 153.628 11.0522 154.103 11.0522C154.202 11.0522 154.309 11.061 154.423 11.0786C154.541 11.0933 154.661 11.1152 154.784 11.1445L154.678 11.8037C154.625 11.792 154.554 11.7817 154.463 11.7729C154.375 11.7642 154.292 11.7598 154.212 11.7598C153.958 11.7598 153.769 11.8359 153.646 11.9883C153.522 12.1377 153.461 12.356 153.461 12.6431V13.2451H154.498V13.8867H153.461V17.3232L154.278 17.4463V18H151.879ZM157.209 18.0923C156.77 18.0923 156.388 17.9927 156.062 17.7935C155.737 17.5913 155.485 17.3115 155.307 16.9541C155.131 16.5967 155.043 16.1836 155.043 15.7148V15.5215C155.043 15.0703 155.135 14.6675 155.32 14.313C155.507 13.9556 155.755 13.6743 156.062 13.4692C156.373 13.2612 156.711 13.1572 157.078 13.1572C157.505 13.1572 157.863 13.2451 158.15 13.4209C158.44 13.5967 158.658 13.8442 158.805 14.1636C158.951 14.48 159.024 14.8535 159.024 15.2842V15.8247H155.939L155.926 15.8467C155.932 16.1514 155.985 16.4224 156.084 16.6597C156.187 16.894 156.333 17.0786 156.524 17.2134C156.714 17.3481 156.943 17.4155 157.209 17.4155C157.502 17.4155 157.759 17.3745 157.979 17.2925C158.201 17.2075 158.393 17.0918 158.554 16.9453L158.893 17.5078C158.723 17.6719 158.497 17.811 158.216 17.9253C157.938 18.0366 157.602 18.0923 157.209 18.0923ZM155.966 15.1479H158.159V15.0337C158.159 14.8052 158.118 14.6016 158.036 14.4229C157.957 14.2412 157.836 14.0991 157.675 13.9966C157.517 13.8911 157.318 13.8384 157.078 13.8384C156.884 13.8384 156.708 13.8955 156.55 14.0098C156.392 14.1211 156.262 14.2734 156.159 14.4668C156.057 14.6602 155.989 14.8799 155.957 15.126L155.966 15.1479ZM162 18.0923C161.56 18.0923 161.178 17.9927 160.853 17.7935C160.527 17.5913 160.275 17.3115 160.097 16.9541C159.921 16.5967 159.833 16.1836 159.833 15.7148V15.5215C159.833 15.0703 159.925 14.6675 160.11 14.313C160.297 13.9556 160.545 13.6743 160.853 13.4692C161.163 13.2612 161.501 13.1572 161.868 13.1572C162.295 13.1572 162.653 13.2451 162.94 13.4209C163.23 13.5967 163.448 13.8442 163.595 14.1636C163.741 14.48 163.814 14.8535 163.814 15.2842V15.8247H160.729L160.716 15.8467C160.722 16.1514 160.775 16.4224 160.875 16.6597C160.977 16.894 161.124 17.0786 161.314 17.2134C161.504 17.3481 161.733 17.4155 162 17.4155C162.292 17.4155 162.549 17.3745 162.769 17.2925C162.991 17.2075 163.183 17.0918 163.344 16.9453L163.683 17.5078C163.513 17.6719 163.287 17.811 163.006 17.9253C162.728 18.0366 162.392 18.0923 162 18.0923ZM160.756 15.1479H162.949V15.0337C162.949 14.8052 162.908 14.6016 162.826 14.4229C162.747 14.2412 162.626 14.0991 162.465 13.9966C162.307 13.8911 162.108 13.8384 161.868 13.8384C161.674 13.8384 161.499 13.8955 161.34 14.0098C161.182 14.1211 161.052 14.2734 160.949 14.4668C160.847 14.6602 160.779 14.8799 160.747 15.126L160.756 15.1479ZM164.627 17.332L165.744 15.583L164.627 13.8296H165.278L166.574 15.5391V15.6226L165.278 17.332H164.627ZM166.144 17.332L167.26 15.583L166.144 13.8296H166.794L168.09 15.5391V15.6226L166.794 17.332H166.144ZM170.956 18V17.4463L171.672 17.3232V13.9263L170.956 13.8032V13.2451H171.672H173.544C174.171 13.2451 174.657 13.355 175.003 13.5747C175.349 13.7915 175.521 14.1182 175.521 14.5547C175.521 14.7773 175.454 14.9766 175.319 15.1523C175.185 15.3252 174.994 15.457 174.748 15.5479C175.044 15.6211 175.275 15.7588 175.442 15.9609C175.609 16.1602 175.693 16.3887 175.693 16.6465C175.693 17.0918 175.53 17.4287 175.205 17.6572C174.883 17.8857 174.43 18 173.847 18H170.956ZM172.538 17.332H173.847C174.169 17.332 174.413 17.272 174.577 17.1519C174.741 17.0288 174.823 16.853 174.823 16.6245C174.823 16.3989 174.741 16.2246 174.577 16.1016C174.413 15.9785 174.169 15.917 173.847 15.917H172.538V17.332ZM172.538 15.2534H173.548C173.915 15.2534 174.19 15.1992 174.375 15.0908C174.562 14.9824 174.656 14.8184 174.656 14.5986C174.656 14.1445 174.285 13.9175 173.544 13.9175H172.538V15.2534Z" fill="white"/>
</g>
</g>
<defs>
<linearGradient id="paint0_linear_59_27" x1="26.1719" y1="12.884" x2="26.1719" y2="57.188" gradientUnits="userSpaceOnUse">
<stop stop-color="#257CB0"/>
<stop offset="0.286" stop-color="#4A93B5"/>
<stop offset="0.767" stop-color="#78BCBB"/>
<stop offset="1" stop-color="#89CFBD"/>
</linearGradient>
<linearGradient id="paint1_linear_59_27" x1="15.0019" y1="23.8791" x2="43.3428" y2="23.8791" gradientUnits="userSpaceOnUse">
<stop stop-color="#52C1AD"/>
<stop offset="1" stop-color="#DEE89A"/>
</linearGradient>
<linearGradient id="paint2_linear_59_27" x1="29.1718" y1="35.0361" x2="29.1718" y2="57.349" gradientUnits="userSpaceOnUse">
<stop stop-color="#EC413D"/>
<stop offset="0.167" stop-color="#DA4452"/>
<stop offset="0.575" stop-color="#B0487A"/>
<stop offset="0.862" stop-color="#954A92"/>
<stop offset="1" stop-color="#8A4A9D"/>
</linearGradient>
<linearGradient id="paint3_linear_59_27" x1="45.4954" y1="29.086" x2="45.4954" y2="40.9852" gradientUnits="userSpaceOnUse">
<stop stop-color="#F58879"/>
<stop offset="0.119" stop-color="#F69079"/>
<stop offset="0.713" stop-color="#FCB877"/>
<stop offset="1" stop-color="#FEC874"/>
</linearGradient>
<clipPath id="clip0_59_27">
<rect width="200" height="65.42" fill="white"/>
</clipPath>
<clipPath id="clip1_59_27">
<rect width="200" height="200" fill="white" transform="translate(0 -67)"/>
</clipPath>
</defs>
</svg>
