<?xml version="1.0" standalone="no"?>
<!DOCTYPE svg PUBLIC "-//W3C//DTD SVG 20010904//EN"
 "http://www.w3.org/TR/2001/REC-SVG-20010904/DTD/svg10.dtd">
<svg version="1.0" xmlns="http://www.w3.org/2000/svg"
 width="850.000000pt" height="850.000000pt" viewBox="0 0 850.000000 850.000000"
 preserveAspectRatio="xMidYMid meet">

<g transform="translate(0.000000,850.000000) scale(0.100000,-0.100000)"
fill="#000000" stroke="none">
<path d="M3979 8230 c-786 -58 -1518 -332 -2132 -797 -281 -213 -567 -499
-779 -779 -971 -1282 -1072 -3043 -255 -4424 307 -518 729 -965 1227 -1297
1281 -854 2945 -893 4265 -98 289 174 505 344 761 599 288 288 486 550 677
894 481 864 618 1901 381 2872 -276 1131 -1046 2095 -2091 2618 -416 209 -872
342 -1353 397 -165 19 -543 27 -701 15z m821 -162 c17 -22 19 -22 37 -5 11 9
23 17 26 17 12 0 8 -35 -5 -48 -29 -29 -98 -1 -98 40 0 25 18 23 40 -4z m-638
-233 c3 -94 8 -188 10 -210 3 -37 1 -40 -22 -40 -25 0 -25 1 -28 93 l-3 92
-38 -6 c-74 -12 -88 12 -92 156 -2 70 -1 75 19 78 21 3 22 -1 22 -60 0 -35 3
-80 6 -100 6 -36 9 -38 44 -38 l37 0 -5 89 c-5 100 0 124 25 119 16 -3 19 -22
25 -173z m283 155 c7 -11 65 -372 65 -402 0 -31 -44 -20 -48 12 -12 113 -10
110 -52 110 -42 0 -46 -5 -56 -79 -6 -50 -20 -66 -43 -52 -9 6 -4 42 23 152
19 79 40 172 47 207 10 55 14 62 35 62 12 0 26 -4 29 -10z m290 -19 c3 -5 -4
-68 -16 -140 -11 -72 -19 -136 -17 -141 2 -5 37 51 78 125 68 122 92 150 112
130 2 -3 -6 -69 -18 -147 -12 -79 -25 -169 -29 -201 -6 -57 -25 -82 -45 -61
-4 5 0 65 11 134 11 69 18 131 17 138 -2 6 -36 -49 -76 -123 -41 -74 -77 -135
-80 -135 -33 1 -33 17 -7 211 15 107 29 200 31 207 4 14 30 16 39 3z m-1069
-142 c13 -13 29 -39 35 -59 14 -48 -8 -102 -53 -130 -101 -63 -222 58 -161
161 36 60 129 75 179 28z m-508 -164 c28 -77 58 -162 68 -188 16 -42 17 -49 4
-57 -8 -5 -19 -8 -24 -7 -5 2 -38 90 -73 196 -51 153 -62 195 -51 202 7 4 16
5 20 1 4 -4 29 -70 56 -147z m2205 84 c86 -66 37 -209 -71 -209 -118 0 -166
147 -70 214 33 23 109 21 141 -5z m-2423 -79 c18 -50 32 -74 41 -72 63 16 76
14 96 -14 30 -44 55 -119 51 -156 -3 -28 -10 -36 -48 -55 -25 -12 -52 -22 -60
-22 -10 -1 -34 53 -79 177 -80 224 -80 225 -51 220 18 -2 28 -18 50 -78z
m2885 -8 c41 -22 51 -32 53 -58 3 -35 -30 -119 -60 -151 -22 -24 -72 -31 -83
-13 -15 24 -34 5 -68 -70 -23 -52 -41 -80 -52 -80 -30 0 -26 28 18 116 25 49
57 118 72 154 15 36 34 80 42 98 7 17 17 32 21 32 4 0 30 -13 57 -28z m-3107
-11 c2 -6 -10 -17 -27 -24 -17 -6 -31 -16 -31 -21 0 -5 38 -83 85 -174 65
-127 82 -168 74 -179 -6 -7 -15 -13 -19 -13 -4 0 -44 73 -89 163 -44 89 -85
168 -90 175 -7 11 -16 10 -50 -7 -38 -20 -42 -20 -48 -4 -4 9 -2 18 3 20 5 2
45 21 89 42 83 41 96 43 103 22z m3386 -134 c17 -12 14 -25 -46 -211 -34 -109
-69 -201 -76 -203 -31 -13 -35 15 -12 77 12 33 21 62 19 64 -2 2 -19 11 -37
20 -38 19 -33 22 -84 -51 -24 -35 -37 -40 -55 -22 -8 8 19 47 102 144 62 73
123 147 136 164 26 35 28 36 53 18z m-3692 -44 c32 -36 79 -133 76 -155 -2
-12 -17 -32 -35 -44 l-32 -21 44 -74 c25 -41 45 -77 45 -81 0 -4 -9 -12 -19
-17 -17 -10 -25 0 -74 87 -31 53 -78 132 -106 175 -28 43 -51 82 -51 87 0 15
83 60 111 60 14 0 33 -8 41 -17z m3967 -129 c18 -14 31 -35 31 -48 0 -34 -56
-114 -84 -122 -21 -5 -23 -9 -14 -24 16 -25 -22 -98 -74 -145 -32 -30 -45 -35
-66 -30 -29 7 -59 30 -73 57 -13 23 9 68 33 68 16 0 18 -5 13 -33 -8 -40 12
-62 45 -52 25 8 80 90 80 119 0 11 -7 27 -16 37 -18 20 -10 42 14 36 43 -9
114 67 99 107 -9 22 -46 20 -73 -5 -23 -22 -44 -19 -44 7 0 16 57 54 82 54 9
0 30 -12 47 -26z m-1934 -4 c622 -42 1170 -246 1674 -622 186 -139 461 -414
598 -598 309 -416 492 -834 585 -1342 33 -176 32 -415 0 -543 -59 -226 -203
-429 -361 -506 -54 -26 -77 -24 -97 7 -15 22 -15 32 -5 79 16 72 80 201 145
294 119 170 139 259 74 329 -53 56 -135 46 -267 -34 -50 -30 -92 -54 -94 -54
-3 0 -7 13 -10 30 -9 41 -45 61 -111 61 -52 0 -150 -22 -188 -42 -15 -8 -15
-11 0 -41 25 -51 20 -139 -17 -258 -36 -118 -52 -137 -139 -170 -53 -20 -112
-27 -112 -12 0 4 7 32 15 62 54 200 -35 376 -172 338 -73 -20 -133 -116 -133
-212 0 -31 0 -31 -49 -28 -62 5 -128 -23 -162 -68 -37 -49 -64 -73 -188 -163
-62 -45 -121 -88 -131 -95 -16 -11 -21 -7 -48 40 l-30 53 41 35 c95 79 117
106 117 144 0 49 -12 69 -55 96 -48 30 -141 25 -210 -10 -109 -57 -142 -155
-92 -280 l26 -63 -88 -96 c-49 -53 -126 -141 -172 -195 -46 -55 -96 -108 -112
-120 -25 -19 -28 -19 -44 -3 -45 44 -20 209 62 422 89 231 164 373 265 500 49
61 64 74 97 80 101 19 267 92 320 143 46 42 53 80 20 108 -87 75 -326 12 -500
-132 -75 -61 -74 -61 -148 -3 -45 36 -84 92 -114 164 l-23 57 113 111 c201
199 286 378 231 484 -35 68 -159 83 -249 30 -105 -62 -217 -234 -247 -381 -11
-52 -8 -139 6 -187 3 -12 -14 -24 -64 -47 -194 -90 -258 13 -147 235 37 76 61
108 122 167 51 51 74 80 71 92 -6 28 -60 23 -144 -14 -132 -58 -217 -64 -299
-22 -51 26 -101 26 -115 1 -13 -26 -13 -134 1 -164 21 -46 -101 -283 -203
-393 -45 -48 -92 -79 -108 -69 -30 18 2 212 75 456 169 565 462 1150 754 1504
22 27 41 59 41 71 0 25 -32 69 -61 85 -35 18 -116 26 -181 17 -91 -12 -95 -14
-102 -57 -3 -21 -36 -101 -72 -177 -193 -407 -423 -1004 -499 -1299 -10 -38
-20 -72 -21 -74 -2 -1 -13 4 -26 13 -37 26 -98 20 -176 -19 -175 -88 -306
-322 -305 -544 l1 -83 -42 -41 c-46 -45 -116 -80 -140 -71 -42 16 -24 134 41
259 114 219 115 221 115 270 1 42 -3 52 -31 77 -58 52 -143 30 -267 -71 l-62
-50 -6 30 c-9 47 -58 62 -183 57 -57 -3 -103 -2 -103 1 0 3 11 47 25 96 70
257 96 486 63 550 -41 78 -98 99 -258 99 -139 -1 -219 -16 -332 -64 -76 -31
-208 -108 -208 -120 0 -4 15 -40 34 -81 75 -163 148 -410 162 -548 l6 -69 -63
-33 c-183 -92 -360 -250 -419 -374 -61 -128 -42 -242 52 -318 29 -23 51 -31
91 -35 78 -6 142 24 217 105 106 113 176 290 202 512 9 75 15 101 27 105 9 2
45 16 81 29 36 13 78 27 93 31 35 8 38 33 -39 -281 -58 -239 -84 -380 -84
-455 0 -33 -4 -48 -13 -48 -30 0 -178 -81 -247 -137 -194 -154 -338 -387 -375
-608 -9 -51 -14 -41 -60 114 -88 297 -127 573 -127 891 0 498 97 922 313 1361
168 342 358 601 645 878 560 541 1305 845 2109 859 39 1 138 -3 220 -8z
m-2327 -22 c10 -10 5 -19 -25 -44 l-37 -31 38 -52 c21 -28 41 -51 46 -51 4 0
19 9 33 20 22 18 26 18 37 4 11 -12 8 -19 -19 -42 l-31 -27 48 -62 48 -62 30
24 c33 28 64 32 64 10 0 -15 -86 -84 -106 -85 -6 0 -44 48 -85 107 -41 59 -93
131 -116 162 -24 30 -43 58 -43 62 0 7 90 78 101 79 3 0 11 -6 17 -12z m4565
-206 c19 -21 16 -42 -6 -42 -6 0 -25 14 -43 31 l-32 31 -117 -146 c-111 -138
-135 -160 -150 -136 -8 13 -9 12 138 194 l119 146 36 -29 c21 -16 45 -38 55
-49z m-4823 -12 c15 0 80 -61 80 -75 0 -30 -24 -26 -60 10 -41 40 -73 44 -78
9 -6 -40 185 -254 226 -254 31 0 38 26 18 61 -18 30 -14 49 9 49 18 0 45 -51
45 -85 0 -29 -40 -75 -65 -75 -9 0 -29 7 -44 15 -41 21 -198 192 -222 242 -20
41 -20 45 -4 69 18 27 52 45 73 38 8 -2 18 -4 22 -4z m5037 -182 c25 -24 33
-40 33 -67 0 -31 -13 -47 -119 -154 -101 -102 -123 -120 -150 -120 -52 0 -108
68 -95 117 3 14 59 77 124 140 134 132 151 138 207 84z m-5277 -31 c0 -8 -11
-24 -25 -37 -14 -13 -25 -29 -25 -36 0 -7 21 -31 47 -53 l48 -40 26 25 c44 42
68 11 27 -33 l-22 -24 56 -56 56 -56 33 37 c29 34 34 36 48 22 14 -15 11 -21
-33 -65 l-49 -50 -146 140 c-80 78 -147 144 -149 148 -1 4 14 26 34 49 34 41
74 56 74 29z m5505 -214 c41 -53 38 -87 -13 -134 -25 -24 -51 -39 -67 -39 -20
0 -25 -5 -25 -26 0 -38 -15 -60 -71 -104 -66 -52 -91 -52 -141 2 -21 23 -38
48 -38 57 1 9 24 34 52 56 28 22 98 82 157 132 58 51 109 93 112 93 4 0 19
-16 34 -37z m-5614 -150 c122 -100 144 -115 160 -105 15 10 23 7 46 -12 21
-19 25 -27 17 -36 -8 -8 -18 -9 -31 -2 -16 9 -26 2 -67 -50 -44 -55 -47 -61
-32 -77 14 -15 14 -20 3 -29 -10 -8 -20 -5 -42 12 -25 20 -27 26 -16 39 17 22
-11 58 -151 191 -93 88 -108 107 -100 123 14 25 51 63 62 63 5 0 73 -52 151
-117z m5843 -154 c37 -44 43 -75 19 -107 -11 -14 -74 -63 -141 -109 -142 -96
-173 -104 -216 -52 -34 40 -35 97 -3 126 26 24 225 157 247 166 38 14 69 6 94
-24z m-6103 -216 c88 -52 69 -184 -31 -214 -48 -14 -102 8 -130 53 -64 101 58
222 161 161z m6285 -75 c45 -87 36 -112 -56 -158 -81 -41 -114 -40 -137 5
l-18 35 -80 -46 c-73 -41 -80 -44 -92 -28 -7 9 -10 21 -7 26 3 5 49 31 102 58
53 27 131 69 172 94 41 25 81 45 87 45 7 1 20 -13 29 -31z m134 -277 c0 -13
-13 -24 -40 -35 -21 -8 -60 -25 -85 -37 -42 -20 -46 -25 -40 -48 11 -46 21
-46 109 -8 97 42 102 43 110 20 9 -23 4 -26 -109 -71 -55 -22 -138 -59 -184
-81 -84 -41 -107 -42 -99 -6 2 12 31 30 78 50 79 33 81 36 59 91 -7 17 -9 39
-6 48 7 17 159 94 190 95 10 1 17 -6 17 -18z m-6835 -71 c3 -5 -1 -23 -10 -39
-22 -43 -20 -48 29 -70 82 -36 83 -36 96 4 8 25 17 35 28 33 18 -4 19 -15 7
-60 -7 -26 -4 -29 41 -49 88 -37 98 -36 114 10 13 40 36 54 46 27 6 -15 -41
-126 -53 -126 -6 0 -219 88 -350 145 l-32 14 16 38 c8 21 19 48 24 61 9 23 33
30 44 12z m6969 -266 c8 -22 1 -31 -31 -38 -72 -17 -233 -70 -233 -76 0 -4 66
-10 148 -14 81 -4 151 -11 156 -16 21 -20 -9 -38 -115 -69 -63 -19 -149 -46
-191 -62 -76 -28 -78 -28 -88 -9 -13 24 -19 21 157 77 l118 38 -160 10 c-149
9 -160 11 -163 30 -2 18 20 27 185 81 104 34 193 62 199 63 7 1 15 -6 18 -15z
m-6972 -64 c82 -25 103 -47 95 -98 l-7 -38 70 -18 c55 -14 70 -22 70 -36 0
-29 -13 -31 -75 -10 -75 26 -77 25 -95 -13 -19 -41 -57 -46 -149 -18 -89 27
-104 45 -98 111 3 29 10 57 16 63 6 6 11 18 11 26 0 26 32 51 65 51 18 0 62
-9 97 -20z m1305 -50 c40 -24 56 -78 48 -163 -13 -137 -38 -322 -44 -329 -3
-4 -47 -18 -96 -32 -50 -13 -100 -27 -111 -31 -20 -6 -22 -2 -28 77 -11 124
-52 323 -83 404 -5 13 65 53 137 80 55 20 139 17 177 -6z m2670 -241 c37 -31
-9 -113 -125 -219 -42 -39 -79 -70 -84 -70 -4 0 -9 10 -9 23 -8 133 36 237
116 273 32 15 79 11 102 -7z m3103 -32 c0 -21 -8 -24 -90 -41 -49 -10 -88 -21
-86 -25 3 -4 50 -18 105 -31 81 -19 101 -27 101 -41 0 -28 -10 -28 -95 -3 -44
13 -86 24 -94 24 -7 0 -53 -29 -101 -65 -89 -66 -114 -76 -123 -51 -7 17 6 28
96 85 37 24 67 45 67 47 0 3 -10 8 -22 13 -15 5 -45 2 -87 -10 -69 -20 -81
-18 -81 11 0 14 15 21 78 35 42 9 127 29 187 45 139 36 145 36 145 7z m-7130
-82 c170 -30 194 -43 198 -104 2 -27 -3 -52 -13 -67 -29 -45 -53 -46 -217 -14
-182 35 -203 49 -195 120 5 44 41 90 70 90 7 0 78 -11 157 -25z m3349 -100
c-33 -74 -59 -172 -59 -227 0 -55 28 -116 61 -133 61 -32 175 -12 301 51 77
39 78 39 78 21 0 -24 97 -151 140 -184 23 -18 61 -40 85 -49 l42 -18 -49 -74
c-64 -95 -106 -186 -162 -352 -48 -145 -83 -302 -93 -417 -3 -39 -9 -75 -12
-80 -15 -22 -211 -189 -250 -215 -25 -15 -57 -28 -73 -28 -56 0 -49 49 43 302
100 277 108 342 46 382 -50 33 -161 29 -211 -7 -17 -13 -18 -19 -7 -61 15 -59
2 -142 -44 -291 -80 -261 -101 -397 -72 -468 44 -103 159 -62 402 142 61 51
122 102 137 112 l27 19 11 -55 c16 -76 46 -110 97 -109 54 2 130 43 184 101
25 26 78 98 118 158 86 129 202 285 212 285 3 0 19 -18 33 -41 31 -46 35 -34
-48 -128 -62 -72 -88 -123 -84 -169 4 -48 34 -64 108 -59 166 11 260 131 232
295 -6 31 -8 60 -6 64 3 4 55 51 117 104 l112 96 6 -108 c4 -81 11 -122 28
-159 48 -110 125 -149 217 -110 78 32 202 179 270 318 l28 57 51 0 c27 1 70 5
95 10 25 4 47 6 49 4 2 -2 -12 -48 -32 -102 -21 -55 -37 -109 -37 -121 0 -33
26 -77 60 -101 30 -21 121 -42 138 -31 5 3 13 33 17 65 15 122 108 404 183
553 35 68 93 111 163 120 85 12 88 -30 17 -239 -50 -145 -53 -158 -53 -256 0
-102 0 -104 29 -129 26 -22 36 -25 78 -20 88 11 222 89 399 233 36 30 68 54
71 54 6 0 0 -44 -29 -210 -151 -857 -696 -1642 -1453 -2094 -356 -213 -723
-343 -1160 -411 -140 -22 -556 -31 -715 -16 -708 68 -1353 364 -1861 853 -158
152 -281 299 -316 377 -51 113 -97 263 -119 387 -24 141 -29 386 -10 509 37
233 149 442 291 540 l41 29 22 -26 c26 -30 57 -48 86 -48 19 0 21 6 21 64 l0
64 34 12 c57 18 202 30 261 20 236 -38 277 -260 114 -613 -64 -137 -90 -236
-96 -363 -5 -93 -4 -105 18 -143 53 -94 302 -207 350 -158 9 9 28 77 44 159
54 280 139 546 233 734 45 89 65 113 78 92 5 -7 7 -98 4 -203 -7 -287 -5 -364
14 -427 32 -110 108 -177 212 -186 46 -4 54 -2 67 19 8 13 22 68 31 122 48
285 155 579 271 742 23 33 86 110 139 170 102 116 131 158 122 180 -7 19 -99
45 -156 45 -100 0 -119 -18 -208 -196 -120 -239 -217 -504 -248 -671 -24 -133
-49 -126 -82 25 -14 63 -17 135 -17 406 l0 329 -23 15 c-14 9 -48 16 -88 16
-87 1 -108 -20 -117 -121 -12 -128 -52 -254 -136 -432 -69 -147 -101 -222
-190 -451 -38 -96 -71 -44 -71 112 0 69 8 120 39 240 48 187 56 255 41 338
-15 84 -48 146 -105 199 -92 85 -205 116 -400 109 -69 -2 -125 -1 -125 3 0 66
155 727 175 747 11 11 76 -31 91 -59 21 -42 13 -92 -52 -316 -56 -192 -59
-223 -21 -260 23 -23 37 -28 95 -31 l68 -4 -4 64 c-6 90 44 331 96 469 12 30
61 69 126 101 89 43 105 -6 57 -174 -49 -176 -53 -281 -10 -327 40 -43 129
-17 245 71 l52 39 34 -21 c42 -25 107 -26 156 -1 42 22 135 115 178 180 l29
44 7 -41 c9 -56 36 -110 61 -123 97 -53 341 199 435 448 l27 73 40 0 c30 1
124 26 142 39 1 0 -12 -28 -28 -64z m-665 33 c12 -20 12 -37 -4 -135 -21 -123
-49 -189 -107 -254 -56 -62 -120 -90 -147 -64 -32 32 -10 189 42 300 63 134
176 215 216 153z m4510 -205 c4 -9 3 -20 -1 -24 -4 -4 -72 -13 -151 -20 -78
-7 -139 -15 -135 -19 4 -4 71 -23 148 -44 77 -20 144 -41 149 -46 5 -5 6 -15
3 -23 -4 -10 -33 -16 -109 -21 -57 -4 -146 -13 -198 -20 -52 -7 -98 -12 -102
-9 -5 2 -8 12 -8 22 0 16 15 20 118 30 124 13 173 21 157 27 -5 2 -71 19 -145
38 -132 33 -174 55 -142 75 7 4 74 13 150 20 75 8 157 17 182 21 70 12 77 11
84 -7z m-7342 -115 c31 -21 61 -38 67 -38 5 0 57 17 115 39 103 38 126 39 126
5 0 -7 -46 -27 -102 -44 -98 -31 -101 -33 -78 -46 14 -7 52 -14 85 -14 68 0
91 -10 81 -35 -5 -15 -20 -16 -143 -9 -268 14 -296 19 -275 50 5 8 36 9 102 4
52 -4 96 -6 98 -5 2 2 -42 29 -97 60 -90 51 -100 59 -90 76 12 22 19 19 111
-43z m1187 -10 c-9 -87 -25 -143 -62 -211 -74 -141 -192 -204 -264 -143 -68
59 -12 189 127 291 50 36 191 124 201 125 3 0 2 -28 -2 -62z m3561 -46 c0 -16
-36 -41 -100 -70 -77 -35 -169 -66 -176 -60 -7 8 110 86 168 113 52 24 108 33
108 17z m645 -378 c42 -16 55 -93 34 -197 -13 -65 -26 -71 -80 -34 -70 46 -91
149 -43 206 25 30 54 38 89 25z m-701 -152 c9 -15 -21 -53 -73 -92 -29 -22
-57 -37 -62 -34 -5 3 -9 23 -9 44 0 51 43 90 100 90 21 0 41 -3 44 -8z m554
-82 c13 -21 101 -70 127 -70 22 0 19 -15 -17 -82 -59 -111 -179 -191 -215
-143 -17 24 -17 60 2 121 16 55 77 193 85 194 3 0 11 -9 18 -20z m-683 -477
c-18 -43 -52 -83 -72 -83 -23 0 -14 31 29 91 32 47 44 57 50 45 5 -9 3 -30 -7
-53z m924 -2090 c19 -32 67 -109 108 -171 40 -62 71 -118 68 -123 -15 -23 -42
-5 -72 49 -57 102 -54 101 -102 69 l-41 -27 36 -58 c20 -31 43 -66 50 -76 10
-14 11 -23 2 -33 -19 -24 -33 -14 -67 50 -19 34 -66 113 -104 175 -64 106 -76
142 -45 142 7 0 35 -36 61 -80 27 -44 52 -80 57 -80 13 0 70 34 70 42 0 4 -21
41 -46 82 -43 70 -49 96 -21 96 7 0 28 -26 46 -57z m-3635 36 c14 -7 29 -24
34 -38 17 -50 -32 -161 -59 -134 -9 9 -6 22 11 59 17 33 20 51 13 62 -26 42
-58 13 -144 -133 -44 -73 -59 -108 -57 -130 4 -40 38 -46 62 -11 10 16 22 23
31 20 22 -9 18 -32 -10 -59 -30 -31 -73 -32 -109 -4 -46 36 -33 82 68 246 55
90 95 133 122 133 7 0 24 -5 38 -11z m330 -184 c52 -23 70 -45 46 -60 -5 -3
-27 3 -48 14 l-38 20 -31 -63 -31 -63 34 -16 c43 -21 47 -52 7 -44 -16 3 -36
9 -46 12 -14 6 -23 -5 -47 -59 -17 -36 -30 -68 -30 -71 0 -2 18 -14 40 -25 41
-21 50 -37 26 -46 -10 -4 -105 35 -124 51 -3 2 178 375 182 375 2 0 29 -11 60
-25z m2933 -2 c3 -7 -14 -21 -36 -32 l-40 -21 26 -57 c14 -32 28 -60 30 -62 2
-3 19 3 38 12 33 16 35 15 44 -2 8 -15 4 -21 -25 -35 -29 -14 -34 -20 -28 -39
12 -40 54 -117 64 -117 5 0 25 8 45 17 31 15 37 15 45 3 5 -8 7 -17 4 -21 -7
-12 -115 -59 -124 -54 -4 3 -27 49 -50 102 -24 54 -60 133 -81 175 -22 43 -39
84 -39 92 0 14 85 56 109 53 8 -1 16 -7 18 -14z m-2594 -139 c58 -20 77 -31
74 -43 -2 -9 -10 -14 -18 -12 -61 16 -53 27 -116 -168 -52 -163 -60 -181 -80
-181 -13 0 -23 5 -23 11 0 5 27 89 60 186 33 96 58 179 54 184 -3 5 -19 12
-37 17 -19 5 -33 16 -35 26 -5 23 8 20 121 -20z m2271 -15 c-3 -5 -11 -9 -19
-9 -8 0 -25 -4 -39 -9 l-25 -10 22 -66 c19 -58 24 -65 42 -60 37 12 59 10 63
-5 2 -10 -10 -20 -33 -29 -40 -14 -40 -10 -3 -108 11 -29 21 -53 22 -53 2 0
22 7 45 15 37 13 42 13 48 -1 3 -8 2 -19 -3 -23 -17 -16 -116 -43 -124 -35
-10 12 -134 384 -129 388 2 2 29 13 59 24 50 19 56 19 67 5 7 -9 10 -20 7 -24z
m-1967 -77 c9 -6 7 -26 -8 -85 -11 -43 -17 -82 -15 -86 3 -5 19 -11 36 -14 47
-10 56 -41 36 -130 -21 -95 -38 -111 -103 -102 -78 10 -77 6 -44 146 16 68 37
159 46 202 16 74 25 86 52 69z m1621 -27 c23 -29 45 -111 46 -173 1 -48 -19
-72 -61 -72 -13 0 -23 -1 -23 -2 0 -2 9 -36 19 -76 16 -62 17 -74 5 -79 -27
-10 -42 6 -48 54 -13 90 -13 89 -56 85 -32 -3 -41 0 -56 22 -19 30 -44 125
-44 170 0 35 25 66 55 66 11 0 25 4 31 9 8 8 33 13 96 19 9 1 25 -9 36 -23z
m-459 -55 c10 -5 22 -17 26 -27 7 -20 34 -259 35 -311 0 -48 -37 -82 -90 -82
-84 0 -94 20 -110 211 -12 149 -8 182 23 204 24 17 89 20 116 5z m-507 -115
c-4 -114 -4 -114 64 18 24 48 48 87 53 87 5 0 13 -6 19 -12 7 -10 -2 -34 -34
-88 -24 -41 -44 -80 -44 -85 0 -6 20 -58 44 -115 41 -97 44 -106 28 -118 -23
-17 -33 -2 -68 99 -15 43 -31 79 -35 79 -19 0 -30 -46 -27 -108 3 -63 2 -67
-19 -70 l-23 -3 0 211 0 211 23 -3 c21 -3 22 -6 19 -103z"/>
<path d="M4407 7890 c-35 -131 -34 -150 3 -150 35 0 36 8 16 110 -10 52 -14
60 -19 40z"/>
<path d="M3003 7560 l-21 -9 25 -68 c29 -82 35 -88 63 -73 26 14 23 42 -9 116
-21 46 -23 48 -58 34z"/>
<path d="M5754 7558 c-33 -70 -34 -73 -15 -82 11 -5 27 -6 35 -3 17 7 66 97
66 121 0 14 -28 36 -45 36 -3 0 -21 -33 -41 -72z"/>
<path d="M5997 7380 c-26 -33 -47 -63 -47 -68 0 -9 50 -36 55 -30 6 6 46 150
43 153 -2 2 -25 -23 -51 -55z"/>
<path d="M2336 7437 c-16 -12 -14 -17 21 -79 21 -37 42 -68 47 -68 5 0 17 7
27 16 21 19 15 40 -27 104 -28 43 -40 47 -68 27z"/>
<path d="M3980 7144 c-259 -31 -432 -68 -645 -139 -440 -147 -795 -365 -1126
-695 -176 -174 -279 -299 -279 -335 0 -30 41 -59 69 -50 11 3 42 34 69 68 68
87 199 227 295 315 401 369 876 601 1435 699 147 26 175 28 447 28 310 0 384
-7 623 -61 682 -153 1299 -574 1691 -1154 184 -272 301 -527 391 -854 21 -76
44 -143 52 -147 25 -16 57 -9 74 16 15 23 14 31 -11 132 -96 382 -275 743
-535 1083 -94 122 -358 386 -480 480 -422 323 -861 513 -1380 596 -101 16
-598 29 -690 18z"/>
<path d="M6753 6832 c-93 -82 -143 -137 -143 -158 0 -28 20 -54 42 -54 20 0
209 174 230 213 11 22 -14 67 -37 67 -8 0 -50 -31 -92 -68z"/>
<path d="M7035 6608 c-44 -39 -46 -43 -29 -55 28 -20 43 -16 81 22 29 29 33
37 23 55 -6 11 -14 20 -19 20 -4 0 -30 -19 -56 -42z"/>
<path d="M6882 6472 l-64 -57 24 -22 c22 -21 25 -21 53 -7 49 25 85 65 85 94
0 24 -16 50 -29 50 -4 0 -35 -26 -69 -58z"/>
<path d="M1344 6579 c-5 -9 232 -259 246 -258 3 0 13 10 22 23 l17 24 -134
111 c-74 61 -137 111 -139 111 -3 0 -8 -5 -12 -11z"/>
<path d="M7158 6272 c-65 -42 -120 -85 -124 -94 -15 -46 26 -79 68 -57 56 29
228 156 233 171 9 26 -13 58 -38 58 -12 0 -75 -35 -139 -78z"/>
<path d="M7428 6014 c-38 -19 -68 -37 -68 -40 0 -17 23 -44 38 -44 26 0 122
59 122 74 0 20 -11 46 -19 46 -3 -1 -36 -17 -73 -36z"/>
<path d="M704 5365 c-3 -8 -3 -19 1 -24 8 -14 164 -63 176 -56 5 4 9 17 9 30
0 21 -9 27 -66 45 -78 24 -113 25 -120 5z"/>
<path d="M680 5275 c-19 -23 9 -49 78 -70 70 -20 96 -17 100 12 3 19 -6 25
-65 43 -37 11 -75 23 -84 26 -9 2 -22 -2 -29 -11z"/>
<path d="M601 4948 c-19 -51 4 -63 183 -98 128 -26 156 -20 156 30 0 38 -9 42
-161 69 -147 27 -167 27 -178 -1z"/>
<path d="M4265 4361 c-44 -21 -113 -69 -169 -119 l-38 -33 16 -46 c9 -26 16
-61 16 -79 0 -65 64 -103 134 -79 87 30 147 126 154 245 4 66 1 78 -18 103
-25 32 -41 33 -95 8z"/>
<path d="M6828 3153 c-9 -10 -50 -85 -91 -168 -128 -254 -279 -465 -482 -674
-434 -447 -975 -725 -1600 -823 -189 -30 -596 -32 -780 -5 -779 116 -1447 519
-1898 1147 -34 47 -66 88 -72 92 -32 23 -85 -5 -85 -45 0 -44 243 -348 397
-498 478 -465 1074 -744 1735 -815 181 -19 531 -14 694 10 848 126 1562 577
2029 1282 82 123 245 429 245 459 0 21 -36 55 -58 55 -11 0 -26 -8 -34 -17z"/>
<path d="M3242 2750 c-12 -5 -27 -21 -32 -35 -14 -36 -13 -304 1 -344 30 -85
149 -57 149 34 0 29 -3 36 -17 33 -11 -2 -20 -15 -23 -32 -7 -40 -34 -56 -57
-33 -15 15 -19 40 -21 161 -4 153 3 186 39 186 23 0 39 -35 39 -86 0 -28 3
-35 18 -32 13 3 16 12 14 43 -4 57 -20 91 -48 104 -29 13 -31 13 -62 1z"/>
<path d="M3668 2749 c-39 -15 -48 -58 -48 -226 0 -134 1 -143 23 -169 32 -37
105 -40 139 -6 22 22 23 29 23 192 0 156 -2 171 -20 189 -25 24 -81 34 -117
20z m86 -55 c3 -9 6 -82 6 -164 0 -159 -5 -175 -52 -168 -41 6 -49 40 -42 183
3 72 8 138 10 148 7 23 69 24 78 1z"/>
<path d="M4070 2539 l0 -210 23 3 c21 3 22 7 21 101 l-1 97 32 0 c19 0 35 6
38 14 8 19 -1 26 -35 26 l-28 0 0 69 0 70 42 3 c31 2 44 8 46 21 3 15 -5 17
-67 17 l-71 0 0 -211z"/>
<path d="M4460 2539 l0 -210 23 3 c21 3 22 7 22 101 l0 97 31 0 c18 0 34 6 37
14 8 19 -1 26 -35 26 l-28 0 0 69 0 70 42 3 c31 2 44 8 46 21 3 15 -5 17 -67
17 l-71 0 0 -211z"/>
<path d="M4850 2540 l0 -210 70 0 c63 0 70 2 70 20 0 17 -7 20 -44 20 -51 0
-56 9 -56 102 l0 57 43 3 c29 2 42 8 42 18 0 11 -13 16 -44 18 l-43 3 6 37 c3
20 6 52 6 70 0 31 1 32 45 32 38 0 45 3 45 20 0 18 -7 20 -70 20 l-69 0 -1
-210z"/>
<path d="M5250 2540 l0 -210 70 0 c63 0 70 2 70 20 0 17 -7 20 -50 20 l-50 0
0 80 0 80 40 0 c33 0 40 3 40 20 0 17 -7 20 -40 20 l-40 0 0 70 0 70 43 0 c48
0 58 5 50 26 -4 10 -23 14 -69 14 l-64 0 0 -210z"/>
<path d="M3412 743 c-32 -128 -32 -123 -7 -129 39 -10 45 -2 69 106 6 30 -2
45 -31 54 -19 6 -23 2 -31 -31z"/>
<path d="M5004 935 c-3 -8 2 -50 12 -95 15 -73 19 -80 41 -80 13 0 26 6 29 14
6 17 -23 145 -37 163 -15 17 -38 17 -45 -2z"/>
<path d="M4905 910 c-7 -21 11 -123 26 -152 10 -19 44 -24 53 -9 5 8 -13 107
-30 164 -7 23 -41 22 -49 -3z"/>
<path d="M4536 864 c-18 -18 -19 -38 -6 -192 5 -63 15 -120 21 -128 7 -9 25
-14 43 -12 l31 3 -1 100 c-1 55 -4 126 -8 158 -10 79 -43 108 -80 71z"/>
</g>
</svg>
