<?xml version="1.0" standalone="no"?>
<!DOCTYPE svg PUBLIC "-//W3C//DTD SVG 20010904//EN"
 "http://www.w3.org/TR/2001/REC-SVG-20010904/DTD/svg10.dtd">
<svg version="1.0" xmlns="http://www.w3.org/2000/svg"
 width="798.000000pt" height="797.000000pt" viewBox="0 0 798.000000 797.000000"
 preserveAspectRatio="xMidYMid meet">

<g transform="translate(0.000000,797.000000) scale(0.100000,-0.100000)"
fill="#000000" stroke="none">
<path d="M3645 7949 c-346 -36 -582 -86 -905 -191 -102 -34 -189 -64 -195 -68
-5 -4 -39 -18 -75 -30 -90 -31 -303 -134 -435 -209 -663 -379 -1192 -919
-1557 -1591 -20 -36 -50 -99 -68 -140 -18 -41 -48 -106 -66 -144 -19 -38 -34
-73 -34 -78 0 -4 -9 -27 -20 -51 -28 -61 -127 -361 -155 -472 -126 -495 -157
-985 -94 -1500 10 -82 66 -379 88 -465 69 -275 161 -518 308 -810 391 -782
1013 -1399 1803 -1789 366 -181 726 -296 1125 -361 39 -6 84 -13 100 -16 101
-17 367 -34 525 -34 160 0 429 18 525 34 17 3 73 13 125 21 398 65 728 172
1100 356 699 345 1266 867 1672 1539 79 131 225 424 268 540 7 19 16 40 20 45
13 18 128 378 149 465 61 249 82 374 111 652 21 202 8 676 -24 873 -3 17 -10
62 -16 100 -31 192 -119 542 -161 640 -5 11 -27 70 -49 130 -48 131 -73 186
-161 365 -320 644 -840 1214 -1464 1603 -212 132 -528 287 -730 357 -33 11
-69 24 -80 29 -96 41 -448 130 -640 161 -38 6 -83 13 -100 16 -193 31 -687 44
-890 23z m890 -139 c7 -21 30 -27 40 -10 9 15 45 12 45 -3 0 -27 -27 -50 -58
-50 -40 0 -62 19 -62 54 0 34 25 40 35 9z m-631 -222 c3 -84 9 -181 13 -215
l6 -63 -32 0 -31 0 0 90 0 90 -50 0 c-66 0 -76 17 -84 143 l-6 97 24 0 c22 0
25 -5 30 -52 4 -29 7 -73 9 -98 2 -43 3 -45 36 -48 l34 -3 -6 100 c-3 55 -2
102 1 105 3 3 15 6 27 6 21 0 22 -5 29 -152z m287 132 c4 -8 19 -94 34 -190
15 -96 29 -187 32 -201 3 -18 0 -28 -11 -32 -32 -13 -44 3 -51 69 l-7 64 -38
0 c-42 0 -39 4 -56 -92 -5 -31 -10 -38 -30 -38 -32 0 -35 10 -19 64 8 27 30
117 49 202 19 84 37 158 41 164 9 15 46 8 56 -10z m291 -15 c2 -3 -6 -67 -18
-142 -12 -76 -21 -139 -20 -140 0 -1 34 57 74 128 64 113 76 129 99 129 22 0
25 -3 20 -27 -3 -16 -16 -100 -27 -188 -30 -220 -26 -205 -55 -205 -30 0 -30
-1 -6 155 10 66 18 121 17 122 -1 1 -33 -56 -71 -127 -55 -102 -74 -130 -91
-130 -11 0 -23 2 -25 5 -3 2 7 91 22 197 16 106 28 201 28 211 1 11 9 17 24
17 13 0 26 -2 29 -5z m-1084 -131 c49 -34 66 -109 37 -164 -19 -38 -63 -60
-116 -60 -33 0 -47 6 -75 34 -30 30 -34 40 -34 86 0 46 4 56 34 86 29 29 41
34 83 34 28 0 58 -7 71 -16z m-488 -194 c31 -91 63 -178 69 -194 9 -23 9 -31
-1 -38 -35 -22 -43 -8 -110 189 -36 109 -64 201 -61 206 3 4 14 7 25 5 17 -2
31 -34 78 -168z m2176 114 c42 -20 64 -59 64 -114 0 -32 -7 -48 -32 -75 -78
-84 -208 -34 -208 80 0 97 87 151 176 109z m-2405 -81 l25 -78 51 3 c58 4 66
-4 103 -105 29 -81 23 -109 -33 -133 -82 -36 -73 -46 -153 170 -73 197 -76
220 -35 220 12 0 24 -22 42 -77z m2889 -18 c65 -33 71 -56 36 -139 -43 -101
-65 -115 -141 -91 -18 5 -25 -4 -54 -69 -28 -63 -37 -76 -57 -76 -12 0 -25 4
-29 10 -3 5 16 53 43 107 27 54 66 140 87 191 22 50 45 92 52 92 8 0 36 -11
63 -25z m-3110 -15 c0 -11 -11 -22 -31 -29 l-31 -11 90 -174 c66 -128 87 -177
79 -185 -28 -28 -44 -7 -126 159 -46 94 -88 170 -93 170 -5 0 -22 -7 -39 -15
-32 -17 -49 -13 -49 11 0 14 179 105 193 97 4 -2 7 -12 7 -23z m3384 -126 c9
-3 16 -16 16 -28 0 -31 -124 -399 -136 -403 -5 -2 -18 3 -27 10 -17 12 -17 16
4 71 l23 59 -23 18 c-34 27 -42 24 -81 -31 -35 -51 -55 -58 -73 -29 -8 13 6
34 69 106 43 49 104 122 134 161 55 71 64 77 94 66z m-3692 -43 c4 -3 23 -33
42 -65 45 -75 48 -118 9 -143 -16 -9 -30 -18 -32 -20 -2 -1 17 -36 42 -78 42
-67 45 -76 31 -90 -9 -8 -21 -15 -27 -15 -7 0 -34 39 -61 88 -27 48 -76 129
-109 181 -59 90 -60 94 -41 108 55 43 120 58 146 34z m3980 -141 c24 -24 29
-36 24 -56 -11 -41 -57 -104 -81 -110 -17 -4 -21 -11 -17 -33 5 -34 -14 -71
-63 -128 -29 -35 -43 -43 -70 -43 -69 0 -118 74 -81 123 15 19 24 21 45 8 10
-7 11 -13 1 -30 -9 -17 -9 -26 1 -37 20 -25 48 -15 79 27 39 55 45 77 26 98
-9 10 -16 25 -16 34 0 17 9 21 47 18 43 -4 96 103 57 116 -6 2 -24 -7 -40 -20
-16 -13 -35 -22 -41 -20 -22 8 -14 40 13 62 39 30 80 27 116 -9z m-1712 -19
c761 -112 1402 -461 1914 -1041 123 -139 173 -204 258 -335 101 -155 177 -296
238 -440 24 -55 48 -113 55 -130 29 -67 88 -257 115 -367 105 -428 98 -733
-22 -973 -45 -89 -110 -176 -175 -234 -75 -67 -129 -93 -185 -89 l-43 3 0 70
c0 62 5 80 42 157 23 48 73 135 112 193 75 113 108 195 97 240 -9 36 -58 82
-96 90 -43 9 -117 -18 -205 -76 -42 -27 -79 -49 -83 -49 -5 0 -14 15 -20 34
-20 53 -69 72 -152 58 -94 -16 -144 -38 -134 -60 4 -9 9 -51 12 -92 3 -66 -1
-89 -33 -188 -33 -103 -39 -115 -75 -138 -43 -29 -119 -54 -163 -54 -25 0 -29
3 -24 23 31 132 37 176 32 211 -10 60 -50 142 -78 161 -97 63 -213 -24 -225
-170 l-4 -54 -57 1 c-33 0 -69 -6 -87 -15 -35 -18 -91 -73 -99 -96 -3 -9 -26
-29 -52 -46 -27 -16 -95 -65 -151 -107 -57 -43 -107 -78 -110 -78 -10 0 -62
97 -62 115 0 8 31 39 69 70 99 80 111 125 49 183 -82 76 -254 27 -314 -89 -24
-47 -21 -104 11 -184 l27 -67 -79 -82 c-44 -44 -122 -130 -174 -191 -112 -132
-126 -144 -161 -145 -53 0 -60 108 -17 269 67 250 245 607 357 714 18 17 55
35 102 48 137 38 270 109 306 164 48 74 -73 118 -220 80 -83 -22 -202 -86
-268 -145 -35 -31 -65 -50 -81 -50 -28 0 -91 43 -131 91 -35 41 -86 146 -86
175 0 14 24 44 70 84 139 123 271 320 285 425 12 81 -54 149 -141 147 -131 -2
-273 -150 -344 -362 -19 -56 -21 -78 -16 -161 l6 -97 -35 -16 c-188 -90 -274
-44 -231 122 27 107 80 198 162 278 114 111 93 135 -58 67 -72 -33 -95 -38
-174 -41 -83 -3 -96 -1 -143 23 -63 31 -86 26 -102 -22 -9 -28 -9 -51 1 -104
15 -79 8 -107 -62 -239 -81 -153 -186 -266 -240 -258 -22 3 -23 7 -22 78 2
134 103 490 231 814 163 413 349 750 567 1029 42 54 76 107 76 118 0 30 -52
74 -105 89 -47 13 -118 9 -187 -10 -34 -10 -38 -14 -38 -45 0 -22 -30 -99 -86
-217 -198 -421 -386 -913 -488 -1280 -14 -48 -19 -55 -36 -51 -11 3 -23 9 -26
14 -12 21 -95 9 -157 -22 -173 -88 -319 -354 -303 -555 l6 -72 -44 -40 c-72
-66 -135 -89 -164 -60 -34 34 4 184 78 309 86 145 104 206 79 263 -12 26 -63
56 -96 56 -31 0 -114 -46 -182 -100 -34 -28 -64 -50 -64 -48 -39 80 -64 90
-199 83 -82 -5 -98 -4 -98 9 0 8 14 68 31 133 38 151 69 328 69 404 0 73 -17
116 -59 152 -49 41 -100 50 -246 45 -113 -4 -143 -9 -225 -37 -89 -30 -189
-79 -252 -123 l-27 -18 40 -85 c75 -164 142 -395 163 -567 l5 -47 -88 -46
c-149 -79 -290 -197 -363 -304 -107 -155 -84 -321 54 -392 21 -10 52 -19 70
-19 82 0 197 89 267 205 71 117 131 327 131 455 0 26 6 52 13 58 15 13 183 72
204 72 20 0 13 -50 -37 -245 -51 -201 -78 -330 -93 -448 l-12 -98 -58 -24
c-176 -71 -364 -249 -471 -445 -41 -76 -96 -235 -96 -278 0 -141 -107 201
-159 508 -61 357 -52 764 25 1140 161 785 649 1502 1324 1946 453 297 919 457
1480 508 118 10 530 -4 660 -23z m-2552 -12 c2 -10 -11 -25 -32 -39 l-36 -21
38 -54 c34 -50 38 -52 57 -39 35 25 46 27 63 10 15 -15 14 -18 -17 -43 l-32
-28 40 -54 c22 -29 42 -56 45 -58 3 -3 21 7 41 23 33 25 37 26 52 11 13 -13
14 -19 4 -31 -22 -27 -112 -79 -120 -70 -4 5 -34 47 -66 94 -33 47 -86 120
-118 163 -33 44 -55 83 -51 87 5 5 27 23 49 39 42 33 78 37 83 10z m4531 -167
c52 -46 53 -48 34 -64 -18 -17 -21 -16 -57 14 -21 17 -41 27 -44 21 -40 -58
-227 -283 -237 -283 -7 0 -18 7 -25 15 -10 12 -4 25 35 73 27 31 86 105 133
165 47 59 90 107 96 107 6 0 35 -22 65 -48z m-4767 -57 c51 -34 65 -62 43 -84
-15 -15 -18 -14 -43 15 -38 44 -66 58 -82 39 -16 -20 12 -63 110 -168 86 -92
106 -105 127 -84 14 13 13 18 -3 46 -14 24 -16 33 -6 43 16 16 42 1 60 -36 27
-54 -14 -116 -77 -116 -31 0 -45 10 -122 90 -98 101 -149 172 -149 207 0 33
43 73 77 73 16 0 45 -11 65 -25z m5017 -170 c55 -63 48 -80 -92 -221 -108
-109 -126 -124 -156 -124 -49 0 -101 55 -101 106 0 36 8 47 119 156 112 111
121 118 159 118 33 0 45 -6 71 -35z m-5289 -20 c11 -13 8 -21 -18 -48 l-32
-33 45 -44 45 -44 23 22 c48 45 82 20 42 -32 l-26 -34 57 -48 57 -49 26 33
c31 36 43 39 61 17 11 -14 6 -23 -36 -66 -27 -27 -54 -48 -60 -47 -7 2 -78 67
-158 145 l-147 143 43 50 c46 53 58 59 78 35z m5513 -222 c34 -46 34 -83 0
-124 -28 -33 -87 -64 -103 -54 -6 3 -7 -1 -4 -10 10 -26 -16 -72 -61 -109 -63
-52 -87 -61 -118 -45 -25 14 -87 84 -87 100 0 4 53 53 118 107 64 55 135 116
157 135 22 20 47 36 55 36 8 0 27 -16 43 -36z m-5617 -147 c99 -81 143 -111
151 -104 15 12 46 3 67 -21 16 -17 16 -20 0 -35 -12 -12 -20 -14 -27 -7 -17
17 -22 14 -67 -44 -35 -45 -40 -58 -30 -70 14 -17 7 -45 -13 -45 -26 0 -60 46
-52 71 6 19 -11 40 -124 151 -72 71 -131 135 -131 142 0 22 50 76 70 76 9 0
80 -51 156 -114z m5834 -145 c34 -34 46 -74 34 -110 -15 -40 -264 -211 -310
-211 -55 0 -107 86 -85 142 7 18 49 53 131 108 169 113 184 118 230 71z
m-6074 -245 c29 -29 34 -41 34 -83 0 -55 -17 -86 -60 -108 -88 -46 -180 13
-180 116 0 33 6 47 34 75 30 30 40 34 86 34 46 0 56 -4 86 -34z m6271 -71 c22
-44 25 -60 17 -82 -11 -31 -101 -89 -153 -99 -29 -6 -38 -3 -57 19 -12 14 -24
31 -26 38 -2 7 -30 -3 -78 -31 -54 -30 -79 -39 -90 -32 -37 23 -22 41 77 91
54 27 136 72 183 100 47 28 88 51 93 51 4 0 19 -25 34 -55z m121 -247 c17 -17
15 -38 -5 -45 -10 -3 -51 -21 -91 -39 l-73 -33 16 -30 15 -30 87 39 c90 40
113 40 113 0 0 -13 -29 -29 -107 -60 -60 -24 -143 -60 -185 -82 -89 -44 -104
-46 -113 -17 -9 27 -3 32 75 64 36 15 69 31 74 35 5 5 2 24 -8 45 -27 56 -15
72 88 120 105 50 99 48 114 33z m-6828 -92 c0 -7 -6 -29 -14 -47 l-14 -34 51
-22 c68 -29 74 -29 82 7 5 24 12 30 32 30 22 0 25 -3 20 -27 -3 -16 -8 -35
-12 -44 -4 -12 7 -21 47 -36 29 -12 60 -24 69 -28 12 -5 20 4 33 34 15 40 46
55 61 31 9 -15 -53 -143 -67 -137 -7 3 -81 35 -164 71 -84 36 -164 68 -178 72
-38 9 -40 19 -16 85 19 49 26 59 46 59 14 0 24 -6 24 -14z m6970 -276 c0 -13
-29 -25 -131 -56 -126 -37 -130 -39 -93 -46 21 -4 66 -7 99 -8 109 -1 163 -11
168 -31 6 -24 -8 -34 -63 -49 -25 -6 -107 -32 -182 -57 -76 -25 -145 -42 -154
-39 -9 3 -14 15 -12 28 2 17 19 27 88 49 47 15 97 30 113 33 61 14 20 25 -103
28 -131 3 -149 8 -150 43 0 16 392 142 408 132 6 -5 12 -17 12 -27z m-6962
-51 c73 -24 97 -52 87 -99 -5 -21 -3 -31 7 -35 7 -2 39 -11 71 -20 44 -13 57
-21 57 -36 0 -31 -27 -34 -96 -12 l-63 21 -10 -28 c-19 -55 -53 -59 -177 -19
-83 27 -97 44 -88 105 9 60 39 130 62 144 21 12 66 6 150 -21z m1315 -59 c25
-28 27 -37 27 -114 0 -83 -9 -170 -31 -313 l-12 -71 -51 -10 c-28 -6 -81 -19
-118 -30 l-67 -20 -5 26 c-3 15 -8 57 -11 94 -8 81 -27 186 -55 293 -11 44
-20 85 -20 91 0 16 111 73 162 84 24 5 68 7 98 4 45 -3 60 -9 83 -34z m2653
-235 c21 -32 8 -72 -44 -137 -43 -55 -161 -158 -181 -158 -11 0 -13 18 -9 89
7 150 66 231 169 231 41 0 51 -4 65 -25z m3096 -9 c4 -6 8 -18 8 -28 0 -15
-21 -23 -128 -44 -46 -8 -31 -18 58 -39 87 -20 100 -28 93 -55 -7 -25 -25 -25
-105 0 -34 11 -71 20 -81 20 -10 0 -53 -26 -95 -59 -89 -67 -114 -78 -132 -56
-20 24 -6 42 71 91 82 53 78 71 -11 48 -73 -19 -87 -18 -95 7 -9 28 2 34 95
54 102 22 272 64 276 68 8 8 39 3 46 -7z m-7112 -101 c72 -13 143 -31 156 -40
31 -20 40 -57 25 -106 -13 -44 -43 -69 -83 -69 -55 0 -310 59 -329 76 -27 24
-26 102 2 138 26 33 55 34 229 1z m2661 -54 l23 -18 -17 -122 c-17 -125 -33
-169 -91 -249 -39 -55 -104 -94 -147 -90 -43 4 -52 38 -39 134 22 165 95 302
185 348 39 21 58 20 86 -3z m699 14 c0 -3 -16 -47 -36 -98 -49 -124 -57 -225
-22 -277 13 -19 39 -40 61 -49 33 -12 45 -12 105 3 37 9 104 34 149 56 44 22
83 40 86 40 3 0 20 -27 38 -60 39 -73 129 -160 193 -186 25 -11 46 -24 46 -30
0 -6 -24 -48 -54 -93 -113 -171 -211 -470 -247 -748 l-12 -92 -116 -102 c-125
-109 -178 -142 -219 -137 -24 3 -27 7 -30 49 -3 47 14 107 107 369 46 131 57
193 42 233 -21 53 -131 75 -200 39 l-34 -17 -2 -110 c-2 -98 -6 -124 -43 -240
-59 -187 -82 -290 -82 -373 0 -68 2 -76 29 -103 17 -16 40 -29 54 -29 45 0
162 69 272 162 193 161 225 181 225 141 0 -66 52 -143 95 -143 39 0 143 60
183 105 22 25 82 109 135 187 115 170 183 258 200 258 11 0 67 -78 67 -94 0
-5 -25 -36 -56 -69 -59 -66 -114 -151 -114 -179 0 -9 12 -26 28 -38 23 -19 36
-21 87 -17 154 12 235 113 221 276 l-7 76 53 51 c84 80 164 144 181 144 13 0
16 -14 16 -83 -1 -220 104 -343 239 -280 76 35 211 198 266 320 20 45 17 44
169 59 46 4 67 3 67 -5 0 -6 -16 -52 -35 -103 -19 -51 -35 -104 -35 -116 0
-60 68 -117 154 -128 l46 -7 0 54 c0 97 108 438 190 600 24 46 131 102 187 97
70 -6 68 -57 -10 -283 -64 -182 -70 -287 -22 -339 42 -45 115 -32 244 46 34
21 66 38 70 38 4 0 58 41 121 91 77 61 116 86 118 76 2 -8 -6 -73 -18 -143
-175 -1079 -906 -1985 -1925 -2387 -243 -96 -482 -157 -760 -193 -178 -24
-570 -24 -750 0 -810 105 -1509 491 -2026 1116 -83 100 -164 339 -195 575 -18
131 -15 350 6 460 42 225 135 397 272 503 l57 44 34 -36 c19 -20 39 -36 45
-36 6 0 17 -3 26 -6 12 -5 16 6 18 63 l3 68 50 13 c80 20 213 26 277 13 70
-15 130 -57 160 -113 20 -37 23 -57 23 -153 -1 -100 -4 -119 -36 -210 -20 -55
-53 -136 -73 -181 -46 -102 -75 -216 -83 -320 -9 -128 20 -174 157 -251 119
-67 212 -76 225 -21 2 13 18 91 35 173 55 275 133 516 226 695 53 103 78 122
89 69 4 -17 4 -143 0 -279 -9 -302 1 -366 74 -443 47 -51 143 -87 190 -72 24
7 30 26 66 215 32 163 107 394 165 510 61 121 115 198 235 335 102 116 127
157 109 175 -19 19 -137 42 -182 35 -65 -10 -92 -44 -182 -230 -128 -262 -207
-482 -232 -640 -14 -93 -15 -95 -33 -95 -59 0 -93 330 -72 696 8 130 7 142
-11 164 -37 45 -182 38 -196 -9 -3 -9 -12 -61 -20 -116 -21 -139 -55 -242
-151 -445 -45 -96 -101 -224 -124 -285 -58 -153 -69 -175 -85 -175 -25 0 -41
69 -40 175 1 82 9 128 43 259 60 233 55 346 -21 460 -39 59 -122 116 -210 142
-50 15 -94 19 -210 18 l-148 0 0 25 c0 72 148 700 170 724 12 13 58 -3 86 -31
24 -25 26 -32 21 -92 -3 -36 -28 -144 -56 -241 -28 -97 -51 -191 -51 -208 0
-57 56 -91 150 -91 l38 0 -8 37 c-5 21 -5 72 1 118 10 82 69 321 93 379 17 41
113 106 167 113 35 5 40 3 48 -21 12 -29 7 -57 -33 -210 -27 -103 -34 -214
-16 -260 25 -66 95 -57 215 29 42 30 84 55 92 55 9 0 36 -9 60 -21 29 -14 52
-19 72 -14 50 11 117 60 170 127 101 123 93 116 102 93 4 -11 10 -32 13 -46 3
-14 16 -41 29 -60 20 -28 29 -34 59 -33 105 3 298 223 384 437 l33 82 58 7
c32 3 72 11 88 16 36 12 45 14 45 7z m3818 -241 c4 -26 -14 -30 -150 -39 -126
-9 -135 -14 -53 -35 213 -55 210 -54 213 -81 l3 -26 -133 -12 c-73 -7 -155
-17 -181 -22 -71 -13 -104 -11 -111 7 -11 30 13 41 101 48 49 3 104 10 123 15
l35 8 -45 10 c-210 51 -225 57 -228 85 -3 25 -1 27 55 32 128 13 249 26 273
30 14 2 41 3 60 2 27 -1 36 -6 38 -22z m-7356 -93 l77 -50 112 41 c107 40 112
41 125 23 8 -10 14 -23 14 -27 0 -10 4 -8 -113 -43 -80 -24 -87 -28 -70 -41
11 -8 45 -13 91 -14 l73 0 -3 -27 c-3 -28 -3 -28 -68 -24 -36 2 -130 6 -210
10 l-145 6 0 25 0 25 95 -3 95 -3 -85 51 c-46 27 -89 51 -94 53 -12 4 3 47 17
47 7 0 47 -22 89 -49z m1208 12 c0 -16 -7 -59 -15 -98 -43 -203 -190 -356
-299 -311 -90 37 -71 155 42 265 57 55 233 171 259 171 8 0 13 -11 13 -27z
m3550 -86 c0 -18 -12 -30 -47 -50 -65 -35 -148 -67 -200 -76 -40 -8 -42 -7
-29 11 38 54 187 135 254 137 17 1 22 -5 22 -22z m671 -383 c21 -23 24 -34 23
-97 -2 -94 -19 -157 -43 -157 -24 0 -79 38 -104 71 -25 34 -33 109 -17 149 26
63 97 81 141 34z m-723 -155 c2 -21 -7 -35 -44 -67 -68 -58 -93 -70 -104 -52
-13 20 -12 77 0 100 16 30 61 50 105 47 35 -2 40 -5 43 -28z m568 -70 c22 -24
86 -59 109 -59 29 0 27 -29 -6 -91 -57 -107 -145 -177 -211 -167 -22 3 -23 7
-23 83 1 71 5 90 40 167 42 93 57 104 91 67z m-686 -440 c0 -36 -13 -64 -48
-101 -32 -35 -62 -37 -62 -5 0 29 76 137 96 137 9 0 14 -11 14 -31z m909
-2116 c19 -32 67 -109 108 -171 40 -62 73 -119 73 -127 0 -12 -38 -32 -44 -23
-1 1 -21 36 -45 76 -23 39 -47 72 -54 72 -7 0 -25 -10 -40 -23 l-28 -22 46
-74 c47 -75 51 -105 14 -99 -15 2 -39 34 -81 108 -33 58 -81 136 -105 174 -46
71 -49 100 -11 94 14 -2 36 -26 64 -73 24 -38 45 -74 47 -78 1 -5 19 1 39 13
l37 22 -50 80 c-40 64 -48 82 -38 94 20 24 33 16 68 -43z m-3610 11 c12 -15
21 -38 21 -52 0 -40 -39 -112 -60 -112 -30 0 -33 18 -11 56 48 81 6 118 -49
43 -44 -62 -118 -191 -125 -220 -4 -18 -1 -30 11 -39 14 -13 19 -11 38 13 25
31 51 35 61 10 4 -13 -4 -28 -30 -52 -31 -27 -42 -32 -68 -27 -85 17 -90 81
-16 211 58 102 114 181 132 188 35 15 76 6 96 -19z m361 -211 c0 -27 -18 -30
-61 -7 -17 8 -32 14 -34 12 -5 -5 -55 -107 -55 -111 0 -3 14 -10 30 -17 21 -9
30 -19 30 -36 0 -28 -6 -29 -52 -9 l-35 14 -30 -68 -31 -68 45 -22 c39 -19 42
-23 33 -41 -6 -11 -13 -20 -16 -20 -15 0 -124 62 -124 71 0 5 41 92 90 194
l90 183 60 -25 c49 -21 60 -31 60 -50z m2880 47 c9 -17 5 -22 -30 -40 -22 -11
-40 -22 -40 -24 0 -2 12 -29 26 -60 l25 -56 31 16 c56 29 83 -10 28 -43 -35
-20 -36 -24 -9 -82 32 -71 35 -73 81 -50 42 21 57 16 58 -19 0 -14 -107 -64
-127 -60 -8 2 -38 57 -67 123 -29 66 -67 148 -84 182 -18 34 -32 66 -32 71 0
8 105 61 122 62 4 0 12 -9 18 -20z m-2597 -142 c48 -17 87 -33 87 -37 -1 -25
-19 -33 -50 -23 -30 11 -32 10 -45 -21 -7 -18 -35 -101 -62 -184 -36 -115 -52
-153 -64 -153 -36 0 -40 24 -14 91 43 109 96 281 91 294 -2 7 -18 16 -35 20
-36 8 -44 17 -35 40 4 10 13 14 23 10 9 -4 55 -20 104 -37z m2275 -4 c2 -16
-5 -23 -38 -33 -22 -6 -40 -15 -40 -18 0 -3 8 -30 17 -60 17 -55 24 -60 67
-43 21 8 27 6 36 -10 14 -27 14 -27 -25 -40 -19 -6 -35 -17 -35 -23 0 -7 10
-40 21 -73 l22 -62 43 16 c47 17 72 8 61 -22 -7 -16 -128 -58 -139 -48 -4 4
-34 88 -66 187 -33 99 -63 187 -67 196 -5 13 6 21 52 37 69 25 87 24 91 -4z
m-1964 -93 c3 -5 -2 -44 -13 -88 l-18 -78 35 -13 c20 -7 40 -18 44 -25 12 -19
9 -76 -6 -135 -21 -79 -30 -85 -99 -79 -33 3 -64 10 -69 15 -6 6 5 76 32 198
23 104 43 195 45 202 5 14 41 16 49 3z m1622 -27 c20 -29 44 -125 44 -173 0
-34 -23 -71 -44 -71 -34 -1 -37 -16 -20 -84 14 -58 15 -69 3 -77 -31 -20 -44
-4 -59 69 -14 72 -15 73 -41 67 -16 -4 -37 -2 -48 4 -30 16 -55 94 -55 174 -1
77 -7 69 74 107 8 4 41 8 72 9 51 0 60 -2 74 -25z m-452 -64 c14 -14 22 -46
32 -132 20 -167 18 -234 -5 -257 -42 -42 -125 -35 -156 13 -21 31 -44 312 -29
353 18 51 114 65 158 23z m-514 -85 l5 -90 45 87 c31 61 51 88 63 88 33 0 29
-28 -14 -101 -23 -40 -42 -79 -42 -86 0 -7 19 -58 42 -113 45 -103 47 -134 10
-128 -17 2 -28 21 -52 88 -16 47 -32 87 -34 90 -12 13 -23 -33 -23 -97 0 -73
0 -73 -27 -73 l-28 0 2 212 c1 117 2 214 2 216 1 2 11 2 24 0 20 -3 22 -9 27
-93z"/>
<path d="M4141 7570 c-7 -30 -15 -63 -18 -72 -3 -14 2 -18 26 -18 17 0 31 3
30 8 0 4 -6 36 -13 72 l-12 65 -13 -55z"/>
<path d="M2736 7281 c-8 -12 39 -134 53 -139 23 -8 40 18 31 46 -19 67 -39
102 -59 102 -11 0 -22 -4 -25 -9z"/>
<path d="M5502 7292 c-28 -61 -29 -68 -14 -79 26 -21 31 -16 62 49 30 64 31
72 1 88 -16 8 -23 1 -49 -58z"/>
<path d="M5732 7094 c-41 -52 -42 -53 -21 -65 12 -6 25 -7 29 -2 9 10 43 113
39 117 -2 2 -23 -21 -47 -50z"/>
<path d="M2085 7166 c-18 -13 -17 -16 20 -79 34 -58 40 -64 57 -54 10 7 18 19
18 27 0 13 -65 120 -73 120 -2 0 -12 -6 -22 -14z"/>
<path d="M3780 6873 c-577 -55 -1044 -225 -1485 -541 -179 -129 -407 -343
-541 -507 -88 -109 -89 -111 -70 -140 31 -48 56 -34 154 83 633 758 1613 1128
2587 976 220 -35 504 -113 655 -181 166 -75 234 -110 348 -178 286 -170 543
-394 745 -648 171 -214 269 -378 400 -667 35 -79 102 -280 127 -385 25 -106
41 -135 75 -135 35 0 48 30 36 88 -37 182 -116 399 -227 622 -89 179 -156 291
-267 443 -542 744 -1422 1185 -2347 1175 -85 0 -171 -3 -190 -5z"/>
<path d="M6463 6528 c-108 -106 -118 -120 -104 -147 23 -43 41 -34 152 76 107
105 121 127 97 151 -25 25 -53 10 -145 -80z"/>
<path d="M6786 6343 c-49 -42 -53 -56 -13 -61 45 -6 102 72 68 93 -5 3 -30
-12 -55 -32z"/>
<path d="M6633 6204 c-54 -47 -61 -58 -53 -75 17 -30 46 -23 95 24 47 46 53
62 33 90 -12 15 -19 11 -75 -39z"/>
<path d="M1090 6303 c0 -4 54 -62 120 -129 118 -118 121 -121 136 -100 17 24
17 24 -152 162 -88 72 -104 82 -104 67z"/>
<path d="M7010 6067 c-67 -36 -228 -148 -234 -162 -9 -25 12 -55 38 -55 25 0
250 151 259 174 5 14 -18 56 -31 56 -4 0 -18 -6 -32 -13z"/>
<path d="M7168 5738 c-59 -32 -69 -47 -44 -67 11 -10 25 -7 63 13 58 29 76 47
67 70 -9 22 -20 20 -86 -16z"/>
<path d="M451 5096 c-10 -12 -8 -17 11 -29 42 -25 147 -52 160 -39 20 20 0 41
-54 56 -96 27 -104 28 -117 12z"/>
<path d="M422 4988 c2 -18 18 -27 81 -47 67 -22 79 -23 87 -11 16 25 6 34 -61
57 -87 29 -111 29 -107 1z"/>
<path d="M356 4684 c-41 -41 -7 -65 133 -93 118 -24 162 -26 179 -9 16 16 15
43 -2 57 -10 8 -263 61 -292 61 -2 0 -10 -7 -18 -16z"/>
<path d="M3974 4069 c-27 -17 -77 -54 -111 -81 l-61 -50 12 -37 c7 -20 16 -57
20 -83 8 -56 41 -88 90 -88 119 0 234 211 182 335 -13 30 -20 35 -49 35 -20 0
-53 -12 -83 -31z"/>
<path d="M6505 2756 c-382 -776 -1096 -1334 -1930 -1509 -740 -156 -1507 -11
-2127 402 -294 197 -511 404 -722 691 -83 113 -96 125 -126 115 -39 -12 -44
-42 -16 -89 93 -159 406 -499 602 -654 775 -610 1788 -790 2717 -481 446 148
838 395 1167 735 143 148 227 252 338 419 96 144 242 419 242 457 0 32 -18 48
-52 48 -25 0 -32 -10 -93 -134z"/>
<path d="M2964 2459 c-16 -17 -20 -40 -23 -135 -6 -204 12 -267 78 -267 39 0
68 27 77 72 6 29 5 33 -12 29 -11 -2 -20 -13 -22 -28 -4 -27 -19 -50 -33 -50
-5 0 -18 9 -28 19 -37 37 -40 310 -4 346 33 33 63 2 63 -66 0 -37 4 -49 15
-49 32 0 10 121 -25 140 -30 16 -66 11 -86 -11z"/>
<path d="M3391 2461 c-16 -16 -20 -41 -26 -164 -7 -155 -4 -179 28 -214 31
-34 98 -32 126 3 19 24 21 40 21 184 0 144 -2 160 -21 184 -17 21 -29 26 -65
26 -30 0 -50 -6 -63 -19z m106 -41 c15 -30 18 -266 3 -304 -8 -21 -16 -26 -44
-26 -52 0 -58 19 -54 184 3 156 11 179 57 174 15 -2 31 -13 38 -28z"/>
<path d="M3816 2273 c0 -187 2 -208 17 -211 15 -3 17 8 17 102 l0 106 35 0
c24 0 35 5 35 15 0 10 -11 15 -35 15 l-35 0 0 74 0 75 47 3 c26 2 48 9 51 16
3 9 -14 12 -65 12 l-68 0 1 -207z"/>
<path d="M4206 2273 c1 -186 2 -208 17 -211 15 -3 17 9 17 102 l0 106 35 0
c24 0 35 5 35 15 0 10 -11 15 -35 15 l-35 0 0 74 0 75 47 3 c26 2 48 9 51 16
3 9 -14 12 -65 12 l-68 0 1 -207z"/>
<path d="M4598 2278 c-2 -112 -3 -204 -2 -205 0 -2 29 -4 64 -5 56 -3 65 -1
68 16 4 17 0 18 -47 12 l-51 -7 0 86 0 85 40 6 c24 4 40 12 40 20 0 10 -13 14
-40 14 l-40 0 0 75 0 75 50 0 c40 0 48 3 44 15 -5 11 -22 15 -64 15 l-58 0 -4
-202z"/>
<path d="M4992 2276 l-2 -205 55 -6 c60 -8 89 -2 82 18 -3 8 -21 11 -51 10
l-46 -3 0 85 0 85 40 6 c50 8 48 28 -3 32 l-37 3 0 75 0 74 45 0 c33 0 45 4
45 15 0 12 -14 15 -63 15 l-63 0 -2 -204z"/>
<path d="M3146 429 c-9 -39 -16 -73 -14 -74 2 -2 12 -5 23 -7 25 -4 46 39 48
100 2 41 -1 47 -20 50 -19 3 -23 -5 -37 -69z"/>
<path d="M4753 669 c-8 -8 -6 -33 7 -90 19 -88 22 -94 46 -85 14 5 16 15 11
54 -7 59 -29 124 -42 129 -6 2 -16 -2 -22 -8z"/>
<path d="M4657 653 c-22 -21 12 -183 38 -183 24 0 27 19 15 88 -17 90 -32 117
-53 95z"/>
<path d="M4271 582 c-15 -29 7 -282 27 -304 19 -22 45 -23 62 -3 11 13 11 42
0 153 -7 75 -17 145 -22 155 -12 23 -55 22 -67 -1z"/>
</g>
</svg>
