<?xml version="1.0" standalone="no"?>
<!DOCTYPE svg PUBLIC "-//W3C//DTD SVG 20010904//EN"
 "http://www.w3.org/TR/2001/REC-SVG-20010904/DTD/svg10.dtd">
<svg version="1.0" xmlns="http://www.w3.org/2000/svg"
 width="1074.000000pt" height="395.000000pt" viewBox="0 0 1074.000000 395.000000"
 preserveAspectRatio="xMidYMid meet">

<g transform="translate(0.000000,395.000000) scale(0.100000,-0.100000)"
fill="#000000" stroke="none">
<path d="M9940 3090 l0 -850 395 0 395 0 0 850 0 850 -395 0 -395 0 0 -850z
m180 700 l0 -60 75 0 75 0 0 50 0 50 45 0 45 0 0 -50 0 -50 85 0 85 0 0 60 0
60 45 0 45 0 0 -100 0 -100 -290 0 -290 0 0 100 0 100 40 0 40 0 0 -60z m0
-240 l0 -60 75 0 75 0 0 50 0 50 45 0 45 0 0 -50 0 -50 85 0 85 0 0 60 0 60
45 0 45 0 0 -100 0 -100 -290 0 -290 0 0 100 0 100 40 0 40 0 0 -60z m0 -235
l0 -55 74 0 75 0 3 38 c3 36 4 37 46 40 l42 3 0 -40 0 -41 125 0 125 0 0 -45
0 -45 -285 0 -285 0 0 100 0 100 40 0 40 0 0 -55z m0 -240 l0 -55 74 0 75 0 3
38 c3 36 4 37 46 40 l42 3 0 -40 0 -41 125 0 125 0 0 -45 0 -45 -285 0 -285 0
0 100 0 100 40 0 40 0 0 -55z m451 -208 c91 -61 67 -217 -39 -247 -20 -5 -116
-10 -212 -10 -147 0 -181 3 -210 18 -95 47 -107 175 -24 241 25 20 39 21 239
21 204 0 213 -1 246 -23z m-301 -332 l0 -45 -59 0 c-72 0 -91 -6 -91 -31 0
-33 33 -39 212 -39 136 0 178 3 194 14 27 21 8 49 -37 56 -32 5 -34 8 -37 48
l-3 42 38 0 c51 0 102 -29 125 -71 23 -43 23 -66 -2 -106 -37 -61 -57 -68
-233 -72 -223 -5 -262 2 -309 49 -45 44 -50 86 -18 138 27 44 70 61 153 62
l67 0 0 -45z"/>
<path d="M10138 2799 c-21 -12 -24 -69 -6 -87 15 -15 360 -17 389 -2 23 13 26
62 3 84 -13 13 -45 16 -192 16 -102 0 -184 -5 -194 -11z"/>
<path d="M5145 3903 c-196 -41 -348 -184 -386 -364 -16 -75 -6 -211 21 -282
50 -131 152 -220 401 -347 215 -110 259 -149 259 -228 0 -112 -105 -158 -265
-117 -76 20 -145 58 -203 112 -54 51 -36 62 -171 -101 l-90 -109 17 -29 c50
-86 188 -176 327 -214 91 -25 287 -30 377 -10 193 43 338 164 389 325 43 136
20 310 -56 416 -59 84 -137 139 -330 235 -99 49 -196 103 -216 119 -67 56 -89
143 -48 195 34 43 74 58 155 58 82 -1 140 -21 205 -73 22 -17 42 -29 45 -27
12 13 194 272 194 278 0 7 -83 70 -130 97 -122 71 -338 100 -495 66z"/>
<path d="M6754 3904 c-230 -38 -440 -168 -565 -350 -45 -66 -96 -179 -121
-269 -31 -114 -31 -354 1 -470 81 -304 295 -510 611 -591 113 -29 394 -27 504
4 168 47 329 147 431 270 65 77 145 235 171 337 28 106 25 361 -5 470 -76 278
-267 478 -540 564 -163 51 -323 63 -487 35z m331 -366 c246 -80 377 -352 305
-632 -46 -182 -162 -301 -331 -341 -214 -50 -416 28 -534 208 -151 231 -87
575 134 716 120 78 282 96 426 49z"/>
<path d="M75 3878 c2 -7 110 -373 240 -813 130 -440 240 -810 245 -822 9 -23
13 -23 185 -23 172 0 176 0 185 23 6 12 82 249 171 527 88 278 164 508 168
512 3 4 48 -122 100 -280 51 -158 129 -398 173 -535 l80 -247 181 2 180 3 228
809 c125 444 230 819 233 832 l6 24 -181 -2 -182 -3 -140 -517 c-77 -285 -143
-518 -146 -518 -3 0 -27 69 -53 153 -25 83 -97 317 -159 520 l-112 367 -191 0
-191 0 -155 -524 c-85 -289 -158 -519 -161 -513 -4 7 -66 235 -138 507 -73
272 -134 503 -137 513 -5 15 -24 17 -219 17 -167 0 -213 -3 -210 -12z"/>
<path d="M2700 3055 l0 -835 185 0 185 0 0 835 0 835 -185 0 -185 0 0 -835z"/>
<path d="M3530 3055 l0 -835 530 0 530 0 0 180 0 180 -340 0 -340 0 0 655 0
655 -190 0 -190 0 0 -835z"/>
<path d="M8130 3055 l0 -835 175 0 175 0 2 502 3 501 354 -449 c195 -247 374
-473 398 -501 l45 -53 149 0 149 0 0 835 0 835 -180 0 -180 0 -2 -500 -3 -500
-61 77 c-33 43 -210 268 -393 501 l-333 422 -149 0 -149 0 0 -835z"/>
<path d="M290 1938 c-54 -28 -87 -74 -96 -136 -19 -126 59 -223 179 -224 65
-1 129 24 121 46 -7 19 -8 19 -62 1 -105 -37 -192 30 -192 147 0 119 92 175
216 133 15 -5 23 -2 28 10 4 12 -3 20 -29 31 -50 21 -114 18 -165 -8z"/>
<path d="M720 1770 l0 -190 105 0 c98 0 105 1 105 20 0 18 -7 20 -85 20 l-85
0 0 65 0 65 75 0 c68 0 75 2 75 20 0 18 -7 20 -75 20 l-75 0 0 65 0 65 86 0
c76 0 85 2 82 18 -3 15 -17 17 -106 20 l-102 3 0 -191z"/>
<path d="M1120 1940 c0 -16 8 -19 63 -22 l62 -3 3 -167 c2 -159 4 -168 22
-168 18 0 20 9 22 168 l3 167 63 3 c54 3 62 6 62 22 0 19 -8 20 -150 20 -142
0 -150 -1 -150 -20z"/>
<path d="M1630 1770 l0 -190 65 0 c104 0 160 33 172 102 7 45 -19 101 -55 118
-15 7 -52 14 -82 16 l-55 3 -3 70 c-3 63 -5 71 -22 71 -19 0 -20 -8 -20 -190z
m171 -16 c12 -11 19 -31 19 -55 0 -52 -35 -79 -101 -79 l-49 0 0 73 c0 41 3
77 8 81 12 13 103 -2 123 -20z"/>
<path d="M2360 1770 c0 -183 1 -190 20 -190 19 0 20 7 20 190 0 183 -1 190
-20 190 -19 0 -20 -7 -20 -190z"/>
<path d="M2501 1871 c-44 -49 -81 -92 -81 -96 0 -3 37 -49 82 -101 59 -67 89
-94 105 -94 13 0 23 3 23 6 0 3 -36 46 -81 95 -44 50 -79 94 -77 99 2 5 36 45
76 89 39 44 72 82 72 85 0 3 -8 6 -19 6 -10 0 -53 -38 -100 -89z"/>
<path d="M2923 1949 c-18 -5 -48 -25 -66 -44 -95 -97 -63 -269 58 -315 42 -16
128 -14 162 3 37 20 79 65 92 100 26 69 4 174 -46 219 -47 43 -128 58 -200 37z
m134 -46 c93 -44 108 -181 29 -251 -47 -41 -94 -48 -151 -23 -60 26 -85 69
-85 143 0 50 4 62 32 94 18 20 41 40 52 44 34 14 86 11 123 -7z"/>
<path d="M3560 1940 c0 -14 -7 -20 -21 -20 -45 0 -101 -25 -129 -57 -25 -28
-30 -43 -30 -84 0 -88 43 -135 135 -148 32 -5 41 -11 43 -28 5 -33 42 -31 42
2 0 22 5 25 33 25 73 0 147 69 147 137 0 81 -51 136 -137 149 -33 5 -43 11
-43 25 0 12 -7 19 -20 19 -13 0 -20 -7 -20 -20z m-2 -167 l-3 -108 -29 3 c-76
8 -117 62 -100 130 11 43 61 82 106 82 l29 0 -3 -107z m117 93 c41 -17 58 -47
58 -100 0 -32 -6 -45 -32 -68 -17 -15 -40 -28 -50 -28 -11 0 -26 -3 -35 -6
-14 -5 -16 8 -16 105 0 124 2 127 75 97z"/>
<path d="M4007 1953 c-4 -3 -7 -89 -7 -190 l0 -183 110 0 c103 0 110 1 110 20
0 18 -7 20 -85 20 l-85 0 0 65 0 65 75 0 c68 0 75 2 75 20 0 18 -7 20 -75 20
l-75 0 0 65 0 65 80 0 c73 0 80 2 80 20 0 19 -7 20 -98 20 -54 0 -102 -3 -105
-7z"/>
<path d="M4457 1953 c-4 -3 -7 -89 -7 -190 l0 -183 110 0 c103 0 110 1 110 20
0 18 -7 20 -85 20 l-85 0 0 65 0 65 75 0 c68 0 75 2 75 20 0 18 -7 20 -75 20
l-75 0 0 65 0 65 80 0 c73 0 80 2 80 20 0 19 -7 20 -98 20 -54 0 -102 -3 -105
-7z"/>
<path d="M4910 1770 c0 -183 1 -190 20 -190 18 0 20 7 20 85 l0 85 105 0 105
0 0 -85 c0 -78 2 -85 20 -85 19 0 20 7 20 190 0 183 -1 190 -20 190 -18 0 -20
-7 -20 -85 l0 -85 -105 0 -105 0 0 85 c0 78 -2 85 -20 85 -19 0 -20 -7 -20
-190z"/>
</g>
</svg>
