<?xml version="1.0" standalone="no"?>
<!DOCTYPE svg PUBLIC "-//W3C//DTD SVG 20010904//EN"
 "http://www.w3.org/TR/2001/REC-SVG-20010904/DTD/svg10.dtd">
<svg version="1.0" xmlns="http://www.w3.org/2000/svg"
 width="1068.000000pt" height="238.000000pt" viewBox="0 0 1068.000000 238.000000"
 preserveAspectRatio="xMidYMid meet">

<g transform="translate(0.000000,238.000000) scale(0.100000,-0.100000)"
fill="#000000" stroke="none">
<path d="M9880 1525 l0 -855 395 0 395 0 0 855 0 855 -395 0 -395 0 0 -855z
m180 695 l0 -61 78 3 77 3 3 48 3 47 40 0 39 0 0 -50 0 -50 85 0 85 0 0 60 0
60 45 0 45 0 0 -100 0 -100 -290 0 -290 0 0 100 0 100 40 0 40 0 0 -60z m0
-240 l0 -61 78 3 77 3 3 48 3 47 40 0 39 0 0 -50 0 -50 85 0 85 0 0 60 0 60
45 0 45 0 0 -100 0 -100 -290 0 -290 0 0 100 0 100 40 0 40 0 0 -60z m0 -240
l0 -61 78 3 77 3 3 38 c3 36 4 37 43 37 39 0 39 0 39 -40 l0 -40 125 0 125 0
0 -40 0 -40 -285 0 -285 0 0 100 0 100 40 0 40 0 0 -60z m0 -240 l0 -61 78 3
77 3 3 38 c3 36 4 37 43 37 39 0 39 0 39 -40 l0 -40 125 0 125 0 0 -40 0 -40
-285 0 -285 0 0 100 0 100 40 0 40 0 0 -60z m441 -196 c63 -32 84 -136 42
-201 -32 -48 -56 -53 -284 -53 l-211 0 -33 33 c-63 63 -56 167 14 214 33 22
42 23 238 23 166 0 210 -3 234 -16z m-293 -336 l-3 -43 -70 -5 c-57 -4 -70 -8
-73 -23 -8 -43 10 -47 208 -47 198 0 216 4 208 47 -2 13 -14 19 -41 21 -37 3
-37 4 -37 48 0 40 2 44 25 44 60 0 126 -49 139 -102 9 -39 -17 -94 -56 -118
-31 -19 -46 -20 -250 -18 l-217 3 -30 29 c-16 16 -33 42 -36 57 -13 59 30 127
90 142 11 2 48 5 83 6 l63 1 -3 -42z"/>
<path d="M10070 1225 c-7 -8 -12 -26 -12 -40 0 -53 9 -55 211 -55 132 0 191 4
199 12 20 20 15 76 -7 88 -12 6 -95 10 -199 10 -148 0 -182 -3 -192 -15z"/>
<path d="M5064 2330 c-94 -24 -158 -58 -221 -114 -114 -102 -158 -215 -151
-380 4 -88 9 -112 36 -169 35 -77 111 -162 192 -217 30 -21 118 -69 195 -108
159 -80 217 -119 245 -165 23 -36 26 -90 7 -127 -16 -33 -91 -70 -142 -70 -98
0 -227 53 -305 126 -26 24 -50 44 -53 44 -4 0 -54 -57 -112 -126 l-105 -125
16 -31 c46 -89 212 -190 369 -224 93 -20 244 -23 330 -5 97 20 221 85 285 150
138 137 176 352 94 530 -56 123 -134 186 -384 311 -90 45 -179 94 -198 108
-47 36 -76 96 -69 145 10 72 65 107 169 107 85 0 127 -13 190 -60 29 -22 55
-40 59 -40 3 0 50 61 104 136 78 109 96 140 88 153 -17 27 -128 98 -190 121
-138 52 -320 64 -449 30z"/>
<path d="M6677 2335 c-290 -55 -536 -254 -636 -515 -90 -232 -78 -526 30 -745
123 -251 374 -412 691 -445 388 -40 740 139 897 455 63 125 82 208 88 370 7
187 -15 294 -88 443 -46 94 -62 117 -148 203 -85 85 -109 102 -201 147 -58 28
-143 61 -190 72 -113 28 -333 36 -443 15z m318 -359 c227 -60 370 -277 351
-534 -19 -251 -164 -417 -398 -454 -305 -47 -562 185 -562 507 1 237 133 422
344 481 60 17 203 17 265 0z"/>
<path d="M14 2303 c3 -10 110 -369 236 -798 127 -429 236 -797 242 -817 l11
-38 182 0 182 0 169 530 c93 291 171 530 174 530 6 0 41 -107 235 -703 l116
-357 182 2 182 3 227 805 c125 443 230 817 233 833 l7 27 -184 -2 -183 -3
-141 -519 c-77 -286 -143 -515 -146 -510 -3 5 -70 218 -147 474 -78 256 -149
486 -157 513 l-16 47 -192 0 -192 0 -154 -520 c-85 -286 -157 -516 -160 -512
-4 4 -66 232 -140 507 -73 275 -135 506 -137 513 -4 9 -57 12 -220 12 -200 0
-214 -1 -209 -17z"/>
<path d="M2632 1488 l3 -833 188 -3 187 -2 0 835 0 835 -190 0 -190 0 2 -832z"/>
<path d="M3470 1485 l0 -835 530 0 530 0 0 180 0 180 -340 0 -340 0 0 655 0
655 -190 0 -190 0 0 -835z"/>
<path d="M8062 1488 l3 -833 177 -3 178 -2 2 500 3 501 395 -501 395 -500 153
0 152 0 0 835 0 835 -180 0 -180 0 -2 -498 -3 -498 -390 497 -390 498 -158 0
-157 1 2 -832z"/>
<path d="M235 376 c-134 -58 -139 -288 -8 -351 73 -36 223 -13 206 31 -4 11
-12 13 -27 8 -11 -3 -44 -9 -72 -11 -95 -8 -154 46 -154 142 0 99 62 161 150
151 25 -3 56 -7 69 -8 38 -5 37 21 -3 37 -43 18 -121 19 -161 1z"/>
<path d="M657 383 c-4 -3 -7 -89 -7 -190 l0 -183 110 0 c103 0 110 1 110 20 0
18 -7 20 -85 20 l-85 0 0 65 0 65 75 0 c68 0 75 2 75 20 0 18 -7 20 -75 20
l-75 0 0 60 0 59 83 3 c76 3 82 5 85 26 3 22 2 22 -101 22 -57 0 -107 -3 -110
-7z"/>
<path d="M1054 376 c-11 -27 7 -36 72 -36 l64 0 0 -165 c0 -158 1 -165 20
-165 19 0 20 7 20 165 l0 164 68 3 c59 3 67 5 67 23 0 19 -8 20 -153 23 -127
2 -153 0 -158 -12z"/>
<path d="M1570 200 l0 -190 71 0 c87 0 132 19 153 65 28 59 15 120 -32 151
-14 9 -54 19 -89 22 l-63 5 0 68 c0 62 -2 69 -20 69 -19 0 -20 -7 -20 -190z
m132 0 c58 -16 77 -74 40 -120 -14 -18 -32 -24 -75 -28 l-57 -4 0 75 c0 64 3
76 18 80 28 8 35 7 74 -3z"/>
<path d="M2300 200 c0 -183 1 -190 20 -190 19 0 20 7 20 190 0 183 -1 190 -20
190 -19 0 -20 -7 -20 -190z"/>
<path d="M2440 301 c-45 -49 -81 -93 -80 -98 1 -4 38 -50 82 -101 68 -78 84
-92 110 -92 30 0 30 0 -43 83 -40 45 -80 90 -88 100 -13 16 -10 23 40 75 30
31 68 72 84 90 l29 32 -26 0 c-21 0 -45 -21 -108 -89z"/>
<path d="M2843 371 c-114 -52 -139 -228 -43 -314 126 -115 320 -33 320 136 0
31 -5 68 -11 84 -36 95 -163 140 -266 94z m157 -42 c44 -27 57 -44 70 -91 14
-49 -1 -108 -39 -150 -23 -26 -37 -32 -84 -36 -67 -5 -116 19 -141 72 -64 135
72 279 194 205z"/>
<path d="M3490 370 c0 -15 -7 -20 -25 -20 -95 0 -169 -93 -145 -182 19 -68 49
-92 142 -112 18 -4 28 -14 30 -29 2 -14 11 -23 26 -25 18 -3 22 1 22 22 0 21
6 26 38 32 56 10 109 43 127 80 21 44 19 103 -5 142 -22 36 -88 71 -132 72
-21 0 -28 5 -28 20 0 15 -7 20 -25 20 -18 0 -25 -5 -25 -20z m0 -165 l0 -105
-29 0 c-40 0 -89 43 -97 84 -8 45 18 93 59 111 65 29 67 27 67 -90z m113 96
c44 -17 67 -51 67 -97 0 -58 -31 -93 -88 -101 l-42 -6 0 107 c0 116 2 120 63
97z"/>
<path d="M3940 200 l0 -190 110 0 c103 0 110 1 110 20 0 18 -7 20 -85 20 l-85
0 0 65 0 65 75 0 c68 0 75 2 75 20 0 18 -7 20 -75 20 l-75 0 0 60 0 59 83 3
c74 3 82 5 82 23 0 19 -8 20 -107 23 l-108 3 0 -191z"/>
<path d="M4390 200 l0 -190 110 0 c103 0 110 1 110 20 0 18 -7 20 -85 20 l-85
0 0 65 0 65 75 0 c68 0 75 2 75 20 0 18 -7 20 -75 20 l-75 0 0 60 0 59 83 3
c74 3 82 5 82 23 0 19 -8 20 -107 23 l-108 3 0 -191z"/>
<path d="M4847 383 c-4 -3 -7 -89 -7 -190 l0 -183 25 0 c25 0 25 1 25 85 l0
85 105 0 105 0 0 -85 c0 -84 0 -85 25 -85 l25 0 -2 187 c-3 186 -3 188 -25
191 -22 3 -23 1 -23 -82 l0 -86 -105 0 -105 0 0 85 c0 76 -2 85 -18 85 -10 0
-22 -3 -25 -7z"/>
</g>
</svg>
