<svg width="200" height="66" viewBox="0 0 200 66" fill="none" xmlns="http://www.w3.org/2000/svg">
<g clip-path="url(#clip0_59_27)">
<g clip-path="url(#clip1_59_27)">
<path d="M200 56.8692C200 61.7515 196.042 65.711 191.161 65.711H8.84101C3.9591 65.7114 0 61.7519 0 56.8692V9.12971C0 4.24779 3.9591 0.288696 8.84101 0.288696H191.161C196.042 0.288696 200 4.24779 200 9.12971L200 56.8692Z" fill="black"/>
<mask id="mask0_59_27" style="mask-type:luminance" maskUnits="userSpaceOnUse" x="15" y="13" width="38" height="44">
<path d="M43.3424 29.0859L34.3243 23.8794C34.3243 23.8794 17.8951 14.3929 16.9293 13.8353C15.9635 13.2777 15.0012 13.6155 15.0012 14.7808V55.7016C15.0012 56.5752 15.6889 56.9517 16.5281 56.4677C17.3668 55.9828 34.3243 46.192 34.3243 46.192L43.342 40.9859C43.342 40.9859 50.9936 36.5685 52.0106 35.9816C53.0277 35.3939 52.9299 34.5884 52.0716 34.1262C51.2137 33.6636 43.3424 29.0859 43.3424 29.0859Z" fill="white"/>
</mask>
<g mask="url(#mask0_59_27)">
<path d="M15.0016 12.8839V57.1879L37.3422 35.0361L15.0016 12.8839Z" fill="url(#paint0_linear_59_27)"/>
</g>
<mask id="mask1_59_27" style="mask-type:luminance" maskUnits="userSpaceOnUse" x="15" y="13" width="38" height="44">
<path d="M43.3424 29.0859L34.3243 23.8794C34.3243 23.8794 17.8951 14.3929 16.9293 13.8353C15.9635 13.2777 15.0012 13.6155 15.0012 14.7808V55.7016C15.0012 56.5752 15.6889 56.9517 16.5281 56.4677C17.3668 55.9828 34.3243 46.192 34.3243 46.192L43.342 40.9859C43.342 40.9859 50.9936 36.5685 52.0106 35.9816C53.0277 35.3939 52.9299 34.5884 52.0716 34.1262C51.2137 33.6636 43.3424 29.0859 43.3424 29.0859Z" fill="white"/>
</mask>
<g mask="url(#mask1_59_27)">
<path d="M43.3424 29.0859L34.3243 23.8795L15.0016 12.7228V12.8839L37.3422 35.0361L43.3424 29.0859Z" fill="url(#paint1_linear_59_27)"/>
</g>
<mask id="mask2_59_27" style="mask-type:luminance" maskUnits="userSpaceOnUse" x="15" y="13" width="38" height="44">
<path d="M43.3424 29.0859L34.3243 23.8794C34.3243 23.8794 17.8951 14.3929 16.9293 13.8353C15.9635 13.2777 15.0012 13.6155 15.0012 14.7808V55.7016C15.0012 56.5752 15.6889 56.9517 16.5281 56.4677C17.3668 55.9828 34.3243 46.192 34.3243 46.192L43.342 40.9859C43.342 40.9859 50.9936 36.5685 52.0106 35.9816C53.0277 35.3939 52.9299 34.5884 52.0716 34.1262C51.2137 33.6636 43.3424 29.0859 43.3424 29.0859Z" fill="white"/>
</mask>
<g mask="url(#mask2_59_27)">
<path d="M15.0016 57.1879V57.349L34.3243 46.1919L43.3421 40.9855L37.3422 35.0361L15.0016 57.1879Z" fill="url(#paint2_linear_59_27)"/>
</g>
<mask id="mask3_59_27" style="mask-type:luminance" maskUnits="userSpaceOnUse" x="15" y="13" width="38" height="44">
<path d="M43.3424 29.0859L34.3243 23.8794C34.3243 23.8794 17.8951 14.3929 16.9293 13.8353C15.9635 13.2777 15.0012 13.6155 15.0012 14.7808V55.7016C15.0012 56.5752 15.6889 56.9517 16.5281 56.4677C17.3668 55.9828 34.3243 46.192 34.3243 46.192L43.342 40.9859C43.342 40.9859 50.9936 36.5685 52.0106 35.9816C53.0277 35.3939 52.9299 34.5884 52.0716 34.1262C51.2137 33.6636 43.3424 29.0859 43.3424 29.0859Z" fill="white"/>
</mask>
<g mask="url(#mask3_59_27)">
<path d="M43.3424 29.0859L37.3422 35.0361L43.342 40.9855L53.6482 35.0357L43.3424 29.0859Z" fill="url(#paint3_linear_59_27)"/>
</g>
<path d="M155.649 43.6965C154.81 43.6965 154.045 43.5416 153.351 43.2323C152.658 42.9226 152.076 42.4464 151.605 41.8043H151.464C151.558 42.5566 151.605 43.2699 151.605 43.9436V49.2454H149.655V30.5769H151.241L151.511 32.3404H151.605C152.107 31.6346 152.691 31.1259 153.357 30.8123C154.023 30.4987 154.788 30.3419 155.649 30.3419C157.358 30.3419 158.677 30.9261 159.605 32.0937C160.534 33.2612 160.998 34.8996 160.998 37.0072C160.998 39.1234 160.526 40.7669 159.582 41.9396C158.638 43.1111 157.327 43.6965 155.649 43.6965ZM155.367 31.9994C154.051 31.9994 153.098 32.3642 152.511 33.0927C151.923 33.8216 151.621 34.9818 151.605 36.5728V37.0073C151.605 38.8181 151.907 40.1131 152.511 40.8932C153.114 41.6734 154.083 42.0624 155.414 42.0624C156.528 42.0624 157.4 41.6123 158.031 40.711C158.661 39.8101 158.977 38.5678 158.977 36.9838C158.977 35.3779 158.661 34.1446 158.031 33.2867C157.4 32.428 156.512 31.9994 155.367 31.9994ZM165.517 43.4611H163.566V25.169H165.517V43.4611ZM176.736 43.4611L176.348 41.6272H176.254C175.611 42.435 174.971 42.9821 174.332 43.2671C173.694 43.5537 172.896 43.6965 171.94 43.6965C170.663 43.6965 169.662 43.3672 168.936 42.7091C168.211 42.0511 167.849 41.1149 167.849 39.8996C167.849 37.2982 169.93 35.9343 174.091 35.8084L176.279 35.7376V34.9383C176.279 33.9272 176.061 33.1803 175.626 32.699C175.191 32.2164 174.494 31.9756 173.539 31.9756C172.465 31.9756 171.25 32.3048 169.895 32.9629L169.295 31.47C169.93 31.1251 170.625 30.8549 171.382 30.659C172.138 30.4631 172.896 30.365 173.657 30.365C175.193 30.365 176.331 30.7056 177.072 31.3875C177.812 32.0694 178.183 33.1627 178.183 34.6678V43.4607H176.737L176.736 43.4611ZM172.328 42.0862C173.542 42.0862 174.496 41.753 175.19 41.0872C175.883 40.4212 176.231 39.4883 176.231 38.2886V37.1249L174.279 37.2067C172.727 37.2626 171.609 37.5027 170.922 37.9308C170.237 38.3578 169.894 39.0222 169.894 39.9235C169.894 40.6285 170.107 41.1658 170.535 41.5333C170.962 41.9021 171.559 42.0862 172.328 42.0862ZM179.315 30.5769H181.407L184.229 37.9245C184.848 39.602 185.232 40.8127 185.382 41.5575H185.475C185.578 41.1571 185.791 40.474 186.116 39.5051C186.441 38.5369 187.506 35.5616 189.307 30.5769H191.401L185.863 45.2484C185.315 46.6983 184.674 47.7271 183.941 48.3355C183.208 48.9424 182.309 49.2454 181.244 49.2454C180.648 49.2454 180.06 49.179 179.48 49.046V47.4827C179.91 47.5765 180.393 47.6238 180.926 47.6238C182.266 47.6238 183.222 46.8715 183.794 45.3665L184.511 43.533L179.315 30.5769ZM119.5 31.7742C120.119 32.2868 121.413 33.3637 121.413 35.413C121.413 37.4061 120.281 38.3512 119.149 39.2392C118.798 39.5891 118.394 39.9676 118.394 40.5612C118.394 41.1528 118.798 41.4766 119.096 41.7194L120.066 42.4725C121.252 43.47 122.329 44.387 122.329 46.2471C122.329 48.7801 119.876 51.3393 115.242 51.3393C111.333 51.3393 109.448 49.4804 109.448 47.485C109.448 46.5153 109.931 45.1416 111.523 44.1973C113.193 43.1732 115.458 43.0399 116.67 42.957C116.292 42.4726 115.861 41.9603 115.861 41.1263C115.861 40.6688 115.997 40.399 116.131 40.074C115.833 40.1014 115.537 40.1284 115.268 40.1284C112.412 40.1284 110.795 37.9993 110.795 35.8983C110.795 34.6584 111.362 33.2831 112.519 32.2872C114.056 31.0207 115.888 30.8045 117.345 30.8045H122.895L121.17 31.7746H119.5L119.5 31.7742ZM117.586 43.7402C117.37 43.7121 117.235 43.7121 116.967 43.7121C116.724 43.7121 115.267 43.7672 114.137 44.1453C113.544 44.3592 111.819 45.006 111.819 46.9204C111.819 48.8329 113.679 50.2093 116.563 50.2093C119.148 50.2093 120.524 48.9671 120.524 47.2978C120.524 45.9206 119.635 45.196 117.586 43.7402ZM118.368 38.619C118.987 37.9985 119.04 37.1371 119.04 36.6514C119.04 34.7115 117.882 31.6932 115.646 31.6932C114.944 31.6932 114.19 32.0432 113.759 32.5828C113.301 33.1486 113.165 33.8755 113.165 34.577C113.165 36.3824 114.216 39.3741 116.535 39.3741C117.209 39.3741 117.935 39.0507 118.368 38.619ZM102.534 43.3089C98.2564 43.3089 95.9694 39.9724 95.9694 36.9584C95.9694 33.4333 98.8477 30.4212 102.939 30.4212C106.892 30.4212 109.368 33.5142 109.368 36.7706C109.368 39.9442 106.921 43.3089 102.534 43.3089ZM105.897 41.1298C106.543 40.268 106.705 39.1923 106.705 38.142C106.705 35.7736 105.575 31.2542 102.238 31.2542C101.351 31.2542 100.463 31.6045 99.8174 32.1707C98.7679 33.1111 98.5787 34.2955 98.5787 35.4537C98.5787 38.1154 99.8971 42.4999 103.154 42.4999C104.203 42.4999 105.279 41.9896 105.897 41.1298ZM87.9506 43.3089C83.6724 43.3089 81.385 39.9724 81.385 36.9584C81.385 33.4333 84.2644 30.4212 88.3546 30.4212C92.309 30.4212 94.7841 33.5142 94.7841 36.7706C94.7845 39.9442 92.3367 43.3089 87.9506 43.3089ZM91.3142 41.1298C91.9598 40.268 92.1217 39.1923 92.1217 38.142C92.1217 35.7736 90.9908 31.2542 87.6542 31.2542C86.767 31.2542 85.8786 31.6045 85.2334 32.1707C84.1839 33.1111 83.9958 34.2955 83.9958 35.4537C83.9958 38.1154 85.3135 42.4999 88.5704 42.4999C89.6199 42.4999 90.6956 41.9896 91.3142 41.1298ZM79.3298 42.887L75.461 43.7797C73.8914 44.0237 72.4853 44.2384 70.9983 44.2384C63.5313 44.2384 60.6921 38.7469 60.6921 34.4457C60.6921 29.1986 64.722 24.3307 71.6208 24.3307C73.082 24.3307 74.4874 24.5465 75.7586 24.8985C77.7872 25.4666 78.7339 26.1693 79.3294 26.5756L77.0834 28.7125L76.1371 28.9279L76.8132 27.8456C75.8939 26.9537 74.2152 25.3039 71.0245 25.3039C66.7502 25.3039 63.5306 28.5514 63.5306 33.2847C63.5306 38.3688 67.2101 43.1568 73.1059 43.1568C74.8389 43.1568 75.7297 42.8057 76.5418 42.4804V38.1263L72.4579 38.3426L74.6211 37.1781H80.3562L79.6535 37.8542C79.4628 38.0173 79.4366 38.072 79.3826 38.2863C79.3544 38.5303 79.329 39.3155 79.329 39.5857V42.8871H79.3298V42.887Z" fill="#F9F9F9"/>
<path d="M128.05 42.1081C127.156 42.0268 126.97 41.8653 126.97 40.8091V25.4991C126.975 25.4408 126.979 25.381 126.984 25.3246C127.093 24.3784 127.363 24.2161 128.203 23.7285H124.333L122.304 24.7026H124.372V24.7147L124.37 24.7049V41.4051C124.37 41.9451 124.264 42.0272 123.641 42.8378H128.429L129.43 42.2442C128.971 42.1883 128.51 42.1621 128.05 42.1081ZM139.057 42.3568C138.762 42.5183 138.467 42.7072 138.172 42.8405C137.284 43.2433 136.371 43.3512 135.564 43.3512C134.706 43.3512 133.362 43.2957 131.991 42.3028C130.085 40.9585 129.252 38.6484 129.252 36.6342C129.252 32.471 132.637 30.4295 135.403 30.4295C136.371 30.4295 137.366 30.6707 138.172 31.1822C139.514 32.0671 139.863 33.2222 140.05 33.8403L133.739 36.3934L131.67 36.5544C132.34 39.9661 134.65 41.9525 137.203 41.9525C138.573 41.9525 139.568 41.47 140.481 41.014L139.057 42.3568ZM136.532 34.3502C137.042 34.1629 137.311 34.0011 137.311 33.6253C137.311 32.5515 136.102 31.3151 134.65 31.3151C133.575 31.3151 131.561 32.1484 131.561 35.049C131.561 35.5057 131.615 35.989 131.643 36.4743L136.532 34.3502ZM141.65 30.6132V32.3857H141.434V30.6132H140.848V30.4294H142.236V30.6132H141.65ZM144.066 32.3857V30.5968H144.056L143.511 32.3857H143.342L142.791 30.5968H142.784V32.3857H142.589V30.4295H142.924L143.422 32.0108H143.429L143.92 30.4295H144.26V32.3857H144.066Z" fill="#F9F9F9"/>
<path d="M65.6055 15.9653H66.4492C66.4053 16.3696 66.2896 16.7314 66.1021 17.0508C65.9146 17.3701 65.6494 17.6235 65.3066 17.811C64.9639 17.9956 64.5361 18.0879 64.0234 18.0879C63.6484 18.0879 63.3071 18.0176 62.9995 17.877C62.6948 17.7363 62.4326 17.5371 62.2129 17.2793C61.9932 17.0186 61.8232 16.7065 61.7031 16.3433C61.5859 15.9771 61.5273 15.5698 61.5273 15.1216V14.4844C61.5273 14.0361 61.5859 13.6304 61.7031 13.2671C61.8232 12.9009 61.9946 12.5874 62.2173 12.3267C62.4429 12.0659 62.7139 11.8652 63.0303 11.7246C63.3467 11.584 63.7026 11.5137 64.0981 11.5137C64.5815 11.5137 64.9902 11.6045 65.3242 11.7861C65.6582 11.9678 65.9175 12.2197 66.1021 12.542C66.2896 12.8613 66.4053 13.2319 66.4492 13.6538H65.6055C65.5645 13.355 65.4883 13.0986 65.377 12.8848C65.2656 12.668 65.1074 12.501 64.9023 12.3838C64.6973 12.2666 64.4292 12.208 64.0981 12.208C63.814 12.208 63.5635 12.2622 63.3467 12.3706C63.1328 12.479 62.9526 12.6328 62.8062 12.832C62.6626 13.0312 62.5542 13.27 62.481 13.5483C62.4077 13.8267 62.3711 14.1357 62.3711 14.4756V15.1216C62.3711 15.4351 62.4033 15.7295 62.4678 16.0049C62.5352 16.2803 62.6362 16.522 62.771 16.73C62.9058 16.938 63.0771 17.1021 63.2852 17.2222C63.4932 17.3394 63.7393 17.3979 64.0234 17.3979C64.3838 17.3979 64.6709 17.3408 64.8848 17.2266C65.0986 17.1123 65.2598 16.9482 65.3682 16.7344C65.4795 16.5205 65.5586 16.2642 65.6055 15.9653ZM68.3652 13.2451V18H67.5522V13.2451H68.3652ZM71.4854 13.2451L69.231 15.9697H68.0928L67.9697 15.2578H68.9014L70.4966 13.2451H71.4854ZM70.6108 18L68.8618 15.8467L69.3848 15.2578L71.6436 18H70.6108ZM75.1548 17.187V14.7393C75.1548 14.5518 75.1167 14.3892 75.0405 14.2515C74.9673 14.1108 74.856 14.0024 74.7065 13.9263C74.5571 13.8501 74.3726 13.812 74.1528 13.812C73.9478 13.812 73.7676 13.8472 73.6123 13.9175C73.46 13.9878 73.3398 14.0801 73.252 14.1943C73.167 14.3086 73.1245 14.4316 73.1245 14.5635H72.3115C72.3115 14.3936 72.3555 14.2251 72.4434 14.0581C72.5312 13.8911 72.6572 13.7402 72.8213 13.6055C72.9883 13.4678 73.1875 13.3594 73.4189 13.2803C73.6533 13.1982 73.9141 13.1572 74.2012 13.1572C74.5469 13.1572 74.8516 13.2158 75.1152 13.333C75.3818 13.4502 75.5898 13.6274 75.7393 13.8647C75.8916 14.0991 75.9678 14.3936 75.9678 14.748V16.9629C75.9678 17.1211 75.981 17.2896 76.0073 17.4683C76.0366 17.647 76.0791 17.8008 76.1348 17.9297V18H75.2866C75.2456 17.9062 75.2134 17.7817 75.1899 17.6265C75.1665 17.4683 75.1548 17.3218 75.1548 17.187ZM75.2954 15.1172L75.3042 15.6885H74.4824C74.251 15.6885 74.0444 15.7075 73.8628 15.7456C73.6812 15.7808 73.5288 15.835 73.4058 15.9082C73.2827 15.9814 73.189 16.0737 73.1245 16.1851C73.0601 16.2935 73.0278 16.4209 73.0278 16.5674C73.0278 16.7168 73.0615 16.853 73.1289 16.9761C73.1963 17.0991 73.2974 17.1973 73.4321 17.2705C73.5698 17.3408 73.7383 17.376 73.9375 17.376C74.1865 17.376 74.4062 17.3232 74.5967 17.2178C74.7871 17.1123 74.938 16.9834 75.0493 16.8311C75.1636 16.6787 75.2251 16.5308 75.2339 16.3872L75.5811 16.7783C75.5605 16.9014 75.5049 17.0376 75.4141 17.187C75.3232 17.3364 75.2017 17.48 75.0493 17.6177C74.8999 17.7524 74.7212 17.8652 74.5132 17.9561C74.3081 18.0439 74.0767 18.0879 73.8188 18.0879C73.4966 18.0879 73.2139 18.0249 72.9707 17.8989C72.7305 17.7729 72.543 17.6045 72.4082 17.3936C72.2764 17.1797 72.2104 16.9409 72.2104 16.6772C72.2104 16.4224 72.2603 16.1982 72.3599 16.0049C72.4595 15.8086 72.603 15.646 72.7905 15.5171C72.978 15.3853 73.2036 15.2856 73.4673 15.2183C73.731 15.1509 74.0254 15.1172 74.3506 15.1172H75.2954ZM80.8325 13.2451V18H80.0195V13.2451H80.8325ZM80.5557 15.4292V16.0972C80.3916 16.1587 80.2246 16.2144 80.0547 16.2642C79.8877 16.311 79.7104 16.3491 79.5229 16.3784C79.3384 16.4048 79.1377 16.418 78.9209 16.418C78.5459 16.418 78.2207 16.3535 77.9453 16.2246C77.6699 16.0928 77.4575 15.895 77.3081 15.6313C77.1587 15.3647 77.084 15.0293 77.084 14.625V13.2363H77.897V14.625C77.897 14.8887 77.9365 15.1025 78.0156 15.2666C78.0947 15.4307 78.2104 15.5522 78.3628 15.6313C78.5151 15.7075 78.7012 15.7456 78.9209 15.7456C79.1318 15.7456 79.3296 15.7324 79.5142 15.7061C79.7017 15.6768 79.8804 15.6387 80.0503 15.5918C80.2231 15.5449 80.3916 15.4907 80.5557 15.4292ZM84.9458 17.187V14.7393C84.9458 14.5518 84.9077 14.3892 84.8315 14.2515C84.7583 14.1108 84.647 14.0024 84.4976 13.9263C84.3481 13.8501 84.1636 13.812 83.9438 13.812C83.7388 13.812 83.5586 13.8472 83.4033 13.9175C83.251 13.9878 83.1309 14.0801 83.043 14.1943C82.958 14.3086 82.9155 14.4316 82.9155 14.5635H82.1025C82.1025 14.3936 82.1465 14.2251 82.2344 14.0581C82.3223 13.8911 82.4482 13.7402 82.6123 13.6055C82.7793 13.4678 82.9785 13.3594 83.21 13.2803C83.4443 13.1982 83.7051 13.1572 83.9922 13.1572C84.3379 13.1572 84.6426 13.2158 84.9062 13.333C85.1729 13.4502 85.3809 13.6274 85.5303 13.8647C85.6826 14.0991 85.7588 14.3936 85.7588 14.748V16.9629C85.7588 17.1211 85.772 17.2896 85.7983 17.4683C85.8276 17.647 85.8701 17.8008 85.9258 17.9297V18H85.0776C85.0366 17.9062 85.0044 17.7817 84.981 17.6265C84.9575 17.4683 84.9458 17.3218 84.9458 17.187ZM85.0864 15.1172L85.0952 15.6885H84.2734C84.042 15.6885 83.8354 15.7075 83.6538 15.7456C83.4722 15.7808 83.3198 15.835 83.1968 15.9082C83.0737 15.9814 82.98 16.0737 82.9155 16.1851C82.8511 16.2935 82.8188 16.4209 82.8188 16.5674C82.8188 16.7168 82.8525 16.853 82.9199 16.9761C82.9873 17.0991 83.0884 17.1973 83.2231 17.2705C83.3608 17.3408 83.5293 17.376 83.7285 17.376C83.9775 17.376 84.1973 17.3232 84.3877 17.2178C84.5781 17.1123 84.729 16.9834 84.8403 16.8311C84.9546 16.6787 85.0161 16.5308 85.0249 16.3872L85.3721 16.7783C85.3516 16.9014 85.2959 17.0376 85.2051 17.187C85.1143 17.3364 84.9927 17.48 84.8403 17.6177C84.6909 17.7524 84.5122 17.8652 84.3042 17.9561C84.0991 18.0439 83.8677 18.0879 83.6099 18.0879C83.2876 18.0879 83.0049 18.0249 82.7617 17.8989C82.5215 17.7729 82.334 17.6045 82.1992 17.3936C82.0674 17.1797 82.0015 16.9409 82.0015 16.6772C82.0015 16.4224 82.0513 16.1982 82.1509 16.0049C82.2505 15.8086 82.394 15.646 82.5815 15.5171C82.769 15.3853 82.9946 15.2856 83.2583 15.2183C83.522 15.1509 83.8164 15.1172 84.1416 15.1172H85.0864ZM88.9053 13.2451V18H88.0879V13.2451H88.9053ZM90.5005 13.2451V13.9043H86.5234V13.2451H90.5005ZM91.9683 14.8799H93.3965C93.7803 14.8799 94.104 14.9473 94.3677 15.082C94.6313 15.2139 94.8306 15.397 94.9653 15.6313C95.103 15.8628 95.1719 16.1265 95.1719 16.4224C95.1719 16.6421 95.1338 16.8486 95.0576 17.042C94.9814 17.2324 94.8672 17.3994 94.7148 17.543C94.5654 17.6865 94.3794 17.7993 94.1567 17.8813C93.937 17.9604 93.6836 18 93.3965 18H91.375V13.2451H92.188V17.332H93.3965C93.6309 17.332 93.8184 17.2896 93.959 17.2046C94.0996 17.1196 94.2007 17.0098 94.2622 16.875C94.3237 16.7402 94.3545 16.5996 94.3545 16.4531C94.3545 16.3096 94.3237 16.1689 94.2622 16.0312C94.2007 15.8936 94.0996 15.7793 93.959 15.6885C93.8184 15.5947 93.6309 15.5479 93.3965 15.5479H91.9683V14.8799ZM100.164 13.8428L99.0171 15.6094L98.2437 15.605V15.5479L99.54 13.8428H100.164ZM99.0171 15.5698L100.164 17.3408H99.54L98.2437 15.6313V15.5742L99.0171 15.5698ZM101.619 13.8428L100.472 15.6094L99.6982 15.605V15.5479L100.995 13.8428H101.619ZM100.472 15.5698L101.619 17.3408H100.995L99.6982 15.6313V15.5742L100.472 15.5698ZM104.453 16.0664L105.723 11.6016H106.338L105.982 13.3374L104.616 18H104.005L104.453 16.0664ZM103.139 11.6016L104.15 15.9785L104.453 18H103.847L102.295 11.6016H103.139ZM107.982 15.9741L108.971 11.6016H109.819L108.272 18H107.666L107.982 15.9741ZM106.431 11.6016L107.666 16.0664L108.114 18H107.503L106.185 13.3374L105.824 11.6016H106.431ZM111.52 13.2451V18H110.702V13.2451H111.52ZM110.641 11.9839C110.641 11.8521 110.68 11.7407 110.759 11.6499C110.841 11.5591 110.961 11.5137 111.12 11.5137C111.275 11.5137 111.394 11.5591 111.476 11.6499C111.561 11.7407 111.603 11.8521 111.603 11.9839C111.603 12.1099 111.561 12.2183 111.476 12.3091C111.394 12.397 111.275 12.4409 111.12 12.4409C110.961 12.4409 110.841 12.397 110.759 12.3091C110.68 12.2183 110.641 12.1099 110.641 11.9839ZM113.708 11.25V18H112.891V11.25H113.708ZM117.782 16.7388C117.782 16.6216 117.755 16.5132 117.703 16.4136C117.653 16.311 117.549 16.2188 117.391 16.1367C117.235 16.0518 117.001 15.9785 116.688 15.917C116.424 15.8613 116.185 15.7954 115.971 15.7192C115.76 15.6431 115.58 15.5508 115.431 15.4424C115.284 15.334 115.171 15.2065 115.092 15.0601C115.013 14.9136 114.974 14.7422 114.974 14.5459C114.974 14.3584 115.015 14.1812 115.097 14.0142C115.182 13.8472 115.3 13.6992 115.453 13.5703C115.608 13.4414 115.794 13.3403 116.011 13.2671C116.228 13.1938 116.469 13.1572 116.736 13.1572C117.117 13.1572 117.442 13.2246 117.711 13.3594C117.981 13.4941 118.188 13.6743 118.331 13.8999C118.475 14.1226 118.546 14.3701 118.546 14.6426H117.733C117.733 14.5107 117.694 14.3833 117.615 14.2603C117.539 14.1343 117.426 14.0303 117.276 13.9482C117.13 13.8662 116.95 13.8252 116.736 13.8252C116.51 13.8252 116.327 13.8604 116.187 13.9307C116.049 13.998 115.948 14.0845 115.883 14.1899C115.822 14.2954 115.791 14.4067 115.791 14.5239C115.791 14.6118 115.806 14.6909 115.835 14.7612C115.867 14.8286 115.923 14.8916 116.002 14.9502C116.081 15.0059 116.192 15.0586 116.336 15.1084C116.479 15.1582 116.663 15.208 116.885 15.2578C117.275 15.3457 117.596 15.4512 117.848 15.5742C118.1 15.6973 118.287 15.8481 118.41 16.0269C118.533 16.2056 118.595 16.4224 118.595 16.6772C118.595 16.8853 118.551 17.0757 118.463 17.2485C118.378 17.4214 118.253 17.5708 118.089 17.6968C117.928 17.8198 117.735 17.9165 117.509 17.9868C117.287 18.0542 117.036 18.0879 116.758 18.0879C116.339 18.0879 115.984 18.0132 115.694 17.8638C115.404 17.7144 115.185 17.521 115.035 17.2837C114.886 17.0464 114.811 16.7959 114.811 16.5322H115.628C115.64 16.7549 115.705 16.9321 115.822 17.064C115.939 17.1929 116.083 17.2852 116.252 17.3408C116.422 17.3936 116.591 17.4199 116.758 17.4199C116.98 17.4199 117.167 17.3906 117.316 17.332C117.468 17.2734 117.584 17.1929 117.663 17.0903C117.742 16.9878 117.782 16.8706 117.782 16.7388ZM119.447 15.6753V15.5742C119.447 15.2314 119.497 14.9136 119.597 14.6206C119.696 14.3247 119.84 14.0684 120.027 13.8516C120.215 13.6318 120.442 13.4619 120.708 13.3418C120.975 13.2188 121.274 13.1572 121.605 13.1572C121.939 13.1572 122.239 13.2188 122.506 13.3418C122.775 13.4619 123.004 13.6318 123.191 13.8516C123.382 14.0684 123.527 14.3247 123.626 14.6206C123.726 14.9136 123.776 15.2314 123.776 15.5742V15.6753C123.776 16.0181 123.726 16.3359 123.626 16.6289C123.527 16.9219 123.382 17.1782 123.191 17.3979C123.004 17.6147 122.777 17.7847 122.51 17.9077C122.247 18.0278 121.948 18.0879 121.614 18.0879C121.28 18.0879 120.979 18.0278 120.713 17.9077C120.446 17.7847 120.218 17.6147 120.027 17.3979C119.84 17.1782 119.696 16.9219 119.597 16.6289C119.497 16.3359 119.447 16.0181 119.447 15.6753ZM120.26 15.5742V15.6753C120.26 15.9126 120.288 16.1367 120.344 16.3477C120.399 16.5557 120.483 16.7402 120.594 16.9014C120.708 17.0625 120.851 17.1899 121.021 17.2837C121.19 17.3745 121.388 17.4199 121.614 17.4199C121.836 17.4199 122.031 17.3745 122.198 17.2837C122.368 17.1899 122.509 17.0625 122.62 16.9014C122.731 16.7402 122.815 16.5557 122.871 16.3477C122.929 16.1367 122.958 15.9126 122.958 15.6753V15.5742C122.958 15.3398 122.929 15.1187 122.871 14.9106C122.815 14.6997 122.73 14.5137 122.616 14.3525C122.504 14.1885 122.364 14.0596 122.194 13.9658C122.027 13.8721 121.831 13.8252 121.605 13.8252C121.382 13.8252 121.186 13.8721 121.016 13.9658C120.849 14.0596 120.708 14.1885 120.594 14.3525C120.483 14.5137 120.399 14.6997 120.344 14.9106C120.288 15.1187 120.26 15.3398 120.26 15.5742ZM125.608 14.2603V18H124.795V13.2451H125.564L125.608 14.2603ZM125.415 15.4424L125.077 15.4292C125.08 15.104 125.128 14.8037 125.222 14.5283C125.315 14.25 125.447 14.0083 125.617 13.8032C125.787 13.5981 125.989 13.4399 126.224 13.3286C126.461 13.2144 126.723 13.1572 127.01 13.1572C127.245 13.1572 127.456 13.1895 127.643 13.2539C127.831 13.3154 127.99 13.415 128.122 13.5527C128.257 13.6904 128.359 13.8691 128.43 14.0889C128.5 14.3057 128.535 14.5708 128.535 14.8843V18H127.718V14.8755C127.718 14.6265 127.681 14.4272 127.608 14.2778C127.535 14.1255 127.428 14.0156 127.287 13.9482C127.146 13.8779 126.974 13.8428 126.769 13.8428C126.566 13.8428 126.382 13.8853 126.215 13.9702C126.051 14.0552 125.909 14.1724 125.789 14.3218C125.671 14.4712 125.579 14.6426 125.512 14.8359C125.447 15.0264 125.415 15.2285 125.415 15.4424ZM135.988 15.9653H136.832C136.788 16.3696 136.672 16.7314 136.485 17.0508C136.297 17.3701 136.032 17.6235 135.689 17.811C135.347 17.9956 134.919 18.0879 134.406 18.0879C134.031 18.0879 133.69 18.0176 133.382 17.877C133.078 17.7363 132.815 17.5371 132.596 17.2793C132.376 17.0186 132.206 16.7065 132.086 16.3433C131.969 15.9771 131.91 15.5698 131.91 15.1216V14.4844C131.91 14.0361 131.969 13.6304 132.086 13.2671C132.206 12.9009 132.377 12.5874 132.6 12.3267C132.826 12.0659 133.097 11.8652 133.413 11.7246C133.729 11.584 134.085 11.5137 134.481 11.5137C134.964 11.5137 135.373 11.6045 135.707 11.7861C136.041 11.9678 136.3 12.2197 136.485 12.542C136.672 12.8613 136.788 13.2319 136.832 13.6538H135.988C135.947 13.355 135.871 13.0986 135.76 12.8848C135.648 12.668 135.49 12.501 135.285 12.3838C135.08 12.2666 134.812 12.208 134.481 12.208C134.197 12.208 133.946 12.2622 133.729 12.3706C133.516 12.479 133.335 12.6328 133.189 12.832C133.045 13.0312 132.937 13.27 132.864 13.5483C132.791 13.8267 132.754 14.1357 132.754 14.4756V15.1216C132.754 15.4351 132.786 15.7295 132.851 16.0049C132.918 16.2803 133.019 16.522 133.154 16.73C133.289 16.938 133.46 17.1021 133.668 17.2222C133.876 17.3394 134.122 17.3979 134.406 17.3979C134.767 17.3979 135.054 17.3408 135.268 17.2266C135.481 17.1123 135.643 16.9482 135.751 16.7344C135.862 16.5205 135.941 16.2642 135.988 15.9653ZM137.649 15.6753V15.5742C137.649 15.2314 137.699 14.9136 137.799 14.6206C137.898 14.3247 138.042 14.0684 138.229 13.8516C138.417 13.6318 138.644 13.4619 138.911 13.3418C139.177 13.2188 139.476 13.1572 139.807 13.1572C140.141 13.1572 140.441 13.2188 140.708 13.3418C140.978 13.4619 141.206 13.6318 141.394 13.8516C141.584 14.0684 141.729 14.3247 141.829 14.6206C141.928 14.9136 141.978 15.2314 141.978 15.5742V15.6753C141.978 16.0181 141.928 16.3359 141.829 16.6289C141.729 16.9219 141.584 17.1782 141.394 17.3979C141.206 17.6147 140.979 17.7847 140.712 17.9077C140.449 18.0278 140.15 18.0879 139.816 18.0879C139.482 18.0879 139.182 18.0278 138.915 17.9077C138.648 17.7847 138.42 17.6147 138.229 17.3979C138.042 17.1782 137.898 16.9219 137.799 16.6289C137.699 16.3359 137.649 16.0181 137.649 15.6753ZM138.462 15.5742V15.6753C138.462 15.9126 138.49 16.1367 138.546 16.3477C138.602 16.5557 138.685 16.7402 138.796 16.9014C138.911 17.0625 139.053 17.1899 139.223 17.2837C139.393 17.3745 139.59 17.4199 139.816 17.4199C140.039 17.4199 140.233 17.3745 140.4 17.2837C140.57 17.1899 140.711 17.0625 140.822 16.9014C140.934 16.7402 141.017 16.5557 141.073 16.3477C141.131 16.1367 141.161 15.9126 141.161 15.6753V15.5742C141.161 15.3398 141.131 15.1187 141.073 14.9106C141.017 14.6997 140.932 14.5137 140.818 14.3525C140.707 14.1885 140.566 14.0596 140.396 13.9658C140.229 13.8721 140.033 13.8252 139.807 13.8252C139.584 13.8252 139.388 13.8721 139.218 13.9658C139.051 14.0596 138.911 14.1885 138.796 14.3525C138.685 14.5137 138.602 14.6997 138.546 14.9106C138.49 15.1187 138.462 15.3398 138.462 15.5742ZM144.21 18H143.397V12.7441C143.397 12.4014 143.459 12.1128 143.582 11.8784C143.708 11.6411 143.888 11.4624 144.123 11.3423C144.357 11.2192 144.635 11.1577 144.958 11.1577C145.051 11.1577 145.145 11.1636 145.239 11.1753C145.335 11.187 145.429 11.2046 145.52 11.228L145.476 11.8916C145.415 11.877 145.344 11.8667 145.265 11.8608C145.189 11.855 145.113 11.8521 145.037 11.8521C144.864 11.8521 144.714 11.8872 144.588 11.9575C144.465 12.0249 144.372 12.1245 144.307 12.2563C144.243 12.3882 144.21 12.5508 144.21 12.7441V18ZM145.221 13.2451V13.8691H142.646V13.2451H145.221ZM147.339 18H146.526V12.7441C146.526 12.4014 146.588 12.1128 146.711 11.8784C146.837 11.6411 147.017 11.4624 147.251 11.3423C147.486 11.2192 147.764 11.1577 148.086 11.1577C148.18 11.1577 148.274 11.1636 148.368 11.1753C148.464 11.187 148.558 11.2046 148.649 11.228L148.605 11.8916C148.543 11.877 148.473 11.8667 148.394 11.8608C148.318 11.855 148.242 11.8521 148.166 11.8521C147.993 11.8521 147.843 11.8872 147.717 11.9575C147.594 12.0249 147.5 12.1245 147.436 12.2563C147.372 12.3882 147.339 12.5508 147.339 12.7441V18ZM148.35 13.2451V13.8691H145.775V13.2451H148.35ZM151.123 18.0879C150.792 18.0879 150.492 18.0322 150.222 17.9209C149.956 17.8066 149.726 17.647 149.532 17.4419C149.342 17.2368 149.195 16.9937 149.093 16.7124C148.99 16.4312 148.939 16.1235 148.939 15.7896V15.605C148.939 15.2183 148.996 14.874 149.11 14.5723C149.225 14.2676 149.38 14.0098 149.576 13.7988C149.772 13.5879 149.995 13.4282 150.244 13.3198C150.493 13.2114 150.751 13.1572 151.018 13.1572C151.357 13.1572 151.65 13.2158 151.896 13.333C152.146 13.4502 152.349 13.6143 152.507 13.8252C152.666 14.0332 152.783 14.2793 152.859 14.5635C152.935 14.8447 152.973 15.1523 152.973 15.4863V15.8511H149.422V15.1875H152.16V15.126C152.148 14.915 152.104 14.71 152.028 14.5107C151.955 14.3115 151.838 14.1475 151.677 14.0186C151.516 13.8896 151.296 13.8252 151.018 13.8252C150.833 13.8252 150.663 13.8647 150.508 13.9438C150.353 14.02 150.219 14.1343 150.108 14.2866C149.997 14.439 149.91 14.625 149.849 14.8447C149.787 15.0645 149.756 15.3179 149.756 15.605V15.7896C149.756 16.0151 149.787 16.2275 149.849 16.4268C149.913 16.623 150.005 16.7959 150.125 16.9453C150.249 17.0947 150.396 17.2119 150.569 17.2969C150.745 17.3818 150.944 17.4243 151.167 17.4243C151.454 17.4243 151.697 17.3657 151.896 17.2485C152.096 17.1313 152.27 16.9746 152.419 16.7783L152.912 17.1694C152.809 17.3247 152.679 17.4727 152.521 17.6133C152.362 17.7539 152.167 17.8682 151.936 17.9561C151.708 18.0439 151.437 18.0879 151.123 18.0879ZM155.896 18.0879C155.564 18.0879 155.264 18.0322 154.995 17.9209C154.728 17.8066 154.498 17.647 154.305 17.4419C154.114 17.2368 153.968 16.9937 153.865 16.7124C153.763 16.4312 153.711 16.1235 153.711 15.7896V15.605C153.711 15.2183 153.769 14.874 153.883 14.5723C153.997 14.2676 154.152 14.0098 154.349 13.7988C154.545 13.5879 154.768 13.4282 155.017 13.3198C155.266 13.2114 155.523 13.1572 155.79 13.1572C156.13 13.1572 156.423 13.2158 156.669 13.333C156.918 13.4502 157.122 13.6143 157.28 13.8252C157.438 14.0332 157.555 14.2793 157.631 14.5635C157.708 14.8447 157.746 15.1523 157.746 15.4863V15.8511H154.195V15.1875H156.933V15.126C156.921 14.915 156.877 14.71 156.801 14.5107C156.728 14.3115 156.61 14.1475 156.449 14.0186C156.288 13.8896 156.068 13.8252 155.79 13.8252C155.605 13.8252 155.436 13.8647 155.28 13.9438C155.125 14.02 154.992 14.1343 154.88 14.2866C154.769 14.439 154.683 14.625 154.621 14.8447C154.56 15.0645 154.529 15.3179 154.529 15.605V15.7896C154.529 16.0151 154.56 16.2275 154.621 16.4268C154.686 16.623 154.778 16.7959 154.898 16.9453C155.021 17.0947 155.169 17.2119 155.342 17.2969C155.518 17.3818 155.717 17.4243 155.939 17.4243C156.227 17.4243 156.47 17.3657 156.669 17.2485C156.868 17.1313 157.042 16.9746 157.192 16.7783L157.684 17.1694C157.582 17.3247 157.451 17.4727 157.293 17.6133C157.135 17.7539 156.94 17.8682 156.708 17.9561C156.48 18.0439 156.209 18.0879 155.896 18.0879ZM158.528 17.3276L159.675 15.561L160.448 15.5654V15.6226L159.152 17.3276H158.528ZM158.528 13.8296H159.152L160.448 15.5391V15.5962L159.675 15.6006L158.528 13.8296ZM160.062 17.3276L161.208 15.561L161.982 15.5654V15.6226L160.686 17.3276H160.062ZM160.062 13.8296H160.686L161.982 15.5391V15.5962L161.208 15.6006L160.062 13.8296ZM167.378 15.9082H165.818L165.81 15.2578H167.084C167.336 15.2578 167.545 15.2329 167.712 15.1831C167.882 15.1333 168.01 15.0586 168.095 14.959C168.18 14.8594 168.222 14.7363 168.222 14.5898C168.222 14.4756 168.197 14.376 168.147 14.291C168.101 14.2031 168.029 14.1313 167.932 14.0757C167.835 14.0171 167.715 13.9746 167.572 13.9482C167.431 13.9189 167.266 13.9043 167.075 13.9043H166.034V18H165.221V13.2451H167.075C167.377 13.2451 167.648 13.2715 167.888 13.3242C168.131 13.377 168.338 13.4575 168.508 13.5659C168.681 13.6714 168.812 13.8062 168.903 13.9702C168.994 14.1343 169.04 14.3276 169.04 14.5503C169.04 14.6938 169.01 14.8301 168.952 14.959C168.893 15.0879 168.807 15.2021 168.692 15.3018C168.578 15.4014 168.438 15.4834 168.271 15.5479C168.104 15.6094 167.912 15.6489 167.695 15.6665L167.378 15.9082ZM167.378 18H165.524L165.928 17.3408H167.378C167.604 17.3408 167.792 17.313 167.941 17.2573C168.09 17.1987 168.202 17.1167 168.275 17.0112C168.351 16.9028 168.389 16.7739 168.389 16.6245C168.389 16.4751 168.351 16.3477 168.275 16.2422C168.202 16.1338 168.09 16.0518 167.941 15.9961C167.792 15.9375 167.604 15.9082 167.378 15.9082H166.144L166.152 15.2578H167.695L167.989 15.5039C168.25 15.5244 168.471 15.5889 168.653 15.6973C168.834 15.8057 168.972 15.9434 169.066 16.1104C169.16 16.2744 169.207 16.4531 169.207 16.6465C169.207 16.8691 169.164 17.0654 169.079 17.2354C168.997 17.4053 168.877 17.5474 168.719 17.6616C168.561 17.7729 168.369 17.8579 168.143 17.9165C167.917 17.9722 167.663 18 167.378 18Z" fill="white"/>
</g>
<path d="M198.723 58.2774C198.723 59.0234 198.576 59.7621 198.291 60.4513C198.005 61.1404 197.586 61.7665 197.058 62.2938C196.53 62.821 195.904 63.239 195.214 63.524C194.524 63.8089 193.785 63.9552 193.039 63.9544H7.01265C5.5049 63.956 4.05826 63.3588 2.99086 62.2942C1.92347 61.2296 1.32274 59.7847 1.32077 58.2774V13.0049C1.32273 11.4968 1.92323 10.0512 2.99041 8.98544C4.05759 7.91966 5.50422 7.32083 7.01265 7.32043H193.038C193.784 7.32043 194.523 7.46748 195.213 7.75317C195.903 8.03885 196.53 8.45759 197.058 8.98546C197.585 9.51333 198.004 10.14 198.29 10.8297C198.575 11.5193 198.722 12.2585 198.722 13.0049L198.723 58.2774Z" fill="white" stroke="black" stroke-width="0.026677"/>
<path d="M192.992 65H7.00977C5.15284 64.9996 3.3719 64.2038 2.05773 62.7873C0.743573 61.3708 0.00353324 59.4493 0 57.4443L0 8.56368C0.00274706 6.55775 0.742298 4.63489 2.05642 3.21693C3.37054 1.79897 5.15191 1.00169 7.00977 1L192.99 1C194.848 1.00254 196.629 1.80009 197.943 3.21786C199.257 4.63564 199.996 6.55801 200 8.56368V57.4443C200.003 61.6119 196.853 65 192.992 65Z" fill="black" stroke="black" stroke-width="0.026677"/>
<path d="M198.723 58.2774C198.723 59.0234 198.576 59.7621 198.291 60.4513C198.005 61.1404 197.586 61.7665 197.058 62.2938C196.53 62.821 195.904 63.239 195.214 63.524C194.524 63.8089 193.785 63.9552 193.039 63.9544H7.01265C5.5049 63.956 4.05826 63.3588 2.99086 62.2942C1.92347 61.2296 1.32274 59.7847 1.32077 58.2774V13.0049C1.32273 11.4968 1.92323 10.0512 2.99041 8.98544C4.05759 7.91966 5.50422 7.32083 7.01265 7.32043H193.038C193.784 7.32043 194.523 7.46748 195.213 7.75317C195.903 8.03885 196.53 8.45759 197.058 8.98546C197.585 9.51333 198.004 10.14 198.29 10.8297C198.575 11.5193 198.722 12.2585 198.722 13.0049L198.723 58.2774Z" fill="black" stroke="black" stroke-width="0.026677"/>
<path d="M40.2057 33.0676C40.1585 27.8251 44.4993 25.2747 44.6978 25.156C42.2394 21.5726 38.429 21.0831 37.09 21.044C33.8897 20.7073 30.7854 22.9585 29.1552 22.9585C27.4924 22.9585 24.9819 21.0765 22.2762 21.1318C18.7945 21.1855 15.5372 23.2008 13.7508 26.3303C10.064 32.7113 12.8137 42.0885 16.3459 47.2463C18.1128 49.774 20.1774 52.5928 22.8799 52.4936C25.5237 52.3862 26.5113 50.8101 29.7018 50.8101C32.8631 50.8101 33.7905 52.4936 36.5466 52.4301C39.3841 52.3862 41.1705 49.8927 42.8756 47.3439C44.9175 44.4502 45.7375 41.5972 45.77 41.4508C45.7049 41.4281 40.261 39.3493 40.2057 33.0676ZM34.9993 17.651C36.4213 15.8732 37.3942 13.4545 37.1242 11C35.066 11.0911 32.4921 12.4232 31.0099 14.162C29.6986 15.6943 28.5271 18.2057 28.8298 20.5674C31.1417 20.7398 33.5155 19.4012 34.9993 17.651Z" fill="white" stroke="black" stroke-width="0.026677"/>
<path d="M192.966 0H93L132.155 65H192.966C194.83 64.9983 196.617 64.189 197.935 62.7496C199.254 61.3102 199.996 59.3581 200 57.3214V7.68186C199.997 5.64472 199.255 3.69207 197.936 2.25204C196.617 0.81202 194.83 0.00214871 192.966 0Z" fill="url(#paint4_linear_59_27)" stroke="black" stroke-width="0.026677"/>
<path d="M79.5675 52.0179H76.2004L74.356 46.2237H67.945L66.1881 52.0179H62.91L69.2631 32.292H73.1862L79.5675 52.0179ZM73.8 43.7928L72.132 38.642C71.9556 38.1158 71.6235 36.8766 71.1372 34.926H71.0779C70.8822 35.7649 70.5693 37.0041 70.1408 38.642L68.501 43.7928H73.8ZM95.8737 44.7311C95.8737 47.1501 95.2168 49.0622 93.9017 50.4659C92.7245 51.7155 91.2611 52.3395 89.5161 52.3395C87.6316 52.3395 86.2765 51.668 85.4536 50.3222V57.7853H82.2926V42.4692C82.2926 40.9499 82.2526 39.392 82.1755 37.7941H84.9554L85.1319 40.0486H85.1912C86.2453 38.35 87.8451 37.5006 89.992 37.5006C91.6704 37.5006 93.0715 38.1632 94.1923 39.4898C95.3117 40.8194 95.8737 42.5655 95.8737 44.7311ZM92.6534 44.8467C92.6534 43.4623 92.342 42.3209 91.7163 41.4212C91.0328 40.4859 90.1151 40.0175 88.9645 40.0175C88.1846 40.0175 87.4759 40.2784 86.8429 40.7927C86.2083 41.3115 85.7931 41.9889 85.5989 42.8279C85.5122 43.1416 85.4629 43.4645 85.4521 43.7899V46.1629C85.4521 47.1961 85.7694 48.0691 86.404 48.7836C87.0386 49.4951 87.8629 49.8523 88.877 49.8523C90.0676 49.8523 90.9943 49.3913 91.657 48.4767C92.3212 47.5592 92.6534 46.3497 92.6534 44.8467ZM112.238 44.7311C112.238 47.1501 111.581 49.0622 110.266 50.4659C109.087 51.7155 107.625 52.3395 105.879 52.3395C103.994 52.3395 102.639 51.668 101.816 50.3222V57.7853H98.6551V42.4692C98.6551 40.9499 98.6151 39.392 98.538 37.7941H101.318L101.494 40.0486H101.554C102.606 38.35 104.206 37.5006 106.354 37.5006C108.031 37.5006 109.432 38.1632 110.556 39.4898C111.674 40.8194 112.238 42.5655 112.238 44.7311ZM109.016 44.8467C109.016 43.4623 108.703 42.3209 108.077 41.4212C107.394 40.4859 106.479 40.0175 105.329 40.0175C104.549 40.0175 103.84 40.2784 103.204 40.7927C102.569 41.3115 102.156 41.9889 101.961 42.8279C101.865 43.2192 101.813 43.5379 101.813 43.7899V46.1629C101.813 47.1961 102.132 48.0691 102.764 48.7836C103.398 49.4936 104.222 49.8523 105.24 49.8523C106.432 49.8523 107.358 49.3913 108.02 48.4767C108.684 47.5592 109.016 46.3497 109.016 44.8467ZM130.534 46.4846C130.534 48.164 129.946 49.5291 128.78 50.583C127.496 51.7333 125.703 52.3099 123.405 52.3099C121.282 52.3099 119.58 51.9008 118.296 51.0811L119.027 48.4471C120.413 49.2683 121.936 49.6774 123.593 49.6774C124.785 49.6774 125.712 49.4076 126.373 48.8725C127.036 48.3359 127.371 47.6185 127.371 46.7232C127.371 45.9213 127.094 45.2499 126.55 44.7029C126.003 44.1575 125.098 43.649 123.827 43.1821C120.373 41.894 118.644 40.0101 118.644 37.5318C118.644 35.9132 119.255 34.588 120.474 33.5519C121.692 32.5173 123.309 32 125.319 32C127.115 32 128.611 32.3128 129.798 32.9368L129.005 35.5129C127.887 34.9082 126.625 34.6058 125.214 34.6058C124.099 34.6058 123.224 34.88 122.598 35.4255C122.072 35.9132 121.805 36.5075 121.805 37.2131C121.805 37.9913 122.109 38.6375 122.714 39.1445C123.239 39.6114 124.197 40.1198 125.581 40.6653C127.281 41.3501 128.529 42.1475 129.328 43.0635C130.133 43.9796 130.534 45.1224 130.534 46.4846ZM141.011 40.1657H137.527V47.0716C137.527 48.828 138.141 49.7041 139.372 49.7041C139.936 49.7041 140.405 49.6566 140.776 49.5573L140.863 51.9571C140.24 52.1898 139.42 52.3069 138.405 52.3069C137.156 52.3069 136.181 51.926 135.477 51.1641C134.775 50.4022 134.422 49.126 134.422 47.3295V40.1598H132.347V37.7882H134.422V35.1839L137.527 34.2471V37.7882H141.011V40.1657ZM156.701 44.7889C156.701 46.9752 156.075 48.7702 154.827 50.1739C153.52 51.6191 151.783 52.3395 149.617 52.3395C147.526 52.3395 145.864 51.6473 144.625 50.2643C143.385 48.8784 142.765 47.1323 142.765 45.0261C142.765 42.8219 143.406 41.0166 144.682 39.6129C145.962 38.2077 147.685 37.5051 149.851 37.5051C151.938 37.5051 153.615 38.1988 154.885 39.5832C156.097 40.9261 156.701 42.6604 156.701 44.7889ZM153.424 44.8615C153.424 43.5586 153.142 42.441 152.578 41.5057C151.915 40.3762 150.966 39.8115 149.737 39.8115C148.471 39.8115 147.499 40.3762 146.838 41.5057C146.272 42.441 145.99 43.5779 145.99 44.9208C145.99 46.2252 146.272 47.3458 146.838 48.2781C147.522 49.4076 148.475 49.9723 149.71 49.9723C150.918 49.9723 151.866 49.3957 152.551 48.25C153.132 47.2924 153.424 46.1674 153.424 44.8615ZM166.98 40.5734C166.651 40.514 166.318 40.4848 165.984 40.4859C164.872 40.4859 164.012 40.9039 163.407 41.7458C162.882 42.487 162.618 43.4237 162.618 44.5547V52.0179H159.457V42.2735C159.46 40.7804 159.429 39.2874 159.365 37.7956H162.118L162.234 40.517H162.321C162.657 39.5817 163.181 38.8273 163.902 38.2625C164.562 37.7691 165.363 37.5018 166.187 37.5006C166.479 37.5006 166.743 37.5214 166.977 37.5585L166.98 40.5734ZM181.117 44.233C181.125 44.7134 181.086 45.1935 181.001 45.6664H171.518C171.554 47.0716 172.014 48.1477 172.894 48.8888C173.693 49.5499 174.727 49.8819 175.996 49.8819C177.4 49.8819 178.681 49.6596 179.833 49.2105L180.328 51.4027C178.982 51.9897 177.393 52.2817 175.559 52.2817C173.352 52.2817 171.621 51.6325 170.36 50.337C169.103 49.04 168.473 47.2969 168.473 45.1135C168.473 42.9702 169.059 41.184 170.231 39.7596C171.459 38.2388 173.118 37.4784 175.206 37.4784C177.256 37.4784 178.809 38.2388 179.863 39.7596C180.697 40.9647 181.117 42.4588 181.117 44.233ZM178.103 43.4134C178.125 42.4751 177.917 41.6673 177.489 40.9839C176.942 40.1035 176.1 39.6647 174.971 39.6647C173.938 39.6647 173.096 40.0931 172.455 40.9528C171.929 41.6361 171.616 42.4573 171.52 43.4104L178.103 43.4134Z" fill="white" stroke="black" stroke-width="0.026677"/>
<path d="M71.6055 22.9653H72.4492C72.4053 23.3696 72.2896 23.7314 72.1021 24.0508C71.9146 24.3701 71.6494 24.6235 71.3066 24.811C70.9639 24.9956 70.5361 25.0879 70.0234 25.0879C69.6484 25.0879 69.3071 25.0176 68.9995 24.877C68.6948 24.7363 68.4326 24.5371 68.2129 24.2793C67.9932 24.0186 67.8232 23.7065 67.7031 23.3433C67.5859 22.9771 67.5273 22.5698 67.5273 22.1216V21.4844C67.5273 21.0361 67.5859 20.6304 67.7031 20.2671C67.8232 19.9009 67.9946 19.5874 68.2173 19.3267C68.4429 19.0659 68.7139 18.8652 69.0303 18.7246C69.3467 18.584 69.7026 18.5137 70.0981 18.5137C70.5815 18.5137 70.9902 18.6045 71.3242 18.7861C71.6582 18.9678 71.9175 19.2197 72.1021 19.542C72.2896 19.8613 72.4053 20.2319 72.4492 20.6538H71.6055C71.5645 20.355 71.4883 20.0986 71.377 19.8848C71.2656 19.668 71.1074 19.501 70.9023 19.3838C70.6973 19.2666 70.4292 19.208 70.0981 19.208C69.814 19.208 69.5635 19.2622 69.3467 19.3706C69.1328 19.479 68.9526 19.6328 68.8062 19.832C68.6626 20.0312 68.5542 20.27 68.481 20.5483C68.4077 20.8267 68.3711 21.1357 68.3711 21.4756V22.1216C68.3711 22.4351 68.4033 22.7295 68.4678 23.0049C68.5352 23.2803 68.6362 23.522 68.771 23.73C68.9058 23.938 69.0771 24.1021 69.2852 24.2222C69.4932 24.3394 69.7393 24.3979 70.0234 24.3979C70.3838 24.3979 70.6709 24.3408 70.8848 24.2266C71.0986 24.1123 71.2598 23.9482 71.3682 23.7344C71.4795 23.5205 71.5586 23.2642 71.6055 22.9653ZM74.3652 20.2451V25H73.5522V20.2451H74.3652ZM77.4854 20.2451L75.231 22.9697H74.0928L73.9697 22.2578H74.9014L76.4966 20.2451H77.4854ZM76.6108 25L74.8618 22.8467L75.3848 22.2578L77.6436 25H76.6108ZM81.1548 24.187V21.7393C81.1548 21.5518 81.1167 21.3892 81.0405 21.2515C80.9673 21.1108 80.856 21.0024 80.7065 20.9263C80.5571 20.8501 80.3726 20.812 80.1528 20.812C79.9478 20.812 79.7676 20.8472 79.6123 20.9175C79.46 20.9878 79.3398 21.0801 79.252 21.1943C79.167 21.3086 79.1245 21.4316 79.1245 21.5635H78.3115C78.3115 21.3936 78.3555 21.2251 78.4434 21.0581C78.5312 20.8911 78.6572 20.7402 78.8213 20.6055C78.9883 20.4678 79.1875 20.3594 79.4189 20.2803C79.6533 20.1982 79.9141 20.1572 80.2012 20.1572C80.5469 20.1572 80.8516 20.2158 81.1152 20.333C81.3818 20.4502 81.5898 20.6274 81.7393 20.8647C81.8916 21.0991 81.9678 21.3936 81.9678 21.748V23.9629C81.9678 24.1211 81.981 24.2896 82.0073 24.4683C82.0366 24.647 82.0791 24.8008 82.1348 24.9297V25H81.2866C81.2456 24.9062 81.2134 24.7817 81.1899 24.6265C81.1665 24.4683 81.1548 24.3218 81.1548 24.187ZM81.2954 22.1172L81.3042 22.6885H80.4824C80.251 22.6885 80.0444 22.7075 79.8628 22.7456C79.6812 22.7808 79.5288 22.835 79.4058 22.9082C79.2827 22.9814 79.189 23.0737 79.1245 23.1851C79.0601 23.2935 79.0278 23.4209 79.0278 23.5674C79.0278 23.7168 79.0615 23.853 79.1289 23.9761C79.1963 24.0991 79.2974 24.1973 79.4321 24.2705C79.5698 24.3408 79.7383 24.376 79.9375 24.376C80.1865 24.376 80.4062 24.3232 80.5967 24.2178C80.7871 24.1123 80.938 23.9834 81.0493 23.8311C81.1636 23.6787 81.2251 23.5308 81.2339 23.3872L81.5811 23.7783C81.5605 23.9014 81.5049 24.0376 81.4141 24.187C81.3232 24.3364 81.2017 24.48 81.0493 24.6177C80.8999 24.7524 80.7212 24.8652 80.5132 24.9561C80.3081 25.0439 80.0767 25.0879 79.8188 25.0879C79.4966 25.0879 79.2139 25.0249 78.9707 24.8989C78.7305 24.7729 78.543 24.6045 78.4082 24.3936C78.2764 24.1797 78.2104 23.9409 78.2104 23.6772C78.2104 23.4224 78.2603 23.1982 78.3599 23.0049C78.4595 22.8086 78.603 22.646 78.7905 22.5171C78.978 22.3853 79.2036 22.2856 79.4673 22.2183C79.731 22.1509 80.0254 22.1172 80.3506 22.1172H81.2954ZM86.8325 20.2451V25H86.0195V20.2451H86.8325ZM86.5557 22.4292V23.0972C86.3916 23.1587 86.2246 23.2144 86.0547 23.2642C85.8877 23.311 85.7104 23.3491 85.5229 23.3784C85.3384 23.4048 85.1377 23.418 84.9209 23.418C84.5459 23.418 84.2207 23.3535 83.9453 23.2246C83.6699 23.0928 83.4575 22.895 83.3081 22.6313C83.1587 22.3647 83.084 22.0293 83.084 21.625V20.2363H83.897V21.625C83.897 21.8887 83.9365 22.1025 84.0156 22.2666C84.0947 22.4307 84.2104 22.5522 84.3628 22.6313C84.5151 22.7075 84.7012 22.7456 84.9209 22.7456C85.1318 22.7456 85.3296 22.7324 85.5142 22.7061C85.7017 22.6768 85.8804 22.6387 86.0503 22.5918C86.2231 22.5449 86.3916 22.4907 86.5557 22.4292ZM90.9458 24.187V21.7393C90.9458 21.5518 90.9077 21.3892 90.8315 21.2515C90.7583 21.1108 90.647 21.0024 90.4976 20.9263C90.3481 20.8501 90.1636 20.812 89.9438 20.812C89.7388 20.812 89.5586 20.8472 89.4033 20.9175C89.251 20.9878 89.1309 21.0801 89.043 21.1943C88.958 21.3086 88.9155 21.4316 88.9155 21.5635H88.1025C88.1025 21.3936 88.1465 21.2251 88.2344 21.0581C88.3223 20.8911 88.4482 20.7402 88.6123 20.6055C88.7793 20.4678 88.9785 20.3594 89.21 20.2803C89.4443 20.1982 89.7051 20.1572 89.9922 20.1572C90.3379 20.1572 90.6426 20.2158 90.9062 20.333C91.1729 20.4502 91.3809 20.6274 91.5303 20.8647C91.6826 21.0991 91.7588 21.3936 91.7588 21.748V23.9629C91.7588 24.1211 91.772 24.2896 91.7983 24.4683C91.8276 24.647 91.8701 24.8008 91.9258 24.9297V25H91.0776C91.0366 24.9062 91.0044 24.7817 90.981 24.6265C90.9575 24.4683 90.9458 24.3218 90.9458 24.187ZM91.0864 22.1172L91.0952 22.6885H90.2734C90.042 22.6885 89.8354 22.7075 89.6538 22.7456C89.4722 22.7808 89.3198 22.835 89.1968 22.9082C89.0737 22.9814 88.98 23.0737 88.9155 23.1851C88.8511 23.2935 88.8188 23.4209 88.8188 23.5674C88.8188 23.7168 88.8525 23.853 88.9199 23.9761C88.9873 24.0991 89.0884 24.1973 89.2231 24.2705C89.3608 24.3408 89.5293 24.376 89.7285 24.376C89.9775 24.376 90.1973 24.3232 90.3877 24.2178C90.5781 24.1123 90.729 23.9834 90.8403 23.8311C90.9546 23.6787 91.0161 23.5308 91.0249 23.3872L91.3721 23.7783C91.3516 23.9014 91.2959 24.0376 91.2051 24.187C91.1143 24.3364 90.9927 24.48 90.8403 24.6177C90.6909 24.7524 90.5122 24.8652 90.3042 24.9561C90.0991 25.0439 89.8677 25.0879 89.6099 25.0879C89.2876 25.0879 89.0049 25.0249 88.7617 24.8989C88.5215 24.7729 88.334 24.6045 88.1992 24.3936C88.0674 24.1797 88.0015 23.9409 88.0015 23.6772C88.0015 23.4224 88.0513 23.1982 88.1509 23.0049C88.2505 22.8086 88.394 22.646 88.5815 22.5171C88.769 22.3853 88.9946 22.2856 89.2583 22.2183C89.522 22.1509 89.8164 22.1172 90.1416 22.1172H91.0864ZM94.9053 20.2451V25H94.0879V20.2451H94.9053ZM96.5005 20.2451V20.9043H92.5234V20.2451H96.5005ZM97.9683 21.8799H99.3965C99.7803 21.8799 100.104 21.9473 100.368 22.082C100.631 22.2139 100.831 22.397 100.965 22.6313C101.103 22.8628 101.172 23.1265 101.172 23.4224C101.172 23.6421 101.134 23.8486 101.058 24.042C100.981 24.2324 100.867 24.3994 100.715 24.543C100.565 24.6865 100.379 24.7993 100.157 24.8813C99.937 24.9604 99.6836 25 99.3965 25H97.375V20.2451H98.188V24.332H99.3965C99.6309 24.332 99.8184 24.2896 99.959 24.2046C100.1 24.1196 100.201 24.0098 100.262 23.875C100.324 23.7402 100.354 23.5996 100.354 23.4531C100.354 23.3096 100.324 23.1689 100.262 23.0312C100.201 22.8936 100.1 22.7793 99.959 22.6885C99.8184 22.5947 99.6309 22.5479 99.3965 22.5479H97.9683V21.8799ZM106.164 20.8428L105.017 22.6094L104.244 22.605V22.5479L105.54 20.8428H106.164ZM105.017 22.5698L106.164 24.3408H105.54L104.244 22.6313V22.5742L105.017 22.5698ZM107.619 20.8428L106.472 22.6094L105.698 22.605V22.5479L106.995 20.8428H107.619ZM106.472 22.5698L107.619 24.3408H106.995L105.698 22.6313V22.5742L106.472 22.5698ZM110.453 23.0664L111.723 18.6016H112.338L111.982 20.3374L110.616 25H110.005L110.453 23.0664ZM109.139 18.6016L110.15 22.9785L110.453 25H109.847L108.295 18.6016H109.139ZM113.982 22.9741L114.971 18.6016H115.819L114.272 25H113.666L113.982 22.9741ZM112.431 18.6016L113.666 23.0664L114.114 25H113.503L112.185 20.3374L111.824 18.6016H112.431ZM117.52 20.2451V25H116.702V20.2451H117.52ZM116.641 18.9839C116.641 18.8521 116.68 18.7407 116.759 18.6499C116.841 18.5591 116.961 18.5137 117.12 18.5137C117.275 18.5137 117.394 18.5591 117.476 18.6499C117.561 18.7407 117.603 18.8521 117.603 18.9839C117.603 19.1099 117.561 19.2183 117.476 19.3091C117.394 19.397 117.275 19.4409 117.12 19.4409C116.961 19.4409 116.841 19.397 116.759 19.3091C116.68 19.2183 116.641 19.1099 116.641 18.9839ZM119.708 18.25V25H118.891V18.25H119.708ZM123.782 23.7388C123.782 23.6216 123.755 23.5132 123.703 23.4136C123.653 23.311 123.549 23.2188 123.391 23.1367C123.235 23.0518 123.001 22.9785 122.688 22.917C122.424 22.8613 122.185 22.7954 121.971 22.7192C121.76 22.6431 121.58 22.5508 121.431 22.4424C121.284 22.334 121.171 22.2065 121.092 22.0601C121.013 21.9136 120.974 21.7422 120.974 21.5459C120.974 21.3584 121.015 21.1812 121.097 21.0142C121.182 20.8472 121.3 20.6992 121.453 20.5703C121.608 20.4414 121.794 20.3403 122.011 20.2671C122.228 20.1938 122.469 20.1572 122.736 20.1572C123.117 20.1572 123.442 20.2246 123.711 20.3594C123.981 20.4941 124.188 20.6743 124.331 20.8999C124.475 21.1226 124.546 21.3701 124.546 21.6426H123.733C123.733 21.5107 123.694 21.3833 123.615 21.2603C123.539 21.1343 123.426 21.0303 123.276 20.9482C123.13 20.8662 122.95 20.8252 122.736 20.8252C122.51 20.8252 122.327 20.8604 122.187 20.9307C122.049 20.998 121.948 21.0845 121.883 21.1899C121.822 21.2954 121.791 21.4067 121.791 21.5239C121.791 21.6118 121.806 21.6909 121.835 21.7612C121.867 21.8286 121.923 21.8916 122.002 21.9502C122.081 22.0059 122.192 22.0586 122.336 22.1084C122.479 22.1582 122.663 22.208 122.885 22.2578C123.275 22.3457 123.596 22.4512 123.848 22.5742C124.1 22.6973 124.287 22.8481 124.41 23.0269C124.533 23.2056 124.595 23.4224 124.595 23.6772C124.595 23.8853 124.551 24.0757 124.463 24.2485C124.378 24.4214 124.253 24.5708 124.089 24.6968C123.928 24.8198 123.735 24.9165 123.509 24.9868C123.287 25.0542 123.036 25.0879 122.758 25.0879C122.339 25.0879 121.984 25.0132 121.694 24.8638C121.404 24.7144 121.185 24.521 121.035 24.2837C120.886 24.0464 120.811 23.7959 120.811 23.5322H121.628C121.64 23.7549 121.705 23.9321 121.822 24.064C121.939 24.1929 122.083 24.2852 122.252 24.3408C122.422 24.3936 122.591 24.4199 122.758 24.4199C122.98 24.4199 123.167 24.3906 123.316 24.332C123.468 24.2734 123.584 24.1929 123.663 24.0903C123.742 23.9878 123.782 23.8706 123.782 23.7388ZM125.447 22.6753V22.5742C125.447 22.2314 125.497 21.9136 125.597 21.6206C125.696 21.3247 125.84 21.0684 126.027 20.8516C126.215 20.6318 126.442 20.4619 126.708 20.3418C126.975 20.2188 127.274 20.1572 127.605 20.1572C127.939 20.1572 128.239 20.2188 128.506 20.3418C128.775 20.4619 129.004 20.6318 129.191 20.8516C129.382 21.0684 129.527 21.3247 129.626 21.6206C129.726 21.9136 129.776 22.2314 129.776 22.5742V22.6753C129.776 23.0181 129.726 23.3359 129.626 23.6289C129.527 23.9219 129.382 24.1782 129.191 24.3979C129.004 24.6147 128.777 24.7847 128.51 24.9077C128.247 25.0278 127.948 25.0879 127.614 25.0879C127.28 25.0879 126.979 25.0278 126.713 24.9077C126.446 24.7847 126.218 24.6147 126.027 24.3979C125.84 24.1782 125.696 23.9219 125.597 23.6289C125.497 23.3359 125.447 23.0181 125.447 22.6753ZM126.26 22.5742V22.6753C126.26 22.9126 126.288 23.1367 126.344 23.3477C126.399 23.5557 126.483 23.7402 126.594 23.9014C126.708 24.0625 126.851 24.1899 127.021 24.2837C127.19 24.3745 127.388 24.4199 127.614 24.4199C127.836 24.4199 128.031 24.3745 128.198 24.2837C128.368 24.1899 128.509 24.0625 128.62 23.9014C128.731 23.7402 128.815 23.5557 128.871 23.3477C128.929 23.1367 128.958 22.9126 128.958 22.6753V22.5742C128.958 22.3398 128.929 22.1187 128.871 21.9106C128.815 21.6997 128.73 21.5137 128.616 21.3525C128.504 21.1885 128.364 21.0596 128.194 20.9658C128.027 20.8721 127.831 20.8252 127.605 20.8252C127.382 20.8252 127.186 20.8721 127.016 20.9658C126.849 21.0596 126.708 21.1885 126.594 21.3525C126.483 21.5137 126.399 21.6997 126.344 21.9106C126.288 22.1187 126.26 22.3398 126.26 22.5742ZM131.608 21.2603V25H130.795V20.2451H131.564L131.608 21.2603ZM131.415 22.4424L131.077 22.4292C131.08 22.104 131.128 21.8037 131.222 21.5283C131.315 21.25 131.447 21.0083 131.617 20.8032C131.787 20.5981 131.989 20.4399 132.224 20.3286C132.461 20.2144 132.723 20.1572 133.01 20.1572C133.245 20.1572 133.456 20.1895 133.643 20.2539C133.831 20.3154 133.99 20.415 134.122 20.5527C134.257 20.6904 134.359 20.8691 134.43 21.0889C134.5 21.3057 134.535 21.5708 134.535 21.8843V25H133.718V21.8755C133.718 21.6265 133.681 21.4272 133.608 21.2778C133.535 21.1255 133.428 21.0156 133.287 20.9482C133.146 20.8779 132.974 20.8428 132.769 20.8428C132.566 20.8428 132.382 20.8853 132.215 20.9702C132.051 21.0552 131.909 21.1724 131.789 21.3218C131.671 21.4712 131.579 21.6426 131.512 21.8359C131.447 22.0264 131.415 22.2285 131.415 22.4424ZM141.988 22.9653H142.832C142.788 23.3696 142.672 23.7314 142.485 24.0508C142.297 24.3701 142.032 24.6235 141.689 24.811C141.347 24.9956 140.919 25.0879 140.406 25.0879C140.031 25.0879 139.69 25.0176 139.382 24.877C139.078 24.7363 138.815 24.5371 138.596 24.2793C138.376 24.0186 138.206 23.7065 138.086 23.3433C137.969 22.9771 137.91 22.5698 137.91 22.1216V21.4844C137.91 21.0361 137.969 20.6304 138.086 20.2671C138.206 19.9009 138.377 19.5874 138.6 19.3267C138.826 19.0659 139.097 18.8652 139.413 18.7246C139.729 18.584 140.085 18.5137 140.481 18.5137C140.964 18.5137 141.373 18.6045 141.707 18.7861C142.041 18.9678 142.3 19.2197 142.485 19.542C142.672 19.8613 142.788 20.2319 142.832 20.6538H141.988C141.947 20.355 141.871 20.0986 141.76 19.8848C141.648 19.668 141.49 19.501 141.285 19.3838C141.08 19.2666 140.812 19.208 140.481 19.208C140.197 19.208 139.946 19.2622 139.729 19.3706C139.516 19.479 139.335 19.6328 139.189 19.832C139.045 20.0312 138.937 20.27 138.864 20.5483C138.791 20.8267 138.754 21.1357 138.754 21.4756V22.1216C138.754 22.4351 138.786 22.7295 138.851 23.0049C138.918 23.2803 139.019 23.522 139.154 23.73C139.289 23.938 139.46 24.1021 139.668 24.2222C139.876 24.3394 140.122 24.3979 140.406 24.3979C140.767 24.3979 141.054 24.3408 141.268 24.2266C141.481 24.1123 141.643 23.9482 141.751 23.7344C141.862 23.5205 141.941 23.2642 141.988 22.9653ZM143.649 22.6753V22.5742C143.649 22.2314 143.699 21.9136 143.799 21.6206C143.898 21.3247 144.042 21.0684 144.229 20.8516C144.417 20.6318 144.644 20.4619 144.911 20.3418C145.177 20.2188 145.476 20.1572 145.807 20.1572C146.141 20.1572 146.441 20.2188 146.708 20.3418C146.978 20.4619 147.206 20.6318 147.394 20.8516C147.584 21.0684 147.729 21.3247 147.829 21.6206C147.928 21.9136 147.978 22.2314 147.978 22.5742V22.6753C147.978 23.0181 147.928 23.3359 147.829 23.6289C147.729 23.9219 147.584 24.1782 147.394 24.3979C147.206 24.6147 146.979 24.7847 146.712 24.9077C146.449 25.0278 146.15 25.0879 145.816 25.0879C145.482 25.0879 145.182 25.0278 144.915 24.9077C144.648 24.7847 144.42 24.6147 144.229 24.3979C144.042 24.1782 143.898 23.9219 143.799 23.6289C143.699 23.3359 143.649 23.0181 143.649 22.6753ZM144.462 22.5742V22.6753C144.462 22.9126 144.49 23.1367 144.546 23.3477C144.602 23.5557 144.685 23.7402 144.796 23.9014C144.911 24.0625 145.053 24.1899 145.223 24.2837C145.393 24.3745 145.59 24.4199 145.816 24.4199C146.039 24.4199 146.233 24.3745 146.4 24.2837C146.57 24.1899 146.711 24.0625 146.822 23.9014C146.934 23.7402 147.017 23.5557 147.073 23.3477C147.131 23.1367 147.161 22.9126 147.161 22.6753V22.5742C147.161 22.3398 147.131 22.1187 147.073 21.9106C147.017 21.6997 146.932 21.5137 146.818 21.3525C146.707 21.1885 146.566 21.0596 146.396 20.9658C146.229 20.8721 146.033 20.8252 145.807 20.8252C145.584 20.8252 145.388 20.8721 145.218 20.9658C145.051 21.0596 144.911 21.1885 144.796 21.3525C144.685 21.5137 144.602 21.6997 144.546 21.9106C144.49 22.1187 144.462 22.3398 144.462 22.5742ZM150.21 25H149.397V19.7441C149.397 19.4014 149.459 19.1128 149.582 18.8784C149.708 18.6411 149.888 18.4624 150.123 18.3423C150.357 18.2192 150.635 18.1577 150.958 18.1577C151.051 18.1577 151.145 18.1636 151.239 18.1753C151.335 18.187 151.429 18.2046 151.52 18.228L151.476 18.8916C151.415 18.877 151.344 18.8667 151.265 18.8608C151.189 18.855 151.113 18.8521 151.037 18.8521C150.864 18.8521 150.714 18.8872 150.588 18.9575C150.465 19.0249 150.372 19.1245 150.307 19.2563C150.243 19.3882 150.21 19.5508 150.21 19.7441V25ZM151.221 20.2451V20.8691H148.646V20.2451H151.221ZM153.339 25H152.526V19.7441C152.526 19.4014 152.588 19.1128 152.711 18.8784C152.837 18.6411 153.017 18.4624 153.251 18.3423C153.486 18.2192 153.764 18.1577 154.086 18.1577C154.18 18.1577 154.274 18.1636 154.368 18.1753C154.464 18.187 154.558 18.2046 154.649 18.228L154.605 18.8916C154.543 18.877 154.473 18.8667 154.394 18.8608C154.318 18.855 154.242 18.8521 154.166 18.8521C153.993 18.8521 153.843 18.8872 153.717 18.9575C153.594 19.0249 153.5 19.1245 153.436 19.2563C153.372 19.3882 153.339 19.5508 153.339 19.7441V25ZM154.35 20.2451V20.8691H151.775V20.2451H154.35ZM157.123 25.0879C156.792 25.0879 156.492 25.0322 156.222 24.9209C155.956 24.8066 155.726 24.647 155.532 24.4419C155.342 24.2368 155.195 23.9937 155.093 23.7124C154.99 23.4312 154.939 23.1235 154.939 22.7896V22.605C154.939 22.2183 154.996 21.874 155.11 21.5723C155.225 21.2676 155.38 21.0098 155.576 20.7988C155.772 20.5879 155.995 20.4282 156.244 20.3198C156.493 20.2114 156.751 20.1572 157.018 20.1572C157.357 20.1572 157.65 20.2158 157.896 20.333C158.146 20.4502 158.349 20.6143 158.507 20.8252C158.666 21.0332 158.783 21.2793 158.859 21.5635C158.935 21.8447 158.973 22.1523 158.973 22.4863V22.8511H155.422V22.1875H158.16V22.126C158.148 21.915 158.104 21.71 158.028 21.5107C157.955 21.3115 157.838 21.1475 157.677 21.0186C157.516 20.8896 157.296 20.8252 157.018 20.8252C156.833 20.8252 156.663 20.8647 156.508 20.9438C156.353 21.02 156.219 21.1343 156.108 21.2866C155.997 21.439 155.91 21.625 155.849 21.8447C155.787 22.0645 155.756 22.3179 155.756 22.605V22.7896C155.756 23.0151 155.787 23.2275 155.849 23.4268C155.913 23.623 156.005 23.7959 156.125 23.9453C156.249 24.0947 156.396 24.2119 156.569 24.2969C156.745 24.3818 156.944 24.4243 157.167 24.4243C157.454 24.4243 157.697 24.3657 157.896 24.2485C158.096 24.1313 158.27 23.9746 158.419 23.7783L158.912 24.1694C158.809 24.3247 158.679 24.4727 158.521 24.6133C158.362 24.7539 158.167 24.8682 157.936 24.9561C157.708 25.0439 157.437 25.0879 157.123 25.0879ZM161.896 25.0879C161.564 25.0879 161.264 25.0322 160.995 24.9209C160.728 24.8066 160.498 24.647 160.305 24.4419C160.114 24.2368 159.968 23.9937 159.865 23.7124C159.763 23.4312 159.711 23.1235 159.711 22.7896V22.605C159.711 22.2183 159.769 21.874 159.883 21.5723C159.997 21.2676 160.152 21.0098 160.349 20.7988C160.545 20.5879 160.768 20.4282 161.017 20.3198C161.266 20.2114 161.523 20.1572 161.79 20.1572C162.13 20.1572 162.423 20.2158 162.669 20.333C162.918 20.4502 163.122 20.6143 163.28 20.8252C163.438 21.0332 163.555 21.2793 163.631 21.5635C163.708 21.8447 163.746 22.1523 163.746 22.4863V22.8511H160.195V22.1875H162.933V22.126C162.921 21.915 162.877 21.71 162.801 21.5107C162.728 21.3115 162.61 21.1475 162.449 21.0186C162.288 20.8896 162.068 20.8252 161.79 20.8252C161.605 20.8252 161.436 20.8647 161.28 20.9438C161.125 21.02 160.992 21.1343 160.88 21.2866C160.769 21.439 160.683 21.625 160.621 21.8447C160.56 22.0645 160.529 22.3179 160.529 22.605V22.7896C160.529 23.0151 160.56 23.2275 160.621 23.4268C160.686 23.623 160.778 23.7959 160.898 23.9453C161.021 24.0947 161.169 24.2119 161.342 24.2969C161.518 24.3818 161.717 24.4243 161.939 24.4243C162.227 24.4243 162.47 24.3657 162.669 24.2485C162.868 24.1313 163.042 23.9746 163.192 23.7783L163.684 24.1694C163.582 24.3247 163.451 24.4727 163.293 24.6133C163.135 24.7539 162.94 24.8682 162.708 24.9561C162.48 25.0439 162.209 25.0879 161.896 25.0879ZM164.528 24.3276L165.675 22.561L166.448 22.5654V22.6226L165.152 24.3276H164.528ZM164.528 20.8296H165.152L166.448 22.5391V22.5962L165.675 22.6006L164.528 20.8296ZM166.062 24.3276L167.208 22.561L167.982 22.5654V22.6226L166.686 24.3276H166.062ZM166.062 20.8296H166.686L167.982 22.5391V22.5962L167.208 22.6006L166.062 20.8296ZM173.378 22.9082H171.818L171.81 22.2578H173.084C173.336 22.2578 173.545 22.2329 173.712 22.1831C173.882 22.1333 174.01 22.0586 174.095 21.959C174.18 21.8594 174.222 21.7363 174.222 21.5898C174.222 21.4756 174.197 21.376 174.147 21.291C174.101 21.2031 174.029 21.1313 173.932 21.0757C173.835 21.0171 173.715 20.9746 173.572 20.9482C173.431 20.9189 173.266 20.9043 173.075 20.9043H172.034V25H171.221V20.2451H173.075C173.377 20.2451 173.648 20.2715 173.888 20.3242C174.131 20.377 174.338 20.4575 174.508 20.5659C174.681 20.6714 174.812 20.8062 174.903 20.9702C174.994 21.1343 175.04 21.3276 175.04 21.5503C175.04 21.6938 175.01 21.8301 174.952 21.959C174.893 22.0879 174.807 22.2021 174.692 22.3018C174.578 22.4014 174.438 22.4834 174.271 22.5479C174.104 22.6094 173.912 22.6489 173.695 22.6665L173.378 22.9082ZM173.378 25H171.524L171.928 24.3408H173.378C173.604 24.3408 173.792 24.313 173.941 24.2573C174.09 24.1987 174.202 24.1167 174.275 24.0112C174.351 23.9028 174.389 23.7739 174.389 23.6245C174.389 23.4751 174.351 23.3477 174.275 23.2422C174.202 23.1338 174.09 23.0518 173.941 22.9961C173.792 22.9375 173.604 22.9082 173.378 22.9082H172.144L172.152 22.2578H173.695L173.989 22.5039C174.25 22.5244 174.471 22.5889 174.653 22.6973C174.834 22.8057 174.972 22.9434 175.066 23.1104C175.16 23.2744 175.207 23.4531 175.207 23.6465C175.207 23.8691 175.164 24.0654 175.079 24.2354C174.997 24.4053 174.877 24.5474 174.719 24.6616C174.561 24.7729 174.369 24.8579 174.143 24.9165C173.917 24.9722 173.663 25 173.378 25Z" fill="white"/>
</g>
<defs>
<linearGradient id="paint0_linear_59_27" x1="26.1719" y1="12.884" x2="26.1719" y2="57.188" gradientUnits="userSpaceOnUse">
<stop stop-color="#257CB0"/>
<stop offset="0.286" stop-color="#4A93B5"/>
<stop offset="0.767" stop-color="#78BCBB"/>
<stop offset="1" stop-color="#89CFBD"/>
</linearGradient>
<linearGradient id="paint1_linear_59_27" x1="15.0019" y1="23.8791" x2="43.3428" y2="23.8791" gradientUnits="userSpaceOnUse">
<stop stop-color="#52C1AD"/>
<stop offset="1" stop-color="#DEE89A"/>
</linearGradient>
<linearGradient id="paint2_linear_59_27" x1="29.1718" y1="35.0361" x2="29.1718" y2="57.349" gradientUnits="userSpaceOnUse">
<stop stop-color="#EC413D"/>
<stop offset="0.167" stop-color="#DA4452"/>
<stop offset="0.575" stop-color="#B0487A"/>
<stop offset="0.862" stop-color="#954A92"/>
<stop offset="1" stop-color="#8A4A9D"/>
</linearGradient>
<linearGradient id="paint3_linear_59_27" x1="45.4954" y1="29.086" x2="45.4954" y2="40.9852" gradientUnits="userSpaceOnUse">
<stop stop-color="#F58879"/>
<stop offset="0.119" stop-color="#F69079"/>
<stop offset="0.713" stop-color="#FCB877"/>
<stop offset="1" stop-color="#FEC874"/>
</linearGradient>
<linearGradient id="paint4_linear_59_27" x1="146.498" y1="65.1726" x2="146.498" y2="-169.249" gradientUnits="userSpaceOnUse">
<stop stop-color="#1A1A1A" stop-opacity="0.1"/>
<stop offset="0.123" stop-opacity="0.151"/>
<stop offset="0.308" stop-color="#353535" stop-opacity="0.227"/>
<stop offset="0.532" stop-opacity="0.318"/>
<stop offset="0.783" stop-color="#858585" stop-opacity="0.421"/>
<stop offset="1" stop-color="#B3B3B3" stop-opacity="0.51"/>
</linearGradient>
<clipPath id="clip0_59_27">
<rect width="200" height="65.42" fill="white"/>
</clipPath>
<clipPath id="clip1_59_27">
<rect width="200" height="200" fill="white" transform="translate(0 -67)"/>
</clipPath>
</defs>
</svg>
