<svg width="200" height="66" fill="none" xmlns="http://www.w3.org/2000/svg"><g clip-path="url(#clip0_59_27)"><g clip-path="url(#clip1_59_27)"><path d="M200 56.87c0 4.882-3.958 8.841-8.839 8.841H8.841A8.842 8.842 0 010 56.869V9.13A8.842 8.842 0 018.841.29h182.32A8.84 8.84 0 01200 9.13v47.74z" fill="#000"/><mask id="a" style="mask-type:luminance" maskUnits="userSpaceOnUse" x="15" y="13" width="38" height="44"><path d="M43.342 29.086l-9.018-5.207L16.93 13.835c-.965-.557-1.928-.22-1.928.946V55.7c0 .874.688 1.25 1.527.767l17.796-10.276 9.018-5.206 8.669-5.004c1.017-.588.919-1.394.06-1.856-.857-.462-8.729-5.04-8.729-5.04z" fill="#fff"/></mask><g mask="url(#a)"><path d="M15.002 12.884v44.304l22.34-22.152-22.34-22.152z" fill="url(#paint0_linear_59_27)"/></g><mask id="b" style="mask-type:luminance" maskUnits="userSpaceOnUse" x="15" y="13" width="38" height="44"><path d="M43.342 29.086l-9.018-5.207L16.93 13.835c-.965-.557-1.928-.22-1.928.946V55.7c0 .874.688 1.25 1.527.767l17.796-10.276 9.018-5.206 8.669-5.004c1.017-.588.919-1.394.06-1.856-.857-.462-8.729-5.04-8.729-5.04z" fill="#fff"/></mask><g mask="url(#b)"><path d="M43.342 29.086l-9.018-5.206-19.322-11.157v.16l22.34 22.153 6-5.95z" fill="url(#paint1_linear_59_27)"/></g><mask id="c" style="mask-type:luminance" maskUnits="userSpaceOnUse" x="15" y="13" width="38" height="44"><path d="M43.342 29.086l-9.018-5.207L16.93 13.835c-.965-.557-1.928-.22-1.928.946V55.7c0 .874.688 1.25 1.527.767l17.796-10.276 9.018-5.206 8.669-5.004c1.017-.588.919-1.394.06-1.856-.857-.462-8.729-5.04-8.729-5.04z" fill="#fff"/></mask><g mask="url(#c)"><path d="M15.002 57.188v.161l19.322-11.157 9.018-5.206-6-5.95-22.34 22.152z" fill="url(#paint2_linear_59_27)"/></g><mask id="d" style="mask-type:luminance" maskUnits="userSpaceOnUse" x="15" y="13" width="38" height="44"><path d="M43.342 29.086l-9.018-5.207L16.93 13.835c-.965-.557-1.928-.22-1.928.946V55.7c0 .874.688 1.25 1.527.767l17.796-10.276 9.018-5.206 8.669-5.004c1.017-.588.919-1.394.06-1.856-.857-.462-8.729-5.04-8.729-5.04z" fill="#fff"/></mask><g mask="url(#d)"><path d="M43.342 29.086l-6 5.95 6 5.95 10.306-5.95-10.306-5.95z" fill="url(#paint3_linear_59_27)"/></g><path d="M155.649 43.697c-.839 0-1.604-.155-2.298-.465a4.337 4.337 0 01-1.746-1.428h-.141c.094.753.141 1.466.141 2.14v5.301h-1.95V30.577h1.586l.27 1.763h.094c.502-.705 1.086-1.214 1.752-1.528.666-.313 1.431-.47 2.292-.47 1.709 0 3.028.584 3.956 1.752.929 1.167 1.393 2.806 1.393 4.913 0 2.116-.472 3.76-1.416 4.933-.944 1.171-2.255 1.757-3.933 1.757zm-.282-11.698c-1.316 0-2.269.365-2.856 1.094-.588.729-.89 1.889-.906 3.48v.434c0 1.811.302 3.106.906 3.886.603.78 1.572 1.17 2.903 1.17 1.114 0 1.986-.45 2.617-1.352.63-.9.946-2.143.946-3.727 0-1.606-.316-2.84-.946-3.697-.631-.859-1.519-1.288-2.664-1.288zm10.15 11.462h-1.951V25.17h1.951v18.292zm11.219 0l-.388-1.834h-.094c-.643.808-1.283 1.355-1.922 1.64-.638.287-1.436.43-2.392.43-1.277 0-2.278-.33-3.004-.988-.725-.658-1.087-1.594-1.087-2.81 0-2.6 2.081-3.965 6.242-4.09l2.188-.071v-.8c0-1.01-.218-1.758-.653-2.239-.435-.483-1.132-.723-2.087-.723-1.074 0-2.289.329-3.644.987l-.6-1.493a9.159 9.159 0 012.087-.811 9.035 9.035 0 012.275-.294c1.536 0 2.674.34 3.415 1.023.74.681 1.111 1.775 1.111 3.28v8.793h-1.447zm-4.408-1.375c1.214 0 2.168-.333 2.862-.999.693-.666 1.041-1.599 1.041-2.798v-1.164l-1.952.082c-1.552.056-2.67.296-3.357.724-.685.427-1.028 1.091-1.028 1.992 0 .706.213 1.243.641 1.61.427.37 1.024.553 1.793.553zm6.987-11.51h2.092l2.822 7.349c.619 1.677 1.003 2.888 1.153 3.633h.093c.103-.4.316-1.084.641-2.053.325-.968 1.39-3.943 3.191-8.928h2.094l-5.538 14.671c-.548 1.45-1.189 2.48-1.922 3.088-.733.606-1.632.91-2.697.91a7.867 7.867 0 01-1.764-.2v-1.563c.43.094.913.14 1.446.14 1.34 0 2.296-.752 2.868-2.256l.717-1.834-5.196-12.956zM119.5 31.775c.619.513 1.913 1.59 1.913 3.639 0 1.993-1.132 2.938-2.264 3.826-.351.35-.755.729-.755 1.322 0 .592.404.916.702 1.158l.97.753c1.186.998 2.263 1.915 2.263 3.775 0 2.533-2.453 5.092-7.087 5.092-3.909 0-5.794-1.859-5.794-3.854 0-.97.483-2.343 2.075-3.288 1.67-1.024 3.935-1.157 5.147-1.24-.378-.484-.809-.997-.809-1.83 0-.458.136-.728.27-1.053a9.764 9.764 0 01-.863.054c-2.856 0-4.473-2.129-4.473-4.23 0-1.24.567-2.615 1.724-3.61 1.537-1.267 3.369-1.483 4.826-1.483h5.55l-1.725.97h-1.67zm-1.914 11.966c-.216-.028-.351-.028-.619-.028-.243 0-1.7.055-2.83.433-.593.214-2.318.861-2.318 2.775 0 1.913 1.86 3.29 4.744 3.29 2.585 0 3.961-1.243 3.961-2.912 0-1.377-.889-2.102-2.938-3.558zm.782-5.121c.619-.62.672-1.482.672-1.968 0-1.94-1.158-4.958-3.394-4.958-.702 0-1.456.35-1.887.89-.458.566-.594 1.293-.594 1.994 0 1.805 1.051 4.797 3.37 4.797.674 0 1.4-.323 1.833-.755zm-15.834 4.69c-4.278 0-6.565-3.337-6.565-6.35 0-3.526 2.879-6.538 6.97-6.538 3.953 0 6.429 3.093 6.429 6.35 0 3.173-2.447 6.538-6.834 6.538zm3.363-2.18c.646-.861.808-1.937.808-2.987 0-2.368-1.13-6.888-4.467-6.888a3.74 3.74 0 00-2.42.917c-1.05.94-1.24 2.124-1.24 3.283 0 2.661 1.32 7.046 4.576 7.046 1.049 0 2.125-.51 2.743-1.37zm-17.946 2.18c-4.279 0-6.566-3.337-6.566-6.35 0-3.526 2.88-6.538 6.97-6.538 3.954 0 6.43 3.093 6.43 6.35 0 3.173-2.448 6.538-6.834 6.538zm3.363-2.18c.646-.861.808-1.937.808-2.987 0-2.368-1.131-6.888-4.468-6.888a3.74 3.74 0 00-2.42.917c-1.05.94-1.238 2.124-1.238 3.283 0 2.661 1.318 7.046 4.574 7.046 1.05 0 2.126-.51 2.744-1.37zM79.33 42.888l-3.869.893c-1.57.244-2.976.458-4.463.458-7.467 0-10.306-5.491-10.306-9.792 0-5.247 4.03-10.115 10.929-10.115 1.461 0 2.866.216 4.138.567 2.028.569 2.975 1.271 3.57 1.678l-2.246 2.136-.946.216.676-1.082c-.92-.892-2.598-2.542-5.788-2.542-4.275 0-7.494 3.247-7.494 7.98 0 5.085 3.68 9.873 9.575 9.873 1.733 0 2.624-.351 3.436-.677v-4.354l-4.084.217 2.163-1.165h5.735l-.703.676c-.19.163-.216.218-.27.432-.029.244-.054 1.03-.054 1.3v3.301z" fill="#F9F9F9"/><path d="M128.05 42.108c-.894-.081-1.08-.243-1.08-1.299V25.5l.014-.174c.109-.947.379-1.109 1.219-1.596h-3.87l-2.029.974h2.068v.012l-.002-.01v16.7c0 .54-.106.622-.729 1.433h4.788l1.001-.594c-.459-.056-.92-.082-1.38-.136zm11.007.249c-.295.161-.59.35-.885.483-.888.403-1.801.511-2.608.511-.858 0-2.202-.055-3.573-1.048-1.906-1.344-2.739-3.655-2.739-5.669 0-4.163 3.385-6.204 6.151-6.204.968 0 1.963.24 2.769.752 1.342.885 1.691 2.04 1.878 2.658l-6.311 2.553-2.069.161c.67 3.412 2.98 5.398 5.533 5.398 1.37 0 2.365-.482 3.278-.938l-1.424 1.343zm-2.525-8.007c.51-.187.779-.349.779-.725 0-1.074-1.209-2.31-2.661-2.31-1.075 0-3.089.833-3.089 3.734 0 .457.054.94.082 1.425l4.889-2.124zm5.118-3.737v1.773h-.216v-1.773h-.586v-.184h1.388v.184h-.586zm2.416 1.773v-1.79h-.01l-.545 1.79h-.169l-.551-1.79h-.007v1.79h-.195v-1.957h.335l.498 1.582h.007l.491-1.582h.34v1.957h-.194z" fill="#F9F9F9"/><path d="M65.606 15.965h.843a2.69 2.69 0 01-.347 1.086 2.03 2.03 0 01-.795.76c-.343.185-.77.277-1.284.277-.375 0-.716-.07-1.023-.211a2.276 2.276 0 01-.787-.598c-.22-.26-.39-.573-.51-.936a3.995 3.995 0 01-.176-1.221v-.638c0-.448.059-.854.176-1.217.12-.366.292-.68.514-.94a2.29 2.29 0 01.813-.602 2.6 2.6 0 011.068-.211c.484 0 .892.09 1.226.272.334.182.594.434.778.756.188.32.303.69.347 1.112h-.843a2.352 2.352 0 00-.229-.77 1.189 1.189 0 00-.475-.5c-.205-.117-.473-.176-.804-.176-.284 0-.535.054-.751.163a1.512 1.512 0 00-.54.461c-.144.2-.253.438-.326.716a3.64 3.64 0 00-.11.928v.646c0 .313.032.607.097.883.067.275.168.517.303.725a1.5 1.5 0 00.514.492c.208.117.454.176.738.176.36 0 .648-.057.862-.171.214-.115.375-.279.483-.493.112-.214.19-.47.238-.769zm2.76-2.72V18h-.814v-4.755h.813zm3.12 0L69.23 15.97h-1.138l-.123-.712h.931l1.596-2.013h.988zM70.61 18l-1.75-2.153.524-.59L71.644 18H70.61zm4.544-.813v-2.448a.992.992 0 00-.115-.488.746.746 0 00-.334-.325 1.21 1.21 0 00-.553-.114 1.3 1.3 0 00-.54.106.941.941 0 00-.361.276.607.607 0 00-.127.37h-.814c0-.17.044-.339.132-.506.088-.167.214-.318.378-.453a1.89 1.89 0 01.598-.325c.234-.082.495-.123.782-.123.346 0 .65.059.914.176.267.117.475.294.624.532.153.234.229.529.229.883v2.215c0 .158.013.327.04.505.029.179.071.333.127.462V18h-.848a1.523 1.523 0 01-.097-.373 3.018 3.018 0 01-.035-.44zm.14-2.07l.01.571h-.823c-.231 0-.438.02-.62.058-.18.035-.333.089-.456.162a.735.735 0 00-.378.66.85.85 0 00.1.408.736.736 0 00.304.294c.138.07.306.106.505.106a1.373 1.373 0 001.112-.545.832.832 0 00.185-.444l.347.391c-.02.123-.076.26-.167.409a1.956 1.956 0 01-.9.77 1.748 1.748 0 01-.695.13c-.322 0-.605-.062-.848-.188a1.451 1.451 0 01-.563-.505 1.338 1.338 0 01-.198-.717c0-.255.05-.479.15-.672.1-.196.243-.359.43-.488.188-.132.414-.231.677-.299a3.57 3.57 0 01.884-.1h.944zm5.537-1.872V18h-.813v-4.755h.813zm-.276 2.184v.668a7.19 7.19 0 01-.501.167 4.607 4.607 0 01-.532.114c-.185.027-.385.04-.602.04-.375 0-.7-.064-.976-.193a1.42 1.42 0 01-.637-.594c-.15-.266-.224-.602-.224-1.006v-1.389h.813v1.389c0 .264.04.477.119.642a.772.772 0 00.347.364c.152.076.338.115.558.115.21 0 .409-.014.593-.04a5.532 5.532 0 001.042-.277zm4.39 1.758v-2.448a.992.992 0 00-.114-.488.747.747 0 00-.334-.325 1.21 1.21 0 00-.554-.114 1.3 1.3 0 00-.54.106.942.942 0 00-.361.276.607.607 0 00-.128.37h-.813c0-.17.044-.339.132-.506.088-.167.214-.318.378-.453.167-.137.367-.246.598-.325.234-.082.495-.123.782-.123.346 0 .65.059.914.176.267.117.475.294.624.532.153.234.229.529.229.883v2.215c0 .158.013.327.04.505.029.179.071.333.127.462V18h-.848a1.52 1.52 0 01-.097-.373 3.005 3.005 0 01-.035-.44zm.14-2.07l.01.571h-.823c-.231 0-.438.02-.62.058-.18.035-.333.089-.456.162a.735.735 0 00-.378.66.85.85 0 00.1.408.736.736 0 00.304.294c.138.07.306.106.505.106a1.373 1.373 0 001.112-.545.832.832 0 00.185-.444l.347.391a1.18 1.18 0 01-.167.409 1.953 1.953 0 01-.9.77 1.748 1.748 0 01-.695.13c-.322 0-.605-.062-.848-.188a1.451 1.451 0 01-.563-.505 1.338 1.338 0 01-.198-.717c0-.255.05-.479.15-.672.1-.196.243-.359.43-.488.188-.132.414-.231.677-.299a3.57 3.57 0 01.884-.1h.944zm3.82-1.872V18h-.818v-4.755h.817zm1.594 0v.66h-3.977v-.66H90.5zm1.468 1.635h1.428c.384 0 .708.067.972.202.263.132.463.315.597.55.138.23.207.495.207.79 0 .22-.038.427-.114.62-.077.19-.19.357-.343.501a1.6 1.6 0 01-.558.338c-.22.08-.473.119-.76.119h-2.022v-4.755h.813v4.087h1.209c.234 0 .421-.042.562-.127a.744.744 0 00.303-.33 1.005 1.005 0 000-.844.79.79 0 00-.303-.342c-.14-.094-.328-.141-.563-.141h-1.428v-.668zm8.196-1.037l-1.147 1.766-.773-.004v-.057l1.296-1.705h.624zm-1.147 1.727l1.147 1.77h-.624l-1.296-1.709v-.057l.773-.004zm2.602-1.727l-1.147 1.766-.774-.004v-.057l1.297-1.705h.624zm-1.147 1.727l1.147 1.77h-.624l-1.297-1.709v-.057l.774-.004zm3.981.496l1.27-4.464h.615l-.356 1.735L104.616 18h-.611l.448-1.934zm-1.314-4.464l1.011 4.377.303 2.021h-.606l-1.552-6.398h.844zm4.843 4.372l.989-4.372h.848L108.272 18h-.606l.316-2.026zm-1.551-4.372l1.235 4.464.448 1.934h-.611l-1.318-4.663-.361-1.735h.607zm5.089 1.643V18h-.818v-4.755h.818zm-.879-1.261a.49.49 0 01.118-.334c.082-.09.202-.136.361-.136.155 0 .274.045.356.136a.47.47 0 01.127.334.459.459 0 01-.127.325c-.082.088-.201.132-.356.132-.159 0-.279-.044-.361-.132a.479.479 0 01-.118-.325zm3.067-.734V18h-.817v-6.75h.817zm4.074 5.489a.693.693 0 00-.079-.325c-.05-.103-.154-.195-.312-.277-.156-.085-.39-.159-.703-.22a5.574 5.574 0 01-.717-.198 2.158 2.158 0 01-.54-.277 1.157 1.157 0 01-.339-.382 1.067 1.067 0 01-.118-.514c0-.188.041-.365.123-.532a1.42 1.42 0 01.356-.444c.155-.129.341-.23.558-.303.217-.073.458-.11.725-.11.381 0 .706.068.975.202.27.135.477.315.62.54.144.224.215.471.215.744h-.813a.697.697 0 00-.118-.383.873.873 0 00-.339-.312 1.089 1.089 0 00-.54-.123c-.226 0-.409.035-.549.106a.709.709 0 00-.304.259.658.658 0 00-.048.571.53.53 0 00.167.19c.079.055.19.108.334.157.143.05.327.1.549.15.39.088.711.193.963.316s.439.274.562.453c.123.179.185.395.185.65a1.27 1.27 0 01-.506 1.02 1.85 1.85 0 01-.58.29 2.586 2.586 0 01-.751.1c-.419 0-.774-.074-1.064-.223a1.648 1.648 0 01-.659-.58 1.391 1.391 0 01-.224-.752h.817c.012.223.077.4.194.532a.988.988 0 00.43.277c.17.053.339.079.506.079.222 0 .409-.03.558-.088a.778.778 0 00.347-.242.56.56 0 00.119-.351zm1.665-1.064v-.1c0-.344.05-.661.15-.954.099-.296.243-.553.43-.77.188-.22.415-.39.681-.51a2.12 2.12 0 01.897-.184c.334 0 .634.062.901.185.269.12.498.29.685.51a2.2 2.2 0 01.435.769c.1.293.15.61.15.953v.101c0 .343-.05.66-.15.954-.099.293-.244.55-.435.769a1.984 1.984 0 01-.681.51c-.263.12-.562.18-.896.18a2.17 2.17 0 01-.901-.18 2.041 2.041 0 01-.686-.51 2.319 2.319 0 01-.43-.77c-.1-.292-.15-.61-.15-.953zm.813-.1v.1c0 .238.028.462.084.673.055.208.139.392.25.553.114.162.257.289.427.383.169.09.367.136.593.136.222 0 .417-.046.584-.136a1.22 1.22 0 00.422-.383 1.77 1.77 0 00.251-.553c.058-.211.087-.435.087-.673v-.1a2.46 2.46 0 00-.087-.664 1.722 1.722 0 00-.255-.559 1.218 1.218 0 00-.422-.386 1.183 1.183 0 00-.589-.14 1.2 1.2 0 00-.589.14 1.263 1.263 0 00-.422.386 1.757 1.757 0 00-.25.559 2.54 2.54 0 00-.084.663zm5.348-1.315V18h-.813v-4.755h.769l.044 1.015zm-.193 1.182l-.338-.013c.003-.325.051-.625.145-.9.093-.279.225-.52.395-.726a1.758 1.758 0 011.393-.646c.235 0 .446.033.633.097.188.061.347.161.479.299.135.137.237.316.308.536.07.217.105.482.105.795V18h-.817v-3.124c0-.25-.037-.449-.11-.598a.674.674 0 00-.321-.33 1.15 1.15 0 00-.518-.105c-.203 0-.387.042-.554.127a1.324 1.324 0 00-.426.352c-.118.15-.21.32-.277.514-.065.19-.097.393-.097.606zm10.573.523h.844a2.7 2.7 0 01-.347 1.086c-.188.32-.453.573-.796.76-.342.185-.77.277-1.283.277a2.43 2.43 0 01-1.024-.211 2.274 2.274 0 01-.786-.598 2.79 2.79 0 01-.51-.936 4.001 4.001 0 01-.176-1.221v-.638c0-.448.059-.854.176-1.217.12-.366.291-.68.514-.94a2.3 2.3 0 01.813-.602 2.6 2.6 0 011.068-.211c.483 0 .892.09 1.226.272.334.182.593.434.778.756.187.32.303.69.347 1.112h-.844a2.359 2.359 0 00-.228-.77 1.193 1.193 0 00-.475-.5c-.205-.117-.473-.176-.804-.176-.284 0-.535.054-.752.163a1.515 1.515 0 00-.54.461c-.144.2-.252.438-.325.716-.073.279-.11.588-.11.928v.646c0 .313.032.607.097.883.067.275.168.517.303.725a1.5 1.5 0 00.514.492c.208.117.454.176.738.176.361 0 .648-.057.862-.171.213-.115.375-.279.483-.493.111-.214.19-.47.237-.769zm1.661-.29v-.1c0-.344.05-.661.15-.954.099-.296.243-.553.43-.77.188-.22.415-.39.682-.51.266-.122.565-.184.896-.184.334 0 .634.062.901.185.27.12.498.29.686.51.19.216.335.473.435.769.099.293.149.61.149.953v.101c0 .343-.05.66-.149.954-.1.293-.245.55-.435.769a1.997 1.997 0 01-.682.51c-.263.12-.562.18-.896.18-.334 0-.634-.06-.901-.18a2.041 2.041 0 01-.686-.51 2.319 2.319 0 01-.43-.77c-.1-.292-.15-.61-.15-.953zm.813-.1v.1c0 .238.028.462.084.673.056.208.139.392.25.553.115.162.257.289.427.383.17.09.367.136.593.136.223 0 .417-.046.584-.136a1.22 1.22 0 00.422-.383c.112-.16.195-.345.251-.553.058-.211.088-.435.088-.673v-.1c0-.235-.03-.456-.088-.664a1.722 1.722 0 00-.255-.559 1.21 1.21 0 00-.422-.386 1.183 1.183 0 00-.589-.14 1.2 1.2 0 00-.589.14 1.273 1.273 0 00-.422.386 1.78 1.78 0 00-.25.559 2.54 2.54 0 00-.084.663zM144.21 18h-.813v-5.256c0-.343.062-.631.185-.866a1.24 1.24 0 01.541-.536 1.77 1.77 0 01.835-.184 2.277 2.277 0 01.562.07l-.044.664a1.35 1.35 0 00-.211-.031 2.995 2.995 0 00-.228-.009.908.908 0 00-.449.105.665.665 0 00-.281.3 1.112 1.112 0 00-.097.487V18zm1.011-4.755v.624h-2.575v-.624h2.575zM147.339 18h-.813v-5.256c0-.343.062-.631.185-.866.126-.237.306-.416.54-.536.235-.123.513-.184.835-.184a2.281 2.281 0 01.563.07l-.044.664a1.368 1.368 0 00-.211-.031 2.995 2.995 0 00-.228-.009.908.908 0 00-.449.105.66.66 0 00-.281.3 1.112 1.112 0 00-.097.487V18zm1.011-4.755v.624h-2.575v-.624h2.575zm2.773 4.843c-.331 0-.631-.056-.901-.167a2.055 2.055 0 01-.69-.48 2.128 2.128 0 01-.439-.729 2.664 2.664 0 01-.154-.922v-.185c0-.387.057-.731.171-1.033.115-.304.27-.562.466-.773.196-.211.419-.37.668-.48a1.92 1.92 0 01.774-.162c.339 0 .632.059.878.176.25.117.453.281.611.492.159.208.276.454.352.739.076.28.114.588.114.922v.365h-3.551v-.664h2.738v-.061a2.042 2.042 0 00-.132-.615 1.1 1.1 0 00-.351-.492c-.161-.13-.381-.194-.659-.194a1.105 1.105 0 00-.91.462 1.722 1.722 0 00-.259.558 2.81 2.81 0 00-.093.76v.185c0 .225.031.438.093.637.064.196.156.369.276.518.124.15.271.267.444.352.176.085.375.127.598.127.287 0 .53-.058.729-.175.2-.118.374-.274.523-.47l.493.39a2.295 2.295 0 01-.391.444c-.159.14-.354.255-.585.343a2.261 2.261 0 01-.813.132zm4.773 0a2.34 2.34 0 01-.901-.167 2.036 2.036 0 01-.69-.48 2.13 2.13 0 01-.44-.729 2.688 2.688 0 01-.154-.922v-.185c0-.387.058-.731.172-1.033a2.3 2.3 0 01.466-.773c.196-.211.419-.37.668-.48.249-.108.506-.162.773-.162.34 0 .633.059.879.176.249.117.453.281.611.492.158.208.275.454.351.739.077.28.115.588.115.922v.365h-3.551v-.664h2.738v-.061a2.042 2.042 0 00-.132-.615 1.106 1.106 0 00-.352-.492c-.161-.13-.381-.194-.659-.194a1.108 1.108 0 00-.91.462 1.743 1.743 0 00-.259.558 2.85 2.85 0 00-.092.76v.185c0 .225.031.438.092.637.065.196.157.369.277.518.123.15.271.267.444.352.176.085.375.127.597.127.288 0 .531-.058.73-.175.199-.118.373-.274.523-.47l.492.39a2.262 2.262 0 01-.391.444c-.158.14-.353.255-.585.343a2.26 2.26 0 01-.812.132zm2.632-.76l1.147-1.767.773.004v.058l-1.296 1.705h-.624zm0-3.498h.624l1.296 1.71v.056l-.773.005-1.147-1.771zm1.534 3.498l1.146-1.767.774.004v.058l-1.296 1.705h-.624zm0-3.498h.624l1.296 1.71v.056l-.774.005-1.146-1.771zm7.316 2.078h-1.56l-.008-.65h1.274c.252 0 .461-.025.628-.075a.775.775 0 00.383-.224.549.549 0 00.127-.37.579.579 0 00-.29-.513 1.068 1.068 0 00-.36-.128 2.465 2.465 0 00-.497-.044h-1.041V18h-.813v-4.755h1.854c.302 0 .573.027.813.08.243.052.45.133.62.24.173.106.304.241.395.405.091.164.137.358.137.58a.986.986 0 01-.348.752 1.4 1.4 0 01-.421.246 2.176 2.176 0 01-.576.118l-.317.242zm0 2.092h-1.854l.404-.66h1.45c.226 0 .414-.027.563-.083a.706.706 0 00.334-.246.656.656 0 00.114-.386.637.637 0 00-.448-.629 1.552 1.552 0 00-.563-.088h-1.234l.008-.65h1.543l.294.246c.261.02.482.085.664.193.181.109.319.246.413.413.094.164.141.343.141.537a1.3 1.3 0 01-.128.588c-.082.17-.202.312-.36.427-.158.11-.35.196-.576.255-.226.055-.48.083-.765.083z" fill="#fff"/></g><path d="M198.723 58.277a5.683 5.683 0 01-5.684 5.677H7.013a5.687 5.687 0 01-5.692-5.677V13.005A5.691 5.691 0 017.013 7.32h186.025a5.685 5.685 0 015.684 5.685l.001 45.272z" fill="#fff" stroke="#000" stroke-width=".027"/><path d="M192.992 65H7.01c-1.857 0-3.638-.796-4.952-2.213C.744 61.371.004 59.45 0 57.444V8.564c.003-2.006.742-3.93 2.056-5.347C3.371 1.799 5.152 1.002 7.01 1h185.98c1.858.003 3.639.8 4.953 2.218 1.314 1.418 2.053 3.34 2.057 5.346v48.88c.003 4.168-3.147 7.556-7.008 7.556z" fill="#000" stroke="#000" stroke-width=".027"/><path d="M198.723 58.277a5.683 5.683 0 01-5.684 5.677H7.013a5.687 5.687 0 01-5.692-5.677V13.005A5.691 5.691 0 017.013 7.32h186.025a5.685 5.685 0 015.684 5.685l.001 45.272z" fill="#000" stroke="#000" stroke-width=".027"/><path d="M40.206 33.068c-.048-5.243 4.293-7.793 4.492-7.912-2.459-3.583-6.269-4.073-7.608-4.112-3.2-.337-6.305 1.915-7.935 1.915-1.663 0-4.173-1.883-6.879-1.827-3.482.053-6.739 2.069-8.525 5.198-3.687 6.381-.937 15.759 2.595 20.916 1.767 2.528 3.831 5.347 6.534 5.248 2.644-.108 3.631-1.684 6.822-1.684 3.161 0 4.088 1.684 6.845 1.62 2.837-.044 4.623-2.537 6.329-5.086 2.041-2.894 2.861-5.747 2.894-5.893-.065-.023-5.509-2.102-5.564-8.383zM34.999 17.65c1.422-1.778 2.395-4.197 2.125-6.651-2.058.091-4.632 1.423-6.114 3.162-1.311 1.532-2.483 4.044-2.18 6.405 2.312.173 4.686-1.166 6.17-2.916z" fill="#fff" stroke="#000" stroke-width=".027"/><path d="M192.966 0H93l39.155 65h60.811c1.864-.002 3.651-.811 4.969-2.25 1.319-1.44 2.061-3.392 2.065-5.429V7.681c-.003-2.036-.745-3.989-2.064-5.429-1.319-1.44-3.106-2.25-4.97-2.252z" fill="url(#paint4_linear_59_27)" stroke="#000" stroke-width=".027"/><path d="M79.567 52.018H76.2l-1.844-5.794h-6.411l-1.757 5.794H62.91l6.353-19.726h3.923l6.381 19.726zM73.8 43.793l-1.668-5.151c-.176-.526-.508-1.765-.995-3.716h-.06c-.195.839-.508 2.078-.936 3.716l-1.64 5.15H73.8zm22.074.938c0 2.42-.657 4.331-1.972 5.735-1.177 1.25-2.64 1.873-4.386 1.873-1.884 0-3.24-.671-4.062-2.017v7.463h-3.161V42.47c0-1.52-.04-3.077-.118-4.675h2.78l.177 2.255h.06c1.053-1.699 2.653-2.548 4.8-2.548 1.678 0 3.08.662 4.2 1.989 1.12 1.33 1.682 3.075 1.682 5.241zm-3.22.116c0-1.385-.312-2.526-.938-3.426-.683-.935-1.6-1.404-2.751-1.404-.78 0-1.49.261-2.122.776-.635.519-1.05 1.196-1.244 2.035a4.125 4.125 0 00-.147.962v2.373c0 1.033.317 1.906.952 2.62.635.712 1.459 1.07 2.473 1.07 1.19 0 2.117-.462 2.78-1.376.664-.918.996-2.127.996-3.63zm19.584-.116c0 2.42-.657 4.331-1.972 5.735-1.179 1.25-2.641 1.873-4.387 1.873-1.885 0-3.24-.671-4.063-2.017v7.463h-3.16V42.47c0-1.52-.04-3.077-.118-4.675h2.78l.176 2.255h.06c1.052-1.699 2.652-2.548 4.8-2.548 1.677 0 3.078.662 4.202 1.989 1.118 1.33 1.682 3.075 1.682 5.241zm-3.222.116c0-1.385-.313-2.526-.939-3.426-.683-.935-1.598-1.404-2.748-1.404-.78 0-1.489.261-2.125.776-.635.519-1.048 1.196-1.243 2.035-.096.391-.148.71-.148.962v2.373c0 1.033.319 1.906.951 2.62.634.71 1.458 1.07 2.476 1.07 1.192 0 2.118-.462 2.78-1.376.664-.918.996-2.127.996-3.63zm21.518 1.638c0 1.679-.588 3.044-1.754 4.098-1.284 1.15-3.077 1.727-5.375 1.727-2.123 0-3.825-.41-5.109-1.229l.731-2.634c1.386.821 2.909 1.23 4.566 1.23 1.192 0 2.119-.27 2.78-.804.663-.537.998-1.255.998-2.15 0-.802-.277-1.473-.821-2.02-.547-.546-1.452-1.054-2.723-1.52-3.454-1.289-5.183-3.173-5.183-5.651 0-1.619.611-2.944 1.83-3.98 1.218-1.035 2.835-1.552 4.845-1.552 1.796 0 3.292.313 4.479.937l-.793 2.576c-1.118-.605-2.38-.907-3.791-.907-1.115 0-1.99.274-2.616.82-.526.487-.793 1.081-.793 1.787 0 .778.304 1.425.909 1.931.525.467 1.483.976 2.867 1.521 1.7.685 2.948 1.483 3.747 2.398.805.917 1.206 2.06 1.206 3.422zm10.477-6.32h-3.484v6.907c0 1.756.614 2.632 1.845 2.632.564 0 1.033-.047 1.404-.147l.087 2.4c-.623.233-1.443.35-2.458.35-1.249 0-2.224-.381-2.928-1.143-.702-.762-1.055-2.038-1.055-3.834v-7.17h-2.075v-2.372h2.075v-2.604l3.105-.937v3.541h3.484v2.378zm15.69 4.624c0 2.186-.626 3.981-1.874 5.385-1.307 1.445-3.044 2.166-5.21 2.166-2.091 0-3.753-.693-4.992-2.076-1.24-1.386-1.86-3.132-1.86-5.238 0-2.204.641-4.01 1.917-5.413 1.28-1.405 3.003-2.108 5.169-2.108 2.087 0 3.764.694 5.034 2.078 1.212 1.343 1.816 3.077 1.816 5.206zm-3.277.072c0-1.302-.282-2.42-.846-3.355-.663-1.13-1.612-1.694-2.841-1.694-1.266 0-2.238.564-2.899 1.694-.566.935-.848 2.072-.848 3.415 0 1.304.282 2.425.848 3.357.684 1.13 1.637 1.694 2.872 1.694 1.208 0 2.156-.576 2.841-1.722.581-.958.873-2.083.873-3.389zm13.556-4.288a5.5 5.5 0 00-.996-.087c-1.112 0-1.972.418-2.577 1.26-.525.741-.789 1.678-.789 2.809v7.463h-3.161v-9.745a99.795 99.795 0 00-.092-4.477h2.753l.116 2.721h.087c.336-.935.86-1.69 1.581-2.255a3.825 3.825 0 012.285-.761c.292 0 .556.02.79.058l.003 3.014zm14.137 3.66c.008.48-.031.96-.116 1.433h-9.483c.036 1.406.496 2.482 1.376 3.223.799.66 1.833.993 3.102.993 1.404 0 2.685-.222 3.837-.671l.495 2.192c-1.346.587-2.935.879-4.769.879-2.207 0-3.938-.65-5.199-1.945-1.257-1.297-1.887-3.04-1.887-5.224 0-2.143.586-3.929 1.758-5.353 1.228-1.521 2.887-2.282 4.975-2.282 2.05 0 3.603.76 4.657 2.282.834 1.205 1.254 2.699 1.254 4.473zm-3.014-.82c.022-.938-.186-1.746-.614-2.43-.547-.88-1.389-1.318-2.518-1.318-1.033 0-1.875.428-2.516 1.288-.526.683-.839 1.504-.935 2.457l6.583.003z" fill="#fff" stroke="#000" stroke-width=".027"/><path d="M71.606 22.965h.843a2.69 2.69 0 01-.347 1.086 2.03 2.03 0 01-.795.76c-.343.185-.77.277-1.284.277-.375 0-.716-.07-1.023-.211a2.276 2.276 0 01-.787-.598c-.22-.26-.39-.573-.51-.936a3.995 3.995 0 01-.176-1.221v-.638c0-.448.059-.854.176-1.217.12-.366.292-.68.514-.94a2.29 2.29 0 01.813-.602 2.6 2.6 0 011.068-.211c.484 0 .892.09 1.226.272.334.182.594.434.778.756.188.32.303.69.347 1.112h-.843a2.352 2.352 0 00-.229-.77 1.189 1.189 0 00-.475-.5c-.205-.117-.473-.176-.804-.176a1.65 1.65 0 00-.751.163 1.512 1.512 0 00-.54.461c-.144.2-.253.438-.326.716a3.64 3.64 0 00-.11.928v.646c0 .313.032.608.097.883.067.275.168.517.303.725a1.5 1.5 0 00.514.492c.208.117.454.176.738.176.36 0 .648-.057.862-.171.214-.115.375-.279.483-.493.112-.214.19-.47.238-.769zm2.76-2.72V25h-.814v-4.755h.813zm3.12 0L75.23 22.97h-1.138l-.123-.712h.931l1.596-2.013h.988zM76.61 25l-1.75-2.153.524-.59L77.644 25H76.61zm4.544-.813v-2.448a.992.992 0 00-.115-.488.746.746 0 00-.334-.325 1.21 1.21 0 00-.553-.114 1.3 1.3 0 00-.54.105.941.941 0 00-.361.277.607.607 0 00-.127.37h-.814c0-.17.044-.339.132-.506.088-.167.214-.318.378-.453a1.89 1.89 0 01.598-.325c.234-.082.495-.123.782-.123.346 0 .65.059.914.176.267.117.475.294.624.532.153.234.229.529.229.883v2.215c0 .158.013.327.04.505.029.179.071.333.127.462V25h-.848a1.523 1.523 0 01-.097-.373 3.018 3.018 0 01-.035-.44zm.14-2.07l.01.572h-.823c-.231 0-.438.018-.62.057-.18.035-.333.089-.456.162a.735.735 0 00-.378.66.85.85 0 00.1.408.736.736 0 00.304.294c.138.07.306.106.505.106a1.373 1.373 0 001.112-.545.832.832 0 00.185-.444l.347.391c-.02.123-.076.26-.167.409a1.956 1.956 0 01-.9.77 1.748 1.748 0 01-.695.13c-.322 0-.605-.062-.848-.188a1.451 1.451 0 01-.563-.505 1.338 1.338 0 01-.198-.717c0-.255.05-.479.15-.672.1-.196.243-.359.43-.488.188-.132.414-.231.677-.299a3.57 3.57 0 01.884-.1h.944zm5.537-1.872V25h-.813v-4.755h.813zm-.276 2.184v.668a7.19 7.19 0 01-.501.167 4.607 4.607 0 01-.532.114c-.185.027-.385.04-.602.04-.375 0-.7-.064-.976-.193a1.42 1.42 0 01-.637-.594c-.15-.266-.224-.602-.224-1.006v-1.389h.813v1.389c0 .264.04.477.119.642a.772.772 0 00.347.364c.152.076.338.115.558.115.21 0 .409-.014.593-.04a5.532 5.532 0 001.042-.277zm4.39 1.758v-2.448a.992.992 0 00-.114-.488.747.747 0 00-.334-.325 1.21 1.21 0 00-.554-.114 1.3 1.3 0 00-.54.105.942.942 0 00-.361.277.607.607 0 00-.128.37h-.813c0-.17.044-.339.132-.506.088-.167.214-.318.378-.453.167-.137.367-.246.598-.325.234-.082.495-.123.782-.123.346 0 .65.059.914.176.267.117.475.294.624.532.153.234.229.529.229.883v2.215c0 .158.013.327.04.505.029.179.071.333.127.462V25h-.848a1.52 1.52 0 01-.097-.373 3.005 3.005 0 01-.035-.44zm.14-2.07l.01.572h-.823c-.231 0-.438.018-.62.057-.18.035-.333.089-.456.162a.735.735 0 00-.378.66.85.85 0 00.1.408.736.736 0 00.304.294c.138.07.306.106.505.106a1.373 1.373 0 001.112-.545.832.832 0 00.185-.444l.347.391a1.18 1.18 0 01-.167.409 1.953 1.953 0 01-.9.77 1.748 1.748 0 01-.695.13c-.322 0-.605-.062-.848-.188a1.451 1.451 0 01-.563-.505 1.338 1.338 0 01-.198-.717c0-.255.05-.479.15-.672.1-.196.243-.359.43-.488.188-.132.414-.231.677-.299a3.57 3.57 0 01.884-.1h.944zm3.82-1.872V25h-.818v-4.755h.817zm1.594 0v.66h-3.977v-.66H96.5zm1.468 1.635h1.428c.384 0 .708.067.972.202.263.132.463.315.597.55.138.23.207.494.207.79 0 .22-.038.427-.114.62-.077.19-.191.357-.343.501a1.6 1.6 0 01-.558.338c-.22.08-.473.119-.76.119h-2.022v-4.755h.813v4.087h1.209c.234 0 .421-.042.562-.127a.738.738 0 00.303-.33 1.017 1.017 0 000-.844.783.783 0 00-.303-.342c-.14-.094-.328-.141-.563-.141h-1.428v-.668zm8.196-1.037l-1.147 1.766-.773-.004v-.057l1.296-1.705h.624zm-1.147 1.727l1.147 1.77h-.624l-1.296-1.709v-.057l.773-.004zm2.602-1.727l-1.147 1.766-.774-.004v-.057l1.297-1.705h.624zm-1.147 1.727l1.147 1.77h-.624l-1.297-1.709v-.057l.774-.004zm3.981.496l1.27-4.464h.615l-.356 1.735L110.616 25h-.611l.448-1.934zm-1.314-4.464l1.011 4.377.303 2.021h-.606l-1.552-6.398h.844zm4.843 4.372l.989-4.372h.848L114.272 25h-.606l.316-2.026zm-1.551-4.372l1.235 4.464.448 1.934h-.611l-1.318-4.663-.361-1.735h.607zm5.089 1.643V25h-.818v-4.755h.818zm-.879-1.261a.49.49 0 01.118-.334c.082-.09.202-.136.361-.136.155 0 .274.045.356.136a.47.47 0 01.127.334.459.459 0 01-.127.325c-.082.088-.201.132-.356.132-.159 0-.279-.044-.361-.132a.479.479 0 01-.118-.325zm3.067-.734V25h-.817v-6.75h.817zm4.074 5.489a.693.693 0 00-.079-.325c-.05-.103-.154-.195-.312-.277-.156-.085-.39-.159-.703-.22a5.574 5.574 0 01-.717-.198 2.158 2.158 0 01-.54-.277 1.157 1.157 0 01-.339-.382 1.067 1.067 0 01-.118-.514c0-.188.041-.365.123-.532a1.42 1.42 0 01.356-.444c.155-.129.341-.23.558-.303.217-.073.458-.11.725-.11.381 0 .706.068.975.202.27.135.477.315.62.54.144.224.215.471.215.744h-.813a.697.697 0 00-.118-.383.873.873 0 00-.339-.312 1.089 1.089 0 00-.54-.123c-.226 0-.409.035-.549.106a.709.709 0 00-.304.259.658.658 0 00-.048.571.53.53 0 00.167.19c.079.055.19.108.334.157.143.05.327.1.549.15.39.088.711.193.963.316s.439.274.562.453c.123.179.185.395.185.65a1.27 1.27 0 01-.506 1.02 1.85 1.85 0 01-.58.29 2.586 2.586 0 01-.751.1c-.419 0-.774-.074-1.064-.223a1.648 1.648 0 01-.659-.58 1.391 1.391 0 01-.224-.752h.817c.012.223.077.4.194.532a.988.988 0 00.43.277c.17.053.339.079.506.079.222 0 .409-.03.558-.088a.778.778 0 00.347-.242.56.56 0 00.119-.351zm1.665-1.064v-.1c0-.344.05-.661.15-.954.099-.296.243-.553.43-.77.188-.22.415-.39.681-.51a2.12 2.12 0 01.897-.184c.334 0 .634.062.901.185.269.12.498.29.685.51a2.2 2.2 0 01.435.769c.1.293.15.61.15.953v.101c0 .343-.05.66-.15.954-.099.293-.244.55-.435.769a1.984 1.984 0 01-.681.51c-.263.12-.562.18-.896.18a2.17 2.17 0 01-.901-.18 2.041 2.041 0 01-.686-.51 2.319 2.319 0 01-.43-.77c-.1-.292-.15-.61-.15-.953zm.813-.1v.1c0 .238.028.462.084.673.055.208.139.392.25.553.114.162.257.289.427.383.169.09.367.136.593.136.222 0 .417-.046.584-.136a1.22 1.22 0 00.422-.383 1.77 1.77 0 00.251-.553c.058-.211.087-.435.087-.673v-.1a2.46 2.46 0 00-.087-.664 1.722 1.722 0 00-.255-.559 1.218 1.218 0 00-.422-.386 1.183 1.183 0 00-.589-.14 1.2 1.2 0 00-.589.14 1.263 1.263 0 00-.422.386 1.757 1.757 0 00-.25.559 2.54 2.54 0 00-.084.663zm5.348-1.315V25h-.813v-4.755h.769l.044 1.015zm-.193 1.182l-.338-.013c.003-.325.051-.625.145-.9.093-.279.225-.52.395-.726a1.758 1.758 0 011.393-.646c.235 0 .446.032.633.097.188.061.347.161.479.299.135.137.237.316.308.536.07.217.105.482.105.795V25h-.817v-3.125c0-.248-.037-.448-.11-.597a.674.674 0 00-.321-.33 1.15 1.15 0 00-.518-.105c-.203 0-.387.042-.554.127a1.324 1.324 0 00-.426.352c-.118.15-.21.32-.277.514-.065.19-.097.393-.097.606zm10.573.523h.844a2.7 2.7 0 01-.347 1.086c-.188.32-.453.573-.796.76-.342.185-.77.277-1.283.277a2.43 2.43 0 01-1.024-.211 2.274 2.274 0 01-.786-.598 2.79 2.79 0 01-.51-.936 4.001 4.001 0 01-.176-1.221v-.638c0-.448.059-.854.176-1.217.12-.366.291-.68.514-.94a2.3 2.3 0 01.813-.602 2.6 2.6 0 011.068-.211c.483 0 .892.09 1.226.272.334.182.593.434.778.756.187.32.303.69.347 1.112h-.844a2.359 2.359 0 00-.228-.77 1.193 1.193 0 00-.475-.5c-.205-.117-.473-.176-.804-.176-.284 0-.535.054-.752.163a1.515 1.515 0 00-.54.461c-.144.2-.252.438-.325.716-.073.279-.11.588-.11.928v.646c0 .313.032.608.097.883.067.275.168.517.303.725a1.5 1.5 0 00.514.492c.208.117.454.176.738.176.361 0 .648-.057.862-.171.213-.115.375-.279.483-.493.111-.214.19-.47.237-.769zm1.661-.29v-.1c0-.344.05-.661.15-.954.099-.296.243-.553.43-.77.188-.22.415-.39.682-.51.266-.122.565-.184.896-.184.334 0 .634.062.901.185.27.12.498.29.686.51.19.216.335.473.435.769.099.293.149.61.149.953v.101c0 .343-.05.66-.149.954-.1.293-.245.55-.435.769a1.997 1.997 0 01-.682.51c-.263.12-.562.18-.896.18-.334 0-.634-.06-.901-.18a2.041 2.041 0 01-.686-.51 2.319 2.319 0 01-.43-.77c-.1-.292-.15-.61-.15-.953zm.813-.1v.1c0 .238.028.462.084.673.056.208.139.392.25.553.115.162.257.289.427.383.17.09.367.136.593.136.223 0 .417-.046.584-.136a1.22 1.22 0 00.422-.383c.112-.16.195-.345.251-.553.058-.211.088-.435.088-.673v-.1c0-.235-.03-.456-.088-.664a1.722 1.722 0 00-.255-.559 1.21 1.21 0 00-.422-.386 1.183 1.183 0 00-.589-.14 1.2 1.2 0 00-.589.14 1.273 1.273 0 00-.422.386 1.78 1.78 0 00-.25.559 2.54 2.54 0 00-.084.663zM150.21 25h-.813v-5.256c0-.343.062-.631.185-.866a1.24 1.24 0 01.541-.536 1.77 1.77 0 01.835-.184 2.277 2.277 0 01.562.07l-.044.664a1.35 1.35 0 00-.211-.031 2.995 2.995 0 00-.228-.009.908.908 0 00-.449.105.665.665 0 00-.281.3 1.112 1.112 0 00-.097.487V25zm1.011-4.755v.624h-2.575v-.624h2.575zM153.339 25h-.813v-5.256c0-.343.062-.631.185-.866.126-.237.306-.416.54-.536.235-.123.513-.184.835-.184a2.281 2.281 0 01.563.07l-.044.664a1.368 1.368 0 00-.211-.031 2.995 2.995 0 00-.228-.009.908.908 0 00-.449.105.66.66 0 00-.281.3 1.112 1.112 0 00-.097.487V25zm1.011-4.755v.624h-2.575v-.624h2.575zm2.773 4.843c-.331 0-.631-.056-.901-.167a2.055 2.055 0 01-.69-.48 2.128 2.128 0 01-.439-.729 2.664 2.664 0 01-.154-.922v-.185c0-.387.057-.731.171-1.033.115-.304.27-.562.466-.773.196-.211.419-.37.668-.48a1.92 1.92 0 01.774-.162c.339 0 .632.059.878.176.25.117.453.281.611.492.159.208.276.454.352.739.076.28.114.588.114.922v.365h-3.551v-.663h2.738v-.062a2.042 2.042 0 00-.132-.615 1.1 1.1 0 00-.351-.492c-.161-.13-.381-.194-.659-.194a1.105 1.105 0 00-.91.462 1.722 1.722 0 00-.259.558 2.81 2.81 0 00-.093.76v.185c0 .225.031.438.093.637.064.196.156.369.276.518.124.15.271.267.444.352.176.085.375.127.598.127.287 0 .53-.058.729-.175.2-.118.374-.274.523-.47l.493.39a2.295 2.295 0 01-.391.444c-.159.14-.354.255-.585.343a2.261 2.261 0 01-.813.132zm4.773 0a2.34 2.34 0 01-.901-.167 2.036 2.036 0 01-.69-.48 2.13 2.13 0 01-.44-.729 2.688 2.688 0 01-.154-.922v-.185c0-.387.058-.731.172-1.033a2.3 2.3 0 01.466-.773c.196-.211.419-.37.668-.48.249-.108.506-.162.773-.162.34 0 .633.059.879.176.249.117.453.281.611.492.158.208.275.454.351.739.077.28.115.588.115.922v.365h-3.551v-.663h2.738v-.062a2.042 2.042 0 00-.132-.615 1.106 1.106 0 00-.352-.492c-.161-.13-.381-.194-.659-.194a1.108 1.108 0 00-.91.462 1.743 1.743 0 00-.259.558 2.85 2.85 0 00-.092.76v.185c0 .225.031.438.092.637.065.196.157.369.277.518.123.15.271.267.444.352.176.085.375.127.597.127.288 0 .531-.058.73-.175.199-.118.373-.274.523-.47l.492.39a2.262 2.262 0 01-.391.444c-.158.14-.353.255-.585.343a2.26 2.26 0 01-.812.132zm2.632-.76l1.147-1.767.773.004v.058l-1.296 1.705h-.624zm0-3.498h.624l1.296 1.71v.056l-.773.005-1.147-1.771zm1.534 3.498l1.146-1.767.774.004v.058l-1.296 1.705h-.624zm0-3.498h.624l1.296 1.71v.056l-.774.005-1.146-1.771zm7.316 2.078h-1.56l-.008-.65h1.274c.252 0 .461-.025.628-.075a.775.775 0 00.383-.224.549.549 0 00.127-.37.579.579 0 00-.29-.513 1.068 1.068 0 00-.36-.128 2.465 2.465 0 00-.497-.044h-1.041V25h-.813v-4.755h1.854c.302 0 .573.026.813.08.243.052.45.133.62.24.173.106.304.241.395.405.091.164.137.358.137.58a.986.986 0 01-.348.752 1.4 1.4 0 01-.421.246 2.176 2.176 0 01-.576.119l-.317.241zm0 2.092h-1.854l.404-.66h1.45c.226 0 .414-.027.563-.083a.706.706 0 00.334-.246.656.656 0 00.114-.386.637.637 0 00-.448-.629 1.552 1.552 0 00-.563-.088h-1.234l.008-.65h1.543l.294.246c.261.02.482.085.664.193.181.109.319.246.413.413.094.164.141.343.141.537a1.3 1.3 0 01-.128.588c-.082.17-.202.312-.36.427-.158.11-.35.196-.576.255-.226.055-.48.083-.765.083z" fill="#fff"/></g><defs><linearGradient id="paint0_linear_59_27" x1="26.172" y1="12.884" x2="26.172" y2="57.188" gradientUnits="userSpaceOnUse"><stop stop-color="#257CB0"/><stop offset=".286" stop-color="#4A93B5"/><stop offset=".767" stop-color="#78BCBB"/><stop offset="1" stop-color="#89CFBD"/></linearGradient><linearGradient id="paint1_linear_59_27" x1="15.002" y1="23.879" x2="43.343" y2="23.879" gradientUnits="userSpaceOnUse"><stop stop-color="#52C1AD"/><stop offset="1" stop-color="#DEE89A"/></linearGradient><linearGradient id="paint2_linear_59_27" x1="29.172" y1="35.036" x2="29.172" y2="57.349" gradientUnits="userSpaceOnUse"><stop stop-color="#EC413D"/><stop offset=".167" stop-color="#DA4452"/><stop offset=".575" stop-color="#B0487A"/><stop offset=".862" stop-color="#954A92"/><stop offset="1" stop-color="#8A4A9D"/></linearGradient><linearGradient id="paint3_linear_59_27" x1="45.495" y1="29.086" x2="45.495" y2="40.985" gradientUnits="userSpaceOnUse"><stop stop-color="#F58879"/><stop offset=".119" stop-color="#F69079"/><stop offset=".713" stop-color="#FCB877"/><stop offset="1" stop-color="#FEC874"/></linearGradient><linearGradient id="paint4_linear_59_27" x1="146.498" y1="65.173" x2="146.498" y2="-169.249" gradientUnits="userSpaceOnUse"><stop stop-color="#1A1A1A" stop-opacity=".1"/><stop offset=".123" stop-opacity=".151"/><stop offset=".308" stop-color="#353535" stop-opacity=".227"/><stop offset=".532" stop-opacity=".318"/><stop offset=".783" stop-color="#858585" stop-opacity=".421"/><stop offset="1" stop-color="#B3B3B3" stop-opacity=".51"/></linearGradient><clipPath id="clip0_59_27"><path fill="#fff" d="M0 0h200v65.42H0z"/></clipPath><clipPath id="clip1_59_27"><path fill="#fff" transform="translate(0 -67)" d="M0 0h200v200H0z"/></clipPath></defs></svg>