<svg width="200" height="66" fill="none" xmlns="http://www.w3.org/2000/svg"><g clip-path="url(#clip0_59_27)"><g clip-path="url(#clip1_59_27)"><path d="M200 56.87c0 4.882-3.958 8.841-8.839 8.841H8.841A8.842 8.842 0 010 56.869V9.13A8.842 8.842 0 018.841.29h182.32A8.84 8.84 0 01200 9.13v47.74z" fill="#000"/><mask id="a" style="mask-type:luminance" maskUnits="userSpaceOnUse" x="15" y="13" width="38" height="44"><path d="M43.342 29.086l-9.018-5.207L16.93 13.835c-.965-.557-1.928-.22-1.928.946V55.7c0 .874.688 1.25 1.527.767l17.796-10.276 9.018-5.206 8.669-5.004c1.017-.588.919-1.394.06-1.856-.857-.462-8.729-5.04-8.729-5.04z" fill="#fff"/></mask><g mask="url(#a)"><path d="M15.002 12.884v44.304l22.34-22.152-22.34-22.152z" fill="url(#paint0_linear_59_27)"/></g><mask id="b" style="mask-type:luminance" maskUnits="userSpaceOnUse" x="15" y="13" width="38" height="44"><path d="M43.342 29.086l-9.018-5.207L16.93 13.835c-.965-.557-1.928-.22-1.928.946V55.7c0 .874.688 1.25 1.527.767l17.796-10.276 9.018-5.206 8.669-5.004c1.017-.588.919-1.394.06-1.856-.857-.462-8.729-5.04-8.729-5.04z" fill="#fff"/></mask><g mask="url(#b)"><path d="M43.342 29.086l-9.018-5.206-19.322-11.157v.16l22.34 22.153 6-5.95z" fill="url(#paint1_linear_59_27)"/></g><mask id="c" style="mask-type:luminance" maskUnits="userSpaceOnUse" x="15" y="13" width="38" height="44"><path d="M43.342 29.086l-9.018-5.207L16.93 13.835c-.965-.557-1.928-.22-1.928.946V55.7c0 .874.688 1.25 1.527.767l17.796-10.276 9.018-5.206 8.669-5.004c1.017-.588.919-1.394.06-1.856-.857-.462-8.729-5.04-8.729-5.04z" fill="#fff"/></mask><g mask="url(#c)"><path d="M15.002 57.188v.161l19.322-11.157 9.018-5.206-6-5.95-22.34 22.152z" fill="url(#paint2_linear_59_27)"/></g><mask id="d" style="mask-type:luminance" maskUnits="userSpaceOnUse" x="15" y="13" width="38" height="44"><path d="M43.342 29.086l-9.018-5.207L16.93 13.835c-.965-.557-1.928-.22-1.928.946V55.7c0 .874.688 1.25 1.527.767l17.796-10.276 9.018-5.206 8.669-5.004c1.017-.588.919-1.394.06-1.856-.857-.462-8.729-5.04-8.729-5.04z" fill="#fff"/></mask><g mask="url(#d)"><path d="M43.342 29.086l-6 5.95 6 5.95 10.306-5.95-10.306-5.95z" fill="url(#paint3_linear_59_27)"/></g><path d="M155.649 43.697c-.839 0-1.604-.155-2.298-.465a4.337 4.337 0 01-1.746-1.428h-.141c.094.753.141 1.466.141 2.14v5.301h-1.95V30.577h1.586l.27 1.763h.094c.502-.705 1.086-1.214 1.752-1.528.666-.313 1.431-.47 2.292-.47 1.709 0 3.028.584 3.956 1.752.929 1.167 1.393 2.806 1.393 4.913 0 2.116-.472 3.76-1.416 4.933-.944 1.171-2.255 1.757-3.933 1.757zm-.282-11.698c-1.316 0-2.269.365-2.856 1.094-.588.729-.89 1.889-.906 3.48v.434c0 1.811.302 3.106.906 3.886.603.78 1.572 1.17 2.903 1.17 1.114 0 1.986-.45 2.617-1.352.63-.9.946-2.143.946-3.727 0-1.606-.316-2.84-.946-3.697-.631-.859-1.519-1.288-2.664-1.288zm10.15 11.462h-1.951V25.17h1.951v18.292zm11.219 0l-.388-1.834h-.094c-.643.808-1.283 1.355-1.922 1.64-.638.287-1.436.43-2.392.43-1.277 0-2.278-.33-3.004-.988-.725-.658-1.087-1.594-1.087-2.81 0-2.6 2.081-3.965 6.242-4.09l2.188-.071v-.8c0-1.01-.218-1.758-.653-2.239-.435-.483-1.132-.723-2.087-.723-1.074 0-2.289.329-3.644.987l-.6-1.493a9.159 9.159 0 012.087-.811 9.035 9.035 0 012.275-.294c1.536 0 2.674.34 3.415 1.023.74.681 1.111 1.775 1.111 3.28v8.793h-1.447zm-4.408-1.375c1.214 0 2.168-.333 2.862-.999.693-.666 1.041-1.599 1.041-2.798v-1.164l-1.952.082c-1.552.056-2.67.296-3.357.724-.685.427-1.028 1.091-1.028 1.992 0 .706.213 1.243.641 1.61.427.37 1.024.553 1.793.553zm6.987-11.51h2.092l2.822 7.349c.619 1.677 1.003 2.888 1.153 3.633h.093c.103-.4.316-1.084.641-2.053.325-.968 1.39-3.943 3.191-8.928h2.094l-5.538 14.671c-.548 1.45-1.189 2.48-1.922 3.088-.733.606-1.632.91-2.697.91a7.867 7.867 0 01-1.764-.2v-1.563c.43.094.913.14 1.446.14 1.34 0 2.296-.752 2.868-2.256l.717-1.834-5.196-12.956zM119.5 31.775c.619.513 1.913 1.59 1.913 3.639 0 1.993-1.132 2.938-2.264 3.826-.351.35-.755.729-.755 1.322 0 .592.404.916.702 1.158l.97.753c1.186.998 2.263 1.915 2.263 3.775 0 2.533-2.453 5.092-7.087 5.092-3.909 0-5.794-1.859-5.794-3.854 0-.97.483-2.343 2.075-3.288 1.67-1.024 3.935-1.157 5.147-1.24-.378-.484-.809-.997-.809-1.83 0-.458.136-.728.27-1.053a9.764 9.764 0 01-.863.054c-2.856 0-4.473-2.129-4.473-4.23 0-1.24.567-2.615 1.724-3.61 1.537-1.267 3.369-1.483 4.826-1.483h5.55l-1.725.97h-1.67zm-1.914 11.966c-.216-.028-.351-.028-.619-.028-.243 0-1.7.055-2.83.433-.593.214-2.318.861-2.318 2.775 0 1.913 1.86 3.29 4.744 3.29 2.585 0 3.961-1.243 3.961-2.912 0-1.377-.889-2.102-2.938-3.558zm.782-5.121c.619-.62.672-1.482.672-1.968 0-1.94-1.158-4.958-3.394-4.958-.702 0-1.456.35-1.887.89-.458.566-.594 1.293-.594 1.994 0 1.805 1.051 4.797 3.37 4.797.674 0 1.4-.323 1.833-.755zm-15.834 4.69c-4.278 0-6.565-3.337-6.565-6.35 0-3.526 2.879-6.538 6.97-6.538 3.953 0 6.429 3.093 6.429 6.35 0 3.173-2.447 6.538-6.834 6.538zm3.363-2.18c.646-.861.808-1.937.808-2.987 0-2.368-1.13-6.888-4.467-6.888a3.74 3.74 0 00-2.42.917c-1.05.94-1.24 2.124-1.24 3.283 0 2.661 1.32 7.046 4.576 7.046 1.049 0 2.125-.51 2.743-1.37zm-17.946 2.18c-4.279 0-6.566-3.337-6.566-6.35 0-3.526 2.88-6.538 6.97-6.538 3.954 0 6.43 3.093 6.43 6.35 0 3.173-2.448 6.538-6.834 6.538zm3.363-2.18c.646-.861.808-1.937.808-2.987 0-2.368-1.131-6.888-4.468-6.888a3.74 3.74 0 00-2.42.917c-1.05.94-1.238 2.124-1.238 3.283 0 2.661 1.318 7.046 4.574 7.046 1.05 0 2.126-.51 2.744-1.37zM79.33 42.888l-3.869.893c-1.57.244-2.976.458-4.463.458-7.467 0-10.306-5.491-10.306-9.792 0-5.247 4.03-10.115 10.929-10.115 1.461 0 2.866.216 4.138.567 2.028.569 2.975 1.271 3.57 1.678l-2.246 2.136-.946.216.676-1.082c-.92-.892-2.598-2.542-5.788-2.542-4.275 0-7.494 3.247-7.494 7.98 0 5.085 3.68 9.873 9.575 9.873 1.733 0 2.624-.351 3.436-.677v-4.354l-4.084.217 2.163-1.165h5.735l-.703.676c-.19.163-.216.218-.27.432-.029.244-.054 1.03-.054 1.3v3.301z" fill="#F9F9F9"/><path d="M128.05 42.108c-.894-.081-1.08-.243-1.08-1.299V25.5l.014-.174c.109-.947.379-1.109 1.219-1.596h-3.87l-2.029.974h2.068v.012l-.002-.01v16.7c0 .54-.106.622-.729 1.433h4.788l1.001-.594c-.459-.056-.92-.082-1.38-.136zm11.007.249c-.295.161-.59.35-.885.483-.888.403-1.801.511-2.608.511-.858 0-2.202-.055-3.573-1.048-1.906-1.344-2.739-3.655-2.739-5.669 0-4.163 3.385-6.204 6.151-6.204.968 0 1.963.24 2.769.752 1.342.885 1.691 2.04 1.878 2.658l-6.311 2.553-2.069.161c.67 3.412 2.98 5.398 5.533 5.398 1.37 0 2.365-.482 3.278-.938l-1.424 1.343zm-2.525-8.007c.51-.187.779-.349.779-.725 0-1.074-1.209-2.31-2.661-2.31-1.075 0-3.089.833-3.089 3.734 0 .457.054.94.082 1.425l4.889-2.124zm5.118-3.737v1.773h-.216v-1.773h-.586v-.184h1.388v.184h-.586zm2.416 1.773v-1.79h-.01l-.545 1.79h-.169l-.551-1.79h-.007v1.79h-.195v-1.957h.335l.498 1.582h.007l.491-1.582h.34v1.957h-.194z" fill="#F9F9F9"/><path d="M64.248 18.092c-.642 0-1.178-.14-1.609-.422a2.617 2.617 0 01-.967-1.155c-.213-.49-.32-1.045-.32-1.666v-.092c0-.627.112-1.184.338-1.67.226-.49.55-.875.971-1.156.422-.281.926-.422 1.512-.422.413 0 .79.065 1.134.194.342.129.627.293.852.492v1.38h-.69l-.092-1.011a1.343 1.343 0 00-.325-.185 1.934 1.934 0 00-.405-.114 2.715 2.715 0 00-.479-.04c-.419 0-.773.109-1.063.326-.29.214-.51.51-.66.887-.149.378-.223.815-.223 1.31v.101c0 .536.079.995.237 1.376.161.377.394.666.699.865.307.2.68.3 1.12.3.205 0 .406-.026.602-.076.197-.05.36-.114.488-.193l.097-.892h.677v1.389a3.03 3.03 0 01-.862.351 4.31 4.31 0 01-1.032.123zM67.236 18v-.554l.716-.123v-3.397l-.716-.123v-.558h2.298v.558l-.716.123v1.327h.457l.993-1.331c.179-.25.353-.438.523-.567a.947.947 0 01.58-.193c.135 0 .246.017.334.052.088.033.188.084.299.154l-.123.589-.22-.035a.883.883 0 00-.114-.005.531.531 0 00-.32.12 1.344 1.344 0 00-.273.28l-.919 1.191 1.499 1.828.61.11V18H70.99l-1.609-2.017h-.562v1.34l.716.123V18h-2.298zm6.992.092c-.496 0-.872-.12-1.13-.36-.258-.243-.387-.584-.387-1.024 0-.302.082-.564.246-.787.168-.225.408-.4.721-.523.314-.125.689-.188 1.125-.188h.848v-.466c0-.287-.087-.51-.263-.668-.173-.159-.418-.238-.734-.238-.2 0-.372.025-.519.075-.146.047-.28.113-.4.198l-.092.663h-.668v-1.09c.214-.172.463-.303.747-.39.284-.091.6-.137.945-.137.577 0 1.03.138 1.358.413.328.276.492.67.492 1.182v2.47c.003.059.007.117.013.176l.462.048V18h-1.244a6.043 6.043 0 01-.062-.347 3.635 3.635 0 01-.03-.308 2.112 2.112 0 01-.629.536 1.6 1.6 0 01-.8.211zm.127-.725c.287 0 .55-.069.787-.206.237-.138.407-.304.51-.497v-.861h-.88c-.398 0-.697.095-.896.285-.2.19-.299.403-.299.638 0 .208.065.367.194.479.128.108.323.162.584.162zm6.183.633v-.554l.716-.123v-1.02a3.84 3.84 0 01-.518.097 4.94 4.94 0 01-.558.031c-.384 0-.714-.067-.989-.202a1.425 1.425 0 01-.628-.598c-.147-.266-.22-.597-.22-.993v-.72l-.716-.124v-.553h2.298v.553l-.716.123v.721c0 .255.035.464.105.629a.753.753 0 00.325.36c.147.08.327.119.54.119.194 0 .379-.01.554-.031.176-.024.35-.057.523-.101v-1.688l-.716-.123v-.558h2.298v.558l-.716.123v3.397l.716.123V18h-2.298zm4.623.092c-.495 0-.871-.12-1.13-.36-.257-.243-.386-.584-.386-1.024 0-.302.082-.564.246-.787.167-.225.407-.4.72-.523.314-.125.69-.188 1.126-.188h.848v-.466c0-.287-.088-.51-.264-.668-.173-.159-.417-.238-.734-.238-.199 0-.372.025-.518.075a1.46 1.46 0 00-.4.198l-.092.663h-.668v-1.09c.214-.172.463-.303.747-.39.284-.091.599-.137.945-.137.577 0 1.03.138 1.358.413.328.276.492.67.492 1.182v2.47c.003.059.007.117.013.176l.461.048V18h-1.243a6.043 6.043 0 01-.062-.347 3.635 3.635 0 01-.03-.308 2.112 2.112 0 01-.63.536 1.6 1.6 0 01-.799.211zm.128-.725c.287 0 .549-.069.786-.206.237-.138.407-.304.51-.497v-.861h-.879c-.398 0-.697.095-.896.285-.2.19-.3.403-.3.638 0 .208.065.367.194.479.129.108.324.162.585.162zm4.346.633v-.554l.716-.123v-3.405H89.35l-.066.742h-.738v-1.415h4.5v1.415h-.743l-.066-.742h-1.02v3.405l.717.123V18h-2.298zm6.965-3.12c.563 0 1 .143 1.314.43.314.285.47.655.47 1.112 0 .46-.158.838-.474 1.134-.314.296-.75.444-1.31.444h-2.76v-.554l.717-.123v-3.397l-.717-.123v-.558h2.299v.558l-.717.123v.954H96.6zm0 2.443c.314 0 .544-.082.69-.246a.9.9 0 00.224-.624.95.95 0 00-.224-.628c-.15-.179-.38-.268-.69-.268h-1.178v1.766H96.6zm5.933.163l-1.297-1.71v-.083l1.297-1.71h.65l-1.121 1.754 1.121 1.749h-.65zm1.467 0l-1.296-1.71v-.083l1.296-1.71h.651l-1.121 1.754 1.121 1.749H104zm3.446.514l-1.494-5.774-.541-.066v-.558h2.074v.558l-.663.1.835 3.52.193.822.026.005.255-.822 1.288-4.183h.76l1.301 4.183.25.87h.027l.228-.87.827-3.524-.717-.101v-.558h2.039v.558l-.505.066L112.196 18h-.821l-1.389-4.43-.176-.646h-.026l-.172.646-1.393 4.43h-.773zm7.304 0v-.554l.716-.123v-3.397l-.716-.123v-.558h1.582v4.078l.716.123V18h-2.298zm.672-5.928v-.927h.91v.927h-.91zm2.18 5.928v-.554l.716-.123v-5.497l-.716-.123v-.558h1.582v6.178l.716.123V18h-2.298zm4.842.092a3.96 3.96 0 01-.896-.096 5.305 5.305 0 01-.888-.3l-.009-1.129h.655l.163.681c.164.068.322.118.474.15.156.03.323.044.501.044.352 0 .604-.067.756-.202a.64.64 0 00.229-.501.596.596 0 00-.233-.475c-.153-.132-.431-.243-.835-.334-.574-.132-.998-.307-1.27-.527-.27-.223-.404-.519-.404-.888 0-.258.074-.488.224-.69a1.53 1.53 0 01.624-.488c.266-.12.577-.18.931-.18.361 0 .668.041.923.123.258.082.482.192.673.33l.043 1.085h-.65l-.141-.633a1.137 1.137 0 00-.364-.175 1.734 1.734 0 00-.484-.062c-.269 0-.489.063-.659.19a.572.572 0 00-.25.474c0 .111.023.208.07.29.05.082.144.156.281.224.138.064.34.129.607.193.662.156 1.123.353 1.384.594.264.24.395.536.395.887 0 .402-.149.739-.448 1.011-.296.27-.763.404-1.402.404zm4.716 0c-.44 0-.819-.102-1.139-.307a2.054 2.054 0 01-.733-.857 2.899 2.899 0 01-.26-1.253v-.096c0-.47.087-.885.26-1.248.172-.367.417-.654.733-.862.32-.208.696-.312 1.13-.312.439 0 .817.104 1.134.312.319.208.565.494.738.857.173.364.259.78.259 1.253v.096c0 .472-.086.89-.259 1.257a2.033 2.033 0 01-.734.853c-.316.205-.693.307-1.129.307zm0-.676c.275 0 .505-.075.69-.225.187-.152.328-.358.421-.62.097-.263.146-.562.146-.896v-.096c0-.334-.049-.632-.146-.893a1.342 1.342 0 00-.421-.62 1.075 1.075 0 00-.699-.228c-.276 0-.507.077-.694.229-.188.15-.329.356-.422.62-.094.26-.141.558-.141.892v.096c0 .334.047.633.141.897.093.26.234.467.422.62.19.149.424.224.703.224zm2.79.584v-.554l.717-.123v-3.397l-.717-.123v-.558h1.49l.061.708a1.72 1.72 0 01.594-.585c.24-.14.512-.21.817-.21.513 0 .91.15 1.191.452.281.299.422.762.422 1.389v2.324l.716.123V18h-2.298v-.554l.716-.123v-2.307c0-.419-.083-.716-.25-.892-.164-.176-.416-.264-.756-.264-.249 0-.47.06-.664.18-.19.12-.343.285-.457.493v2.79l.717.123V18h-2.299zm11.07.092c-.642 0-1.178-.14-1.608-.422a2.618 2.618 0 01-.967-1.155c-.214-.49-.321-1.045-.321-1.666v-.092c0-.627.113-1.184.338-1.67.226-.49.55-.875.972-1.156.421-.281.925-.422 1.511-.422a3.2 3.2 0 011.134.194c.343.129.627.293.853.492v1.38h-.69l-.093-1.011a1.327 1.327 0 00-.325-.185 1.935 1.935 0 00-.404-.114 2.718 2.718 0 00-.479-.04c-.419 0-.774.109-1.064.326a1.98 1.98 0 00-.659.887 3.553 3.553 0 00-.224 1.31v.101c0 .536.079.995.237 1.376.162.377.394.666.699.865.308.2.681.3 1.121.3.205 0 .406-.026.602-.076.196-.05.359-.114.488-.193l.096-.892h.677v1.389c-.24.15-.527.266-.861.351a4.31 4.31 0 01-1.033.123zm4.896 0c-.44 0-.819-.102-1.139-.307a2.063 2.063 0 01-.734-.857 2.913 2.913 0 01-.259-1.253v-.096c0-.47.087-.885.259-1.248.173-.367.418-.654.734-.862.32-.208.696-.312 1.13-.312.439 0 .817.104 1.134.312.319.208.565.494.738.857.173.364.259.78.259 1.253v.096c0 .472-.086.89-.259 1.257a2.033 2.033 0 01-.734.853c-.316.205-.693.307-1.129.307zm0-.676c.275 0 .505-.075.689-.225a1.36 1.36 0 00.422-.62 2.58 2.58 0 00.145-.896v-.096c0-.334-.048-.632-.145-.893a1.336 1.336 0 00-.422-.62 1.07 1.07 0 00-.698-.228 1.07 1.07 0 00-.695.229c-.187.15-.328.356-.421.62-.094.26-.141.558-.141.892v.096c0 .334.047.633.141.897.093.26.234.467.421.62.191.149.425.224.704.224zm2.772.584v-.554l.717-.123v-3.436h-.743v-.642h.743v-.602c0-.507.132-.898.395-1.173.267-.279.638-.418 1.112-.418.1 0 .207.009.321.027.117.014.237.036.36.066l-.105.659a2.526 2.526 0 00-.466-.044c-.255 0-.444.076-.567.228-.123.15-.184.368-.184.655v.602h1.037v.642h-1.037v3.436l.817.123V18h-2.4zm3.191 0v-.554l.716-.123v-3.436h-.742v-.642h.742v-.602c0-.507.132-.898.396-1.173.266-.279.637-.418 1.112-.418.099 0 .206.009.32.027.118.014.238.036.361.066l-.106.659a2.546 2.546 0 00-.466-.044c-.254 0-.443.076-.566.228-.124.15-.185.368-.185.655v.602h1.037v.642h-1.037v3.436l.817.123V18h-2.399zm5.33.092c-.439 0-.821-.1-1.147-.298a2.034 2.034 0 01-.755-.84c-.176-.357-.264-.77-.264-1.24v-.193c0-.45.092-.854.277-1.208.187-.357.435-.639.742-.844a1.79 1.79 0 011.016-.312c.427 0 .785.088 1.072.264.29.176.508.423.655.743.146.316.219.69.219 1.12v.54h-3.085l-.013.023c.006.304.059.575.158.813.103.234.249.419.44.553.19.135.419.203.685.203.293 0 .55-.041.77-.123.222-.085.414-.201.575-.348l.339.563c-.17.164-.396.303-.677.417-.278.112-.614.167-1.007.167zm-1.243-2.944h2.193v-.114a1.45 1.45 0 00-.123-.611.936.936 0 00-.361-.426 1.053 1.053 0 00-.597-.159.88.88 0 00-.528.172 1.284 1.284 0 00-.391.457c-.102.193-.17.413-.202.659l.009.022zM162 18.092c-.44 0-.822-.1-1.147-.298a2.03 2.03 0 01-.756-.84c-.176-.357-.264-.77-.264-1.24v-.193c0-.45.092-.854.277-1.208.187-.357.435-.639.743-.844.31-.208.648-.312 1.015-.312.427 0 .785.088 1.072.264.29.176.508.423.655.743.146.316.219.69.219 1.12v.54h-3.085l-.013.023c.006.304.059.575.159.813.102.234.249.419.439.553.19.135.419.203.686.203a2.2 2.2 0 00.769-.123c.222-.085.414-.201.575-.348l.339.563c-.17.164-.396.303-.677.417-.278.112-.614.167-1.006.167zm-1.244-2.944h2.193v-.114a1.45 1.45 0 00-.123-.611.936.936 0 00-.361-.426 1.053 1.053 0 00-.597-.159.882.882 0 00-.528.172 1.284 1.284 0 00-.391.457c-.102.193-.17.413-.202.659l.009.022zm3.871 2.184l1.117-1.749-1.117-1.753h.651l1.296 1.71v.083l-1.296 1.709h-.651zm1.517 0l1.116-1.749-1.116-1.753h.65l1.296 1.71v.083l-1.296 1.709h-.65zm4.812.668v-.554l.716-.123v-3.397l-.716-.123v-.558h2.588c.627 0 1.113.11 1.459.33.346.216.518.543.518.98a.955.955 0 01-.202.597 1.248 1.248 0 01-.571.396c.296.073.527.21.694.413.167.2.251.428.251.685 0 .446-.163.783-.488 1.011-.322.229-.775.343-1.358.343h-2.891zm1.582-.668h1.309c.322 0 .566-.06.73-.18.164-.123.246-.299.246-.527 0-.226-.082-.4-.246-.523-.164-.123-.408-.185-.73-.185h-1.309v1.415zm0-2.079h1.01c.367 0 .642-.054.827-.162a.533.533 0 00.281-.492c0-.454-.371-.681-1.112-.681h-1.006v1.335z" fill="#fff"/></g></g><defs><linearGradient id="paint0_linear_59_27" x1="26.172" y1="12.884" x2="26.172" y2="57.188" gradientUnits="userSpaceOnUse"><stop stop-color="#257CB0"/><stop offset=".286" stop-color="#4A93B5"/><stop offset=".767" stop-color="#78BCBB"/><stop offset="1" stop-color="#89CFBD"/></linearGradient><linearGradient id="paint1_linear_59_27" x1="15.002" y1="23.879" x2="43.343" y2="23.879" gradientUnits="userSpaceOnUse"><stop stop-color="#52C1AD"/><stop offset="1" stop-color="#DEE89A"/></linearGradient><linearGradient id="paint2_linear_59_27" x1="29.172" y1="35.036" x2="29.172" y2="57.349" gradientUnits="userSpaceOnUse"><stop stop-color="#EC413D"/><stop offset=".167" stop-color="#DA4452"/><stop offset=".575" stop-color="#B0487A"/><stop offset=".862" stop-color="#954A92"/><stop offset="1" stop-color="#8A4A9D"/></linearGradient><linearGradient id="paint3_linear_59_27" x1="45.495" y1="29.086" x2="45.495" y2="40.985" gradientUnits="userSpaceOnUse"><stop stop-color="#F58879"/><stop offset=".119" stop-color="#F69079"/><stop offset=".713" stop-color="#FCB877"/><stop offset="1" stop-color="#FEC874"/></linearGradient><clipPath id="clip0_59_27"><path fill="#fff" d="M0 0h200v65.42H0z"/></clipPath><clipPath id="clip1_59_27"><path fill="#fff" transform="translate(0 -67)" d="M0 0h200v200H0z"/></clipPath></defs></svg>