<?xml version="1.0" standalone="no"?>
<!DOCTYPE svg PUBLIC "-//W3C//DTD SVG 20010904//EN"
 "http://www.w3.org/TR/2001/REC-SVG-20010904/DTD/svg10.dtd">
<svg version="1.0" xmlns="http://www.w3.org/2000/svg"
 width="447.000000pt" height="447.000000pt" viewBox="0 0 447.000000 447.000000"
 preserveAspectRatio="xMidYMid meet">
<metadata>
Created by potrace 1.14, written by Peter Selinger 2001-2017
</metadata>
<g transform="translate(0.000000,447.000000) scale(0.100000,-0.100000)"
fill="#000000" stroke="none">
<path d="M1956 4314 c-938 -127 -1669 -854 -1802 -1791 -22 -156 -22 -420 0
-577 85 -597 419 -1124 922 -1459 697 -463 1623 -460 2319 6 172 115 387 319
508 479 475 634 556 1481 210 2185 -312 634 -915 1066 -1616 1158 -143 18
-404 18 -541 -1z m599 -484 c575 -123 1035 -531 1220 -1083 72 -216 90 -433
47 -560 -13 -37 -43 -94 -67 -126 -45 -62 -124 -118 -150 -107 -36 13 -3 106
85 244 78 123 11 195 -115 123 l-50 -29 -22 24 c-24 27 -58 30 -113 11 -35
-12 -35 -13 -32 -63 5 -75 -24 -162 -63 -186 -16 -10 -42 -18 -56 -18 -25 0
-25 1 -16 48 19 93 -13 165 -73 165 -42 0 -77 -38 -86 -92 -5 -30 -10 -38 -24
-34 -23 6 -89 -22 -96 -42 -5 -13 -114 -100 -161 -128 -7 -5 -17 2 -26 18 -12
25 -11 28 30 69 24 24 43 49 43 55 0 7 -12 24 -26 38 -22 22 -32 25 -66 20
-49 -7 -88 -33 -107 -72 -12 -25 -12 -35 2 -79 l17 -51 -53 -55 c-29 -30 -71
-75 -92 -100 -64 -74 -85 -75 -85 -1 0 115 178 471 236 471 26 0 137 50 161
72 28 26 30 54 4 68 -49 25 -152 -2 -230 -61 -28 -22 -55 -39 -60 -39 -20 0
-75 56 -92 94 l-18 40 69 73 c106 111 145 208 103 255 -20 22 -82 24 -122 3
-71 -36 -131 -147 -131 -241 0 -68 -6 -77 -63 -92 -33 -9 -41 -8 -58 9 -16 16
-19 27 -13 52 11 52 43 109 91 160 59 64 47 77 -37 43 -74 -30 -116 -33 -166
-9 -35 17 -36 17 -50 -2 -11 -14 -13 -34 -9 -70 6 -44 3 -58 -25 -110 -41 -79
-97 -145 -121 -145 -26 0 -25 26 10 163 77 295 224 611 383 820 50 66 57 80
48 98 -31 58 -172 52 -183 -8 -2 -15 -34 -91 -70 -169 -68 -147 -181 -441
-213 -557 l-19 -67 -32 6 c-41 8 -122 -35 -160 -84 -42 -56 -72 -140 -73 -203
0 -53 -3 -59 -36 -89 -79 -69 -97 -6 -34 116 52 98 62 131 49 155 -25 48 -78
42 -147 -16 l-33 -28 -15 22 c-13 18 -25 21 -81 21 -58 0 -64 2 -58 18 11 29
34 133 45 207 20 133 -11 168 -142 167 -61 0 -99 -6 -143 -23 -56 -20 -135
-64 -135 -73 0 -3 14 -39 31 -81 54 -136 86 -295 59 -295 -24 0 -143 -86 -189
-136 -81 -88 -92 -176 -30 -228 70 -59 162 -13 224 111 26 52 54 164 55 214 0
21 8 28 50 43 28 10 54 16 57 12 4 -3 -8 -69 -26 -145 -19 -77 -36 -165 -40
-197 -6 -57 -6 -57 -59 -85 -121 -62 -225 -186 -264 -313 l-21 -70 -18 52
c-51 150 -86 413 -74 567 19 266 72 457 190 683 78 149 154 251 290 388 251
251 544 401 904 459 129 21 436 13 566 -15z m-1426 -1023 c11 -9 13 -34 8
-117 -3 -58 -8 -112 -12 -121 -3 -10 -26 -22 -49 -28 -24 -6 -50 -13 -58 -16
-13 -5 -17 7 -23 61 -4 37 -13 91 -21 121 -8 30 -14 60 -14 67 0 11 38 32 90
50 20 6 61 -3 79 -17z m1382 -117 c10 -6 19 -17 19 -25 0 -16 -98 -125 -112
-125 -7 0 -9 20 -6 52 4 42 11 57 37 80 36 32 35 32 62 18z m-699 -154 c-3
-67 -22 -115 -64 -157 -56 -55 -87 -30 -68 56 20 88 76 168 115 163 18 -3 20
-9 17 -62z m348 22 c-24 -53 -26 -140 -4 -162 23 -24 91 -20 152 9 64 29 62
29 62 10 0 -9 22 -38 50 -65 27 -28 56 -50 65 -50 22 0 19 -13 -15 -66 -55
-87 -100 -230 -125 -396 -5 -30 -18 -47 -77 -97 -71 -60 -104 -74 -114 -48 -2
7 16 72 41 144 25 72 45 142 45 154 0 35 -28 59 -69 59 -55 0 -65 -12 -67 -72
0 -29 -15 -102 -33 -163 -32 -111 -42 -208 -23 -227 16 -16 70 -12 100 8 15 9
62 46 105 82 43 35 79 63 81 61 2 -2 11 -21 19 -41 13 -31 21 -38 44 -38 47 0
96 43 163 142 35 51 74 105 86 120 l22 27 15 -22 c13 -20 11 -25 -25 -70 -39
-50 -55 -88 -43 -106 10 -17 94 -13 126 6 37 22 62 84 54 133 -6 36 -4 40 48
84 30 25 57 46 61 46 3 0 6 -17 6 -37 1 -46 22 -107 46 -134 11 -12 30 -19 54
-19 49 0 103 47 153 133 38 64 40 65 85 69 26 3 49 3 51 1 2 -1 -4 -22 -13
-46 -9 -23 -16 -55 -16 -69 0 -33 42 -68 81 -68 25 0 29 4 29 28 0 40 24 124
67 230 39 99 69 132 121 132 36 0 36 -22 3 -122 -32 -97 -40 -185 -19 -206 31
-31 121 3 226 88 34 27 64 50 66 50 6 0 -21 -150 -38 -217 -140 -535 -539
-965 -1057 -1137 -191 -64 -290 -79 -509 -80 -143 0 -219 4 -285 16 -351 66
-635 216 -885 468 -115 116 -146 166 -183 300 -29 109 -29 328 1 419 24 74 78
157 122 190 l31 22 26 -20 c36 -29 43 -26 43 13 0 19 4 38 10 41 5 3 40 9 77
12 80 6 132 -11 160 -53 28 -43 23 -133 -11 -214 -39 -91 -76 -216 -76 -257 0
-19 6 -46 14 -62 19 -35 126 -94 164 -89 26 3 28 8 47 103 39 186 131 435 156
419 6 -3 9 -67 7 -162 -3 -138 -1 -162 16 -195 10 -21 29 -45 42 -54 32 -20
84 -22 94 -3 4 8 22 74 39 145 39 169 94 281 190 390 39 44 71 85 71 91 0 14
-53 34 -90 34 -15 0 -37 -8 -49 -17 -52 -45 -191 -389 -191 -475 0 -33 -19
-19 -32 25 -8 27 -13 105 -13 225 0 201 0 202 -61 202 -41 0 -53 -16 -64 -86
-12 -72 -35 -145 -68 -209 -14 -27 -44 -95 -66 -151 -23 -55 -45 -102 -50
-105 -16 -7 -27 53 -21 106 4 28 15 81 26 120 35 126 16 227 -51 275 -43 31
-145 53 -208 46 l-55 -6 7 49 c8 64 75 334 84 343 14 14 52 -22 52 -50 0 -15
-13 -74 -30 -132 -16 -58 -30 -110 -30 -117 0 -22 31 -43 64 -43 l33 0 5 63
c3 34 16 99 29 145 21 79 25 84 66 109 60 35 72 23 54 -55 -7 -31 -16 -87 -18
-124 -5 -59 -3 -67 15 -77 24 -13 59 -2 113 35 31 21 40 23 62 13 40 -18 78
-2 134 57 l51 54 7 -29 c15 -71 66 -65 146 18 36 37 70 86 93 134 33 68 40 76
69 80 18 2 37 5 44 5 8 1 6 -12 -7 -40z m-1231 -227 c-47 -109 -159 -153 -159
-61 0 42 37 88 107 134 l68 44 3 -33 c2 -19 -7 -56 -19 -84z m1891 58 c0 -10
-58 -39 -109 -54 -38 -11 -16 12 37 40 52 26 72 31 72 14z m355 -213 c17 -25
12 -101 -8 -113 -14 -9 -67 53 -67 79 0 25 27 58 46 58 8 0 21 -11 29 -24z
m-385 -70 c0 -13 -49 -56 -64 -56 -14 0 -4 50 12 59 25 15 52 13 52 -3z m348
-66 c22 0 23 -22 2 -55 -26 -42 -66 -75 -91 -75 -26 0 -25 57 2 120 l21 50 28
-20 c16 -11 33 -20 38 -20z m-408 -204 c0 -19 -37 -63 -45 -54 -7 6 31 68 41
68 2 0 4 -6 4 -14z"/>
<path d="M1996 3745 c-330 -54 -609 -197 -846 -435 -63 -63 -121 -128 -129
-143 -13 -25 -13 -29 3 -45 16 -16 20 -14 73 48 301 347 692 530 1133 530 684
0 1256 -451 1430 -1128 9 -36 15 -43 33 -40 19 3 22 9 20 43 -5 108 -124 384
-234 540 -35 50 -113 140 -174 200 -210 212 -469 352 -763 416 -129 27 -417
35 -546 14z"/>
<path d="M2198 2270 c-66 -44 -69 -49 -56 -100 13 -55 24 -70 52 -70 64 0 127
115 100 184 -9 25 -46 19 -96 -14z"/>
<path d="M3583 1658 c-4 -7 -25 -47 -46 -88 -142 -277 -403 -530 -679 -660
-214 -100 -374 -134 -628 -135 -253 0 -413 35 -628 135 -195 92 -420 276 -548
450 -32 44 -64 80 -70 80 -6 0 -17 -7 -24 -15 -11 -13 -7 -25 25 -70 212 -309
555 -532 949 -617 146 -32 446 -32 591 0 475 103 859 395 1071 814 37 74 42
103 18 112 -21 8 -22 8 -31 -6z"/>
</g>
</svg>
